%TF.GenerationSoftware,KiCad,Pcbnew,8.0.3*%
%TF.CreationDate,2024-09-21T22:38:29+02:00*%
%TF.ProjectId,Battery_pack,42617474-6572-4795-9f70-61636b2e6b69,1.0*%
%TF.SameCoordinates,Original*%
%TF.FileFunction,Copper,L4,Bot*%
%TF.FilePolarity,Positive*%
%FSLAX46Y46*%
G04 Gerber Fmt 4.6, Leading zero omitted, Abs format (unit mm)*
G04 Created by KiCad (PCBNEW 8.0.3) date 2024-09-21 22:38:29*
%MOMM*%
%LPD*%
G01*
G04 APERTURE LIST*
G04 Aperture macros list*
%AMRoundRect*
0 Rectangle with rounded corners*
0 $1 Rounding radius*
0 $2 $3 $4 $5 $6 $7 $8 $9 X,Y pos of 4 corners*
0 Add a 4 corners polygon primitive as box body*
4,1,4,$2,$3,$4,$5,$6,$7,$8,$9,$2,$3,0*
0 Add four circle primitives for the rounded corners*
1,1,$1+$1,$2,$3*
1,1,$1+$1,$4,$5*
1,1,$1+$1,$6,$7*
1,1,$1+$1,$8,$9*
0 Add four rect primitives between the rounded corners*
20,1,$1+$1,$2,$3,$4,$5,0*
20,1,$1+$1,$4,$5,$6,$7,0*
20,1,$1+$1,$6,$7,$8,$9,0*
20,1,$1+$1,$8,$9,$2,$3,0*%
G04 Aperture macros list end*
%TA.AperFunction,EtchedComponent*%
%ADD10C,0.000000*%
%TD*%
%TA.AperFunction,ComponentPad*%
%ADD11R,1.520000X1.520000*%
%TD*%
%TA.AperFunction,ComponentPad*%
%ADD12C,1.520000*%
%TD*%
%TA.AperFunction,ComponentPad*%
%ADD13O,1.600000X0.900000*%
%TD*%
%TA.AperFunction,ComponentPad*%
%ADD14O,1.300000X0.900000*%
%TD*%
%TA.AperFunction,ComponentPad*%
%ADD15C,5.600000*%
%TD*%
%TA.AperFunction,SMDPad,CuDef*%
%ADD16RoundRect,0.140000X0.170000X-0.140000X0.170000X0.140000X-0.170000X0.140000X-0.170000X-0.140000X0*%
%TD*%
%TA.AperFunction,SMDPad,CuDef*%
%ADD17RoundRect,0.051250X-0.733750X-0.153750X0.733750X-0.153750X0.733750X0.153750X-0.733750X0.153750X0*%
%TD*%
%TA.AperFunction,SMDPad,CuDef*%
%ADD18RoundRect,0.135000X-0.135000X-0.185000X0.135000X-0.185000X0.135000X0.185000X-0.135000X0.185000X0*%
%TD*%
%TA.AperFunction,SMDPad,CuDef*%
%ADD19RoundRect,0.140000X-0.140000X-0.170000X0.140000X-0.170000X0.140000X0.170000X-0.140000X0.170000X0*%
%TD*%
%TA.AperFunction,SMDPad,CuDef*%
%ADD20RoundRect,0.135000X0.135000X0.185000X-0.135000X0.185000X-0.135000X-0.185000X0.135000X-0.185000X0*%
%TD*%
%TA.AperFunction,SMDPad,CuDef*%
%ADD21C,0.200000*%
%TD*%
%TA.AperFunction,SMDPad,CuDef*%
%ADD22RoundRect,0.225000X-0.225000X-0.250000X0.225000X-0.250000X0.225000X0.250000X-0.225000X0.250000X0*%
%TD*%
%TA.AperFunction,SMDPad,CuDef*%
%ADD23RoundRect,0.250000X0.650000X-0.325000X0.650000X0.325000X-0.650000X0.325000X-0.650000X-0.325000X0*%
%TD*%
%TA.AperFunction,SMDPad,CuDef*%
%ADD24R,0.990000X0.405000*%
%TD*%
%TA.AperFunction,SMDPad,CuDef*%
%ADD25R,0.760000X0.405000*%
%TD*%
%TA.AperFunction,SMDPad,CuDef*%
%ADD26R,1.725000X2.235000*%
%TD*%
%TA.AperFunction,SMDPad,CuDef*%
%ADD27RoundRect,0.140000X-0.170000X0.140000X-0.170000X-0.140000X0.170000X-0.140000X0.170000X0.140000X0*%
%TD*%
%TA.AperFunction,SMDPad,CuDef*%
%ADD28RoundRect,0.135000X0.185000X-0.135000X0.185000X0.135000X-0.185000X0.135000X-0.185000X-0.135000X0*%
%TD*%
%TA.AperFunction,SMDPad,CuDef*%
%ADD29RoundRect,0.140000X0.140000X0.170000X-0.140000X0.170000X-0.140000X-0.170000X0.140000X-0.170000X0*%
%TD*%
%TA.AperFunction,SMDPad,CuDef*%
%ADD30RoundRect,0.135000X-0.185000X0.135000X-0.185000X-0.135000X0.185000X-0.135000X0.185000X0.135000X0*%
%TD*%
%TA.AperFunction,SMDPad,CuDef*%
%ADD31RoundRect,0.250000X-0.650000X0.325000X-0.650000X-0.325000X0.650000X-0.325000X0.650000X0.325000X0*%
%TD*%
%TA.AperFunction,SMDPad,CuDef*%
%ADD32RoundRect,0.250000X-0.262500X-0.450000X0.262500X-0.450000X0.262500X0.450000X-0.262500X0.450000X0*%
%TD*%
%TA.AperFunction,SMDPad,CuDef*%
%ADD33RoundRect,0.250000X0.262500X0.450000X-0.262500X0.450000X-0.262500X-0.450000X0.262500X-0.450000X0*%
%TD*%
%TA.AperFunction,SMDPad,CuDef*%
%ADD34R,0.405000X0.990000*%
%TD*%
%TA.AperFunction,SMDPad,CuDef*%
%ADD35R,0.405000X0.760000*%
%TD*%
%TA.AperFunction,SMDPad,CuDef*%
%ADD36R,2.235000X1.725000*%
%TD*%
%TA.AperFunction,SMDPad,CuDef*%
%ADD37RoundRect,0.150000X0.150000X-0.650000X0.150000X0.650000X-0.150000X0.650000X-0.150000X-0.650000X0*%
%TD*%
%TA.AperFunction,HeatsinkPad*%
%ADD38R,3.200000X2.400000*%
%TD*%
%TA.AperFunction,SMDPad,CuDef*%
%ADD39RoundRect,0.112500X-0.237500X0.112500X-0.237500X-0.112500X0.237500X-0.112500X0.237500X0.112500X0*%
%TD*%
%TA.AperFunction,SMDPad,CuDef*%
%ADD40RoundRect,0.125000X0.125000X-0.125000X0.125000X0.125000X-0.125000X0.125000X-0.125000X-0.125000X0*%
%TD*%
%TA.AperFunction,SMDPad,CuDef*%
%ADD41R,1.500000X2.400000*%
%TD*%
%TA.AperFunction,SMDPad,CuDef*%
%ADD42RoundRect,0.250000X-0.325000X-0.650000X0.325000X-0.650000X0.325000X0.650000X-0.325000X0.650000X0*%
%TD*%
%TA.AperFunction,SMDPad,CuDef*%
%ADD43RoundRect,0.150000X0.650000X0.150000X-0.650000X0.150000X-0.650000X-0.150000X0.650000X-0.150000X0*%
%TD*%
%TA.AperFunction,HeatsinkPad*%
%ADD44R,2.400000X3.200000*%
%TD*%
%TA.AperFunction,SMDPad,CuDef*%
%ADD45R,2.450000X2.450000*%
%TD*%
%TA.AperFunction,SMDPad,CuDef*%
%ADD46RoundRect,0.033750X0.396250X-0.101250X0.396250X0.101250X-0.396250X0.101250X-0.396250X-0.101250X0*%
%TD*%
%TA.AperFunction,SMDPad,CuDef*%
%ADD47RoundRect,0.033750X0.101250X-0.396250X0.101250X0.396250X-0.101250X0.396250X-0.101250X-0.396250X0*%
%TD*%
%TA.AperFunction,ViaPad*%
%ADD48C,0.350000*%
%TD*%
%TA.AperFunction,ViaPad*%
%ADD49C,0.500000*%
%TD*%
%TA.AperFunction,Conductor*%
%ADD50C,0.400000*%
%TD*%
%TA.AperFunction,Conductor*%
%ADD51C,0.250000*%
%TD*%
%TA.AperFunction,Conductor*%
%ADD52C,0.200000*%
%TD*%
%TA.AperFunction,Conductor*%
%ADD53C,0.180000*%
%TD*%
%TA.AperFunction,Conductor*%
%ADD54C,0.267208*%
%TD*%
%TA.AperFunction,Conductor*%
%ADD55C,0.120000*%
%TD*%
G04 APERTURE END LIST*
D10*
%TA.AperFunction,EtchedComponent*%
%TO.C,NT501*%
G36*
X115619200Y-118840600D02*
G01*
X115419200Y-118840600D01*
X115419200Y-118240600D01*
X115619200Y-118240600D01*
X115619200Y-118840600D01*
G37*
%TD.AperFunction*%
%TA.AperFunction,EtchedComponent*%
%TO.C,NT301*%
G36*
X140110199Y-120532700D02*
G01*
X139910199Y-120532700D01*
X139910199Y-119932700D01*
X140110199Y-119932700D01*
X140110199Y-120532700D01*
G37*
%TD.AperFunction*%
%TA.AperFunction,EtchedComponent*%
%TO.C,NT302*%
G36*
X140612800Y-120532700D02*
G01*
X140412800Y-120532700D01*
X140412800Y-119932700D01*
X140612800Y-119932700D01*
X140612800Y-120532700D01*
G37*
%TD.AperFunction*%
%TA.AperFunction,EtchedComponent*%
%TO.C,NT303*%
G36*
X119632400Y-113458200D02*
G01*
X119432400Y-113458200D01*
X119432400Y-112858200D01*
X119632400Y-112858200D01*
X119632400Y-113458200D01*
G37*
%TD.AperFunction*%
%TA.AperFunction,EtchedComponent*%
%TO.C,NT502*%
G36*
X116025600Y-118840600D02*
G01*
X115825600Y-118840600D01*
X115825600Y-118240600D01*
X116025600Y-118240600D01*
X116025600Y-118840600D01*
G37*
%TD.AperFunction*%
%TA.AperFunction,EtchedComponent*%
%TO.C,NT304*%
G36*
X119124400Y-113458200D02*
G01*
X118924400Y-113458200D01*
X118924400Y-112858200D01*
X119124400Y-112858200D01*
X119124400Y-113458200D01*
G37*
%TD.AperFunction*%
%TD*%
D11*
%TO.P,J401,1,Pin_1*%
%TO.N,+12V*%
X119211181Y-103900000D03*
D12*
%TO.P,J401,2,Pin_2*%
%TO.N,GND*%
X122211180Y-103900000D03*
%TO.P,J401,3,Pin_3*%
%TO.N,+5V*%
X125211179Y-103900000D03*
%TO.P,J401,4,Pin_4*%
%TO.N,GND*%
X128211178Y-103900000D03*
%TO.P,J401,5,Pin_5*%
%TO.N,Net-(J401-Pin_5)*%
X131211177Y-103900000D03*
%TO.P,J401,6,Pin_6*%
%TO.N,Net-(J401-Pin_6)*%
X134211176Y-103900000D03*
%TD*%
D13*
%TO.P,J601,S1,SHELL_GND*%
%TO.N,SHELL_GND*%
X171600000Y-124930000D03*
%TO.P,J601,S2,SHELL_GND*%
%TO.N,SHELL_GND_0*%
X171600000Y-113090000D03*
D14*
%TO.P,J601,S3,SHELL_GND*%
%TO.N,SHELL_GND_2*%
X167280000Y-123660000D03*
%TO.P,J601,S4,SHELL_GND*%
%TO.N,SHELL_GND_1*%
X167280000Y-114360000D03*
%TD*%
D15*
%TO.P,REF\u002A\u002A,1*%
%TO.N,N/C*%
X169900000Y-99600000D03*
%TD*%
%TO.P,REF\u002A\u002A,1*%
%TO.N,N/C*%
X169900000Y-130400000D03*
%TD*%
D16*
%TO.P,C205,1*%
%TO.N,PP_5V*%
X153646101Y-115508950D03*
%TO.P,C205,2*%
%TO.N,GND*%
X153646101Y-114548950D03*
%TD*%
D17*
%TO.P,U501,1,VDD*%
%TO.N,/USB-C Controller/Battery Pack Protection/VDD*%
X120929600Y-128898600D03*
%TO.P,U501,2,AVDD*%
%TO.N,/USB-C Controller/Battery Pack Protection/AVDD*%
X120929600Y-128248600D03*
%TO.P,U501,3,VC5*%
%TO.N,/USB-C Controller/Battery Pack Protection/VC4*%
X120929600Y-127598599D03*
%TO.P,U501,4,VC4*%
X120929600Y-126948600D03*
%TO.P,U501,5,VC3*%
%TO.N,/USB-C Controller/Battery Pack Protection/VC3*%
X120929600Y-126298601D03*
%TO.P,U501,6,VC2*%
%TO.N,/USB-C Controller/Battery Pack Protection/VC2*%
X120929600Y-125648600D03*
%TO.P,U501,7,VC1*%
%TO.N,/USB-C Controller/Battery Pack Protection/VC1*%
X120929600Y-124998600D03*
%TO.P,U501,8,VC0*%
%TO.N,/USB-C Controller/Battery Pack Protection/VC0*%
X120929600Y-124348599D03*
%TO.P,U501,9,VSS*%
%TO.N,GND2*%
X120929600Y-123698600D03*
%TO.P,U501,10,SRP*%
%TO.N,/USB-C Controller/Battery Pack Protection/SR_P*%
X120929600Y-123048601D03*
%TO.P,U501,11,SRN*%
%TO.N,/USB-C Controller/Battery Pack Protection/SR_N*%
X120929600Y-122398600D03*
%TO.P,U501,12,DSG*%
%TO.N,/USB-C Controller/Battery Pack Protection/DSG*%
X120929600Y-121748600D03*
%TO.P,U501,13,CHG*%
%TO.N,/USB-C Controller/Battery Pack Protection/CHG*%
X126669600Y-121748600D03*
%TO.P,U501,14,LD*%
%TO.N,/USB-C Controller/Battery Pack Protection/LD*%
X126669600Y-122398600D03*
%TO.P,U501,15,LPWR*%
%TO.N,unconnected-(U501-LPWR-Pad15)*%
X126669600Y-123048601D03*
%TO.P,U501,16,CBI*%
%TO.N,GND2*%
X126669600Y-123698600D03*
%TO.P,U501,17,OCDP*%
%TO.N,/USB-C Controller/Battery Pack Protection/OCDP*%
X126669600Y-124348599D03*
%TO.P,U501,18,TS*%
%TO.N,/USB-C Controller/Battery Pack Protection/TS*%
X126669600Y-124998600D03*
%TO.P,U501,19,VTB*%
%TO.N,unconnected-(U501-VTB-Pad19)*%
X126669600Y-125648600D03*
%TO.P,U501,20,CCFG*%
%TO.N,/USB-C Controller/Battery Pack Protection/AVDD*%
X126669600Y-126298601D03*
%TO.P,U501,21,CBO*%
%TO.N,unconnected-(U501-CBO-Pad21)*%
X126669600Y-126948600D03*
%TO.P,U501,22,PRES*%
%TO.N,/USB-C Controller/Battery Pack Protection/PRES*%
X126669600Y-127598599D03*
%TO.P,U501,23,CTRC*%
%TO.N,GND2*%
X126669600Y-128248600D03*
%TO.P,U501,24,CTRD*%
X126669600Y-128898600D03*
%TD*%
D18*
%TO.P,R305,1*%
%TO.N,/USB-C Controller/Battery Charger/U1BATDRV*%
X106693401Y-112899399D03*
%TO.P,R305,2*%
%TO.N,/USB-C Controller/Battery Charger/U1BATGATE*%
X107713399Y-112899399D03*
%TD*%
%TO.P,R505,1*%
%TO.N,/USB-C Controller/Battery Pack Protection/B2-B3*%
X115162201Y-127970200D03*
%TO.P,R505,2*%
%TO.N,/USB-C Controller/Battery Pack Protection/VC2*%
X116182199Y-127970200D03*
%TD*%
D19*
%TO.P,C510,1*%
%TO.N,GND2*%
X117172800Y-125323600D03*
%TO.P,C510,2*%
%TO.N,/USB-C Controller/Battery Pack Protection/VC0*%
X118132800Y-125323600D03*
%TD*%
D20*
%TO.P,R307,1*%
%TO.N,Net-(Q304-G)*%
X146108698Y-119945101D03*
%TO.P,R307,2*%
%TO.N,GND*%
X145088700Y-119945101D03*
%TD*%
D19*
%TO.P,C311,2*%
%TO.N,GND*%
X136217601Y-117449600D03*
%TO.P,C311,1*%
%TO.N,/USB-C Controller/Battery Charger/U1VREF*%
X135257601Y-117449600D03*
%TD*%
%TO.P,C201,1*%
%TO.N,LDO_1V8*%
X151438901Y-111726950D03*
%TO.P,C201,2*%
%TO.N,GND*%
X152398901Y-111726950D03*
%TD*%
D21*
%TO.P,NT501,1,1*%
%TO.N,GND2*%
X115519200Y-118240600D03*
%TO.P,NT501,2,2*%
%TO.N,/USB-C Controller/Battery Pack Protection/NPACK_P*%
X115519200Y-118840600D03*
%TD*%
D22*
%TO.P,C209,1*%
%TO.N,VBUS2*%
X160667400Y-113403350D03*
%TO.P,C209,2*%
%TO.N,GND*%
X162217400Y-113403350D03*
%TD*%
D19*
%TO.P,C305,2*%
%TO.N,/USB-C Controller/Battery Charger/U1AC_N*%
X140761601Y-117876801D03*
%TO.P,C305,1*%
%TO.N,/USB-C Controller/Battery Charger/U1AC_P*%
X139801601Y-117876801D03*
%TD*%
D23*
%TO.P,C402,1*%
%TO.N,+3V3*%
X158076800Y-101967000D03*
%TO.P,C402,2*%
%TO.N,GND*%
X158076800Y-99016998D03*
%TD*%
D24*
%TO.P,Q502,1*%
%TO.N,GND*%
X126611700Y-116002400D03*
%TO.P,Q502,2*%
X126611700Y-116662400D03*
%TO.P,Q502,3*%
X126611700Y-117322400D03*
%TO.P,Q502,4*%
%TO.N,/USB-C Controller/Battery Pack Protection/CHR_G*%
X126611700Y-117982400D03*
D25*
%TO.P,Q502,5*%
%TO.N,/USB-C Controller/Battery Pack Protection/S2SP*%
X123626700Y-117982400D03*
%TO.P,Q502,6*%
X123626700Y-117322400D03*
%TO.P,Q502,7*%
X123626700Y-116662400D03*
%TO.P,Q502,8*%
X123626700Y-116002400D03*
D26*
%TO.P,Q502,9*%
X124619200Y-116992400D03*
%TD*%
D27*
%TO.P,C303,1*%
%TO.N,/USB-C Controller/Battery Charger/GATE3*%
X144232599Y-121141501D03*
%TO.P,C303,2*%
%TO.N,/USB-C Controller/Battery Charger/S2S3*%
X144232599Y-122101501D03*
%TD*%
D21*
%TO.P,NT301,1,1*%
%TO.N,/USB-C Controller/Battery Charger/U1AC_P*%
X140010199Y-119932700D03*
%TO.P,NT301,2,2*%
%TO.N,/USB-C Controller/Battery Charger/U1ACP*%
X140010199Y-120532700D03*
%TD*%
D18*
%TO.P,R502,1*%
%TO.N,/USB-C Controller/Battery Charger/VBAT*%
X115162201Y-130103800D03*
%TO.P,R502,2*%
%TO.N,/USB-C Controller/Battery Pack Protection/VC4*%
X116182199Y-130103800D03*
%TD*%
%TO.P,R511,1*%
%TO.N,GND2*%
X115159601Y-125323600D03*
%TO.P,R511,2*%
%TO.N,/USB-C Controller/Battery Pack Protection/VC0*%
X116179599Y-125323600D03*
%TD*%
D27*
%TO.P,C313,2*%
%TO.N,/USB-C Controller/Battery Charger/U1SRP_N*%
X133096000Y-110563600D03*
%TO.P,C313,1*%
%TO.N,/USB-C Controller/Battery Charger/U1SRP_P*%
X133096000Y-109603600D03*
%TD*%
D21*
%TO.P,NT302,1,1*%
%TO.N,/USB-C Controller/Battery Charger/U1AC_N*%
X140512800Y-119932700D03*
%TO.P,NT302,2,2*%
%TO.N,VSYS*%
X140512800Y-120532700D03*
%TD*%
D28*
%TO.P,R313,2*%
%TO.N,GND*%
X140258800Y-107643200D03*
%TO.P,R313,1*%
%TO.N,/USB-C Controller/Battery Charger/U1ISET2*%
X140258800Y-108663198D03*
%TD*%
D16*
%TO.P,C304,1*%
%TO.N,/USB-C Controller/Battery Charger/U1BATGATE*%
X107762200Y-111753799D03*
%TO.P,C304,2*%
%TO.N,VSYS*%
X107762200Y-110793799D03*
%TD*%
%TO.P,C302,2*%
%TO.N,/USB-C Controller/Battery Charger/U3VCC*%
X143052801Y-115496400D03*
%TO.P,C302,1*%
%TO.N,GND*%
X143052801Y-116456400D03*
%TD*%
D18*
%TO.P,R319,2*%
%TO.N,GND*%
X131066000Y-112979199D03*
%TO.P,R319,1*%
%TO.N,/USB-C Controller/Battery Charger/U1VFB*%
X130046002Y-112979199D03*
%TD*%
%TO.P,R310,2*%
%TO.N,/USB-C Controller/Battery Charger/U1ISET1*%
X132111998Y-113995200D03*
%TO.P,R310,1*%
%TO.N,PP_HV*%
X131092000Y-113995200D03*
%TD*%
D29*
%TO.P,C308,2*%
%TO.N,/USB-C Controller/Battery Charger/U1REGN*%
X141963201Y-111353600D03*
%TO.P,C308,1*%
%TO.N,GND*%
X142923201Y-111353600D03*
%TD*%
D19*
%TO.P,C315,2*%
%TO.N,/USB-C Controller/Battery Charger/U1TTC*%
X132102800Y-115163600D03*
%TO.P,C315,1*%
%TO.N,GND*%
X131142800Y-115163600D03*
%TD*%
D20*
%TO.P,R514,1*%
%TO.N,/USB-C Controller/Battery Pack Protection/DSG_G*%
X120042399Y-119430800D03*
%TO.P,R514,2*%
%TO.N,Net-(NT502-Pad1)*%
X119022401Y-119430800D03*
%TD*%
D16*
%TO.P,C509,1*%
%TO.N,/USB-C Controller/Battery Pack Protection/SR_N*%
X118059200Y-122247600D03*
%TO.P,C509,2*%
%TO.N,GND2*%
X118059200Y-121287600D03*
%TD*%
D21*
%TO.P,NT303,1,1*%
%TO.N,/USB-C Controller/Battery Charger/U1SRP_P*%
X119532400Y-113458200D03*
%TO.P,NT303,2,2*%
%TO.N,/USB-C Controller/Battery Charger/SW_BAT_R*%
X119532400Y-112858200D03*
%TD*%
D30*
%TO.P,R309,2*%
%TO.N,/USB-C Controller/Battery Charger/U1ISET2*%
X139192000Y-108663199D03*
%TO.P,R309,1*%
%TO.N,PP_HV*%
X139192000Y-107643201D03*
%TD*%
D28*
%TO.P,R516,1*%
%TO.N,/USB-C Controller/Battery Pack Protection/LD*%
X129515200Y-122407599D03*
%TO.P,R516,2*%
%TO.N,GND*%
X129515200Y-121387601D03*
%TD*%
D29*
%TO.P,C314,2*%
%TO.N,/USB-C Controller/Battery Charger/VBAT*%
X130076000Y-111048800D03*
%TO.P,C314,1*%
%TO.N,/USB-C Controller/Battery Charger/U1VFB*%
X131036000Y-111048800D03*
%TD*%
D16*
%TO.P,C312,2*%
%TO.N,/USB-C Controller/Battery Charger/U1SRP_N*%
X132080000Y-110670400D03*
%TO.P,C312,1*%
%TO.N,GND*%
X132080000Y-111630400D03*
%TD*%
D18*
%TO.P,R509,1*%
%TO.N,/USB-C Controller/Battery Pack Protection/DSG*%
X120952801Y-119430800D03*
%TO.P,R509,2*%
%TO.N,/USB-C Controller/Battery Pack Protection/DSG_G*%
X121972799Y-119430800D03*
%TD*%
%TO.P,R508,1*%
%TO.N,/USB-C Controller/Battery Pack Protection/B3-B4*%
X115162201Y-126903400D03*
%TO.P,R508,2*%
%TO.N,/USB-C Controller/Battery Pack Protection/VC1*%
X116182199Y-126903400D03*
%TD*%
D27*
%TO.P,C508,1*%
%TO.N,/USB-C Controller/Battery Pack Protection/SR_P*%
X118059200Y-123206800D03*
%TO.P,C508,2*%
%TO.N,GND2*%
X118059200Y-124166800D03*
%TD*%
D31*
%TO.P,C310,1*%
%TO.N,GND*%
X116230402Y-109646400D03*
%TO.P,C310,2*%
%TO.N,/USB-C Controller/Battery Charger/VBAT*%
X116230402Y-112596402D03*
%TD*%
D19*
%TO.P,C503,1*%
%TO.N,/USB-C Controller/Battery Pack Protection/AVDD*%
X121923200Y-131196000D03*
%TO.P,C503,2*%
%TO.N,GND2*%
X122883200Y-131196000D03*
%TD*%
D20*
%TO.P,R510,1*%
%TO.N,/USB-C Controller/Battery Pack Protection/CHG*%
X125526800Y-119430800D03*
%TO.P,R510,2*%
%TO.N,/USB-C Controller/Battery Pack Protection/CHR_G*%
X124506802Y-119430800D03*
%TD*%
D24*
%TO.P,Q306,1*%
%TO.N,GND*%
X130821302Y-106829401D03*
%TO.P,Q306,2*%
X130821302Y-107489401D03*
%TO.P,Q306,3*%
X130821302Y-108149401D03*
%TO.P,Q306,4*%
%TO.N,/USB-C Controller/Battery Charger/U1LODRV*%
X130821302Y-108809401D03*
D25*
%TO.P,Q306,5*%
%TO.N,/USB-C Controller/Battery Charger/SW_BAT*%
X127836302Y-108809401D03*
%TO.P,Q306,6*%
X127836302Y-108149401D03*
%TO.P,Q306,7*%
X127836302Y-107489401D03*
%TO.P,Q306,8*%
X127836302Y-106829401D03*
D26*
%TO.P,Q306,9*%
X128828802Y-107819401D03*
%TD*%
D31*
%TO.P,C401,1*%
%TO.N,VSYS*%
X149542399Y-99016999D03*
%TO.P,C401,2*%
%TO.N,GND*%
X149542399Y-101967001D03*
%TD*%
D20*
%TO.P,R314,2*%
%TO.N,GND*%
X132179602Y-112928400D03*
%TO.P,R314,1*%
%TO.N,/USB-C Controller/Battery Charger/U1ISET1*%
X133199600Y-112928400D03*
%TD*%
D30*
%TO.P,R308,2*%
%TO.N,/USB-C Controller/Battery Charger/U1ACSET*%
X141325600Y-108661199D03*
%TO.P,R308,1*%
%TO.N,PP_HV*%
X141325600Y-107641201D03*
%TD*%
D20*
%TO.P,R301,2*%
%TO.N,/USB-C Controller/Battery Charger/U3VCC*%
X141984002Y-114452400D03*
%TO.P,R301,1*%
%TO.N,/USB-C Controller/Battery Charger/S2S3*%
X143004000Y-114452400D03*
%TD*%
D32*
%TO.P,R517,1*%
%TO.N,GND2*%
X114809900Y-117576400D03*
%TO.P,R517,2*%
%TO.N,Net-(NT502-Pad1)*%
X116634900Y-117576400D03*
%TD*%
D18*
%TO.P,R507,1*%
%TO.N,/USB-C Controller/Battery Pack Protection/TS*%
X129462401Y-125404800D03*
%TO.P,R507,2*%
%TO.N,GND2*%
X130482399Y-125404800D03*
%TD*%
D20*
%TO.P,R513,1*%
%TO.N,/USB-C Controller/Battery Pack Protection/SR_N*%
X115978399Y-122188199D03*
%TO.P,R513,2*%
%TO.N,/USB-C Controller/Battery Pack Protection/NPACK_N*%
X114958401Y-122188199D03*
%TD*%
D30*
%TO.P,R404,1*%
%TO.N,/Power/U2FB*%
X147777200Y-105112001D03*
%TO.P,R404,2*%
%TO.N,GND*%
X147777200Y-106131999D03*
%TD*%
D19*
%TO.P,C208,1*%
%TO.N,+3V3*%
X159973301Y-112133350D03*
%TO.P,C208,2*%
%TO.N,GND*%
X160933301Y-112133350D03*
%TD*%
D31*
%TO.P,C309,1*%
%TO.N,GND*%
X113893604Y-109646400D03*
%TO.P,C309,2*%
%TO.N,/USB-C Controller/Battery Charger/VBAT*%
X113893604Y-112596402D03*
%TD*%
D21*
%TO.P,NT502,1,1*%
%TO.N,Net-(NT502-Pad1)*%
X115925600Y-118240600D03*
%TO.P,NT502,2,2*%
%TO.N,/USB-C Controller/Battery Pack Protection/NPACK_N*%
X115925600Y-118840600D03*
%TD*%
D23*
%TO.P,C404,1*%
%TO.N,PP_5V*%
X145084800Y-100484201D03*
%TO.P,C404,2*%
%TO.N,GND*%
X145084800Y-97534199D03*
%TD*%
D18*
%TO.P,R320,2*%
%TO.N,/USB-C Controller/Battery Charger/U1TS*%
X134238400Y-118516400D03*
%TO.P,R320,1*%
%TO.N,/USB-C Controller/Battery Charger/U1NTC*%
X133218402Y-118516400D03*
%TD*%
D30*
%TO.P,R304,1*%
%TO.N,VSYS*%
X106695401Y-110763800D03*
%TO.P,R304,2*%
%TO.N,/USB-C Controller/Battery Charger/U1BATGATE*%
X106695401Y-111783798D03*
%TD*%
D29*
%TO.P,C505,1*%
%TO.N,/USB-C Controller/Battery Pack Protection/VC2*%
X118133400Y-127970200D03*
%TO.P,C505,2*%
%TO.N,/USB-C Controller/Battery Pack Protection/VC1*%
X117173400Y-127970200D03*
%TD*%
D33*
%TO.P,R311,1*%
%TO.N,/USB-C Controller/Battery Charger/SW_BAT_R*%
X120190902Y-112493001D03*
%TO.P,R311,2*%
%TO.N,/USB-C Controller/Battery Charger/VBAT*%
X118365902Y-112493001D03*
%TD*%
D28*
%TO.P,R303,1*%
%TO.N,/USB-C Controller/Battery Charger/S2S3*%
X143154400Y-122118800D03*
%TO.P,R303,2*%
%TO.N,/USB-C Controller/Battery Charger/GATE3*%
X143154400Y-121098802D03*
%TD*%
D30*
%TO.P,R503,1*%
%TO.N,/USB-C Controller/Battery Pack Protection/PRES*%
X129515200Y-127587201D03*
%TO.P,R503,2*%
%TO.N,/USB-C Controller/Battery Pack Protection/VDD*%
X129515200Y-128607199D03*
%TD*%
D29*
%TO.P,C307,2*%
%TO.N,/USB-C Controller/Battery Charger/U1BTST*%
X141963200Y-113030000D03*
%TO.P,C307,1*%
%TO.N,/USB-C Controller/Battery Charger/SW_BAT*%
X142923200Y-113030000D03*
%TD*%
D27*
%TO.P,C206,1*%
%TO.N,PP_5V*%
X153646101Y-108300550D03*
%TO.P,C206,2*%
%TO.N,GND*%
X153646101Y-109260550D03*
%TD*%
D34*
%TO.P,Q303,1*%
%TO.N,/USB-C Controller/Battery Charger/VBAT*%
X111747401Y-112657999D03*
%TO.P,Q303,2*%
X111087401Y-112657999D03*
%TO.P,Q303,3*%
X110427401Y-112657999D03*
%TO.P,Q303,4*%
%TO.N,/USB-C Controller/Battery Charger/U1BATGATE*%
X109767401Y-112657999D03*
D35*
%TO.P,Q303,5*%
%TO.N,VSYS*%
X109767401Y-109672999D03*
%TO.P,Q303,6*%
X110427401Y-109672999D03*
%TO.P,Q303,7*%
X111087401Y-109672999D03*
%TO.P,Q303,8*%
X111747401Y-109672999D03*
D36*
%TO.P,Q303,9*%
X110757401Y-110665499D03*
%TD*%
D32*
%TO.P,R302,1*%
%TO.N,/USB-C Controller/Battery Charger/U1ACP*%
X139346299Y-121275300D03*
%TO.P,R302,2*%
%TO.N,VSYS*%
X141171299Y-121275300D03*
%TD*%
D20*
%TO.P,R318,2*%
%TO.N,/USB-C Controller/Battery Charger/U1NTC*%
X133218402Y-119583200D03*
%TO.P,R318,1*%
%TO.N,/USB-C Controller/Battery Charger/VREF*%
X134238400Y-119583200D03*
%TD*%
D23*
%TO.P,C403,1*%
%TO.N,VBUS2*%
X138938000Y-100484201D03*
%TO.P,C403,2*%
%TO.N,GND*%
X138938000Y-97534199D03*
%TD*%
D37*
%TO.P,U401,1,VO*%
%TO.N,+3V3*%
X155714598Y-103192800D03*
%TO.P,U401,2,FB*%
%TO.N,/Power/U1FB*%
X154444599Y-103192800D03*
%TO.P,U401,3,GND*%
%TO.N,GND*%
X153174599Y-103192800D03*
%TO.P,U401,4,NC*%
%TO.N,unconnected-(U401-NC-Pad4)*%
X151904600Y-103192800D03*
%TO.P,U401,5,EN*%
%TO.N,VSYS*%
X151904600Y-97892800D03*
%TO.P,U401,6,NC*%
%TO.N,unconnected-(U401-NC-Pad6)*%
X153174599Y-97892800D03*
%TO.P,U401,7,NC*%
%TO.N,unconnected-(U401-NC-Pad7)*%
X154444599Y-97892800D03*
%TO.P,U401,8,VCC*%
%TO.N,VSYS*%
X155714598Y-97892800D03*
D38*
%TO.P,U401,9,GND*%
%TO.N,GND*%
X153809599Y-100542800D03*
%TD*%
D18*
%TO.P,R306,1*%
%TO.N,Net-(Q304-G)*%
X147120700Y-119945101D03*
%TO.P,R306,2*%
%TO.N,IC_VIN_EN*%
X148140698Y-119945101D03*
%TD*%
D39*
%TO.P,Q304,1,G*%
%TO.N,Net-(Q304-G)*%
X147868699Y-121378801D03*
%TO.P,Q304,2,S*%
%TO.N,GND*%
X147868699Y-122678801D03*
%TO.P,Q304,3,D*%
%TO.N,/USB-C Controller/Battery Charger/GATE3*%
X145868699Y-122028801D03*
%TD*%
D22*
%TO.P,C203,1*%
%TO.N,PP_HV*%
X158560700Y-116451350D03*
%TO.P,C203,2*%
%TO.N,GND*%
X160110700Y-116451350D03*
%TD*%
D16*
%TO.P,C318,2*%
%TO.N,/USB-C Controller/Battery Charger/U3VCC*%
X141986001Y-115496400D03*
%TO.P,C318,1*%
%TO.N,GND*%
X141986001Y-116456400D03*
%TD*%
D20*
%TO.P,R402,1*%
%TO.N,/Power/U1FB*%
X152996800Y-105572000D03*
%TO.P,R402,2*%
%TO.N,GND*%
X151976802Y-105572000D03*
%TD*%
D24*
%TO.P,Q301,1*%
%TO.N,/USB-C Controller/Battery Charger/S2S3*%
X144920199Y-126325401D03*
%TO.P,Q301,2*%
X144920199Y-125665401D03*
%TO.P,Q301,3*%
X144920199Y-125005401D03*
%TO.P,Q301,4*%
%TO.N,/USB-C Controller/Battery Charger/GATE3*%
X144920199Y-124345401D03*
D25*
%TO.P,Q301,5*%
%TO.N,PP_HV*%
X147905199Y-124345401D03*
%TO.P,Q301,6*%
X147905199Y-125005401D03*
%TO.P,Q301,7*%
X147905199Y-125665401D03*
%TO.P,Q301,8*%
X147905199Y-126325401D03*
D26*
%TO.P,Q301,9*%
X146912699Y-125335401D03*
%TD*%
D40*
%TO.P,D301,2,A*%
%TO.N,/USB-C Controller/Battery Charger/U1REGN*%
X144627600Y-111117201D03*
%TO.P,D301,1,K*%
%TO.N,/USB-C Controller/Battery Charger/U1BTST*%
X144627600Y-113317199D03*
%TD*%
D29*
%TO.P,C317,2*%
%TO.N,/USB-C Controller/Battery Charger/U1AC_N*%
X140789599Y-118943601D03*
%TO.P,C317,1*%
%TO.N,GND*%
X141749599Y-118943601D03*
%TD*%
D19*
%TO.P,C306,2*%
%TO.N,/USB-C Controller/Battery Charger/U1AC_P*%
X139773599Y-118943601D03*
%TO.P,C306,1*%
%TO.N,GND*%
X138813599Y-118943601D03*
%TD*%
D21*
%TO.P,NT304,1,1*%
%TO.N,/USB-C Controller/Battery Charger/U1SRP_N*%
X119024400Y-113458200D03*
%TO.P,NT304,2,2*%
%TO.N,/USB-C Controller/Battery Charger/VBAT*%
X119024400Y-112858200D03*
%TD*%
D41*
%TO.P,L301,1,1*%
%TO.N,/USB-C Controller/Battery Charger/SW_BAT*%
X126310003Y-112035801D03*
%TO.P,L301,2,2*%
%TO.N,/USB-C Controller/Battery Charger/SW_BAT_R*%
X122610001Y-112035801D03*
%TD*%
D20*
%TO.P,R401,1*%
%TO.N,+3V3*%
X154986800Y-105572000D03*
%TO.P,R401,2*%
%TO.N,/Power/U1FB*%
X153966802Y-105572000D03*
%TD*%
D24*
%TO.P,Q501,1*%
%TO.N,Net-(NT502-Pad1)*%
X118833400Y-117982400D03*
%TO.P,Q501,2*%
X118833400Y-117322400D03*
%TO.P,Q501,3*%
X118833400Y-116662400D03*
%TO.P,Q501,4*%
%TO.N,/USB-C Controller/Battery Pack Protection/DSG_G*%
X118833400Y-116002400D03*
D25*
%TO.P,Q501,5*%
%TO.N,/USB-C Controller/Battery Pack Protection/S2SP*%
X121818400Y-116002400D03*
%TO.P,Q501,6*%
X121818400Y-116662400D03*
%TO.P,Q501,7*%
X121818400Y-117322400D03*
%TO.P,Q501,8*%
X121818400Y-117982400D03*
D26*
%TO.P,Q501,9*%
X120825900Y-116992400D03*
%TD*%
D18*
%TO.P,R501,1*%
%TO.N,/USB-C Controller/Battery Pack Protection/VDD*%
X123925201Y-131196000D03*
%TO.P,R501,2*%
%TO.N,/USB-C Controller/Battery Charger/VBAT*%
X124945199Y-131196000D03*
%TD*%
D30*
%TO.P,R403,1*%
%TO.N,PP_5V*%
X147777200Y-103122001D03*
%TO.P,R403,2*%
%TO.N,/Power/U2FB*%
X147777200Y-104141999D03*
%TD*%
D42*
%TO.P,C301,1*%
%TO.N,GND*%
X114145799Y-107137200D03*
%TO.P,C301,2*%
%TO.N,VSYS*%
X117095801Y-107137200D03*
%TD*%
D43*
%TO.P,U402,1,VO*%
%TO.N,PP_5V*%
X145347200Y-102438201D03*
%TO.P,U402,2,FB*%
%TO.N,/Power/U2FB*%
X145347200Y-103708200D03*
%TO.P,U402,3,GND*%
%TO.N,GND*%
X145347200Y-104978200D03*
%TO.P,U402,4,NC*%
%TO.N,unconnected-(U402-NC-Pad4)*%
X145347200Y-106248199D03*
%TO.P,U402,5,EN*%
%TO.N,VBUS2*%
X140047200Y-106248199D03*
%TO.P,U402,6,NC*%
%TO.N,unconnected-(U402-NC-Pad6)*%
X140047200Y-104978200D03*
%TO.P,U402,7,NC*%
%TO.N,unconnected-(U402-NC-Pad7)*%
X140047200Y-103708200D03*
%TO.P,U402,8,VCC*%
%TO.N,VBUS2*%
X140047200Y-102438201D03*
D44*
%TO.P,U402,9,GND*%
%TO.N,GND*%
X142697200Y-104343200D03*
%TD*%
D24*
%TO.P,Q305,1*%
%TO.N,/USB-C Controller/Battery Charger/SW_BAT*%
X125863103Y-106829400D03*
%TO.P,Q305,2*%
X125863103Y-107489400D03*
%TO.P,Q305,3*%
X125863103Y-108149400D03*
%TO.P,Q305,4*%
%TO.N,/USB-C Controller/Battery Charger/U1HIDRV*%
X125863103Y-108809400D03*
D25*
%TO.P,Q305,5*%
%TO.N,VSYS*%
X122878103Y-108809400D03*
%TO.P,Q305,6*%
X122878103Y-108149400D03*
%TO.P,Q305,7*%
X122878103Y-107489400D03*
%TO.P,Q305,8*%
X122878103Y-106829400D03*
D26*
%TO.P,Q305,9*%
X123870603Y-107819400D03*
%TD*%
D29*
%TO.P,C506,1*%
%TO.N,/USB-C Controller/Battery Pack Protection/VC1*%
X118133400Y-126903400D03*
%TO.P,C506,2*%
%TO.N,GND2*%
X117173400Y-126903400D03*
%TD*%
D18*
%TO.P,R504,1*%
%TO.N,/USB-C Controller/Battery Pack Protection/B1-B2*%
X115162201Y-129037000D03*
%TO.P,R504,2*%
%TO.N,/USB-C Controller/Battery Pack Protection/VC3*%
X116182199Y-129037000D03*
%TD*%
%TO.P,R316,2*%
%TO.N,/USB-C Controller/Battery Charger/U1VFB*%
X131065999Y-112014000D03*
%TO.P,R316,1*%
%TO.N,/USB-C Controller/Battery Charger/VBAT*%
X130046001Y-112014000D03*
%TD*%
D22*
%TO.P,C204,1*%
%TO.N,PP_HV*%
X158560701Y-114927350D03*
%TO.P,C204,2*%
%TO.N,GND*%
X160110701Y-114927350D03*
%TD*%
D20*
%TO.P,R506,1*%
%TO.N,GND2*%
X130482399Y-124337999D03*
%TO.P,R506,2*%
%TO.N,/USB-C Controller/Battery Pack Protection/OCDP*%
X129462401Y-124337999D03*
%TD*%
D28*
%TO.P,R321,2*%
%TO.N,GND*%
X132153601Y-118565200D03*
%TO.P,R321,1*%
%TO.N,/USB-C Controller/Battery Charger/U1NTC*%
X132153601Y-119585198D03*
%TD*%
%TO.P,R312,2*%
%TO.N,GND*%
X142392401Y-107643201D03*
%TO.P,R312,1*%
%TO.N,/USB-C Controller/Battery Charger/U1ACSET*%
X142392401Y-108663199D03*
%TD*%
D27*
%TO.P,C319,2*%
%TO.N,/USB-C Controller/Battery Charger/U1SRP_P*%
X132080000Y-109598400D03*
%TO.P,C319,1*%
%TO.N,GND*%
X132080000Y-108638400D03*
%TD*%
D18*
%TO.P,R515,1*%
%TO.N,/USB-C Controller/Battery Pack Protection/CHR_G*%
X126439201Y-119430800D03*
%TO.P,R515,2*%
%TO.N,GND*%
X127459199Y-119430800D03*
%TD*%
D19*
%TO.P,C202,1*%
%TO.N,LDO_3V3*%
X159973301Y-111117350D03*
%TO.P,C202,2*%
%TO.N,GND*%
X160933301Y-111117350D03*
%TD*%
D29*
%TO.P,C501,1*%
%TO.N,/USB-C Controller/Battery Pack Protection/VDD*%
X120902000Y-131196000D03*
%TO.P,C501,2*%
%TO.N,/USB-C Controller/Battery Pack Protection/AVDD*%
X119942000Y-131196000D03*
%TD*%
%TO.P,C502,1*%
%TO.N,/USB-C Controller/Battery Pack Protection/VC4*%
X118133400Y-130103800D03*
%TO.P,C502,2*%
%TO.N,/USB-C Controller/Battery Pack Protection/VC3*%
X117173400Y-130103800D03*
%TD*%
D24*
%TO.P,Q302,1*%
%TO.N,/USB-C Controller/Battery Charger/S2S3*%
X143020498Y-124339901D03*
%TO.P,Q302,2*%
X143020498Y-124999901D03*
%TO.P,Q302,3*%
X143020498Y-125659901D03*
%TO.P,Q302,4*%
%TO.N,/USB-C Controller/Battery Charger/GATE3*%
X143020498Y-126319901D03*
D25*
%TO.P,Q302,5*%
%TO.N,/USB-C Controller/Battery Charger/U1ACP*%
X140035498Y-126319901D03*
%TO.P,Q302,6*%
X140035498Y-125659901D03*
%TO.P,Q302,7*%
X140035498Y-124999901D03*
%TO.P,Q302,8*%
X140035498Y-124339901D03*
D26*
%TO.P,Q302,9*%
X141027998Y-125329901D03*
%TD*%
D20*
%TO.P,R512,1*%
%TO.N,/USB-C Controller/Battery Pack Protection/SR_P*%
X115978399Y-123254999D03*
%TO.P,R512,2*%
%TO.N,/USB-C Controller/Battery Pack Protection/NPACK_P*%
X114958401Y-123254999D03*
%TD*%
D16*
%TO.P,C507,1*%
%TO.N,/USB-C Controller/Battery Pack Protection/SR_P*%
X116992400Y-123201599D03*
%TO.P,C507,2*%
%TO.N,/USB-C Controller/Battery Pack Protection/SR_N*%
X116992400Y-122241599D03*
%TD*%
D45*
%TO.P,U301,25,EPAD*%
%TO.N,GND*%
X137566401Y-113030000D03*
D46*
%TO.P,U301,24,VCC*%
%TO.N,/USB-C Controller/Battery Charger/U3VCC*%
X139501401Y-114280000D03*
%TO.P,U301,23,~{BATDRV}*%
%TO.N,/USB-C Controller/Battery Charger/U1BATDRV*%
X139501402Y-113780000D03*
%TO.P,U301,22,BTST*%
%TO.N,/USB-C Controller/Battery Charger/U1BTST*%
X139501401Y-113280000D03*
%TO.P,U301,21,HIDRV*%
%TO.N,/USB-C Controller/Battery Charger/U1HIDRV*%
X139501401Y-112780000D03*
%TO.P,U301,20,PH*%
%TO.N,/USB-C Controller/Battery Charger/SW_BAT*%
X139501402Y-112280000D03*
%TO.P,U301,19,LODRV*%
%TO.N,/USB-C Controller/Battery Charger/U1LODRV*%
X139501401Y-111780000D03*
D47*
%TO.P,U301,18,REGN*%
%TO.N,/USB-C Controller/Battery Charger/U1REGN*%
X138816401Y-111095000D03*
%TO.P,U301,17,GND*%
%TO.N,GND*%
X138316401Y-111094999D03*
%TO.P,U301,16,ACSET*%
%TO.N,/USB-C Controller/Battery Charger/U1ACSET*%
X137816401Y-111095000D03*
%TO.P,U301,15,ISET2*%
%TO.N,/USB-C Controller/Battery Charger/U1ISET2*%
X137316401Y-111095000D03*
%TO.P,U301,14,SRP*%
%TO.N,/USB-C Controller/Battery Charger/U1SRP_P*%
X136816401Y-111094999D03*
%TO.P,U301,13,SRN*%
%TO.N,/USB-C Controller/Battery Charger/U1SRP_N*%
X136316401Y-111095000D03*
D46*
%TO.P,U301,12,VFB*%
%TO.N,/USB-C Controller/Battery Charger/U1VFB*%
X135631401Y-111780000D03*
%TO.P,U301,11,ISET1*%
%TO.N,/USB-C Controller/Battery Charger/U1ISET1*%
X135631400Y-112280000D03*
%TO.P,U301,10,VREF*%
%TO.N,/USB-C Controller/Battery Charger/U1VREF*%
X135631401Y-112780000D03*
%TO.P,U301,9,STAT2*%
%TO.N,/USB-C Controller/Battery Charger/U1STAT2*%
X135631401Y-113280000D03*
%TO.P,U301,8,~{PG}*%
%TO.N,unconnected-(U301-~{PG}-Pad8)*%
X135631400Y-113780000D03*
%TO.P,U301,7,TTC*%
%TO.N,/USB-C Controller/Battery Charger/U1TTC*%
X135631401Y-114280000D03*
D47*
%TO.P,U301,6,TS*%
%TO.N,/USB-C Controller/Battery Charger/U1TS*%
X136316401Y-114965000D03*
%TO.P,U301,5,STAT1*%
%TO.N,/USB-C Controller/Battery Charger/U1STAT1*%
X136816401Y-114965001D03*
%TO.P,U301,4,CE*%
%TO.N,/USB-C Controller/Battery Charger/U1VREF*%
X137316401Y-114965000D03*
%TO.P,U301,3,~{ACDRV}*%
%TO.N,BMS_~{ACDRV}*%
X137816401Y-114965000D03*
%TO.P,U301,2,ACP*%
%TO.N,/USB-C Controller/Battery Charger/U1AC_P*%
X138316401Y-114965001D03*
%TO.P,U301,1,ACN*%
%TO.N,/USB-C Controller/Battery Charger/U1AC_N*%
X138816401Y-114965000D03*
%TD*%
D29*
%TO.P,C504,1*%
%TO.N,/USB-C Controller/Battery Pack Protection/VC3*%
X118130800Y-129037000D03*
%TO.P,C504,2*%
%TO.N,/USB-C Controller/Battery Pack Protection/VC2*%
X117170800Y-129037000D03*
%TD*%
D19*
%TO.P,C316,2*%
%TO.N,/USB-C Controller/Battery Charger/U1TS*%
X134236401Y-117449600D03*
%TO.P,C316,1*%
%TO.N,GND*%
X133276401Y-117449600D03*
%TD*%
D48*
%TO.N,GND*%
X161544000Y-110464600D03*
X161467800Y-111633000D03*
X162636200Y-130378200D03*
%TO.N,PP_5V*%
X151612600Y-115341400D03*
X146989800Y-113411000D03*
%TO.N,GND2*%
X130479800Y-125933200D03*
X125145800Y-128320800D03*
D49*
X128193800Y-123571000D03*
X110032800Y-116128800D03*
X108508800Y-116128800D03*
D48*
X124485400Y-129946400D03*
D49*
X109270800Y-116789200D03*
D48*
X115163600Y-124764800D03*
D49*
X108508800Y-116789200D03*
X110032800Y-116789200D03*
X118059200Y-120650000D03*
X116382800Y-126085600D03*
X109270800Y-116128800D03*
D48*
X109169200Y-132384800D03*
D49*
X107746800Y-116789200D03*
D48*
X125603000Y-128143000D03*
D49*
X107746800Y-116128800D03*
X119210690Y-123698600D03*
D48*
%TO.N,GND*%
X130860800Y-128858397D03*
X154686000Y-114096800D03*
X153263600Y-112572801D03*
X167843100Y-108356900D03*
D49*
X158496000Y-100025200D03*
X128879600Y-128092200D03*
X126238000Y-113792000D03*
X128473200Y-116814600D03*
X125272800Y-125757820D03*
D48*
X154025599Y-113334800D03*
D49*
X131826000Y-106781599D03*
X140614400Y-97485200D03*
D48*
X156464000Y-123088400D03*
D49*
X156311600Y-125526800D03*
X128879600Y-121361201D03*
D48*
X154076400Y-119126000D03*
D49*
X143357601Y-103682800D03*
D48*
X157124400Y-123088400D03*
X153314400Y-109728000D03*
X153263600Y-114096800D03*
D49*
X125069600Y-109601000D03*
D48*
X134797800Y-127990600D03*
X138328400Y-113791999D03*
D49*
X133248400Y-108204000D03*
D48*
X137566401Y-113791999D03*
X152654000Y-113334800D03*
X155346400Y-113334800D03*
D49*
X165150800Y-115519200D03*
D48*
X164653460Y-119007744D03*
D49*
X135153400Y-126441199D03*
X163626800Y-123088400D03*
X136855200Y-119481600D03*
X152488800Y-100542800D03*
X123748800Y-109601000D03*
D48*
X159017945Y-98117945D03*
D49*
X123647200Y-113792000D03*
D48*
X112572800Y-130048000D03*
X141986001Y-116992400D03*
X160731200Y-116865400D03*
X122682000Y-130352800D03*
D49*
X138988800Y-122428000D03*
X164388800Y-123901200D03*
X149047200Y-101041200D03*
D48*
X144989099Y-120707101D03*
D49*
X128473200Y-117551200D03*
D48*
X136804401Y-112268000D03*
X130352800Y-121920000D03*
X130327400Y-115544600D03*
D49*
X143154400Y-98221800D03*
D48*
X117477420Y-131391781D03*
X161518600Y-113665000D03*
D49*
X154470000Y-99882400D03*
X132537200Y-107492800D03*
X139750800Y-122428000D03*
D48*
X154686000Y-112572800D03*
D49*
X154470000Y-101203201D03*
X124587000Y-125018800D03*
X136855200Y-118770400D03*
D48*
X133400800Y-111633000D03*
X138328400Y-113030000D03*
X137566401Y-112268001D03*
X142759616Y-112154784D03*
X152654000Y-110540800D03*
D49*
X138684000Y-98755200D03*
D48*
X134797800Y-127406400D03*
X163300000Y-99700000D03*
D49*
X125272800Y-125018800D03*
D48*
X142697200Y-108051600D03*
D49*
X142697200Y-105664000D03*
D48*
X130251200Y-118491000D03*
D49*
X141224000Y-123139200D03*
D48*
X130149600Y-116789200D03*
D49*
X128219200Y-127025400D03*
X163626800Y-114706400D03*
D48*
X158089600Y-128422400D03*
D49*
X125577600Y-113792000D03*
X138988800Y-123139200D03*
D48*
X147777200Y-116636800D03*
X154711400Y-122682000D03*
X107340400Y-106934000D03*
X160248600Y-117348000D03*
X118719600Y-130832981D03*
D49*
X128219200Y-128092200D03*
X132537200Y-106781599D03*
D48*
X113919000Y-115874800D03*
X157734000Y-123088400D03*
D49*
X165150800Y-123901200D03*
X149733000Y-101041200D03*
D48*
X136804401Y-113030000D03*
X122682000Y-129743200D03*
D49*
X116535199Y-108610400D03*
X157886400Y-120650000D03*
D48*
X161518600Y-113106200D03*
D49*
X165150800Y-114706400D03*
D48*
X159100000Y-110200000D03*
D49*
X150418800Y-101041200D03*
X142036800Y-105003600D03*
X163626800Y-115519200D03*
D48*
X132638800Y-108762800D03*
X160731200Y-117348000D03*
D49*
X140614400Y-98196400D03*
X142036800Y-103682800D03*
X140512800Y-123139200D03*
D48*
X134797800Y-128549400D03*
D49*
X127787400Y-116814600D03*
D48*
X137922000Y-131064000D03*
D49*
X128473200Y-116103400D03*
X164388800Y-123088400D03*
D48*
X113639600Y-110998000D03*
X153314400Y-111302800D03*
D49*
X153149200Y-99882401D03*
X164388800Y-115519200D03*
X115061998Y-107819400D03*
X127787400Y-116128800D03*
D48*
X130225800Y-123418600D03*
D49*
X142697200Y-103022400D03*
D48*
X156511041Y-120134864D03*
X162560000Y-111760000D03*
D49*
X122936000Y-113792000D03*
X143154400Y-97485200D03*
X131826000Y-107492800D03*
D48*
X141754801Y-118384801D03*
X153974800Y-110540800D03*
D49*
X157886400Y-100025200D03*
D48*
X122732800Y-128676400D03*
D49*
X115773201Y-108610402D03*
D48*
X140258800Y-107086400D03*
D49*
X113639600Y-108610404D03*
D48*
X155346400Y-110540800D03*
X130379199Y-113665999D03*
D49*
X153809599Y-100542800D03*
D48*
X143052801Y-116947000D03*
X147275099Y-122688301D03*
D49*
X156819600Y-97434400D03*
X128879600Y-127025400D03*
D48*
X154736800Y-111302800D03*
D49*
X142697200Y-104343200D03*
D48*
X137566401Y-113030000D03*
D49*
X115062000Y-107108201D03*
D48*
X162661600Y-110642400D03*
X151472800Y-105572000D03*
D49*
X136855200Y-118110000D03*
X133248400Y-107492800D03*
X157632400Y-97434400D03*
X164388800Y-114706400D03*
X133248400Y-106781599D03*
D48*
X136702800Y-117449600D03*
X153111200Y-119126000D03*
X142087600Y-131064000D03*
D49*
X143154400Y-98933000D03*
X165150800Y-123088400D03*
X124587000Y-124310020D03*
X139750800Y-123139200D03*
X139369800Y-98755200D03*
D48*
X138328401Y-112268000D03*
X159766000Y-117348000D03*
X136804401Y-113792000D03*
D49*
X114350800Y-108610400D03*
D48*
X154736800Y-109728000D03*
D49*
X125272800Y-124310020D03*
D48*
X138887200Y-118414800D03*
X147116800Y-106121200D03*
D49*
X115773200Y-107848400D03*
X163626800Y-123901200D03*
X143357600Y-105003600D03*
X124409200Y-109601000D03*
X115773200Y-107086400D03*
X153149200Y-101203200D03*
X155130400Y-100542800D03*
X124587000Y-125757820D03*
X115062000Y-108610402D03*
D48*
%TO.N,LDO_1V8*%
X150977600Y-111709200D03*
%TO.N,LDO_3V3*%
X158038800Y-107924600D03*
X148488400Y-108864400D03*
X160299400Y-110007400D03*
X160379176Y-111502424D03*
%TO.N,PP_HV*%
X149098000Y-124358400D03*
X159207200Y-115925600D03*
X140411200Y-114706400D03*
X159207200Y-114401600D03*
X140853601Y-108113200D03*
X159207200Y-116941600D03*
X138988800Y-117348000D03*
X143459200Y-117906800D03*
X159207200Y-116433600D03*
X159207200Y-115417600D03*
X159207200Y-114909600D03*
X147802600Y-117678200D03*
X140615380Y-115924620D03*
%TO.N,PP_5V*%
X153640100Y-115976400D03*
X149301200Y-106019600D03*
X149326600Y-107746800D03*
X147828000Y-102108000D03*
X153640100Y-107797600D03*
%TO.N,+3V3*%
X143713200Y-132384800D03*
X138582400Y-132384800D03*
X161518600Y-118414800D03*
X160070800Y-102427700D03*
X158038800Y-105333800D03*
X159410400Y-112725200D03*
X156997400Y-129159000D03*
X159943800Y-105892600D03*
X134416800Y-132384800D03*
X114960400Y-131165600D03*
%TO.N,IC_C1_CC1*%
X156667200Y-116484400D03*
X153240101Y-117043200D03*
%TO.N,IC_C1_CC2*%
X157073600Y-116078000D03*
X154076400Y-116636800D03*
%TO.N,+5V*%
X136296400Y-109423200D03*
X129489200Y-115951000D03*
X136804400Y-108966000D03*
X136804400Y-109423200D03*
X129768600Y-114198400D03*
X136296400Y-108966000D03*
%TO.N,VSYS*%
X111556800Y-105003600D03*
D49*
X142189200Y-119735600D03*
X142849600Y-119735600D03*
D48*
X111556800Y-104546400D03*
X112496600Y-104546400D03*
D49*
X143510000Y-119735600D03*
X143510000Y-120345200D03*
X142189200Y-120345200D03*
X150418800Y-97993200D03*
D48*
X112014000Y-104546400D03*
X112014000Y-104978200D03*
X111556800Y-105460800D03*
D49*
X148894800Y-97993200D03*
X142849600Y-120345200D03*
X149656800Y-97993200D03*
D48*
%TO.N,IC_C1_USB_N*%
X156791606Y-120678199D03*
X165136937Y-118723400D03*
%TO.N,IC_C1_USB_P*%
X156238406Y-120678199D03*
X165136937Y-119276600D03*
X165431701Y-118178550D03*
%TO.N,IC_12V_EN*%
X149402800Y-118618000D03*
X116193057Y-132245857D03*
X129844800Y-132740400D03*
X156840101Y-107950000D03*
%TO.N,IC_5V_EN*%
X150469600Y-118186200D03*
X156133800Y-107823000D03*
X136296400Y-131749800D03*
X149707600Y-127203200D03*
X130759200Y-126873000D03*
%TO.N,IC_VIN_EN*%
X150977600Y-109728000D03*
D49*
%TO.N,VBUS2*%
X144399000Y-107289600D03*
X165150800Y-117094000D03*
D48*
X159969200Y-113131600D03*
D49*
X139090400Y-101549200D03*
D48*
X159664400Y-113588800D03*
X159207200Y-113385600D03*
D49*
X164439600Y-117094000D03*
X164439600Y-120954800D03*
X148132800Y-107315000D03*
X139827000Y-101549200D03*
D48*
X116967000Y-103403400D03*
D49*
X165150800Y-120954800D03*
X146837400Y-107315000D03*
X165150800Y-116433600D03*
X147472400Y-107315000D03*
X165150800Y-121615200D03*
X143738600Y-106629200D03*
X164439600Y-121615200D03*
D48*
X124663200Y-106070400D03*
D49*
X164439600Y-116433600D03*
X143738600Y-107289600D03*
D48*
X159207200Y-113860603D03*
D49*
X138328400Y-101549200D03*
D48*
%TO.N,BMS_~{ACDRV}*%
X143764000Y-117398800D03*
X139547600Y-116992400D03*
X149174200Y-113715800D03*
%TO.N,/Power/U5EN*%
X136093200Y-131085202D03*
X136271000Y-128498600D03*
D49*
%TO.N,/USB-C Controller/Battery Charger/VBAT*%
X111810800Y-114503200D03*
X112471200Y-114503200D03*
X112471200Y-115214400D03*
D48*
X127457200Y-110794800D03*
D49*
X111150400Y-113792000D03*
D48*
X125120400Y-110540800D03*
X127965200Y-111658400D03*
D49*
X111150400Y-115214400D03*
X111150400Y-114503200D03*
X111810800Y-113792000D03*
X112471200Y-113792000D03*
X111810800Y-115214400D03*
D48*
X109778800Y-127762000D03*
X129387600Y-111709200D03*
D49*
%TO.N,/USB-C Controller/Battery Pack Protection/B1-B2*%
X110360200Y-123060200D03*
%TO.N,/USB-C Controller/Battery Pack Protection/B2-B3*%
X110360200Y-120520200D03*
%TO.N,/USB-C Controller/Battery Pack Protection/B3-B4*%
X110360200Y-117980200D03*
D48*
%TO.N,/USB-C Controller/GATE1*%
X124155200Y-106121200D03*
X118033800Y-104800400D03*
X122682000Y-109372400D03*
X117703600Y-110693200D03*
%TO.N,/USB-C Controller/S2S1*%
X117506563Y-103315092D03*
X123317000Y-105486200D03*
%TO.N,/USB-C Controller/GATE2*%
X132842000Y-113842800D03*
X130327400Y-114833400D03*
%TO.N,/USB-C Controller/Battery Charger/GATE3*%
X144881600Y-127127000D03*
X144920199Y-123799600D03*
%TO.N,/USB-C Controller/Battery Charger/S2S3*%
X141503400Y-122453400D03*
X142290800Y-118160800D03*
%TO.N,/USB-C Controller/Battery Charger/SW_BAT*%
X140716000Y-112279999D03*
X127836302Y-106426000D03*
X133654800Y-106273600D03*
X135636000Y-108178600D03*
%TO.N,/USB-C Controller/Battery Charger/U1VREF*%
X135026400Y-114706400D03*
X135940800Y-116738400D03*
%TO.N,/USB-C Controller/USB-C Connector/C_CC1*%
X154408101Y-123574352D03*
X165262777Y-119846030D03*
%TO.N,/USB-C Controller/USB-C Connector/C_CC2*%
X154611301Y-124096750D03*
X167627459Y-117264151D03*
%TO.N,/USB-C Controller/Battery Charger/U1HIDRV*%
X136093200Y-107848400D03*
X133350000Y-105816400D03*
X140411200Y-112826800D03*
X125730000Y-105968800D03*
%TO.N,/USB-C Controller/Battery Charger/U1LODRV*%
X135610600Y-108737400D03*
X131216400Y-109321600D03*
X133146800Y-108813600D03*
X140411200Y-111658400D03*
%TO.N,/USB-C Controller/Battery Charger/U1BATDRV*%
X107213400Y-110159800D03*
X107142200Y-112407300D03*
X132842000Y-105562400D03*
X140411200Y-113741200D03*
X136118600Y-107264200D03*
X130251200Y-105029000D03*
%TO.N,/USB-C Controller/Battery Charger/U1NTC*%
X108381800Y-106527600D03*
X116179600Y-132825000D03*
X108407200Y-113004600D03*
X128905000Y-132181600D03*
X130886200Y-120472200D03*
X131495800Y-119608600D03*
X108356400Y-109677200D03*
%TO.N,/USB-C Controller/DRAIN1*%
X156464000Y-110388400D03*
X157429200Y-109575600D03*
X156464000Y-111252000D03*
X157429200Y-110388400D03*
X157429200Y-111252000D03*
X156464000Y-109575600D03*
%TO.N,/USB-C Controller/DRAIN2*%
X156464000Y-112522000D03*
X157429200Y-114198400D03*
X156464000Y-113334800D03*
X157429200Y-112522000D03*
X156464000Y-114198400D03*
X157429200Y-113334800D03*
%TO.N,/USB-C Controller/Battery Charger/U1STAT1*%
X161282483Y-99067517D03*
X136855200Y-115824000D03*
X144297400Y-115544600D03*
%TO.N,/USB-C Controller/Battery Charger/U1STAT2*%
X134823200Y-114046000D03*
X144272000Y-115011200D03*
X161399549Y-97926501D03*
%TO.N,/USB-C Controller/Battery Pack Protection/NPACK_P*%
X114960400Y-123799600D03*
%TO.N,Net-(J401-Pin_6)*%
X146735800Y-108153200D03*
X136553777Y-107073810D03*
X144551400Y-108635800D03*
%TO.N,Net-(J401-Pin_5)*%
X110947200Y-129895600D03*
X108762800Y-110032800D03*
X108762800Y-112420400D03*
%TD*%
D50*
%TO.N,GND*%
X160933301Y-111075299D02*
X161544000Y-110464600D01*
X160933301Y-111117350D02*
X160933301Y-111075299D01*
X160967450Y-112133350D02*
X161467800Y-111633000D01*
X160933301Y-112133350D02*
X160967450Y-112133350D01*
X132079399Y-118491000D02*
X132153599Y-118565200D01*
X130251200Y-118491000D02*
X132079399Y-118491000D01*
D51*
%TO.N,PP_5V*%
X153177150Y-115508950D02*
X153646101Y-115508950D01*
X153009600Y-115341400D02*
X153177150Y-115508950D01*
X151612600Y-115341400D02*
X153009600Y-115341400D01*
X153640100Y-115971900D02*
X153640100Y-115976400D01*
X147071200Y-113329600D02*
X146989800Y-113411000D01*
X147071200Y-112826800D02*
X147071200Y-113329600D01*
D52*
%TO.N,/USB-C Controller/Battery Charger/U1STAT2*%
X160870900Y-98455150D02*
X161399549Y-97926501D01*
X160870900Y-99199700D02*
X160870900Y-98455150D01*
X160883600Y-103860600D02*
X160883600Y-99212400D01*
X158623000Y-106121200D02*
X160883600Y-103860600D01*
X151852550Y-106121200D02*
X158623000Y-106121200D01*
X160883600Y-99212400D02*
X160870900Y-99199700D01*
X148204850Y-108158000D02*
X149815750Y-108158000D01*
X149815750Y-108158000D02*
X151852550Y-106121200D01*
X147396200Y-108966650D02*
X148204850Y-108158000D01*
X147396200Y-114173000D02*
X147396200Y-108966650D01*
X146558000Y-115011200D02*
X147396200Y-114173000D01*
X144272000Y-115011200D02*
X146558000Y-115011200D01*
%TO.N,/USB-C Controller/Battery Charger/U1STAT1*%
X161282483Y-103885981D02*
X161282483Y-99067517D01*
X151976814Y-106421200D02*
X158747264Y-106421200D01*
X148329114Y-108458000D02*
X149940014Y-108458000D01*
X147696200Y-114304800D02*
X147696200Y-109090914D01*
X147696200Y-109090914D02*
X148329114Y-108458000D01*
X146456400Y-115544600D02*
X147696200Y-114304800D01*
X158747264Y-106421200D02*
X161282483Y-103885981D01*
X149940014Y-108458000D02*
X151976814Y-106421200D01*
X144297400Y-115544600D02*
X146456400Y-115544600D01*
D51*
%TO.N,PP_5V*%
X147071200Y-110236000D02*
X147071200Y-112826800D01*
X147071200Y-108832030D02*
X147071200Y-110236000D01*
X147344515Y-108558715D02*
X147071200Y-108832030D01*
D52*
%TO.N,Net-(J401-Pin_6)*%
X146253200Y-108635800D02*
X144551400Y-108635800D01*
X146735800Y-108153200D02*
X146253200Y-108635800D01*
D51*
%TO.N,PP_5V*%
X147801715Y-108101515D02*
X147344515Y-108558715D01*
X149265800Y-107833000D02*
X148945600Y-107833000D01*
X148070230Y-107833000D02*
X147801715Y-108101515D01*
X149326600Y-107772200D02*
X149265800Y-107833000D01*
X148945600Y-107833000D02*
X148070230Y-107833000D01*
X149326600Y-107746800D02*
X149326600Y-107772200D01*
D50*
%TO.N,GND2*%
X115159601Y-124768799D02*
X115163600Y-124764800D01*
X124485400Y-129946400D02*
X124132800Y-129946400D01*
X125723600Y-128898600D02*
X125145800Y-128320800D01*
X119210690Y-123698600D02*
X118742490Y-124166800D01*
X124132800Y-129946400D02*
X122883200Y-131196000D01*
X117172800Y-126902800D02*
X117172800Y-125323600D01*
X116382800Y-126085600D02*
X117172800Y-126085600D01*
X128193800Y-123571000D02*
X128066200Y-123698600D01*
D53*
X115392000Y-117576400D02*
X114809900Y-117576400D01*
D50*
X117173400Y-126903400D02*
X117172800Y-126902800D01*
X120929600Y-123698600D02*
X119210690Y-123698600D01*
X117173400Y-126593401D02*
X117173400Y-126903400D01*
D53*
X115519200Y-117703600D02*
X115392000Y-117576400D01*
D50*
X115159601Y-125323600D02*
X115159601Y-124768799D01*
X130482399Y-125930601D02*
X130482399Y-124337999D01*
X125708600Y-128248600D02*
X125603000Y-128143000D01*
X130479800Y-125933200D02*
X130482399Y-125930601D01*
X126669600Y-128898600D02*
X125723600Y-128898600D01*
X128066200Y-123698600D02*
X126669600Y-123698600D01*
X118059200Y-121287600D02*
X118059200Y-120650000D01*
D53*
X115519200Y-118240600D02*
X115519200Y-117703600D01*
D50*
X118742490Y-124166800D02*
X118059200Y-124166800D01*
X126669600Y-128248600D02*
X125708600Y-128248600D01*
D51*
%TO.N,GND*%
X138316401Y-112256000D02*
X138328401Y-112268000D01*
D50*
X132153601Y-118036400D02*
X132153601Y-118565200D01*
X147127599Y-106131999D02*
X147116800Y-106121200D01*
X141749600Y-118943601D02*
X141749600Y-118390000D01*
X133398200Y-111630400D02*
X132080000Y-111630400D01*
X145090699Y-120605501D02*
X145090699Y-119947100D01*
X138813599Y-118488401D02*
X138813599Y-118943601D01*
X132080000Y-112828798D02*
X132179602Y-112928400D01*
X141749600Y-118390000D02*
X141754801Y-118384801D01*
X133276401Y-117449600D02*
X132740401Y-117449600D01*
X141986001Y-116456400D02*
X141986001Y-116992400D01*
X129488798Y-121361201D02*
X129515200Y-121387603D01*
X131066000Y-112979199D02*
X131116799Y-112928400D01*
D52*
X127459200Y-117451600D02*
X127330000Y-117322400D01*
D50*
X147868699Y-122678801D02*
X147284599Y-122678801D01*
X145090699Y-119947100D02*
X145088700Y-119945101D01*
X151976802Y-105572000D02*
X151472800Y-105572000D01*
X147777200Y-106131999D02*
X147127599Y-106131999D01*
X128879600Y-121361201D02*
X129488798Y-121361201D01*
X130708400Y-115163600D02*
X130327400Y-115544600D01*
X140258800Y-107086400D02*
X140258800Y-107643200D01*
D52*
X127459200Y-119430800D02*
X127459200Y-117451600D01*
D50*
X133400800Y-111633000D02*
X133398200Y-111630400D01*
X130379200Y-113665999D02*
X131066000Y-112979199D01*
X132740401Y-117449600D02*
X132153601Y-118036400D01*
X142923201Y-111991200D02*
X142759616Y-112154784D01*
X143052801Y-116947000D02*
X143052801Y-116456400D01*
X144989099Y-120707101D02*
X145090699Y-120605501D01*
X142923201Y-111353600D02*
X142923201Y-111991200D01*
X142392400Y-107746800D02*
X142697200Y-108051600D01*
D52*
X127330000Y-117322400D02*
X126611700Y-117322400D01*
D50*
X136217601Y-117449600D02*
X136702800Y-117449600D01*
X131142800Y-115163600D02*
X130708400Y-115163600D01*
X130379199Y-113665999D02*
X130379200Y-113665999D01*
D51*
X138316401Y-111094999D02*
X138316401Y-112256000D01*
D50*
X142392400Y-107643201D02*
X142392400Y-107746800D01*
X131116799Y-112928400D02*
X132179602Y-112928400D01*
X147284599Y-122678801D02*
X147275099Y-122688301D01*
X132514400Y-108638400D02*
X132638800Y-108762800D01*
X138887200Y-118414800D02*
X138813599Y-118488401D01*
X132080000Y-108638400D02*
X132514400Y-108638400D01*
D53*
%TO.N,LDO_1V8*%
X150995350Y-111726950D02*
X151438901Y-111726950D01*
X150977600Y-111709200D02*
X150995350Y-111726950D01*
%TO.N,LDO_3V3*%
X160358375Y-111502424D02*
X159973301Y-111117350D01*
D52*
X148488400Y-108864400D02*
X149957878Y-108864400D01*
X160299400Y-110007400D02*
X160299400Y-110791251D01*
X158038800Y-107543600D02*
X158038800Y-107924600D01*
X149957878Y-108864400D02*
X152101078Y-106721200D01*
D53*
X160379176Y-111502424D02*
X160358375Y-111502424D01*
D52*
X157216400Y-106721200D02*
X158038800Y-107543600D01*
X160299400Y-110791251D02*
X159973301Y-111117350D01*
X152101078Y-106721200D02*
X157216400Y-106721200D01*
%TO.N,PP_HV*%
X139661999Y-108113200D02*
X140853601Y-108113200D01*
X130290314Y-114304800D02*
X129921000Y-114674114D01*
X140411200Y-115720440D02*
X140411200Y-114706400D01*
X140615380Y-115924620D02*
X140411200Y-115720440D01*
X131126800Y-120103200D02*
X136944800Y-120103200D01*
X131092000Y-113995200D02*
X130782400Y-114304800D01*
X136944800Y-120103200D02*
X138333599Y-118714401D01*
X138333599Y-118104801D02*
X138988800Y-117449600D01*
X139192000Y-107643201D02*
X139661999Y-108113200D01*
X130782400Y-114304800D02*
X130290314Y-114304800D01*
X143567200Y-117798800D02*
X143459200Y-117906800D01*
X147802600Y-117678200D02*
X147682000Y-117798800D01*
X129921000Y-114674114D02*
X129921000Y-116452114D01*
X138988800Y-117449600D02*
X138988800Y-117348000D01*
X129387600Y-116985514D02*
X129387600Y-118364000D01*
X140853601Y-108113200D02*
X141325600Y-107641201D01*
X129921000Y-116452114D02*
X129387600Y-116985514D01*
X147682000Y-117798800D02*
X143567200Y-117798800D01*
X129387600Y-118364000D02*
X131126800Y-120103200D01*
X138333599Y-118714401D02*
X138333599Y-118104801D01*
D51*
%TO.N,PP_5V*%
X149301200Y-107721400D02*
X149326600Y-107746800D01*
X149301200Y-106019600D02*
X149301200Y-107721400D01*
X146890001Y-100484201D02*
X147828000Y-101422200D01*
D53*
X153640100Y-115976400D02*
X153646101Y-115970399D01*
D52*
X147042598Y-102438201D02*
X145347200Y-102438201D01*
D51*
X147828000Y-101422200D02*
X147828000Y-102108000D01*
X145084800Y-100484201D02*
X146890001Y-100484201D01*
D52*
X147068000Y-102412800D02*
X147042598Y-102438201D01*
D53*
X153646101Y-107803601D02*
X153646101Y-108300550D01*
X153640100Y-107797600D02*
X153646101Y-107803601D01*
D52*
X147777200Y-103122000D02*
X147068000Y-102412800D01*
D53*
X153646101Y-115970399D02*
X153646101Y-115508950D01*
D52*
%TO.N,+3V3*%
X129381200Y-132340400D02*
X129133600Y-132588000D01*
X159410400Y-110794800D02*
X159410400Y-112725200D01*
X156565600Y-129159000D02*
X153339800Y-132384800D01*
X116192200Y-131483000D02*
X115277800Y-131483000D01*
X115277800Y-131483000D02*
X114960400Y-131165600D01*
X134416800Y-132384800D02*
X134372400Y-132340400D01*
X163677600Y-111092714D02*
X163677600Y-113385600D01*
X129133600Y-132588000D02*
X117297200Y-132588000D01*
X153339800Y-132384800D02*
X143713200Y-132384800D01*
X161874200Y-115747800D02*
X161874200Y-117627400D01*
D53*
X159410400Y-112141000D02*
X159418050Y-112133350D01*
D52*
X163677600Y-113944400D02*
X163220400Y-114401600D01*
X159610100Y-101967000D02*
X158076800Y-101967000D01*
X163677600Y-113385600D02*
X163677600Y-113944400D01*
X159893000Y-108762800D02*
X159893000Y-110312200D01*
X154986800Y-105572000D02*
X154986800Y-104423400D01*
X160070800Y-102427700D02*
X159610100Y-101967000D01*
X161874200Y-118059200D02*
X161518600Y-118414800D01*
X161137600Y-108762800D02*
X161163000Y-108788200D01*
X161874200Y-117627400D02*
X161874200Y-118059200D01*
D53*
X159418050Y-112133350D02*
X159973301Y-112133350D01*
D52*
X159893000Y-105943400D02*
X159893000Y-108762800D01*
X161373086Y-108788200D02*
X163677600Y-111092714D01*
X117297200Y-132588000D02*
X116192200Y-131483000D01*
X159943800Y-105892600D02*
X159893000Y-105943400D01*
X155714600Y-103695600D02*
X155714600Y-103192800D01*
X156997400Y-129159000D02*
X156565600Y-129159000D01*
X159893000Y-108762800D02*
X161137600Y-108762800D01*
X163220400Y-114401600D02*
X161874200Y-115747800D01*
X134372400Y-132340400D02*
X129381200Y-132340400D01*
X143713200Y-132384800D02*
X138582400Y-132384800D01*
D53*
X159410400Y-112725200D02*
X159410400Y-112141000D01*
D52*
X161163000Y-108788200D02*
X161373086Y-108788200D01*
X154986800Y-104423400D02*
X155714600Y-103695600D01*
X159893000Y-110312200D02*
X159410400Y-110794800D01*
X134416800Y-132384800D02*
X138582400Y-132384800D01*
D53*
%TO.N,IC_C1_CC1*%
X156035560Y-116484400D02*
X155476760Y-117043200D01*
X155476760Y-117043200D02*
X153240101Y-117043200D01*
X156667200Y-116484400D02*
X156035560Y-116484400D01*
%TO.N,IC_C1_CC2*%
X154202800Y-116763200D02*
X154076400Y-116636800D01*
X157073600Y-116078000D02*
X156045980Y-116078000D01*
X156045980Y-116078000D02*
X155360780Y-116763200D01*
X155360780Y-116763200D02*
X154202800Y-116763200D01*
D52*
%TO.N,+5V*%
X129489200Y-114477800D02*
X129489200Y-115951000D01*
X129768600Y-114198400D02*
X129489200Y-114477800D01*
%TO.N,VSYS*%
X106695401Y-110763800D02*
X107732201Y-110763799D01*
X108774901Y-110665499D02*
X110757401Y-110665500D01*
X140616099Y-121276999D02*
X141176699Y-121276999D01*
X108646600Y-110793799D02*
X108774901Y-110665499D01*
X155587600Y-96732800D02*
X152031600Y-96732801D01*
X107762200Y-110793798D02*
X108646600Y-110793799D01*
X151904600Y-96859800D02*
X151904600Y-97892800D01*
X140512799Y-121173699D02*
X140616099Y-121276999D01*
X155714600Y-96859800D02*
X155587600Y-96732800D01*
X140512800Y-120532700D02*
X140512799Y-121173699D01*
X155714600Y-97892800D02*
X155714600Y-96859800D01*
X152031600Y-96732801D02*
X151904600Y-96859800D01*
X107732201Y-110763799D02*
X107762200Y-110793798D01*
D54*
%TO.N,IC_C1_USB_N*%
X164865457Y-118495940D02*
X164441463Y-118495940D01*
X157018626Y-122040396D02*
X156750210Y-121771980D01*
X165136937Y-118723400D02*
X165114927Y-118745410D01*
X156750210Y-120719595D02*
X156791606Y-120678199D01*
X159973374Y-122040396D02*
X157018626Y-122040396D01*
X165114927Y-118745410D02*
X164865457Y-118495940D01*
X164441463Y-118495940D02*
X164172607Y-118764796D01*
X164172607Y-118764796D02*
X163248974Y-118764796D01*
X163248974Y-118764796D02*
X159973374Y-122040396D01*
X156750210Y-121771980D02*
X156750210Y-120719595D01*
%TO.N,IC_C1_USB_P*%
X164441463Y-119519548D02*
X164157119Y-119235204D01*
X163443826Y-119235204D02*
X160168226Y-122510804D01*
X164157119Y-119235204D02*
X163443826Y-119235204D01*
X160168226Y-122510804D02*
X156823774Y-122510804D01*
X156823774Y-122510804D02*
X156279802Y-121966832D01*
X156279802Y-120719595D02*
X156238406Y-120678199D01*
X156279802Y-121966832D02*
X156279802Y-120719595D01*
X165136937Y-119276600D02*
X165122671Y-119262334D01*
X164865457Y-119519548D02*
X164441463Y-119519548D01*
X165122671Y-119262334D02*
X164865457Y-119519548D01*
D53*
%TO.N,IC_12V_EN*%
X149580600Y-109682099D02*
X149580600Y-118470499D01*
X156266699Y-107011200D02*
X152251499Y-107011200D01*
X156845000Y-107975400D02*
X156845000Y-107589501D01*
X156845000Y-107589501D02*
X156266699Y-107011200D01*
X152251499Y-107011200D02*
X149580600Y-109682099D01*
X149580600Y-118470499D02*
X149407699Y-118643400D01*
D52*
%TO.N,IC_5V_EN*%
X151143286Y-110128000D02*
X151537636Y-109733650D01*
X136296400Y-131749800D02*
X146202400Y-131749800D01*
X155612000Y-107301200D02*
X156133800Y-107823000D01*
X146202400Y-131749800D02*
X149682200Y-128270000D01*
X150170600Y-117887200D02*
X150170600Y-110959264D01*
X149682200Y-128270000D02*
X149682200Y-127228600D01*
X134620000Y-131749800D02*
X136296400Y-131749800D01*
X152371621Y-107301200D02*
X155612000Y-107301200D01*
X150469600Y-118186200D02*
X150170600Y-117887200D01*
X130759200Y-127889000D02*
X134620000Y-131749800D01*
X130759200Y-126873000D02*
X130759200Y-127889000D01*
X151001864Y-110128000D02*
X151143286Y-110128000D01*
X150170600Y-110959264D02*
X151001864Y-110128000D01*
X149682200Y-127228600D02*
X149707600Y-127203200D01*
X151537636Y-108135185D02*
X152371621Y-107301200D01*
X151537636Y-109733650D02*
X151537636Y-108135185D01*
%TO.N,Net-(Q304-G)*%
X147868699Y-121378801D02*
X147120700Y-120630802D01*
X147120700Y-120630802D02*
X147120700Y-119945101D01*
X146108698Y-119945101D02*
X147120700Y-119945101D01*
%TO.N,IC_VIN_EN*%
X148177200Y-119908599D02*
X148721801Y-119908599D01*
X149870600Y-110835000D02*
X150977600Y-109728000D01*
X148721801Y-119908599D02*
X149870600Y-118759800D01*
X149870600Y-118759800D02*
X149870600Y-110835000D01*
X148140698Y-119945101D02*
X148177200Y-119908599D01*
%TO.N,VBUS2*%
X124663200Y-105725128D02*
X124663200Y-106070400D01*
X116967000Y-103403400D02*
X116967000Y-103207736D01*
X139115799Y-106248199D02*
X138785600Y-105918000D01*
X138912599Y-102438201D02*
X140047200Y-102438201D01*
X123540800Y-104602728D02*
X124663200Y-105725128D01*
X122738272Y-102428600D02*
X123540800Y-103231128D01*
X116967000Y-103207736D02*
X117746136Y-102428600D01*
X123540800Y-103231128D02*
X123540800Y-104602728D01*
X138785600Y-105918000D02*
X138785600Y-102565200D01*
X124663200Y-106063514D02*
X124663200Y-106070400D01*
X140047200Y-106248199D02*
X139115799Y-106248199D01*
X117746136Y-102428600D02*
X122738272Y-102428600D01*
X138785600Y-102565200D02*
X138912599Y-102438201D01*
%TO.N,BMS_~{ACDRV}*%
X146474914Y-117398800D02*
X148488400Y-115385314D01*
X138741200Y-116948000D02*
X137816401Y-116023201D01*
X143789400Y-117398800D02*
X146474914Y-117398800D01*
X139198886Y-116992400D02*
X139154486Y-116948000D01*
X137816401Y-116023201D02*
X137816401Y-114965000D01*
X139547600Y-116992400D02*
X139198886Y-116992400D01*
X139154486Y-116948000D02*
X138741200Y-116948000D01*
X148488400Y-115385314D02*
X148488400Y-114401600D01*
X148488400Y-114401600D02*
X149174200Y-113715800D01*
%TO.N,/Power/U5EN*%
X136093200Y-131085202D02*
X136271000Y-130907402D01*
X136271000Y-130907402D02*
X136271000Y-128498600D01*
D55*
%TO.N,/USB-C Controller/Battery Charger/U1AC_P*%
X138316401Y-114965001D02*
X138404801Y-115053401D01*
X138404801Y-115053401D02*
X138404801Y-115570139D01*
X139955175Y-116341200D02*
X140120001Y-116506026D01*
X140099900Y-119842999D02*
X140099900Y-119299902D01*
X139801602Y-117876802D02*
X139801600Y-117906800D01*
X138404801Y-115570139D02*
X139175862Y-116341200D01*
X140099900Y-119299902D02*
X139773599Y-118973601D01*
X139801601Y-118915599D02*
X139773599Y-118943601D01*
X139801601Y-117876801D02*
X139801601Y-118915599D01*
X139801600Y-117411800D02*
X139801602Y-117876802D01*
X140120001Y-117093400D02*
X139801600Y-117411800D01*
X139773600Y-118943601D02*
X139773600Y-118913600D01*
X139175862Y-116341200D02*
X139955175Y-116341200D01*
X138404800Y-115348400D02*
X138316401Y-115260000D01*
X140120001Y-116506026D02*
X140120001Y-117093400D01*
X138316401Y-115260000D02*
X138316401Y-114965001D01*
X139773599Y-118973601D02*
X139773599Y-118943601D01*
X140010199Y-119932700D02*
X140099900Y-119842999D01*
%TO.N,/USB-C Controller/Battery Charger/U1AC_N*%
X140761601Y-117876801D02*
X140761601Y-118915603D01*
X140443201Y-117093400D02*
X140761602Y-117411799D01*
X138728001Y-115053401D02*
X138728001Y-115436263D01*
X140512800Y-119932699D02*
X140423100Y-119842999D01*
X140789599Y-118973601D02*
X140789599Y-118943601D01*
X140512800Y-119932700D02*
X140512800Y-119932699D01*
X140789602Y-118943602D02*
X140789600Y-118913601D01*
X139309738Y-116018000D02*
X140089051Y-116018000D01*
X140761601Y-118915603D02*
X140789599Y-118943601D01*
X138816401Y-115260001D02*
X138816401Y-114965000D01*
X138816401Y-114965001D02*
X138728001Y-115053401D01*
X138816401Y-114965000D02*
X138816401Y-114965001D01*
X138728002Y-115348400D02*
X138816401Y-115260001D01*
X140761600Y-117876801D02*
X140761600Y-117906801D01*
X140423100Y-119340100D02*
X140789599Y-118973601D01*
X138728001Y-115436263D02*
X139309738Y-116018000D01*
X140443201Y-116372150D02*
X140443201Y-117093400D01*
X140761602Y-117411799D02*
X140761600Y-117876801D01*
X140089051Y-116018000D02*
X140443201Y-116372150D01*
X140423100Y-119842999D02*
X140423100Y-119340100D01*
%TO.N,/USB-C Controller/Battery Charger/U1SRP_N*%
X127625738Y-114842600D02*
X128812600Y-113655738D01*
X131318000Y-110296000D02*
X131675600Y-110296000D01*
X136316401Y-111094999D02*
X136404801Y-111006599D01*
X129235080Y-110270600D02*
X131292600Y-110270600D01*
X119116800Y-113935138D02*
X120024262Y-114842600D01*
X136404801Y-111006599D02*
X136404801Y-110471339D01*
X133879401Y-110245200D02*
X133561001Y-110563600D01*
X136178662Y-110245200D02*
X133879401Y-110245200D01*
X120024262Y-114842600D02*
X127625738Y-114842600D01*
X133561001Y-110563600D02*
X133096000Y-110563600D01*
X136316401Y-111095000D02*
X136316401Y-111094999D01*
X119024400Y-113458200D02*
X119116800Y-113550600D01*
X132050000Y-110670400D02*
X132080000Y-110670400D01*
X128812600Y-113655738D02*
X128812600Y-110693080D01*
X136404801Y-110471339D02*
X136178662Y-110245200D01*
X131292600Y-110270600D02*
X131318000Y-110296000D01*
X119116800Y-113550600D02*
X119116800Y-113935138D01*
X132186800Y-110563600D02*
X132080000Y-110670400D01*
X133096000Y-110563600D02*
X132186800Y-110563600D01*
X128812600Y-110693080D02*
X129235080Y-110270600D01*
X131675600Y-110296000D02*
X132050000Y-110670400D01*
%TO.N,/USB-C Controller/Battery Charger/U1SRP_P*%
X131416282Y-109947400D02*
X131441682Y-109972800D01*
X136728001Y-111006599D02*
X136728001Y-110337463D01*
X128489400Y-113521862D02*
X128489400Y-110559204D01*
X132050000Y-109598400D02*
X132080000Y-109598400D01*
X133561001Y-109603600D02*
X133096000Y-109603600D01*
X128489400Y-110559204D02*
X129101204Y-109947400D01*
X133090800Y-109598400D02*
X133096000Y-109603600D01*
X136816401Y-111094999D02*
X136728001Y-111006599D01*
X120158138Y-114519400D02*
X127491862Y-114519400D01*
X119440000Y-113550600D02*
X119440000Y-113801262D01*
X119532400Y-113458200D02*
X119440000Y-113550600D01*
X129101204Y-109947400D02*
X131416282Y-109947400D01*
X131441682Y-109972800D02*
X131675600Y-109972800D01*
X136728001Y-110337463D02*
X136312538Y-109922000D01*
X133879401Y-109922000D02*
X133561001Y-109603600D01*
X127491862Y-114519400D02*
X128489400Y-113521862D01*
X131675600Y-109972800D02*
X132050000Y-109598400D01*
X136312538Y-109922000D02*
X133879401Y-109922000D01*
X119440000Y-113801262D02*
X120158138Y-114519400D01*
X132080000Y-109598400D02*
X133090800Y-109598400D01*
D52*
%TO.N,/Power/U1FB*%
X154444600Y-104581400D02*
X154444600Y-103192800D01*
X153966802Y-105059199D02*
X154444600Y-104581400D01*
X152996800Y-105571999D02*
X153966802Y-105571999D01*
X153966802Y-105571999D02*
X153966802Y-105059199D01*
%TO.N,/Power/U2FB*%
X146966399Y-104141999D02*
X147777200Y-104141999D01*
X146532600Y-103708200D02*
X146966399Y-104141999D01*
X145347200Y-103708200D02*
X146532600Y-103708200D01*
X147777200Y-104141999D02*
X147777200Y-105112001D01*
D50*
%TO.N,/USB-C Controller/Battery Charger/VBAT*%
X116452600Y-131083000D02*
X116141401Y-131083000D01*
X124945200Y-131195999D02*
X124945200Y-131848800D01*
D52*
X119100600Y-110439200D02*
X123139200Y-110439200D01*
X125018800Y-110439200D02*
X125120400Y-110540800D01*
D50*
X116141401Y-131083000D02*
X115162201Y-130103800D01*
D52*
X129387600Y-111709200D02*
X129692400Y-112014000D01*
X130076000Y-111048800D02*
X130076000Y-111984001D01*
X127965200Y-111658400D02*
X127965200Y-111302800D01*
X119024400Y-112594601D02*
X118922802Y-112493003D01*
X118922802Y-112493003D02*
X118365903Y-112493001D01*
D50*
X111048800Y-127762000D02*
X109778800Y-127762000D01*
X124945200Y-131848800D02*
X124638000Y-132156000D01*
X115162201Y-130103800D02*
X113390600Y-130103800D01*
D52*
X130076000Y-112014000D02*
X130076000Y-111048800D01*
X127965200Y-111302800D02*
X127457200Y-110794800D01*
X119024400Y-112858200D02*
X119024400Y-112594601D01*
X118365902Y-111173898D02*
X119100600Y-110439200D01*
D50*
X113390600Y-130103800D02*
X111048800Y-127762000D01*
X117525600Y-132156000D02*
X116452600Y-131083000D01*
D52*
X118365902Y-112493001D02*
X118365902Y-111173898D01*
X123139200Y-110439200D02*
X125018800Y-110439200D01*
X130076000Y-111984001D02*
X130046001Y-112014000D01*
X129692400Y-112014000D02*
X130076000Y-112014000D01*
D50*
X124638000Y-132156000D02*
X117525600Y-132156000D01*
D51*
%TO.N,/USB-C Controller/Battery Pack Protection/B1-B2*%
X113154200Y-125854200D02*
X113154200Y-127683000D01*
X114508200Y-129037000D02*
X115162201Y-129037000D01*
X110360200Y-123060200D02*
X113154200Y-125854200D01*
X113154200Y-127683000D02*
X114508200Y-129037000D01*
%TO.N,/USB-C Controller/Battery Pack Protection/B2-B3*%
X113504200Y-126915400D02*
X114559000Y-127970200D01*
X111709200Y-121869200D02*
X111709200Y-123914225D01*
X113504200Y-125709225D02*
X113504200Y-126915400D01*
X114559000Y-127970200D02*
X115162201Y-127970200D01*
X110360200Y-120520200D02*
X111709200Y-121869200D01*
X111709200Y-123914225D02*
X113504200Y-125709225D01*
%TO.N,/USB-C Controller/Battery Pack Protection/B3-B4*%
X110360200Y-117980200D02*
X112059200Y-119679200D01*
X115162201Y-126903400D02*
X115184801Y-126926000D01*
X112059200Y-123769251D02*
X113854200Y-125564251D01*
X112059200Y-119679200D02*
X112059200Y-123769251D01*
X113854200Y-126452600D02*
X114305000Y-126903400D01*
X113854200Y-125564251D02*
X113854200Y-126452600D01*
X114305000Y-126903400D02*
X115162201Y-126903400D01*
D52*
%TO.N,/USB-C Controller/GATE1*%
X118491000Y-109905800D02*
X122148600Y-109905800D01*
X118033800Y-104800400D02*
X119151400Y-105918000D01*
X119151400Y-105918000D02*
X123952000Y-105918000D01*
X117703600Y-110693200D02*
X118491000Y-109905800D01*
X122148600Y-109905800D02*
X122682000Y-109372400D01*
X123952000Y-105918000D02*
X124155200Y-106121200D01*
%TO.N,/USB-C Controller/S2S1*%
X123240800Y-105410000D02*
X123317000Y-105486200D01*
X117506563Y-103092437D02*
X117870400Y-102728600D01*
X123240800Y-103355392D02*
X123240800Y-105410000D01*
X117870400Y-102728600D02*
X122614008Y-102728600D01*
X122614008Y-102728600D02*
X123240800Y-103355392D01*
X117506563Y-103315092D02*
X117506563Y-103092437D01*
%TO.N,/USB-C Controller/GATE2*%
X130556000Y-114604800D02*
X132299900Y-114604800D01*
X132842000Y-114062700D02*
X132842000Y-113842800D01*
X130327400Y-114833400D02*
X130556000Y-114604800D01*
X132299900Y-114604800D02*
X132842000Y-114062700D01*
%TO.N,/USB-C Controller/Battery Charger/U3VCC*%
X140696000Y-114279999D02*
X139501401Y-114280000D01*
X141986001Y-114454399D02*
X141984002Y-114452400D01*
X141984002Y-114452400D02*
X140868401Y-114452400D01*
X143052801Y-115496400D02*
X141986001Y-115496400D01*
X140868401Y-114452400D02*
X140696000Y-114279999D01*
X141986001Y-115496400D02*
X141986001Y-114454399D01*
%TO.N,/USB-C Controller/Battery Charger/GATE3*%
X144920199Y-122977301D02*
X144920199Y-123799600D01*
X145868699Y-122028801D02*
X144981398Y-121141501D01*
X145868699Y-122028801D02*
X144920199Y-122977301D01*
X143197099Y-121141501D02*
X143154400Y-121098802D01*
X143510000Y-127127000D02*
X143020498Y-126637498D01*
X144920199Y-123799600D02*
X144920199Y-124345401D01*
X144981398Y-121141501D02*
X144232599Y-121141501D01*
X144881600Y-127127000D02*
X143510000Y-127127000D01*
X143020498Y-126637498D02*
X143020498Y-126319901D01*
X144232599Y-121141501D02*
X143197099Y-121141501D01*
%TO.N,/USB-C Controller/Battery Charger/S2S3*%
X143865600Y-116699886D02*
X143865600Y-114757200D01*
X143560800Y-114452400D02*
X143004000Y-114452400D01*
X143020498Y-124339901D02*
X143020498Y-123501702D01*
X143154400Y-122118800D02*
X144215300Y-122118800D01*
X142404686Y-118160800D02*
X143865600Y-116699886D01*
X143865600Y-114757200D02*
X143560800Y-114452400D01*
X144215300Y-122118800D02*
X144232599Y-122101501D01*
X143161301Y-122624299D02*
X143161301Y-122137299D01*
X141503400Y-122453400D02*
X141674299Y-122624299D01*
X142290800Y-118160800D02*
X142404686Y-118160800D01*
X141674299Y-122624299D02*
X143161301Y-122624299D01*
X143161301Y-123360899D02*
X143161301Y-122624299D01*
X143020498Y-123501702D02*
X143161301Y-123360899D01*
%TO.N,/USB-C Controller/Battery Charger/U1BATGATE*%
X107762200Y-111753799D02*
X107793801Y-111785400D01*
X108894802Y-111785400D02*
X109767401Y-112657999D01*
X107762200Y-112850598D02*
X107713399Y-112899399D01*
X107732201Y-111783798D02*
X107762200Y-111753799D01*
X107793801Y-111785400D02*
X108894802Y-111785400D01*
X107762200Y-111753799D02*
X107762200Y-112850598D01*
X106695402Y-111783798D02*
X107732201Y-111783798D01*
%TO.N,/USB-C Controller/Battery Charger/U1ACP*%
X140010199Y-121154299D02*
X139887499Y-121276999D01*
X140010199Y-120532700D02*
X140010199Y-121154299D01*
%TO.N,/USB-C Controller/Battery Charger/SW_BAT*%
X134061200Y-106273600D02*
X133654800Y-106273600D01*
X141498942Y-112279999D02*
X140716000Y-112279999D01*
X139501401Y-112280000D02*
X140716000Y-112279999D01*
X142923201Y-113030000D02*
X142310000Y-112416799D01*
X135636000Y-108178600D02*
X135636000Y-107848400D01*
X127836302Y-106426000D02*
X127836302Y-106829401D01*
X141635741Y-112416800D02*
X141498942Y-112279999D01*
X135636000Y-107848400D02*
X134061200Y-106273600D01*
X142310000Y-112416799D02*
X141635741Y-112416800D01*
%TO.N,/USB-C Controller/Battery Charger/U1BTST*%
X139501401Y-113280000D02*
X141713201Y-113280000D01*
X141713201Y-113280000D02*
X141963201Y-113030000D01*
X141963201Y-113030000D02*
X142473201Y-113540000D01*
X142473201Y-113540000D02*
X144404799Y-113540000D01*
X144404799Y-113540000D02*
X144627600Y-113317199D01*
%TO.N,/USB-C Controller/Battery Charger/U1REGN*%
X141963201Y-111353600D02*
X141709201Y-111099600D01*
X141963201Y-111353600D02*
X141982541Y-111353600D01*
X142492541Y-110843600D02*
X144353999Y-110843600D01*
X144353999Y-110843600D02*
X144627600Y-111117201D01*
X141709201Y-111099600D02*
X138821001Y-111099600D01*
X141982541Y-111353600D02*
X142492541Y-110843600D01*
X138821001Y-111099600D02*
X138816399Y-111095000D01*
%TO.N,/USB-C Controller/Battery Charger/U1VREF*%
X136804400Y-116738400D02*
X137316400Y-116226400D01*
X134366000Y-114300000D02*
X134366000Y-113385600D01*
X135940800Y-116738400D02*
X136804400Y-116738400D01*
X134971599Y-112780001D02*
X135631400Y-112780001D01*
X135940800Y-116738400D02*
X135257601Y-117421599D01*
X135257601Y-117421599D02*
X135257601Y-117449600D01*
X134772400Y-114706400D02*
X134366000Y-114300000D01*
X134366000Y-113385600D02*
X134971599Y-112780001D01*
X135026400Y-114706400D02*
X134772400Y-114706400D01*
X137316400Y-116226400D02*
X137316400Y-114964999D01*
%TO.N,/USB-C Controller/Battery Charger/SW_BAT_R*%
X119532400Y-112858200D02*
X119532400Y-112594604D01*
X119634003Y-112493001D02*
X120190902Y-112493001D01*
X119532400Y-112594604D02*
X119634003Y-112493001D01*
%TO.N,/USB-C Controller/Battery Charger/U1VFB*%
X131319999Y-112268000D02*
X131065999Y-112014000D01*
X131065999Y-112014000D02*
X131065999Y-111078799D01*
X135631401Y-111780000D02*
X134092000Y-111780000D01*
X131065999Y-111078799D02*
X131036000Y-111048800D01*
X134092000Y-111780000D02*
X133604000Y-112268000D01*
X130100800Y-112979199D02*
X131065999Y-112014000D01*
X130046002Y-112979199D02*
X130100800Y-112979199D01*
X133604000Y-112268000D02*
X131319999Y-112268000D01*
%TO.N,/USB-C Controller/Battery Charger/U1TTC*%
X135631400Y-114711000D02*
X135631400Y-114279999D01*
X133192399Y-115163600D02*
X133395599Y-115366800D01*
X133395599Y-115366800D02*
X134975600Y-115366800D01*
X133192399Y-115163600D02*
X132102800Y-115163600D01*
X134975600Y-115366800D02*
X135631400Y-114711000D01*
%TO.N,/USB-C Controller/Battery Charger/U1TS*%
X134238400Y-117451600D02*
X134236401Y-117449601D01*
X134236401Y-116664799D02*
X135936200Y-114965000D01*
X134236401Y-117449601D02*
X134236401Y-116664799D01*
X135936200Y-114965000D02*
X136316401Y-114965000D01*
X134238400Y-118516401D02*
X134238400Y-117451600D01*
D51*
%TO.N,/USB-C Controller/Battery Pack Protection/VDD*%
X123184868Y-131724400D02*
X123178268Y-131731000D01*
D50*
X120904000Y-128924200D02*
X120929600Y-128898600D01*
X120904000Y-131193999D02*
X120904000Y-128924200D01*
D51*
X123647200Y-131724400D02*
X123184868Y-131724400D01*
D50*
X120902000Y-131195999D02*
X120904000Y-131193999D01*
D51*
X123925201Y-131196000D02*
X123925201Y-131446399D01*
X123925201Y-131446399D02*
X123647200Y-131724400D01*
X129515200Y-129056801D02*
X128778001Y-129794000D01*
X121437000Y-131731000D02*
X120902000Y-131196000D01*
X129515200Y-128607200D02*
X129515200Y-129056801D01*
X125327201Y-129794000D02*
X123925201Y-131196000D01*
X128778001Y-129794000D02*
X125327201Y-129794000D01*
X123178268Y-131731000D02*
X121437000Y-131731000D01*
%TO.N,/USB-C Controller/Battery Pack Protection/AVDD*%
X121898600Y-128248600D02*
X122123200Y-128473200D01*
X119858600Y-128248600D02*
X120929600Y-128248600D01*
X121920000Y-131192800D02*
X121923200Y-131196000D01*
X120929600Y-128248600D02*
X121898600Y-128248600D01*
X122123200Y-129318200D02*
X122692041Y-129318200D01*
X122123200Y-128473200D02*
X122123200Y-129318200D01*
X121923200Y-129892400D02*
X122123200Y-129692400D01*
X119634000Y-129336800D02*
X119634000Y-128473200D01*
X119942000Y-129644800D02*
X119634000Y-129336800D01*
X122692041Y-129318200D02*
X123157800Y-128852441D01*
X121923200Y-131365600D02*
X121923200Y-131196000D01*
X123157800Y-128810200D02*
X125669400Y-126298600D01*
X123157800Y-128852441D02*
X123157800Y-128810200D01*
X125669400Y-126298600D02*
X126669600Y-126298601D01*
X119634000Y-128473200D02*
X119858600Y-128248600D01*
X121923200Y-131196000D02*
X121923200Y-129892400D01*
X119942000Y-131196000D02*
X119942000Y-129644800D01*
X122123200Y-129692400D02*
X122123200Y-129318200D01*
%TO.N,/USB-C Controller/Battery Pack Protection/VC3*%
X118130800Y-129053016D02*
X118130800Y-129037000D01*
X117173400Y-130103800D02*
X117173400Y-130028201D01*
X118741600Y-127912138D02*
X119194800Y-127458938D01*
X117173400Y-130028201D02*
X116182200Y-129037000D01*
X118741599Y-128426200D02*
X118741600Y-127912138D01*
X119865173Y-126298601D02*
X120929600Y-126298601D01*
X118130800Y-129037000D02*
X118741599Y-128426200D01*
X117173400Y-130103800D02*
X117173400Y-130010415D01*
X117173400Y-130010415D02*
X118130800Y-129053016D01*
X119544800Y-126618974D02*
X119865173Y-126298601D01*
X119194800Y-127458938D02*
X119194800Y-126968974D01*
X119194800Y-126968974D02*
X119544800Y-126618975D01*
X119544800Y-126618975D02*
X119544800Y-126618974D01*
%TO.N,/USB-C Controller/Battery Pack Protection/VC4*%
X119684800Y-127598600D02*
X119684801Y-127598599D01*
D52*
X117554200Y-130683000D02*
X118133400Y-130103800D01*
D51*
X119684800Y-127285322D02*
X120021522Y-126948600D01*
X119684800Y-127609600D02*
X119684800Y-127285322D01*
X118133400Y-130103800D02*
X119194800Y-129042400D01*
D52*
X116586000Y-130683000D02*
X117554200Y-130683000D01*
X116182199Y-130279199D02*
X116586000Y-130683000D01*
D51*
X120021522Y-126948600D02*
X120929600Y-126948600D01*
X119684801Y-127598599D02*
X120929600Y-127598599D01*
X119194800Y-128099600D02*
X119684800Y-127609600D01*
X119194800Y-129042400D02*
X119194800Y-128099600D01*
D52*
X116182199Y-130103800D02*
X116182199Y-130279199D01*
D51*
%TO.N,/USB-C Controller/Battery Pack Protection/VC2*%
X117170800Y-129037000D02*
X117170800Y-128948816D01*
X119867800Y-125648600D02*
X120929600Y-125648600D01*
X118741599Y-126774801D02*
X119867800Y-125648600D01*
X117170800Y-128958800D02*
X116182200Y-127970200D01*
X118133400Y-127879416D02*
X118741599Y-127271216D01*
X118741599Y-127271216D02*
X118741599Y-126774801D01*
X117170800Y-128948816D02*
X118133400Y-127986216D01*
X117170800Y-129037000D02*
X117170800Y-128958800D01*
X118133400Y-127970200D02*
X118133400Y-127879416D01*
X118133400Y-127986216D02*
X118133400Y-127970200D01*
%TO.N,/USB-C Controller/Battery Pack Protection/VC1*%
X118133400Y-126903400D02*
X118133400Y-126671800D01*
X116182200Y-126979000D02*
X117173400Y-127970200D01*
X117173400Y-127954184D02*
X117173400Y-127970200D01*
X118133400Y-126994184D02*
X117173400Y-127954184D01*
X118133400Y-126671800D02*
X119806600Y-124998600D01*
X116182200Y-126903400D02*
X116182200Y-126979000D01*
X118133400Y-126903400D02*
X118133400Y-126994184D01*
X119806600Y-124998600D02*
X120929600Y-124998600D01*
D55*
%TO.N,/USB-C Controller/Battery Pack Protection/SR_P*%
X116939000Y-123254999D02*
X116992400Y-123201599D01*
X116992400Y-123201599D02*
X118053999Y-123201599D01*
X120349600Y-123048601D02*
X120929600Y-123048601D01*
X118059200Y-123206800D02*
X118524201Y-123206800D01*
X119862882Y-122885200D02*
X120186199Y-122885200D01*
X118053999Y-123201599D02*
X118059200Y-123206800D01*
X119859282Y-122888800D02*
X119862882Y-122885200D01*
X120186199Y-122885200D02*
X120349600Y-123048601D01*
X118524201Y-123206800D02*
X118842201Y-122888800D01*
X118842201Y-122888800D02*
X119859282Y-122888800D01*
X115978399Y-123254999D02*
X116939000Y-123254999D01*
%TO.N,/USB-C Controller/Battery Pack Protection/SR_N*%
X116992400Y-122241599D02*
X118053199Y-122241599D01*
X118524201Y-122247600D02*
X118842201Y-122565600D01*
X120186199Y-122562001D02*
X120349600Y-122398600D01*
X118053199Y-122241599D02*
X118059200Y-122247600D01*
X115978399Y-122188199D02*
X116939000Y-122188199D01*
X119739199Y-122562001D02*
X120186199Y-122562001D01*
X119735600Y-122565600D02*
X119739199Y-122562001D01*
X120349600Y-122398600D02*
X120929600Y-122398600D01*
X116939000Y-122188199D02*
X116992400Y-122241599D01*
X118059200Y-122247600D02*
X118524201Y-122247600D01*
X118842201Y-122565600D02*
X119735600Y-122565600D01*
D51*
%TO.N,/USB-C Controller/Battery Pack Protection/VC0*%
X118132800Y-125307584D02*
X117488416Y-124663200D01*
X120929600Y-124348599D02*
X119745400Y-124348600D01*
X119745400Y-124348600D02*
X118770400Y-125323600D01*
X118132800Y-125323600D02*
X118132800Y-125307584D01*
X118770400Y-125323600D02*
X118132800Y-125323600D01*
X116840000Y-124663200D02*
X116179600Y-125323600D01*
X117488416Y-124663200D02*
X116840000Y-124663200D01*
D52*
%TO.N,/USB-C Controller/USB-C Connector/C_CC1*%
X160346848Y-123574352D02*
X154408101Y-123574352D01*
X165156709Y-119846030D02*
X165046387Y-119956352D01*
X163964848Y-119956352D02*
X160346848Y-123574352D01*
X165046387Y-119956352D02*
X163964848Y-119956352D01*
X165262777Y-119846030D02*
X165156709Y-119846030D01*
%TO.N,/USB-C Controller/USB-C Connector/C_CC2*%
X164171248Y-120359552D02*
X160434050Y-124096750D01*
X167627459Y-118792673D02*
X166060580Y-120359552D01*
X167627459Y-117264151D02*
X167627459Y-118792673D01*
X160434050Y-124096750D02*
X154611301Y-124096750D01*
X166060580Y-120359552D02*
X164171248Y-120359552D01*
%TO.N,/USB-C Controller/Battery Charger/U1HIDRV*%
X139501401Y-112780000D02*
X140364400Y-112780000D01*
X136093200Y-107848400D02*
X134213600Y-105968800D01*
X133763286Y-105816400D02*
X133350000Y-105816400D01*
X125168103Y-108809400D02*
X125863103Y-108809400D01*
X140411200Y-112826800D02*
X140364400Y-112780000D01*
X133915686Y-105968800D02*
X133763286Y-105816400D01*
X125069600Y-106273600D02*
X125069600Y-108710897D01*
X125374400Y-105968800D02*
X125730000Y-105968800D01*
X125069600Y-106273600D02*
X125374400Y-105968800D01*
X134213600Y-105968800D02*
X133915686Y-105968800D01*
X125069600Y-108710897D02*
X125168103Y-108809400D01*
%TO.N,/USB-C Controller/Battery Charger/U1LODRV*%
X135610600Y-108737400D02*
X135534400Y-108813600D01*
X140289600Y-111780000D02*
X140411200Y-111658400D01*
X131013200Y-109321600D02*
X130821302Y-109129702D01*
X131216400Y-109321600D02*
X131013200Y-109321600D01*
X139501401Y-111780000D02*
X140289600Y-111780000D01*
X130821302Y-109129702D02*
X130821302Y-108809401D01*
X135534400Y-108813600D02*
X133146800Y-108813600D01*
%TO.N,/USB-C Controller/Battery Pack Protection/DSG_G*%
X119528400Y-116002400D02*
X118833400Y-116002400D01*
X121972799Y-118873999D02*
X121920000Y-118821200D01*
X120042399Y-118821200D02*
X119938800Y-118821200D01*
X119938800Y-118821200D02*
X119634000Y-118516400D01*
X121920000Y-118821200D02*
X120042399Y-118821200D01*
X121972799Y-119430800D02*
X121972799Y-118873999D01*
X119634000Y-118516400D02*
X119634000Y-116108000D01*
X119634000Y-116108000D02*
X119528400Y-116002400D01*
X120042399Y-118821200D02*
X120042399Y-119430800D01*
D55*
%TO.N,/USB-C Controller/Battery Pack Protection/NPACK_N*%
X114062138Y-120354400D02*
X113648800Y-120767738D01*
X115884000Y-118882200D02*
X115884000Y-119497738D01*
X114536601Y-122559999D02*
X114908401Y-122188199D01*
X113648800Y-122259462D02*
X113960538Y-122571200D01*
X114311201Y-122559999D02*
X114536601Y-122559999D01*
X113960538Y-122571200D02*
X114300000Y-122571200D01*
X115027338Y-120354400D02*
X114062138Y-120354400D01*
X114300000Y-122571200D02*
X114311201Y-122559999D01*
X114908401Y-122188199D02*
X114958401Y-122188199D01*
X115884000Y-119497738D02*
X115027338Y-120354400D01*
X113648800Y-120767738D02*
X113648800Y-122259462D01*
X115925600Y-118840600D02*
X115884000Y-118882200D01*
D52*
%TO.N,/USB-C Controller/Battery Pack Protection/CHR_G*%
X124614400Y-118768400D02*
X126439200Y-118768401D01*
X124506802Y-119430800D02*
X124506802Y-118875998D01*
X126439200Y-118768401D02*
X126439200Y-119430800D01*
X126611700Y-118595900D02*
X126611700Y-117982400D01*
X126611700Y-118595900D02*
X126439200Y-118768401D01*
X124506802Y-118875998D02*
X124614400Y-118768400D01*
%TO.N,/USB-C Controller/Battery Charger/U1BATDRV*%
X107924600Y-106349800D02*
X108153200Y-106121200D01*
X133813600Y-105416400D02*
X132988000Y-105416400D01*
X107213400Y-110159800D02*
X107924600Y-109448600D01*
X111074200Y-103657400D02*
X115214400Y-103657400D01*
X108153200Y-106121200D02*
X108610400Y-106121200D01*
X136017000Y-107264200D02*
X134421600Y-105668800D01*
X117043200Y-101828600D02*
X122986800Y-101828600D01*
X122986800Y-101828600D02*
X124140800Y-102982600D01*
X134421600Y-105668800D02*
X134066000Y-105668800D01*
X140372400Y-113780000D02*
X140411200Y-113741200D01*
X108610400Y-106121200D02*
X111074200Y-103657400D01*
X134066000Y-105668800D02*
X133813600Y-105416400D01*
X124140800Y-104354200D02*
X124815600Y-105029000D01*
X124815600Y-105029000D02*
X130251200Y-105029000D01*
X132988000Y-105416400D02*
X132842000Y-105562400D01*
X139501402Y-113780000D02*
X140372400Y-113780000D01*
X107924600Y-109448600D02*
X107924600Y-106349800D01*
X124140800Y-102982600D02*
X124140800Y-104354200D01*
X136118600Y-107264200D02*
X136017000Y-107264200D01*
X115214400Y-103657400D02*
X117043200Y-101828600D01*
X107142200Y-112407300D02*
X106647601Y-112901899D01*
%TO.N,/USB-C Controller/Battery Charger/U1ACSET*%
X137816401Y-110189200D02*
X137816401Y-111095000D01*
X140750400Y-109236400D02*
X138769201Y-109236400D01*
X142390400Y-108661199D02*
X142392400Y-108663200D01*
X141325601Y-108661199D02*
X142390400Y-108661199D01*
X141325601Y-108661199D02*
X140750400Y-109236400D01*
X138769201Y-109236400D02*
X137816401Y-110189200D01*
%TO.N,/USB-C Controller/Battery Charger/U1ISET2*%
X138478802Y-108663198D02*
X137316400Y-109825600D01*
X139192000Y-108663199D02*
X138478802Y-108663198D01*
X137316400Y-109825600D02*
X137316400Y-111094999D01*
X139192002Y-108663201D02*
X139192000Y-108663199D01*
X140258800Y-108663200D02*
X139192002Y-108663201D01*
%TO.N,/USB-C Controller/Battery Charger/U1ISET1*%
X132111998Y-113556802D02*
X132220400Y-113448400D01*
X132220400Y-113448400D02*
X132679600Y-113448400D01*
X134252401Y-112279999D02*
X133553200Y-112979200D01*
X135631401Y-112279999D02*
X134252401Y-112279999D01*
X133553200Y-112979200D02*
X133127998Y-112979200D01*
X132111998Y-113995200D02*
X132111998Y-113556802D01*
X132679600Y-113448400D02*
X133199600Y-112928400D01*
%TO.N,/USB-C Controller/Battery Charger/U1NTC*%
X106600000Y-116992400D02*
X106600000Y-128172200D01*
X133216403Y-119585199D02*
X133218402Y-119583201D01*
X133218402Y-119583201D02*
X133218402Y-118516400D01*
X106600000Y-114811800D02*
X106600000Y-116992400D01*
X131038600Y-126009400D02*
X131038600Y-120624600D01*
X132153599Y-119585200D02*
X133216403Y-119585199D01*
X130149600Y-126898400D02*
X131038600Y-126009400D01*
X111252800Y-132825000D02*
X116179600Y-132825000D01*
X108381800Y-109651800D02*
X108356400Y-109677200D01*
X128905000Y-132181600D02*
X130149600Y-130937000D01*
X108381800Y-106527600D02*
X108381800Y-109651800D01*
X131038600Y-120624600D02*
X130886200Y-120472200D01*
X130149600Y-130937000D02*
X130149600Y-126898400D01*
X108407200Y-113004600D02*
X106600000Y-114811800D01*
X132130199Y-119608600D02*
X132153601Y-119585198D01*
X131495800Y-119608600D02*
X132130199Y-119608600D01*
X106600000Y-128172200D02*
X111252800Y-132825000D01*
D51*
%TO.N,/USB-C Controller/Battery Pack Protection/PRES*%
X126680999Y-127587201D02*
X126669600Y-127598599D01*
X129515200Y-127587201D02*
X126680999Y-127587201D01*
%TO.N,/USB-C Controller/Battery Pack Protection/OCDP*%
X129462401Y-124337999D02*
X126680201Y-124337999D01*
X126680201Y-124337999D02*
X126669600Y-124348599D01*
%TO.N,/USB-C Controller/Battery Pack Protection/TS*%
X129462401Y-125404800D02*
X129056201Y-124998600D01*
X129056201Y-124998600D02*
X126669600Y-124998600D01*
D52*
%TO.N,/USB-C Controller/Battery Pack Protection/DSG*%
X120952801Y-121725399D02*
X120929600Y-121748600D01*
X120952801Y-119430800D02*
X120952801Y-121725399D01*
D51*
%TO.N,/USB-C Controller/Battery Pack Protection/CHG*%
X125526800Y-120040400D02*
X126669600Y-121183201D01*
X126669600Y-121183201D02*
X126669600Y-121748600D01*
X125526800Y-119430800D02*
X125526800Y-120040400D01*
%TO.N,/USB-C Controller/Battery Pack Protection/LD*%
X129506200Y-122398600D02*
X126669600Y-122398600D01*
X129515200Y-122407600D02*
X129506200Y-122398600D01*
D52*
%TO.N,/USB-C Controller/Battery Charger/U1STAT1*%
X136816401Y-114965001D02*
X136816401Y-115785201D01*
X136816401Y-115785201D02*
X136855200Y-115824000D01*
%TO.N,/USB-C Controller/Battery Charger/U1STAT2*%
X135302392Y-113280000D02*
X135631401Y-113280000D01*
X134823200Y-113759192D02*
X135302392Y-113280000D01*
X134823200Y-114046000D02*
X134823200Y-113759192D01*
D55*
%TO.N,/USB-C Controller/Battery Pack Protection/NPACK_P*%
X113325600Y-120633862D02*
X113325600Y-122393338D01*
X113325600Y-122393338D02*
X113826662Y-122894400D01*
X114434883Y-122883199D02*
X114536601Y-122883199D01*
X115560800Y-119363862D02*
X114893462Y-120031200D01*
X115560800Y-118882200D02*
X115560800Y-119363862D01*
X114536601Y-122883199D02*
X114908401Y-123254999D01*
X114908401Y-123254999D02*
X114958401Y-123254999D01*
D50*
X114958401Y-123797601D02*
X114960400Y-123799600D01*
D55*
X114423682Y-122894400D02*
X114434883Y-122883199D01*
X115519200Y-118840600D02*
X115560800Y-118882200D01*
X113928262Y-120031200D02*
X113325600Y-120633862D01*
X113826662Y-122894400D02*
X114423682Y-122894400D01*
X114893462Y-120031200D02*
X113928262Y-120031200D01*
D50*
X114958401Y-123254999D02*
X114958401Y-123797601D01*
D52*
%TO.N,Net-(NT502-Pad1)*%
X119022401Y-119430800D02*
X119022401Y-118463601D01*
X119022401Y-118463601D02*
X118833400Y-118274600D01*
D53*
X116052800Y-117576400D02*
X116634900Y-117576400D01*
D52*
X118833400Y-118274600D02*
X118833400Y-117982400D01*
D53*
X115925600Y-118240600D02*
X115925600Y-117703600D01*
X115925600Y-117703600D02*
X116052800Y-117576400D01*
D52*
%TO.N,Net-(J401-Pin_6)*%
X134211176Y-105034112D02*
X134211176Y-103900000D01*
X136553777Y-107073810D02*
X136344167Y-106864200D01*
X136344167Y-106864200D02*
X136041264Y-106864200D01*
X136041264Y-106864200D02*
X134211176Y-105034112D01*
%TO.N,Net-(J401-Pin_5)*%
X123840800Y-103106864D02*
X123840800Y-104478464D01*
X108747664Y-129895600D02*
X106900000Y-128047936D01*
X122862536Y-102128600D02*
X123840800Y-103106864D01*
X106900000Y-128047936D02*
X106900000Y-114936064D01*
X115338664Y-103957400D02*
X117167464Y-102128600D01*
X108813600Y-106342264D02*
X111198464Y-103957400D01*
X108367054Y-113610432D02*
X108807200Y-113170286D01*
X108225632Y-113610432D02*
X108367054Y-113610432D01*
X108807200Y-112464800D02*
X108762800Y-112420400D01*
X123840800Y-104478464D02*
X124823136Y-105460800D01*
X110947200Y-129895600D02*
X108747664Y-129895600D01*
X108813600Y-109982000D02*
X108813600Y-106342264D01*
X131211177Y-104958023D02*
X131211177Y-103900000D01*
X117167464Y-102128600D02*
X122862536Y-102128600D01*
X106900000Y-114936064D02*
X108225632Y-113610432D01*
X124823136Y-105460800D02*
X130708400Y-105460800D01*
X108762800Y-110032800D02*
X108813600Y-109982000D01*
X130708400Y-105460800D02*
X131211177Y-104958023D01*
X108807200Y-113170286D02*
X108807200Y-112464800D01*
X111198464Y-103957400D02*
X115338664Y-103957400D01*
%TD*%
%TA.AperFunction,Conductor*%
%TO.N,/USB-C Controller/DRAIN2*%
G36*
X156168202Y-112002861D02*
G01*
X156206346Y-112010449D01*
X156226298Y-112013409D01*
X156245612Y-112015311D01*
X156265752Y-112016300D01*
X156265769Y-112016300D01*
X159010900Y-112016300D01*
X159069091Y-112035207D01*
X159105055Y-112084707D01*
X159109900Y-112115300D01*
X159109900Y-112464086D01*
X159099110Y-112509031D01*
X159048826Y-112607716D01*
X159048826Y-112607718D01*
X159030219Y-112725199D01*
X159032495Y-112739572D01*
X159022921Y-112800004D01*
X158989724Y-112837365D01*
X158985798Y-112839988D01*
X158985795Y-112839990D01*
X158954645Y-112865557D01*
X158941135Y-112879069D01*
X158941121Y-112879084D01*
X158915583Y-112910205D01*
X158861380Y-112991327D01*
X158842396Y-113026842D01*
X158835082Y-113044497D01*
X158823385Y-113083054D01*
X158803385Y-113183595D01*
X158800425Y-113203558D01*
X158799485Y-113213115D01*
X158798500Y-113233195D01*
X158798500Y-113893900D01*
X158779593Y-113952091D01*
X158730093Y-113988055D01*
X158699500Y-113992900D01*
X158198611Y-113992900D01*
X158189981Y-113993323D01*
X158178467Y-113993889D01*
X158154306Y-113996268D01*
X158154293Y-113996269D01*
X158154292Y-113996270D01*
X158150229Y-113996872D01*
X158134336Y-113999229D01*
X158055702Y-114014870D01*
X158055693Y-114014872D01*
X158055689Y-114014873D01*
X158055684Y-114014874D01*
X158055678Y-114014876D01*
X158017147Y-114026563D01*
X157972467Y-114045069D01*
X157972449Y-114045078D01*
X157936928Y-114064063D01*
X157936915Y-114064071D01*
X157880597Y-114101702D01*
X157880596Y-114101702D01*
X157849468Y-114127250D01*
X157815250Y-114161468D01*
X157789702Y-114192596D01*
X157789702Y-114192597D01*
X157752071Y-114248915D01*
X157752063Y-114248928D01*
X157733078Y-114284449D01*
X157733069Y-114284467D01*
X157714563Y-114329147D01*
X157702876Y-114367678D01*
X157702870Y-114367702D01*
X157687229Y-114446339D01*
X157687224Y-114446362D01*
X157684270Y-114466291D01*
X157681889Y-114490465D01*
X157680900Y-114510615D01*
X157680900Y-115466549D01*
X157678997Y-115485865D01*
X157673829Y-115511843D01*
X157659047Y-115547529D01*
X157644326Y-115569560D01*
X157632015Y-115584562D01*
X157452796Y-115763781D01*
X157398279Y-115791558D01*
X157337847Y-115781987D01*
X157300477Y-115748779D01*
X157239733Y-115657870D01*
X157239732Y-115657868D01*
X157239289Y-115657572D01*
X157142405Y-115592835D01*
X157027602Y-115570000D01*
X157027600Y-115570000D01*
X156265752Y-115570000D01*
X156246438Y-115568098D01*
X156160508Y-115551005D01*
X156124821Y-115536223D01*
X156112246Y-115527821D01*
X156060238Y-115493070D01*
X156032929Y-115465761D01*
X155989775Y-115401177D01*
X155974994Y-115365491D01*
X155957902Y-115279562D01*
X155956000Y-115260248D01*
X155956000Y-112272951D01*
X155957902Y-112253637D01*
X155974994Y-112167708D01*
X155989777Y-112132021D01*
X156032928Y-112067441D01*
X156060238Y-112040129D01*
X156093891Y-112017643D01*
X156152777Y-112001035D01*
X156168202Y-112002861D01*
G37*
%TD.AperFunction*%
%TD*%
%TA.AperFunction,Conductor*%
%TO.N,/USB-C Controller/DRAIN1*%
G36*
X159551691Y-107511707D02*
G01*
X159587655Y-107561207D01*
X159592500Y-107591800D01*
X159592500Y-109927111D01*
X159573593Y-109985302D01*
X159524093Y-110021266D01*
X159462907Y-110021266D01*
X159413407Y-109985302D01*
X159410525Y-109980599D01*
X159407574Y-109976537D01*
X159407573Y-109976535D01*
X159323465Y-109892427D01*
X159323462Y-109892425D01*
X159217488Y-109838428D01*
X159217483Y-109838426D01*
X159217482Y-109838426D01*
X159100000Y-109819819D01*
X158982518Y-109838426D01*
X158982511Y-109838428D01*
X158876537Y-109892425D01*
X158792425Y-109976537D01*
X158738428Y-110082511D01*
X158738426Y-110082518D01*
X158719819Y-110199999D01*
X158719819Y-110200000D01*
X158738426Y-110317481D01*
X158738428Y-110317488D01*
X158774143Y-110387581D01*
X158792427Y-110423465D01*
X158876535Y-110507573D01*
X158876537Y-110507574D01*
X158982511Y-110561571D01*
X158982513Y-110561571D01*
X158982518Y-110561574D01*
X159045897Y-110571612D01*
X159100414Y-110599389D01*
X159128191Y-110653906D01*
X159126037Y-110695014D01*
X159109900Y-110755238D01*
X159109900Y-110755240D01*
X159109900Y-111711800D01*
X159090993Y-111769991D01*
X159041493Y-111805955D01*
X159010900Y-111810800D01*
X156265752Y-111810800D01*
X156246438Y-111808898D01*
X156160508Y-111791805D01*
X156124821Y-111777023D01*
X156112246Y-111768621D01*
X156060238Y-111733870D01*
X156032929Y-111706561D01*
X155989775Y-111641977D01*
X155974994Y-111606291D01*
X155957902Y-111520362D01*
X155956000Y-111501048D01*
X155956000Y-108513751D01*
X155957902Y-108494437D01*
X155974994Y-108408508D01*
X155989774Y-108372824D01*
X156032931Y-108308235D01*
X156060235Y-108280931D01*
X156124824Y-108237774D01*
X156160507Y-108222994D01*
X156205341Y-108214076D01*
X156246439Y-108205902D01*
X156265752Y-108204000D01*
X156522055Y-108204000D01*
X156580246Y-108222907D01*
X156592057Y-108232995D01*
X156616633Y-108257571D01*
X156616638Y-108257574D01*
X156722612Y-108311571D01*
X156722614Y-108311571D01*
X156722619Y-108311574D01*
X156840101Y-108330181D01*
X156957583Y-108311574D01*
X157063566Y-108257573D01*
X157128193Y-108192945D01*
X157143178Y-108180647D01*
X157239732Y-108116132D01*
X157304764Y-108018805D01*
X157327600Y-107904000D01*
X157327600Y-107802551D01*
X157329502Y-107783237D01*
X157346594Y-107697308D01*
X157361374Y-107661624D01*
X157404531Y-107597035D01*
X157431835Y-107569731D01*
X157489045Y-107531505D01*
X157547930Y-107514898D01*
X157605334Y-107536076D01*
X157614047Y-107543818D01*
X157693914Y-107623685D01*
X157721691Y-107678202D01*
X157712120Y-107738634D01*
X157677226Y-107807116D01*
X157677226Y-107807118D01*
X157658619Y-107924599D01*
X157658619Y-107924600D01*
X157677226Y-108042081D01*
X157677228Y-108042088D01*
X157714956Y-108116132D01*
X157731227Y-108148065D01*
X157815335Y-108232173D01*
X157815337Y-108232174D01*
X157921311Y-108286171D01*
X157921313Y-108286171D01*
X157921318Y-108286174D01*
X158038800Y-108304781D01*
X158156282Y-108286174D01*
X158262265Y-108232173D01*
X158346373Y-108148065D01*
X158400374Y-108042082D01*
X158418981Y-107924600D01*
X158400374Y-107807118D01*
X158350089Y-107708429D01*
X158339300Y-107663486D01*
X158339300Y-107591800D01*
X158358207Y-107533609D01*
X158407707Y-107497645D01*
X158438300Y-107492800D01*
X159493500Y-107492800D01*
X159551691Y-107511707D01*
G37*
%TD.AperFunction*%
%TD*%
%TA.AperFunction,Conductor*%
%TO.N,GND2*%
G36*
X111513080Y-115775581D02*
G01*
X111591706Y-115791219D01*
X111636396Y-115809727D01*
X111703062Y-115854263D01*
X111721848Y-115869678D01*
X112070582Y-116218334D01*
X112070586Y-116218337D01*
X112070589Y-116218340D01*
X112167889Y-116283346D01*
X112282656Y-116306184D01*
X115029234Y-116306557D01*
X115053417Y-116308942D01*
X115132044Y-116324592D01*
X115176735Y-116343108D01*
X115233042Y-116380739D01*
X115267246Y-116414949D01*
X115304865Y-116471255D01*
X115323378Y-116515951D01*
X115339018Y-116594581D01*
X115341400Y-116618771D01*
X115341400Y-117975589D01*
X115339017Y-117999780D01*
X115323376Y-118078412D01*
X115304862Y-118123111D01*
X115267236Y-118179423D01*
X115233023Y-118213636D01*
X115176711Y-118251262D01*
X115132012Y-118269776D01*
X115053380Y-118285417D01*
X115029189Y-118287800D01*
X111744075Y-118287800D01*
X111719884Y-118285417D01*
X111641251Y-118269776D01*
X111596551Y-118251261D01*
X111529885Y-118206716D01*
X111511095Y-118191295D01*
X110552471Y-117232670D01*
X110552463Y-117232664D01*
X110455142Y-117167636D01*
X110455138Y-117167634D01*
X110340340Y-117144800D01*
X110340336Y-117144800D01*
X107324500Y-117144800D01*
X107257461Y-117125115D01*
X107211706Y-117072311D01*
X107200500Y-117020800D01*
X107200500Y-115897200D01*
X107220185Y-115830161D01*
X107272989Y-115784406D01*
X107324500Y-115773200D01*
X111488893Y-115773200D01*
X111513080Y-115775581D01*
G37*
%TD.AperFunction*%
%TD*%
%TA.AperFunction,Conductor*%
%TO.N,GND*%
G36*
X153892814Y-97057285D02*
G01*
X153938569Y-97110089D01*
X153948513Y-97179247D01*
X153948479Y-97179478D01*
X153944099Y-97209539D01*
X153944099Y-98576060D01*
X153954025Y-98644191D01*
X154005402Y-98749285D01*
X154088113Y-98831996D01*
X154088114Y-98831996D01*
X154088116Y-98831998D01*
X154193206Y-98883373D01*
X154227272Y-98888336D01*
X154261338Y-98893300D01*
X154261339Y-98893300D01*
X154627860Y-98893300D01*
X154650570Y-98889991D01*
X154695992Y-98883373D01*
X154801082Y-98831998D01*
X154883797Y-98749283D01*
X154935172Y-98644193D01*
X154945099Y-98576060D01*
X154945099Y-97209540D01*
X154944042Y-97202288D01*
X154940719Y-97179478D01*
X154950532Y-97110301D01*
X154996187Y-97057411D01*
X155063189Y-97037600D01*
X155095774Y-97037600D01*
X155162813Y-97057285D01*
X155208568Y-97110089D01*
X155218512Y-97179247D01*
X155218478Y-97179478D01*
X155214098Y-97209539D01*
X155214098Y-98576060D01*
X155224024Y-98644191D01*
X155275401Y-98749285D01*
X155358112Y-98831996D01*
X155358113Y-98831996D01*
X155358115Y-98831998D01*
X155463205Y-98883373D01*
X155497271Y-98888336D01*
X155531337Y-98893300D01*
X155531338Y-98893300D01*
X155897859Y-98893300D01*
X155920569Y-98889991D01*
X155965991Y-98883373D01*
X156071081Y-98831998D01*
X156153796Y-98749283D01*
X156205171Y-98644193D01*
X156215098Y-98576060D01*
X156215098Y-97209540D01*
X156214041Y-97202288D01*
X156210718Y-97179478D01*
X156220531Y-97110301D01*
X156266186Y-97057411D01*
X156333188Y-97037600D01*
X158780589Y-97037600D01*
X158804771Y-97039981D01*
X158883418Y-97055624D01*
X158928108Y-97074135D01*
X158984426Y-97111766D01*
X159018633Y-97145973D01*
X159056262Y-97202288D01*
X159074776Y-97246987D01*
X159090417Y-97325619D01*
X159092800Y-97349810D01*
X159092800Y-101022583D01*
X159073115Y-101089622D01*
X159020311Y-101135377D01*
X158951153Y-101145321D01*
X158921353Y-101137146D01*
X158911269Y-101132969D01*
X158872709Y-101121272D01*
X158794062Y-101105629D01*
X158774126Y-101102672D01*
X158774094Y-101102668D01*
X158749948Y-101100291D01*
X158749917Y-101100288D01*
X158739698Y-101099786D01*
X158729789Y-101099300D01*
X156536875Y-101099300D01*
X156525368Y-101099865D01*
X156516730Y-101100289D01*
X156492573Y-101102668D01*
X156492560Y-101102669D01*
X156492556Y-101102670D01*
X156492550Y-101102670D01*
X156492525Y-101102674D01*
X156472593Y-101105630D01*
X156393955Y-101121272D01*
X156393952Y-101121273D01*
X156379080Y-101125784D01*
X156355399Y-101132969D01*
X156355394Y-101132970D01*
X156355394Y-101132971D01*
X156310707Y-101151481D01*
X156310704Y-101151482D01*
X156275194Y-101170463D01*
X156208521Y-101215012D01*
X156208482Y-101215039D01*
X156192324Y-101227024D01*
X156192294Y-101227047D01*
X156173534Y-101242443D01*
X156158584Y-101255994D01*
X155284794Y-102129784D01*
X155271243Y-102144734D01*
X155255847Y-102163494D01*
X155255824Y-102163524D01*
X155243839Y-102179682D01*
X155243812Y-102179721D01*
X155199263Y-102246394D01*
X155180282Y-102281904D01*
X155180281Y-102281907D01*
X155161771Y-102326594D01*
X155150072Y-102365157D01*
X155148810Y-102371501D01*
X155116422Y-102433410D01*
X155055705Y-102467982D01*
X154985936Y-102464240D01*
X154929265Y-102423372D01*
X154915792Y-102401765D01*
X154883797Y-102336317D01*
X154883795Y-102336315D01*
X154883795Y-102336314D01*
X154801084Y-102253603D01*
X154695990Y-102202226D01*
X154627860Y-102192300D01*
X154627859Y-102192300D01*
X154261339Y-102192300D01*
X154261338Y-102192300D01*
X154193207Y-102202226D01*
X154088113Y-102253603D01*
X154005402Y-102336314D01*
X153954025Y-102441408D01*
X153944099Y-102509539D01*
X153944099Y-103876060D01*
X153948479Y-103906122D01*
X153938666Y-103975299D01*
X153893011Y-104028189D01*
X153826009Y-104048000D01*
X152523424Y-104048000D01*
X152456385Y-104028315D01*
X152410630Y-103975511D01*
X152400686Y-103906353D01*
X152400720Y-103906122D01*
X152405100Y-103876060D01*
X152405100Y-102509539D01*
X152395173Y-102441408D01*
X152395173Y-102441407D01*
X152343798Y-102336317D01*
X152343796Y-102336315D01*
X152343796Y-102336314D01*
X152261085Y-102253603D01*
X152155991Y-102202226D01*
X152087861Y-102192300D01*
X152087860Y-102192300D01*
X151721340Y-102192300D01*
X151721339Y-102192300D01*
X151653208Y-102202226D01*
X151548114Y-102253603D01*
X151465403Y-102336314D01*
X151414026Y-102441408D01*
X151404100Y-102509539D01*
X151404100Y-103876060D01*
X151408480Y-103906122D01*
X151398667Y-103975299D01*
X151353012Y-104028189D01*
X151286010Y-104048000D01*
X148838610Y-104048000D01*
X148814419Y-104045617D01*
X148735786Y-104029976D01*
X148691088Y-104011462D01*
X148634772Y-103973833D01*
X148600565Y-103939626D01*
X148562934Y-103883308D01*
X148544423Y-103838618D01*
X148528780Y-103759971D01*
X148526399Y-103735789D01*
X148526399Y-101022583D01*
X148526399Y-99961410D01*
X148546084Y-99894374D01*
X148598888Y-99848619D01*
X148668046Y-99838675D01*
X148697847Y-99846851D01*
X148707946Y-99851034D01*
X148707952Y-99851035D01*
X148707954Y-99851037D01*
X148746490Y-99862726D01*
X148746494Y-99862726D01*
X148746495Y-99862727D01*
X148825128Y-99878368D01*
X148845073Y-99881327D01*
X148869264Y-99883710D01*
X148889410Y-99884700D01*
X148889422Y-99884700D01*
X151234713Y-99884700D01*
X151234725Y-99884700D01*
X151254871Y-99883710D01*
X151279062Y-99881327D01*
X151299007Y-99878368D01*
X151377639Y-99862727D01*
X151416188Y-99851034D01*
X151460888Y-99832519D01*
X151496418Y-99813528D01*
X151563084Y-99768983D01*
X151579284Y-99756968D01*
X151598074Y-99741547D01*
X151613014Y-99728005D01*
X152334405Y-99006614D01*
X152347947Y-98991674D01*
X152363368Y-98972884D01*
X152375383Y-98956684D01*
X152419928Y-98890018D01*
X152438919Y-98854488D01*
X152457434Y-98809788D01*
X152469127Y-98771239D01*
X152477569Y-98728794D01*
X152509954Y-98666884D01*
X152570669Y-98632310D01*
X152640439Y-98636049D01*
X152697111Y-98676915D01*
X152710588Y-98698526D01*
X152735402Y-98749285D01*
X152818113Y-98831996D01*
X152818114Y-98831996D01*
X152818116Y-98831998D01*
X152923206Y-98883373D01*
X152957272Y-98888336D01*
X152991338Y-98893300D01*
X152991339Y-98893300D01*
X153357860Y-98893300D01*
X153380570Y-98889991D01*
X153425992Y-98883373D01*
X153531082Y-98831998D01*
X153613797Y-98749283D01*
X153665172Y-98644193D01*
X153675099Y-98576060D01*
X153675099Y-97209540D01*
X153674042Y-97202288D01*
X153670719Y-97179478D01*
X153680532Y-97110301D01*
X153726187Y-97057411D01*
X153793189Y-97037600D01*
X153825775Y-97037600D01*
X153892814Y-97057285D01*
G37*
%TD.AperFunction*%
%TD*%
%TA.AperFunction,Conductor*%
%TO.N,/USB-C Controller/Battery Charger/VBAT*%
G36*
X118583971Y-111559181D02*
G01*
X118662618Y-111574824D01*
X118707308Y-111593335D01*
X118763626Y-111630966D01*
X118797833Y-111665173D01*
X118835462Y-111721488D01*
X118853976Y-111766187D01*
X118869617Y-111844819D01*
X118872000Y-111869010D01*
X118872000Y-112870189D01*
X118869617Y-112894380D01*
X118853976Y-112973012D01*
X118835462Y-113017711D01*
X118797836Y-113074023D01*
X118763623Y-113108236D01*
X118707311Y-113145862D01*
X118662612Y-113164376D01*
X118583980Y-113180017D01*
X118559789Y-113182400D01*
X118081859Y-113182400D01*
X117967061Y-113205234D01*
X117967057Y-113205236D01*
X117869736Y-113270264D01*
X117869728Y-113270270D01*
X117453281Y-113686719D01*
X117453161Y-113686839D01*
X117453068Y-113686932D01*
X117452833Y-113687167D01*
X117452826Y-113687174D01*
X115645448Y-115498633D01*
X115626645Y-115514095D01*
X115559925Y-115558757D01*
X115515175Y-115577323D01*
X115436431Y-115593010D01*
X115412204Y-115595400D01*
X114221532Y-115595400D01*
X114154493Y-115575715D01*
X114148649Y-115571720D01*
X114142466Y-115567228D01*
X114142465Y-115567227D01*
X114036482Y-115513226D01*
X114036480Y-115513225D01*
X114036477Y-115513224D01*
X113919003Y-115494619D01*
X113918997Y-115494619D01*
X113801522Y-115513224D01*
X113801521Y-115513224D01*
X113695533Y-115567228D01*
X113689351Y-115571720D01*
X113623544Y-115595198D01*
X113616468Y-115595400D01*
X112002985Y-115595400D01*
X111968361Y-115588511D01*
X111968328Y-115588682D01*
X111958590Y-115586744D01*
X111958590Y-112081099D01*
X112386389Y-111653299D01*
X112405167Y-111637888D01*
X112471844Y-111593336D01*
X112516532Y-111574825D01*
X112595181Y-111559181D01*
X112619364Y-111556800D01*
X118559789Y-111556800D01*
X118583971Y-111559181D01*
G37*
%TD.AperFunction*%
%TD*%
%TA.AperFunction,Conductor*%
%TO.N,GND*%
G36*
X133248259Y-106447801D02*
G01*
X133315293Y-106467485D01*
X133339831Y-106490659D01*
X133340327Y-106490164D01*
X133347226Y-106497063D01*
X133347227Y-106497065D01*
X133431335Y-106581173D01*
X133537318Y-106635174D01*
X133563599Y-106639336D01*
X133626732Y-106669262D01*
X133663666Y-106728572D01*
X133668203Y-106761809D01*
X133668203Y-108142192D01*
X133665820Y-108166383D01*
X133650179Y-108245015D01*
X133631665Y-108289714D01*
X133594039Y-108346026D01*
X133559826Y-108380238D01*
X133550132Y-108386716D01*
X133503514Y-108417865D01*
X133458816Y-108436378D01*
X133404116Y-108447259D01*
X133380182Y-108452020D01*
X133355992Y-108454402D01*
X133289042Y-108454402D01*
X133269644Y-108452875D01*
X133146802Y-108433419D01*
X133146801Y-108433419D01*
X133146800Y-108433419D01*
X133128117Y-108436378D01*
X133041796Y-108450049D01*
X132972503Y-108441093D01*
X132919052Y-108396096D01*
X132898413Y-108329344D01*
X132898400Y-108327575D01*
X132898400Y-108198400D01*
X131730000Y-108198400D01*
X131730000Y-108330400D01*
X131710315Y-108397439D01*
X131657511Y-108443194D01*
X131606000Y-108454400D01*
X131486573Y-108454400D01*
X131419534Y-108434715D01*
X131417711Y-108433521D01*
X131394533Y-108418034D01*
X131394532Y-108418033D01*
X131394531Y-108418033D01*
X131336053Y-108406401D01*
X131336050Y-108406401D01*
X130424357Y-108406401D01*
X130357318Y-108386716D01*
X130355472Y-108385507D01*
X130347585Y-108380237D01*
X130313372Y-108346026D01*
X130275741Y-108289708D01*
X130257230Y-108245015D01*
X130241587Y-108166370D01*
X130239205Y-108142199D01*
X130239205Y-106760008D01*
X130241586Y-106735828D01*
X130257230Y-106657178D01*
X130275739Y-106612492D01*
X130313373Y-106556169D01*
X130347575Y-106521967D01*
X130403898Y-106484333D01*
X130448584Y-106465824D01*
X130527234Y-106450180D01*
X130551414Y-106447799D01*
X133248259Y-106447801D01*
G37*
%TD.AperFunction*%
%TD*%
%TA.AperFunction,Conductor*%
%TO.N,/USB-C Controller/Battery Charger/S2S3*%
G36*
X144167738Y-124073285D02*
G01*
X144213493Y-124126089D01*
X144224699Y-124177600D01*
X144224699Y-124567653D01*
X144236330Y-124626130D01*
X144236331Y-124626131D01*
X144280646Y-124692453D01*
X144346968Y-124736768D01*
X144346969Y-124736769D01*
X144405446Y-124748400D01*
X144405449Y-124748401D01*
X145367200Y-124748401D01*
X145434239Y-124768086D01*
X145479994Y-124820890D01*
X145491200Y-124872401D01*
X145491200Y-126281389D01*
X145488817Y-126305580D01*
X145473176Y-126384212D01*
X145454662Y-126428911D01*
X145417036Y-126485223D01*
X145382823Y-126519436D01*
X145326511Y-126557062D01*
X145281812Y-126575576D01*
X145203180Y-126591217D01*
X145178989Y-126593600D01*
X143839998Y-126593600D01*
X143772959Y-126573915D01*
X143727204Y-126521111D01*
X143715998Y-126469600D01*
X143715998Y-126097650D01*
X143715997Y-126097648D01*
X143704366Y-126039171D01*
X143704365Y-126039170D01*
X143660050Y-125972848D01*
X143593728Y-125928533D01*
X143593727Y-125928532D01*
X143535250Y-125916901D01*
X143535246Y-125916901D01*
X142567200Y-125916901D01*
X142500161Y-125897216D01*
X142454406Y-125844412D01*
X142443200Y-125792901D01*
X142443200Y-124365810D01*
X142445581Y-124341629D01*
X142461225Y-124262979D01*
X142479734Y-124218293D01*
X142517368Y-124161970D01*
X142551570Y-124127768D01*
X142607893Y-124090134D01*
X142652579Y-124071625D01*
X142731228Y-124055981D01*
X142755411Y-124053600D01*
X144100699Y-124053600D01*
X144167738Y-124073285D01*
G37*
%TD.AperFunction*%
%TD*%
%TA.AperFunction,Conductor*%
%TO.N,VSYS*%
G36*
X152066444Y-97002880D02*
G01*
X152076207Y-97004822D01*
X152120908Y-97023335D01*
X152177226Y-97060966D01*
X152211433Y-97095173D01*
X152249062Y-97151488D01*
X152267576Y-97196187D01*
X152283217Y-97274819D01*
X152285600Y-97299010D01*
X152285600Y-98628325D01*
X152283217Y-98652516D01*
X152267576Y-98731148D01*
X152249061Y-98775848D01*
X152204516Y-98842514D01*
X152189095Y-98861304D01*
X151467704Y-99582695D01*
X151448914Y-99598116D01*
X151382248Y-99642661D01*
X151337548Y-99661176D01*
X151258916Y-99676817D01*
X151234725Y-99679200D01*
X148889410Y-99679200D01*
X148865219Y-99676817D01*
X148786586Y-99661176D01*
X148741888Y-99642662D01*
X148685572Y-99605033D01*
X148651365Y-99570826D01*
X148613734Y-99514508D01*
X148595223Y-99469818D01*
X148579580Y-99391171D01*
X148577199Y-99366989D01*
X148577199Y-98628325D01*
X148577199Y-97298999D01*
X148579580Y-97274830D01*
X148595224Y-97196182D01*
X148613734Y-97151493D01*
X148651368Y-97095170D01*
X148685570Y-97060968D01*
X148741893Y-97023334D01*
X148786591Y-97004822D01*
X148796362Y-97002879D01*
X148820536Y-97000500D01*
X152042264Y-97000500D01*
X152066444Y-97002880D01*
G37*
%TD.AperFunction*%
%TD*%
%TA.AperFunction,Conductor*%
%TO.N,VSYS*%
G36*
X143526771Y-119433181D02*
G01*
X143605418Y-119448824D01*
X143650108Y-119467335D01*
X143706426Y-119504966D01*
X143740633Y-119539173D01*
X143778262Y-119595488D01*
X143796776Y-119640187D01*
X143812417Y-119718819D01*
X143814800Y-119743010D01*
X143814800Y-120337789D01*
X143812417Y-120361980D01*
X143796776Y-120440612D01*
X143778262Y-120485311D01*
X143740636Y-120541623D01*
X143706423Y-120575836D01*
X143650111Y-120613462D01*
X143605412Y-120631976D01*
X143526780Y-120647617D01*
X143502589Y-120650000D01*
X143487802Y-120650000D01*
X143435396Y-120638381D01*
X143427576Y-120634734D01*
X143427573Y-120634733D01*
X143378717Y-120628302D01*
X143378716Y-120628302D01*
X142930084Y-120628302D01*
X142930083Y-120628302D01*
X142881228Y-120634733D01*
X142773995Y-120684737D01*
X142690335Y-120768397D01*
X142640331Y-120875630D01*
X142633900Y-120924485D01*
X142633900Y-121273118D01*
X142640331Y-121321973D01*
X142640332Y-121321975D01*
X142685582Y-121419014D01*
X142697200Y-121471417D01*
X142697200Y-121529525D01*
X142694817Y-121553716D01*
X142679176Y-121632348D01*
X142660661Y-121677048D01*
X142616116Y-121743714D01*
X142600695Y-121762504D01*
X142488904Y-121874295D01*
X142470114Y-121889716D01*
X142403448Y-121934261D01*
X142358748Y-121952776D01*
X142280116Y-121968417D01*
X142255925Y-121970800D01*
X140977411Y-121970800D01*
X140953220Y-121968417D01*
X140874587Y-121952776D01*
X140829889Y-121934262D01*
X140773573Y-121896633D01*
X140739366Y-121862426D01*
X140701735Y-121806108D01*
X140683224Y-121761418D01*
X140667581Y-121682771D01*
X140665200Y-121658589D01*
X140665200Y-120860610D01*
X140667581Y-120836429D01*
X140683225Y-120757779D01*
X140701734Y-120713093D01*
X140739368Y-120656770D01*
X140773570Y-120622568D01*
X140829893Y-120584934D01*
X140874579Y-120566425D01*
X140953228Y-120550781D01*
X140977411Y-120548400D01*
X141150537Y-120548400D01*
X141150538Y-120548399D01*
X141189148Y-120540719D01*
X141265338Y-120525565D01*
X141265339Y-120525564D01*
X141265341Y-120525564D01*
X141362668Y-120460532D01*
X141644132Y-120179068D01*
X141709164Y-120081741D01*
X141732000Y-119966936D01*
X141732000Y-119770474D01*
X141734381Y-119746293D01*
X141750025Y-119667643D01*
X141768536Y-119622955D01*
X141813088Y-119556278D01*
X141828499Y-119537500D01*
X141838700Y-119527299D01*
X141857478Y-119511888D01*
X141923474Y-119467791D01*
X141969981Y-119450291D01*
X141969964Y-119450232D01*
X141970738Y-119450006D01*
X141976192Y-119447953D01*
X141979086Y-119447573D01*
X141979092Y-119447569D01*
X141982362Y-119446617D01*
X141992845Y-119444051D01*
X142047491Y-119433181D01*
X142071675Y-119430800D01*
X143502589Y-119430800D01*
X143526771Y-119433181D01*
G37*
%TD.AperFunction*%
%TD*%
%TA.AperFunction,Conductor*%
%TO.N,GND*%
G36*
X155490171Y-109069981D02*
G01*
X155568818Y-109085624D01*
X155613510Y-109104137D01*
X155663821Y-109137754D01*
X155669824Y-109141765D01*
X155704033Y-109175973D01*
X155729602Y-109214240D01*
X155750480Y-109280916D01*
X155750500Y-109283130D01*
X155750500Y-111501048D01*
X155751286Y-111517049D01*
X155751489Y-111521189D01*
X155751490Y-111521200D01*
X155753388Y-111540477D01*
X155753388Y-111540479D01*
X155756351Y-111560459D01*
X155773440Y-111646374D01*
X155774185Y-111649347D01*
X155773603Y-111649492D01*
X155778200Y-111680460D01*
X155778200Y-112093538D01*
X155773608Y-112124507D01*
X155774185Y-112124652D01*
X155773440Y-112127624D01*
X155756351Y-112213539D01*
X155753388Y-112233519D01*
X155753388Y-112233521D01*
X155751490Y-112252798D01*
X155751489Y-112252809D01*
X155750500Y-112272961D01*
X155750500Y-114658600D01*
X155730815Y-114725639D01*
X155678011Y-114771394D01*
X155626500Y-114782600D01*
X152509011Y-114782600D01*
X152484820Y-114780217D01*
X152406187Y-114764576D01*
X152361489Y-114746062D01*
X152305173Y-114708433D01*
X152270966Y-114674226D01*
X152233335Y-114617908D01*
X152214824Y-114573218D01*
X152199181Y-114494571D01*
X152196800Y-114470389D01*
X152196800Y-109379810D01*
X152199181Y-109355629D01*
X152214825Y-109276979D01*
X152233334Y-109232293D01*
X152270968Y-109175970D01*
X152305170Y-109141768D01*
X152361493Y-109104134D01*
X152406179Y-109085625D01*
X152484828Y-109069981D01*
X152509011Y-109067600D01*
X155465989Y-109067600D01*
X155490171Y-109069981D01*
G37*
%TD.AperFunction*%
%TD*%
%TA.AperFunction,Conductor*%
%TO.N,VSYS*%
G36*
X117032507Y-104345581D02*
G01*
X117111154Y-104361224D01*
X117155846Y-104379737D01*
X117222514Y-104424283D01*
X117241304Y-104439704D01*
X117634843Y-104833243D01*
X117668328Y-104894566D01*
X117669636Y-104901527D01*
X117672225Y-104917880D01*
X117726228Y-105023866D01*
X117726231Y-105023870D01*
X117810329Y-105107968D01*
X117810334Y-105107972D01*
X117810335Y-105107973D01*
X117916318Y-105161974D01*
X117932672Y-105164564D01*
X117995805Y-105194491D01*
X118000956Y-105199356D01*
X118932926Y-106131327D01*
X118932927Y-106131328D01*
X118932930Y-106131330D01*
X119303800Y-106502200D01*
X119303800Y-108051600D01*
X119003800Y-108051600D01*
X117235846Y-108051600D01*
X117200910Y-108046577D01*
X117180303Y-108040526D01*
X117180305Y-108040526D01*
X117180299Y-108040525D01*
X117122401Y-108032200D01*
X117122397Y-108032200D01*
X116750242Y-108032200D01*
X116709287Y-108025241D01*
X116672662Y-108012425D01*
X116639991Y-107995157D01*
X116610640Y-107973496D01*
X116584503Y-107947359D01*
X116562841Y-107918007D01*
X116545570Y-107885327D01*
X116532759Y-107848713D01*
X116525801Y-107807761D01*
X116525801Y-106466638D01*
X116532754Y-106425698D01*
X116534728Y-106420057D01*
X116534734Y-106420044D01*
X116550200Y-106375844D01*
X116550201Y-106375837D01*
X116550208Y-106375820D01*
X116555861Y-106356747D01*
X116561557Y-106333446D01*
X116565343Y-106255401D01*
X116555399Y-106186243D01*
X116550307Y-106161628D01*
X116507297Y-106080916D01*
X116461542Y-106028112D01*
X116461536Y-106028105D01*
X116443954Y-106010161D01*
X116443953Y-106010160D01*
X116443951Y-106010158D01*
X116443949Y-106010157D01*
X116443947Y-106010155D01*
X116364137Y-105965512D01*
X116364132Y-105965510D01*
X116297100Y-105945827D01*
X116297096Y-105945826D01*
X116297095Y-105945826D01*
X116239197Y-105937501D01*
X113240614Y-105937501D01*
X113229107Y-105938066D01*
X113220469Y-105938490D01*
X113196312Y-105940869D01*
X113196299Y-105940870D01*
X113196295Y-105940871D01*
X113196289Y-105940871D01*
X113196264Y-105940875D01*
X113176332Y-105943831D01*
X113176324Y-105943832D01*
X113097710Y-105959469D01*
X113097698Y-105959472D01*
X113059145Y-105971167D01*
X113059144Y-105971167D01*
X113014460Y-105989675D01*
X113014448Y-105989681D01*
X112978938Y-106008660D01*
X112978920Y-106008671D01*
X112922604Y-106046300D01*
X112891463Y-106071858D01*
X112857260Y-106106061D01*
X112831702Y-106137202D01*
X112794073Y-106193518D01*
X112794062Y-106193536D01*
X112775083Y-106229046D01*
X112775077Y-106229058D01*
X112756569Y-106273742D01*
X112756569Y-106273743D01*
X112744873Y-106312298D01*
X112744872Y-106312301D01*
X112729234Y-106390922D01*
X112726275Y-106410873D01*
X112726271Y-106410905D01*
X112723894Y-106435050D01*
X112723891Y-106435083D01*
X112722903Y-106455221D01*
X112722903Y-108459734D01*
X112703218Y-108526773D01*
X112686584Y-108547415D01*
X112101870Y-109132128D01*
X112101864Y-109132136D01*
X112036836Y-109229457D01*
X112036834Y-109229461D01*
X112014000Y-109344259D01*
X112014000Y-111295389D01*
X112011617Y-111319580D01*
X111995976Y-111398212D01*
X111977462Y-111442911D01*
X111939836Y-111499223D01*
X111905623Y-111533436D01*
X111849311Y-111571062D01*
X111804612Y-111589576D01*
X111725980Y-111605217D01*
X111701789Y-111607600D01*
X109786211Y-111607600D01*
X109762020Y-111605217D01*
X109683387Y-111589576D01*
X109638689Y-111571062D01*
X109582373Y-111533433D01*
X109548166Y-111499226D01*
X109510535Y-111442908D01*
X109492024Y-111398218D01*
X109476381Y-111319571D01*
X109474000Y-111295389D01*
X109474000Y-106460874D01*
X109476381Y-106436693D01*
X109492025Y-106358043D01*
X109510536Y-106313355D01*
X109555088Y-106246678D01*
X109570499Y-106227900D01*
X111358700Y-104439699D01*
X111377478Y-104424288D01*
X111444155Y-104379736D01*
X111488843Y-104361225D01*
X111567492Y-104345581D01*
X111591675Y-104343200D01*
X117008325Y-104343200D01*
X117032507Y-104345581D01*
G37*
%TD.AperFunction*%
%TD*%
%TA.AperFunction,Conductor*%
%TO.N,+3V3*%
G36*
X158753971Y-101307181D02*
G01*
X158832618Y-101322824D01*
X158877308Y-101341335D01*
X158933626Y-101378966D01*
X158967833Y-101413173D01*
X159005462Y-101469488D01*
X159023976Y-101514187D01*
X159039617Y-101592819D01*
X159042000Y-101617010D01*
X159042000Y-105225866D01*
X159022315Y-105292905D01*
X159005681Y-105313547D01*
X158758147Y-105561081D01*
X158696824Y-105594566D01*
X158670466Y-105597400D01*
X155645811Y-105597400D01*
X155621620Y-105595017D01*
X155542987Y-105579376D01*
X155498289Y-105560862D01*
X155441973Y-105523233D01*
X155407766Y-105489026D01*
X155370135Y-105432708D01*
X155351624Y-105388018D01*
X155335981Y-105309371D01*
X155333600Y-105285189D01*
X155333600Y-102508074D01*
X155335981Y-102483893D01*
X155351625Y-102405243D01*
X155370136Y-102360555D01*
X155414688Y-102293878D01*
X155430099Y-102275100D01*
X156303900Y-101401299D01*
X156322678Y-101385888D01*
X156389355Y-101341336D01*
X156434043Y-101322825D01*
X156512692Y-101307181D01*
X156536875Y-101304800D01*
X158729789Y-101304800D01*
X158753971Y-101307181D01*
G37*
%TD.AperFunction*%
%TD*%
%TA.AperFunction,Conductor*%
%TO.N,GND*%
G36*
X146094639Y-97020185D02*
G01*
X146140394Y-97072989D01*
X146151600Y-97124500D01*
X146151600Y-99500852D01*
X146131915Y-99567891D01*
X146079111Y-99613646D01*
X146009953Y-99623590D01*
X146006436Y-99623032D01*
X146005291Y-99622833D01*
X145985326Y-99619872D01*
X145985294Y-99619868D01*
X145961148Y-99617491D01*
X145961117Y-99617488D01*
X145950898Y-99616986D01*
X145940989Y-99616500D01*
X143263411Y-99616500D01*
X143251904Y-99617065D01*
X143243266Y-99617489D01*
X143219109Y-99619868D01*
X143219096Y-99619869D01*
X143219092Y-99619870D01*
X143219086Y-99619870D01*
X143219061Y-99619874D01*
X143199129Y-99622830D01*
X143199121Y-99622831D01*
X143120507Y-99638468D01*
X143120495Y-99638471D01*
X143081942Y-99650166D01*
X143081941Y-99650166D01*
X143037257Y-99668674D01*
X143037245Y-99668680D01*
X143001735Y-99687659D01*
X143001717Y-99687670D01*
X142945401Y-99725299D01*
X142914260Y-99750857D01*
X142880057Y-99785060D01*
X142854499Y-99816201D01*
X142816870Y-99872517D01*
X142816859Y-99872535D01*
X142797880Y-99908045D01*
X142797874Y-99908057D01*
X142779366Y-99952741D01*
X142779366Y-99952742D01*
X142767670Y-99991297D01*
X142767669Y-99991300D01*
X142752031Y-100069921D01*
X142749072Y-100089872D01*
X142749068Y-100089904D01*
X142746691Y-100114049D01*
X142746688Y-100114082D01*
X142746162Y-100124792D01*
X142745700Y-100134210D01*
X142745700Y-101361925D01*
X142746206Y-101372236D01*
X142746688Y-101382053D01*
X142746691Y-101382084D01*
X142749068Y-101406230D01*
X142749072Y-101406262D01*
X142752029Y-101426198D01*
X142767671Y-101504839D01*
X142767673Y-101504848D01*
X142779364Y-101543388D01*
X142779370Y-101543405D01*
X142797875Y-101588079D01*
X142797881Y-101588093D01*
X142797882Y-101588094D01*
X142816871Y-101623618D01*
X142861416Y-101690284D01*
X142861425Y-101690297D01*
X142861433Y-101690308D01*
X142873435Y-101706489D01*
X142888861Y-101725285D01*
X142902381Y-101740200D01*
X142902395Y-101740215D01*
X144030183Y-102868003D01*
X144030198Y-102868017D01*
X144045113Y-102881537D01*
X144045123Y-102881545D01*
X144045125Y-102881547D01*
X144063915Y-102896968D01*
X144072061Y-102903009D01*
X144080090Y-102908965D01*
X144080097Y-102908969D01*
X144080115Y-102908983D01*
X144146781Y-102953528D01*
X144182311Y-102972519D01*
X144227011Y-102991034D01*
X144227026Y-102991038D01*
X144227030Y-102991040D01*
X144265552Y-103002725D01*
X144265556Y-103002725D01*
X144265560Y-103002727D01*
X144344193Y-103018368D01*
X144364138Y-103021327D01*
X144388329Y-103023710D01*
X144408475Y-103024700D01*
X144408487Y-103024700D01*
X144454465Y-103024700D01*
X144521504Y-103044385D01*
X144567259Y-103097189D01*
X144577203Y-103166347D01*
X144548178Y-103229903D01*
X144508926Y-103260100D01*
X144502025Y-103263473D01*
X144490714Y-103269003D01*
X144408003Y-103351714D01*
X144356626Y-103456808D01*
X144346700Y-103524939D01*
X144346700Y-103891460D01*
X144356626Y-103959591D01*
X144408003Y-104064685D01*
X144490714Y-104147396D01*
X144490715Y-104147396D01*
X144490717Y-104147398D01*
X144595807Y-104198773D01*
X144629873Y-104203736D01*
X144663939Y-104208700D01*
X146027600Y-104208700D01*
X146094639Y-104228385D01*
X146140394Y-104281189D01*
X146151600Y-104332700D01*
X146151600Y-105623699D01*
X146131915Y-105690738D01*
X146079111Y-105736493D01*
X146027600Y-105747699D01*
X144663939Y-105747699D01*
X144595808Y-105757625D01*
X144490714Y-105809002D01*
X144408003Y-105891713D01*
X144356626Y-105996807D01*
X144346898Y-106063578D01*
X144317754Y-106127079D01*
X144258905Y-106164743D01*
X144224194Y-106169700D01*
X143557792Y-106169700D01*
X143514113Y-106174397D01*
X143462625Y-106185597D01*
X143452427Y-106188090D01*
X143452424Y-106188091D01*
X143371716Y-106231099D01*
X143371713Y-106231101D01*
X143318904Y-106276860D01*
X143300960Y-106294442D01*
X143300954Y-106294449D01*
X143256311Y-106374259D01*
X143256309Y-106374266D01*
X143237437Y-106438536D01*
X143199661Y-106497314D01*
X143136105Y-106526338D01*
X143118460Y-106527600D01*
X141171700Y-106527600D01*
X141104661Y-106507915D01*
X141058906Y-106455111D01*
X141047700Y-106403600D01*
X141047700Y-106064938D01*
X141037773Y-105996807D01*
X141037773Y-105996806D01*
X140986398Y-105891716D01*
X140986396Y-105891714D01*
X140986396Y-105891713D01*
X140903685Y-105809002D01*
X140798591Y-105757625D01*
X140730461Y-105747699D01*
X140730460Y-105747699D01*
X139363940Y-105747699D01*
X139363939Y-105747699D01*
X139295808Y-105757625D01*
X139264558Y-105772902D01*
X139195685Y-105784659D01*
X139131388Y-105757315D01*
X139092082Y-105699550D01*
X139086100Y-105661500D01*
X139086100Y-105564898D01*
X139105785Y-105497859D01*
X139158589Y-105452104D01*
X139227747Y-105442160D01*
X139264561Y-105453498D01*
X139295807Y-105468773D01*
X139363939Y-105478700D01*
X139363940Y-105478700D01*
X140730461Y-105478700D01*
X140753171Y-105475391D01*
X140798593Y-105468773D01*
X140903683Y-105417398D01*
X140986398Y-105334683D01*
X141037773Y-105229593D01*
X141047700Y-105161460D01*
X141047700Y-104794940D01*
X141037773Y-104726807D01*
X140986398Y-104621717D01*
X140986396Y-104621715D01*
X140986396Y-104621714D01*
X140903685Y-104539003D01*
X140798591Y-104487626D01*
X140730461Y-104477700D01*
X140730460Y-104477700D01*
X139363940Y-104477700D01*
X139363939Y-104477700D01*
X139295808Y-104487626D01*
X139264558Y-104502903D01*
X139195685Y-104514660D01*
X139131388Y-104487316D01*
X139092082Y-104429551D01*
X139086100Y-104391501D01*
X139086100Y-104294898D01*
X139105785Y-104227859D01*
X139158589Y-104182104D01*
X139227747Y-104172160D01*
X139264561Y-104183498D01*
X139295807Y-104198773D01*
X139363939Y-104208700D01*
X139363940Y-104208700D01*
X140730461Y-104208700D01*
X140753171Y-104205391D01*
X140798593Y-104198773D01*
X140903683Y-104147398D01*
X140986398Y-104064683D01*
X141037773Y-103959593D01*
X141047700Y-103891460D01*
X141047700Y-103524940D01*
X141043698Y-103497476D01*
X141037773Y-103456808D01*
X141029041Y-103438946D01*
X140986398Y-103351717D01*
X140986396Y-103351715D01*
X140986396Y-103351714D01*
X140903684Y-103269002D01*
X140790028Y-103213439D01*
X140738446Y-103166311D01*
X140720532Y-103098777D01*
X140741973Y-103032279D01*
X140795962Y-102987929D01*
X140796860Y-102987551D01*
X140833149Y-102972521D01*
X140868681Y-102953529D01*
X140897058Y-102934568D01*
X140897060Y-102934567D01*
X140924995Y-102915901D01*
X140956131Y-102890348D01*
X140990344Y-102856136D01*
X141015904Y-102824992D01*
X141053530Y-102768680D01*
X141072521Y-102733149D01*
X141091035Y-102688450D01*
X141102727Y-102649903D01*
X141118368Y-102571271D01*
X141121327Y-102551326D01*
X141123710Y-102527135D01*
X141124700Y-102506989D01*
X141124700Y-101177674D01*
X141123710Y-101157528D01*
X141121327Y-101133337D01*
X141118368Y-101113392D01*
X141102727Y-101034760D01*
X141091034Y-100996211D01*
X141072519Y-100951511D01*
X141053528Y-100915981D01*
X141008983Y-100849315D01*
X141008969Y-100849297D01*
X141008965Y-100849290D01*
X141003009Y-100841261D01*
X140996968Y-100833115D01*
X140981547Y-100814325D01*
X140981545Y-100814323D01*
X140981537Y-100814313D01*
X140968017Y-100799398D01*
X140968003Y-100799383D01*
X139941815Y-99773195D01*
X139941800Y-99773181D01*
X139926880Y-99759657D01*
X139926874Y-99759652D01*
X139908084Y-99744231D01*
X139891883Y-99732216D01*
X139825215Y-99687670D01*
X139806225Y-99677519D01*
X139789690Y-99668680D01*
X139758089Y-99655590D01*
X139744999Y-99650168D01*
X139744996Y-99650167D01*
X139744992Y-99650165D01*
X139706440Y-99638471D01*
X139627798Y-99622829D01*
X139607862Y-99619872D01*
X139607830Y-99619868D01*
X139583684Y-99617491D01*
X139583653Y-99617488D01*
X139573434Y-99616986D01*
X139563525Y-99616500D01*
X138234211Y-99616500D01*
X138222704Y-99617065D01*
X138214066Y-99617489D01*
X138189909Y-99619868D01*
X138189896Y-99619869D01*
X138189892Y-99619870D01*
X138189886Y-99619870D01*
X138189861Y-99619874D01*
X138169929Y-99622830D01*
X138169921Y-99622831D01*
X138091307Y-99638468D01*
X138091282Y-99638474D01*
X138081990Y-99641293D01*
X138012123Y-99641914D01*
X137953012Y-99604662D01*
X137923424Y-99541367D01*
X137922000Y-99522631D01*
X137922000Y-97187810D01*
X137924383Y-97163619D01*
X137936976Y-97100309D01*
X137969361Y-97038398D01*
X138030076Y-97003824D01*
X138058593Y-97000500D01*
X146027600Y-97000500D01*
X146094639Y-97020185D01*
G37*
%TD.AperFunction*%
%TD*%
%TA.AperFunction,Conductor*%
%TO.N,+5V*%
G36*
X135637924Y-101457265D02*
G01*
X135647055Y-101457562D01*
X135651092Y-101457760D01*
X135695222Y-101460653D01*
X135707311Y-101462044D01*
X135733959Y-101466444D01*
X135745851Y-101469012D01*
X135832985Y-101492359D01*
X135848341Y-101497572D01*
X135881561Y-101511331D01*
X135896107Y-101518503D01*
X135972465Y-101562589D01*
X135972500Y-101562609D01*
X135985924Y-101571573D01*
X135985958Y-101571599D01*
X136014338Y-101593349D01*
X136026473Y-101603971D01*
X137989042Y-103561718D01*
X137991879Y-103564644D01*
X137998197Y-103571380D01*
X138000972Y-103574440D01*
X138030097Y-103607651D01*
X138037660Y-103617181D01*
X138053393Y-103639136D01*
X138059988Y-103649364D01*
X138102171Y-103722427D01*
X138113275Y-103747876D01*
X138132672Y-103810759D01*
X138133358Y-103811452D01*
X138143998Y-103838228D01*
X138154066Y-103875803D01*
X138157223Y-103891657D01*
X138161916Y-103927184D01*
X138162984Y-103943316D01*
X138166398Y-107896985D01*
X138166333Y-107901094D01*
X138166039Y-107910198D01*
X138165838Y-107914308D01*
X138162946Y-107958422D01*
X138161555Y-107970511D01*
X138157155Y-107997159D01*
X138154587Y-108009051D01*
X138131240Y-108096185D01*
X138126027Y-108111541D01*
X138112268Y-108144761D01*
X138105093Y-108159313D01*
X138060972Y-108235731D01*
X138052047Y-108249104D01*
X138030383Y-108277404D01*
X138019804Y-108289509D01*
X137149509Y-109163813D01*
X137150373Y-109266833D01*
X137150327Y-109271402D01*
X137150037Y-109281584D01*
X137149821Y-109286164D01*
X137146947Y-109330012D01*
X137145556Y-109342104D01*
X137141153Y-109368769D01*
X137138585Y-109380660D01*
X137115240Y-109467786D01*
X137110026Y-109483146D01*
X137096266Y-109516365D01*
X137089093Y-109530911D01*
X137045010Y-109607266D01*
X137035997Y-109620755D01*
X137014109Y-109649279D01*
X137003415Y-109661472D01*
X136941072Y-109723815D01*
X136928879Y-109734509D01*
X136900355Y-109756397D01*
X136886866Y-109765410D01*
X136810511Y-109809493D01*
X136795965Y-109816666D01*
X136762746Y-109830426D01*
X136747386Y-109835640D01*
X136699592Y-109848446D01*
X136629742Y-109846783D01*
X136579818Y-109816352D01*
X136461912Y-109698446D01*
X136364992Y-109658300D01*
X136364991Y-109658300D01*
X136156846Y-109658300D01*
X136089807Y-109638615D01*
X136049459Y-109596300D01*
X136011707Y-109530912D01*
X136004533Y-109516365D01*
X135990773Y-109483146D01*
X135985559Y-109467786D01*
X135962672Y-109382369D01*
X135959577Y-109366976D01*
X135954889Y-109332485D01*
X135953763Y-109316826D01*
X135953363Y-109269122D01*
X135950502Y-108928231D01*
X135964014Y-108870896D01*
X135972174Y-108854882D01*
X135990781Y-108737400D01*
X135990781Y-108732575D01*
X135993887Y-108704994D01*
X135996917Y-108691718D01*
X136010421Y-108657313D01*
X136055828Y-108578668D01*
X136064748Y-108565300D01*
X136086421Y-108536988D01*
X136096989Y-108524896D01*
X136969559Y-107648305D01*
X136966610Y-104232026D01*
X135384593Y-102653897D01*
X135384592Y-102653897D01*
X135384592Y-102653896D01*
X127298311Y-102657101D01*
X127298308Y-102657102D01*
X125637092Y-104322612D01*
X125634120Y-104325494D01*
X125627402Y-104331794D01*
X125624337Y-104334574D01*
X125591126Y-104363698D01*
X125581597Y-104371260D01*
X125559642Y-104386993D01*
X125549415Y-104393588D01*
X125471292Y-104438693D01*
X125456740Y-104445868D01*
X125423520Y-104459627D01*
X125408164Y-104464840D01*
X125323001Y-104487659D01*
X125307097Y-104490823D01*
X125287768Y-104493368D01*
X125271444Y-104495517D01*
X125255262Y-104496578D01*
X125167096Y-104496578D01*
X125150913Y-104495517D01*
X125131891Y-104493013D01*
X125115260Y-104490823D01*
X125099356Y-104487659D01*
X125014193Y-104464840D01*
X124998837Y-104459627D01*
X124965617Y-104445868D01*
X124951065Y-104438692D01*
X124874706Y-104394605D01*
X124861224Y-104385597D01*
X124832692Y-104363703D01*
X124820507Y-104353016D01*
X124758162Y-104290671D01*
X124747476Y-104278487D01*
X124725578Y-104249951D01*
X124716573Y-104236472D01*
X124672486Y-104160113D01*
X124665310Y-104145561D01*
X124651551Y-104112341D01*
X124646338Y-104096985D01*
X124623519Y-104011822D01*
X124620355Y-103995914D01*
X124615662Y-103960267D01*
X124614601Y-103944082D01*
X124614601Y-103855917D01*
X124615662Y-103839732D01*
X124620355Y-103804085D01*
X124623519Y-103788177D01*
X124634318Y-103747876D01*
X124646339Y-103703008D01*
X124651551Y-103687658D01*
X124665310Y-103654438D01*
X124672479Y-103639898D01*
X124716596Y-103563484D01*
X124725542Y-103550087D01*
X124747329Y-103521656D01*
X124757935Y-103509540D01*
X126624937Y-101637715D01*
X126627803Y-101634936D01*
X126634640Y-101628526D01*
X126637581Y-101625858D01*
X126644656Y-101619654D01*
X126660137Y-101604173D01*
X126672313Y-101593495D01*
X126700859Y-101571591D01*
X126714322Y-101562596D01*
X126790693Y-101518503D01*
X126805227Y-101511336D01*
X126838462Y-101497569D01*
X126853804Y-101492361D01*
X126938993Y-101469535D01*
X126954861Y-101466377D01*
X126990478Y-101461681D01*
X127006615Y-101460618D01*
X135633943Y-101457200D01*
X135637924Y-101457265D01*
G37*
%TD.AperFunction*%
%TD*%
%TA.AperFunction,Conductor*%
%TO.N,GND*%
G36*
X116306236Y-106162686D02*
G01*
X116351991Y-106215490D01*
X116361935Y-106284648D01*
X116356239Y-106307949D01*
X116342057Y-106348480D01*
X116323154Y-106402501D01*
X116320301Y-106432930D01*
X116320301Y-107841469D01*
X116323154Y-107871899D01*
X116323154Y-107871901D01*
X116368007Y-108000080D01*
X116368008Y-108000082D01*
X116448651Y-108109350D01*
X116557919Y-108189993D01*
X116600646Y-108204944D01*
X116686100Y-108234846D01*
X116716531Y-108237700D01*
X117122401Y-108237700D01*
X117189440Y-108257385D01*
X117235195Y-108310189D01*
X117246401Y-108361700D01*
X117246401Y-109996390D01*
X117244018Y-110020581D01*
X117228377Y-110099213D01*
X117209863Y-110143912D01*
X117172237Y-110200224D01*
X117138024Y-110234437D01*
X117081712Y-110272063D01*
X117037013Y-110290577D01*
X116958381Y-110306218D01*
X116934190Y-110308601D01*
X113240614Y-110308601D01*
X113216423Y-110306218D01*
X113137790Y-110290577D01*
X113093092Y-110272063D01*
X113036776Y-110234434D01*
X113002569Y-110200227D01*
X112964938Y-110143909D01*
X112946427Y-110099219D01*
X112930784Y-110020572D01*
X112928403Y-109996390D01*
X112928403Y-106455211D01*
X112930784Y-106431030D01*
X112946428Y-106352380D01*
X112964937Y-106307694D01*
X113002571Y-106251371D01*
X113036773Y-106217169D01*
X113093096Y-106179535D01*
X113137782Y-106161026D01*
X113216431Y-106145382D01*
X113240614Y-106143001D01*
X116239197Y-106143001D01*
X116306236Y-106162686D01*
G37*
%TD.AperFunction*%
%TD*%
%TA.AperFunction,Conductor*%
%TO.N,/USB-C Controller/Battery Pack Protection/S2SP*%
G36*
X125238771Y-115749581D02*
G01*
X125317418Y-115765224D01*
X125362108Y-115783735D01*
X125418426Y-115821366D01*
X125452633Y-115855573D01*
X125481879Y-115899342D01*
X125490262Y-115911888D01*
X125508776Y-115956587D01*
X125524417Y-116035219D01*
X125526800Y-116059410D01*
X125526800Y-117924189D01*
X125524417Y-117948380D01*
X125508776Y-118027012D01*
X125490262Y-118071711D01*
X125452636Y-118128023D01*
X125418423Y-118162236D01*
X125362111Y-118199862D01*
X125317412Y-118218376D01*
X125238780Y-118234017D01*
X125214589Y-118236400D01*
X120200212Y-118236400D01*
X120176021Y-118234017D01*
X120097388Y-118218376D01*
X120052688Y-118199861D01*
X119996377Y-118162235D01*
X119962166Y-118128024D01*
X119955398Y-118117895D01*
X119934520Y-118051217D01*
X119934500Y-118049004D01*
X119934500Y-116068439D01*
X119934499Y-116068435D01*
X119932081Y-116059410D01*
X119916249Y-116000325D01*
X119917910Y-115930477D01*
X119932916Y-115899349D01*
X119962168Y-115855570D01*
X119996370Y-115821368D01*
X120052693Y-115783734D01*
X120097379Y-115765225D01*
X120176028Y-115749581D01*
X120200211Y-115747200D01*
X125214589Y-115747200D01*
X125238771Y-115749581D01*
G37*
%TD.AperFunction*%
%TD*%
%TA.AperFunction,Conductor*%
%TO.N,VBUS2*%
G36*
X144298300Y-106394885D02*
G01*
X144344055Y-106447689D01*
X144353964Y-106481317D01*
X144355967Y-106495064D01*
X144356627Y-106499593D01*
X144408003Y-106604684D01*
X144490714Y-106687395D01*
X144490715Y-106687395D01*
X144490717Y-106687397D01*
X144595807Y-106738772D01*
X144629873Y-106743735D01*
X144663939Y-106748699D01*
X144663940Y-106748699D01*
X146030461Y-106748699D01*
X146053171Y-106745390D01*
X146098593Y-106738772D01*
X146203683Y-106687397D01*
X146286398Y-106604682D01*
X146337773Y-106499592D01*
X146340435Y-106481320D01*
X146369578Y-106417822D01*
X146428427Y-106380158D01*
X146463139Y-106375200D01*
X146753045Y-106375200D01*
X146820084Y-106394885D01*
X146840726Y-106411519D01*
X146881686Y-106452479D01*
X146973011Y-106505206D01*
X147074872Y-106532499D01*
X147340216Y-106532499D01*
X147392621Y-106544117D01*
X147396795Y-106546063D01*
X147396796Y-106546064D01*
X147504027Y-106596067D01*
X147552883Y-106602499D01*
X147552884Y-106602499D01*
X148001517Y-106602499D01*
X148017801Y-106600355D01*
X148050373Y-106596067D01*
X148157604Y-106546064D01*
X148175119Y-106528549D01*
X148236442Y-106495064D01*
X148306134Y-106500048D01*
X148362067Y-106541920D01*
X148386484Y-106607384D01*
X148386800Y-106616230D01*
X148386800Y-107383500D01*
X148367115Y-107450539D01*
X148314311Y-107496294D01*
X148262800Y-107507500D01*
X148120695Y-107507500D01*
X148120679Y-107507499D01*
X148113083Y-107507499D01*
X148027378Y-107507499D01*
X147985985Y-107518590D01*
X147944590Y-107529682D01*
X147944585Y-107529685D01*
X147863329Y-107576598D01*
X147861813Y-107573973D01*
X147810119Y-107593968D01*
X147799781Y-107594400D01*
X143557800Y-107594400D01*
X143490761Y-107574715D01*
X143445006Y-107521911D01*
X143433800Y-107470400D01*
X143433800Y-106499200D01*
X143453485Y-106432161D01*
X143506289Y-106386406D01*
X143557800Y-106375200D01*
X144231261Y-106375200D01*
X144298300Y-106394885D01*
G37*
%TD.AperFunction*%
%TD*%
%TA.AperFunction,Conductor*%
%TO.N,GND*%
G36*
X162630039Y-112922685D02*
G01*
X162675794Y-112975489D01*
X162687000Y-113027000D01*
X162687000Y-113769600D01*
X162667315Y-113836639D01*
X162614511Y-113882394D01*
X162563000Y-113893600D01*
X161430338Y-113893600D01*
X161363299Y-113873915D01*
X161317544Y-113821111D01*
X161307600Y-113751953D01*
X161307865Y-113750202D01*
X161317900Y-113686843D01*
X161317900Y-113119856D01*
X161306265Y-113046398D01*
X161315219Y-112977105D01*
X161360215Y-112923653D01*
X161426967Y-112903013D01*
X161428738Y-112903000D01*
X162563000Y-112903000D01*
X162630039Y-112922685D01*
G37*
%TD.AperFunction*%
%TD*%
%TA.AperFunction,Conductor*%
%TO.N,PP_HV*%
G36*
X159069575Y-114211913D02*
G01*
X159089718Y-114222177D01*
X159089720Y-114222177D01*
X159089722Y-114222178D01*
X159207197Y-114240784D01*
X159207200Y-114240784D01*
X159207201Y-114240784D01*
X159220244Y-114238717D01*
X159320669Y-114222812D01*
X159389959Y-114231766D01*
X159408947Y-114242178D01*
X159454426Y-114272566D01*
X159488636Y-114306777D01*
X159509721Y-114338334D01*
X159530598Y-114405012D01*
X159517104Y-114463516D01*
X159475980Y-114544227D01*
X159460201Y-114643856D01*
X159460201Y-115210843D01*
X159475980Y-115310471D01*
X159475981Y-115310474D01*
X159475982Y-115310476D01*
X159537173Y-115430570D01*
X159537175Y-115430572D01*
X159539118Y-115433247D01*
X159540473Y-115437046D01*
X159541604Y-115439265D01*
X159541317Y-115439411D01*
X159562598Y-115499053D01*
X159562800Y-115506132D01*
X159562800Y-115872565D01*
X159543115Y-115939604D01*
X159539123Y-115945443D01*
X159537176Y-115948122D01*
X159475979Y-116068228D01*
X159460200Y-116167856D01*
X159460200Y-116734843D01*
X159475979Y-116834471D01*
X159475980Y-116834474D01*
X159475981Y-116834476D01*
X159527062Y-116934729D01*
X159539958Y-117003395D01*
X159513682Y-117068136D01*
X159504259Y-117078701D01*
X159458431Y-117124529D01*
X159458428Y-117124533D01*
X159404424Y-117230521D01*
X159404424Y-117230522D01*
X159385819Y-117347996D01*
X159385819Y-117348003D01*
X159405952Y-117475121D01*
X159403804Y-117475461D01*
X159405422Y-117532272D01*
X159373180Y-117588418D01*
X157017466Y-119944132D01*
X156956143Y-119977617D01*
X156886451Y-119972633D01*
X156830518Y-119930761D01*
X156819302Y-119912749D01*
X156818615Y-119911401D01*
X156818614Y-119911399D01*
X156818612Y-119911397D01*
X156818609Y-119911393D01*
X156734511Y-119827295D01*
X156734507Y-119827292D01*
X156734506Y-119827291D01*
X156628523Y-119773290D01*
X156628521Y-119773289D01*
X156628518Y-119773288D01*
X156511044Y-119754683D01*
X156511038Y-119754683D01*
X156393563Y-119773288D01*
X156393562Y-119773288D01*
X156287574Y-119827292D01*
X156287570Y-119827295D01*
X156203472Y-119911393D01*
X156203469Y-119911397D01*
X156149465Y-120017385D01*
X156149465Y-120017386D01*
X156130860Y-120134860D01*
X156130860Y-120134867D01*
X156142136Y-120206063D01*
X156133181Y-120275356D01*
X156088185Y-120328808D01*
X156075959Y-120335944D01*
X156013038Y-120368004D01*
X156013031Y-120368009D01*
X155928216Y-120452824D01*
X155928213Y-120452829D01*
X155873749Y-120559717D01*
X155854985Y-120678196D01*
X155854985Y-120678201D01*
X155873749Y-120796680D01*
X155873750Y-120796682D01*
X155896332Y-120841001D01*
X155928212Y-120903568D01*
X155928213Y-120903569D01*
X155928982Y-120905078D01*
X155942498Y-120961374D01*
X155942498Y-120967739D01*
X155922813Y-121034778D01*
X155906179Y-121055420D01*
X154678555Y-122283043D01*
X154617232Y-122316528D01*
X154610272Y-122317835D01*
X154593922Y-122320424D01*
X154487933Y-122374428D01*
X154487929Y-122374431D01*
X154403831Y-122458529D01*
X154403828Y-122458533D01*
X154349824Y-122564522D01*
X154347235Y-122580872D01*
X154317306Y-122644007D01*
X154312443Y-122649155D01*
X150464504Y-126497095D01*
X150445714Y-126512516D01*
X150379048Y-126557061D01*
X150334348Y-126575576D01*
X150255716Y-126591217D01*
X150231525Y-126593600D01*
X146260611Y-126593600D01*
X146236420Y-126591217D01*
X146157787Y-126575576D01*
X146113089Y-126557062D01*
X146056773Y-126519433D01*
X146022566Y-126485226D01*
X145984935Y-126428908D01*
X145966424Y-126384218D01*
X145950781Y-126305571D01*
X145948400Y-126281389D01*
X145948400Y-124365810D01*
X145950781Y-124341629D01*
X145966425Y-124262979D01*
X145984934Y-124218293D01*
X146022568Y-124161970D01*
X146056770Y-124127768D01*
X146113093Y-124090134D01*
X146157779Y-124071625D01*
X146236428Y-124055981D01*
X146260611Y-124053600D01*
X149329337Y-124053600D01*
X149329338Y-124053599D01*
X149367948Y-124045919D01*
X149444138Y-124030765D01*
X149444139Y-124030764D01*
X149444141Y-124030764D01*
X149541468Y-123965732D01*
X153966652Y-119540547D01*
X154027971Y-119507065D01*
X154073727Y-119505758D01*
X154076398Y-119506181D01*
X154076400Y-119506181D01*
X154076403Y-119506181D01*
X154193877Y-119487575D01*
X154193878Y-119487575D01*
X154193879Y-119487574D01*
X154193882Y-119487574D01*
X154299865Y-119433573D01*
X154383973Y-119349465D01*
X154437974Y-119243482D01*
X154437975Y-119243477D01*
X154456581Y-119126003D01*
X154456581Y-119125997D01*
X154456158Y-119123327D01*
X154456581Y-119120053D01*
X154456581Y-119116241D01*
X154457074Y-119116241D01*
X154465113Y-119054033D01*
X154490945Y-119016254D01*
X156609506Y-116897693D01*
X156670825Y-116864211D01*
X156677739Y-116862911D01*
X156784682Y-116845974D01*
X156890665Y-116791973D01*
X156974773Y-116707865D01*
X157028774Y-116601882D01*
X157036873Y-116550745D01*
X157066799Y-116487615D01*
X157126110Y-116450682D01*
X157139926Y-116447676D01*
X157191082Y-116439574D01*
X157297065Y-116385573D01*
X157381173Y-116301465D01*
X157435174Y-116195482D01*
X157452105Y-116088581D01*
X157482032Y-116025451D01*
X157486844Y-116020355D01*
X157798532Y-115708668D01*
X157863564Y-115611341D01*
X157886400Y-115496536D01*
X157886400Y-114510610D01*
X157888781Y-114486429D01*
X157904425Y-114407779D01*
X157922934Y-114363093D01*
X157960568Y-114306770D01*
X157994770Y-114272568D01*
X158051093Y-114234934D01*
X158095779Y-114216425D01*
X158174428Y-114200781D01*
X158198611Y-114198400D01*
X159013283Y-114198400D01*
X159069575Y-114211913D01*
G37*
%TD.AperFunction*%
%TD*%
%TA.AperFunction,Conductor*%
%TO.N,GND*%
G36*
X128896371Y-115750181D02*
G01*
X128975018Y-115765824D01*
X129019710Y-115784337D01*
X129058342Y-115810150D01*
X129103147Y-115863763D01*
X129111925Y-115932645D01*
X129109019Y-115950997D01*
X129109019Y-115951003D01*
X129127624Y-116068477D01*
X129127624Y-116068478D01*
X129127625Y-116068481D01*
X129127626Y-116068482D01*
X129170885Y-116153384D01*
X129184400Y-116209676D01*
X129184400Y-116712381D01*
X129164715Y-116779420D01*
X129148081Y-116800062D01*
X129147141Y-116801001D01*
X129147135Y-116801009D01*
X129107582Y-116869518D01*
X129107579Y-116869523D01*
X129087100Y-116945953D01*
X129087100Y-118089154D01*
X129067415Y-118156193D01*
X129031993Y-118192255D01*
X129019714Y-118200460D01*
X128975012Y-118218976D01*
X128896380Y-118234617D01*
X128872189Y-118237000D01*
X127431200Y-118237000D01*
X127364161Y-118217315D01*
X127318406Y-118164511D01*
X127307200Y-118113000D01*
X127307200Y-117760149D01*
X127307199Y-117760147D01*
X127295568Y-117701670D01*
X127295567Y-117701669D01*
X127251252Y-117635347D01*
X127184930Y-117591032D01*
X127184929Y-117591031D01*
X127126452Y-117579400D01*
X127126448Y-117579400D01*
X126158800Y-117579400D01*
X126091761Y-117559715D01*
X126046006Y-117506911D01*
X126034800Y-117455400D01*
X126034800Y-116060010D01*
X126037181Y-116035829D01*
X126052825Y-115957179D01*
X126071334Y-115912493D01*
X126108968Y-115856170D01*
X126143170Y-115821968D01*
X126199493Y-115784334D01*
X126244179Y-115765825D01*
X126322828Y-115750181D01*
X126347011Y-115747800D01*
X128872189Y-115747800D01*
X128896371Y-115750181D01*
G37*
%TD.AperFunction*%
%TD*%
%TA.AperFunction,Conductor*%
%TO.N,PP_5V*%
G36*
X145965171Y-99824381D02*
G01*
X146043818Y-99840024D01*
X146088508Y-99858535D01*
X146144826Y-99896166D01*
X146179033Y-99930373D01*
X146216662Y-99986688D01*
X146235176Y-100031387D01*
X146250817Y-100110019D01*
X146253200Y-100134210D01*
X146253200Y-102506989D01*
X146250817Y-102531180D01*
X146235176Y-102609812D01*
X146216662Y-102654511D01*
X146179036Y-102710823D01*
X146144823Y-102745036D01*
X146088511Y-102782662D01*
X146043812Y-102801176D01*
X145965180Y-102816817D01*
X145940989Y-102819200D01*
X144408475Y-102819200D01*
X144384284Y-102816817D01*
X144305651Y-102801176D01*
X144260951Y-102782661D01*
X144194285Y-102738116D01*
X144175495Y-102722695D01*
X143047704Y-101594904D01*
X143032283Y-101576114D01*
X142987738Y-101509448D01*
X142969224Y-101464754D01*
X142953581Y-101386107D01*
X142951200Y-101361925D01*
X142951200Y-100134210D01*
X142953581Y-100110029D01*
X142969225Y-100031379D01*
X142987734Y-99986693D01*
X143025368Y-99930370D01*
X143059570Y-99896168D01*
X143115893Y-99858534D01*
X143160579Y-99840025D01*
X143239228Y-99824381D01*
X143263411Y-99822000D01*
X145940989Y-99822000D01*
X145965171Y-99824381D01*
G37*
%TD.AperFunction*%
%TD*%
%TA.AperFunction,Conductor*%
%TO.N,/USB-C Controller/Battery Charger/U1ACP*%
G36*
X139564371Y-120550781D02*
G01*
X139643018Y-120566424D01*
X139687708Y-120584935D01*
X139744026Y-120622566D01*
X139778233Y-120656773D01*
X139815862Y-120713088D01*
X139834376Y-120757787D01*
X139850017Y-120836419D01*
X139852400Y-120860610D01*
X139852400Y-121853500D01*
X139832715Y-121920539D01*
X139779911Y-121966294D01*
X139728400Y-121977500D01*
X139686026Y-121977500D01*
X139561735Y-122013994D01*
X139561732Y-122013995D01*
X139561731Y-122013996D01*
X139509675Y-122047450D01*
X139452747Y-122084035D01*
X139450997Y-122085552D01*
X139448891Y-122086513D01*
X139445290Y-122088828D01*
X139444957Y-122088309D01*
X139387440Y-122114573D01*
X139318282Y-122104625D01*
X139288603Y-122085552D01*
X139286852Y-122084035D01*
X139286849Y-122084033D01*
X139177869Y-122013996D01*
X139177865Y-122013994D01*
X139177864Y-122013994D01*
X139053574Y-121977500D01*
X139053572Y-121977500D01*
X138924028Y-121977500D01*
X138924026Y-121977500D01*
X138799735Y-122013994D01*
X138799732Y-122013995D01*
X138799731Y-122013996D01*
X138748477Y-122046934D01*
X138690750Y-122084033D01*
X138605918Y-122181937D01*
X138605917Y-122181938D01*
X138552102Y-122299774D01*
X138533667Y-122428000D01*
X138552102Y-122556225D01*
X138605917Y-122674061D01*
X138605918Y-122674063D01*
X138630470Y-122702398D01*
X138659494Y-122765954D01*
X138649550Y-122835113D01*
X138630470Y-122864802D01*
X138605918Y-122893136D01*
X138605917Y-122893138D01*
X138552102Y-123010974D01*
X138533667Y-123139200D01*
X138552102Y-123267425D01*
X138605917Y-123385261D01*
X138605918Y-123385263D01*
X138664289Y-123452628D01*
X138689442Y-123481657D01*
X138690751Y-123483167D01*
X138799731Y-123553204D01*
X138924025Y-123589699D01*
X138924027Y-123589700D01*
X138924028Y-123589700D01*
X139053573Y-123589700D01*
X139053573Y-123589699D01*
X139177869Y-123553204D01*
X139286849Y-123483167D01*
X139286857Y-123483157D01*
X139288590Y-123481657D01*
X139290693Y-123480696D01*
X139294310Y-123478372D01*
X139294644Y-123478891D01*
X139352143Y-123452628D01*
X139421303Y-123462566D01*
X139451010Y-123481657D01*
X139452745Y-123483161D01*
X139452751Y-123483167D01*
X139561731Y-123553204D01*
X139686025Y-123589699D01*
X139686027Y-123589700D01*
X139728400Y-123589700D01*
X139795439Y-123609385D01*
X139841194Y-123662189D01*
X139852400Y-123713700D01*
X139852400Y-124052857D01*
X140152297Y-124052960D01*
X140152298Y-124052961D01*
X141053139Y-124053274D01*
X141674631Y-124053491D01*
X141698764Y-124055873D01*
X141777277Y-124071490D01*
X141821903Y-124089958D01*
X141878147Y-124127484D01*
X141912335Y-124161603D01*
X141949973Y-124217768D01*
X141968532Y-124262361D01*
X141984305Y-124340829D01*
X141986737Y-124364972D01*
X141991295Y-126286961D01*
X141988962Y-126311193D01*
X141973462Y-126389972D01*
X141954999Y-126434772D01*
X141917403Y-126491219D01*
X141883182Y-126525522D01*
X141826821Y-126563254D01*
X141782067Y-126581823D01*
X141733844Y-126591430D01*
X141703320Y-126597511D01*
X141679096Y-126599901D01*
X137493718Y-126599901D01*
X137469223Y-126597457D01*
X137440509Y-126591670D01*
X137389657Y-126581423D01*
X137344491Y-126562450D01*
X137277340Y-126516849D01*
X137258448Y-126501066D01*
X137193467Y-126434772D01*
X137056892Y-126295437D01*
X137041833Y-126276755D01*
X136998336Y-126210588D01*
X136980274Y-126166359D01*
X136965021Y-126088658D01*
X136962699Y-126064772D01*
X136962699Y-120860610D01*
X136965080Y-120836429D01*
X136980724Y-120757779D01*
X136999233Y-120713093D01*
X137036867Y-120656770D01*
X137071069Y-120622568D01*
X137127392Y-120584934D01*
X137172078Y-120566425D01*
X137250727Y-120550781D01*
X137274910Y-120548400D01*
X139540189Y-120548400D01*
X139564371Y-120550781D01*
G37*
%TD.AperFunction*%
%TD*%
%TA.AperFunction,Conductor*%
%TO.N,VSYS*%
G36*
X121897311Y-106221580D02*
G01*
X121975956Y-106237223D01*
X122020653Y-106255737D01*
X122087316Y-106300280D01*
X122106106Y-106315701D01*
X122201135Y-106410730D01*
X122201143Y-106410736D01*
X122298461Y-106475762D01*
X122298465Y-106475764D01*
X122413263Y-106498598D01*
X122413267Y-106498599D01*
X122413268Y-106498599D01*
X124127877Y-106498599D01*
X124147276Y-106500126D01*
X124155199Y-106501381D01*
X124155200Y-106501381D01*
X124155201Y-106501381D01*
X124163124Y-106500126D01*
X124182523Y-106498599D01*
X124516790Y-106498599D01*
X124540972Y-106500980D01*
X124619619Y-106516623D01*
X124664311Y-106535136D01*
X124713991Y-106568331D01*
X124758796Y-106621943D01*
X124769100Y-106671433D01*
X124769100Y-108750459D01*
X124774293Y-108769838D01*
X124789579Y-108826887D01*
X124789581Y-108826890D01*
X124797536Y-108840669D01*
X124814007Y-108908569D01*
X124811767Y-108926849D01*
X124810980Y-108930807D01*
X124792464Y-108975514D01*
X124754840Y-109031824D01*
X124720627Y-109066038D01*
X124664315Y-109103664D01*
X124619617Y-109122177D01*
X124564917Y-109133058D01*
X124540983Y-109137819D01*
X124516793Y-109140201D01*
X123150388Y-109140201D01*
X123032200Y-109140200D01*
X122965162Y-109120516D01*
X122944519Y-109103881D01*
X122905469Y-109064830D01*
X122905466Y-109064828D01*
X122905465Y-109064827D01*
X122799482Y-109010826D01*
X122799480Y-109010825D01*
X122799477Y-109010824D01*
X122682003Y-108992219D01*
X122681997Y-108992219D01*
X122564522Y-109010824D01*
X122564521Y-109010824D01*
X122458532Y-109064828D01*
X122419476Y-109103883D01*
X122358152Y-109137366D01*
X122331798Y-109140199D01*
X118692190Y-109140199D01*
X118667999Y-109137816D01*
X118589361Y-109122173D01*
X118544662Y-109103658D01*
X118488361Y-109066038D01*
X118477995Y-109059111D01*
X118459205Y-109043690D01*
X118447339Y-109031824D01*
X117555025Y-108139472D01*
X117555024Y-108139471D01*
X117526537Y-108110983D01*
X116525801Y-107110207D01*
X116525801Y-106466638D01*
X116532754Y-106425698D01*
X116534728Y-106420057D01*
X116534734Y-106420044D01*
X116550200Y-106375844D01*
X116550201Y-106375837D01*
X116550208Y-106375820D01*
X116555861Y-106356747D01*
X116561557Y-106333446D01*
X116565343Y-106255401D01*
X116560137Y-106219198D01*
X116797716Y-106219198D01*
X116797717Y-106219198D01*
X119145060Y-106219198D01*
X119145062Y-106219198D01*
X121873140Y-106219198D01*
X121897311Y-106221580D01*
G37*
%TD.AperFunction*%
%TD*%
%TA.AperFunction,Conductor*%
%TO.N,/USB-C Controller/Battery Charger/SW_BAT*%
G36*
X129512772Y-106551783D02*
G01*
X129591419Y-106567426D01*
X129636109Y-106585937D01*
X129692427Y-106623568D01*
X129726634Y-106657775D01*
X129764263Y-106714090D01*
X129782777Y-106758789D01*
X129798418Y-106837421D01*
X129800801Y-106861612D01*
X129800802Y-108777190D01*
X129798420Y-108801380D01*
X129782778Y-108880014D01*
X129764265Y-108924712D01*
X129726639Y-108981024D01*
X129692426Y-109015237D01*
X129636114Y-109052863D01*
X129591415Y-109071377D01*
X129512783Y-109087018D01*
X129488592Y-109089401D01*
X129157833Y-109089401D01*
X128889306Y-109089401D01*
X128197866Y-109089402D01*
X128197862Y-109089403D01*
X128083064Y-109112237D01*
X128083060Y-109112239D01*
X127985739Y-109177267D01*
X127985731Y-109177273D01*
X127196273Y-109966731D01*
X127196267Y-109966739D01*
X127131239Y-110064060D01*
X127131237Y-110064064D01*
X127108403Y-110178862D01*
X127108402Y-110178866D01*
X127108402Y-110622474D01*
X127097549Y-110667685D01*
X127098641Y-110668040D01*
X127095624Y-110677323D01*
X127077019Y-110794796D01*
X127077019Y-110794803D01*
X127095625Y-110912281D01*
X127098641Y-110921563D01*
X127097548Y-110921917D01*
X127108402Y-110967126D01*
X127108402Y-112993590D01*
X127106019Y-113017781D01*
X127090378Y-113096413D01*
X127071864Y-113141112D01*
X127034238Y-113197424D01*
X127000025Y-113231637D01*
X126943713Y-113269263D01*
X126899014Y-113287777D01*
X126820382Y-113303418D01*
X126796191Y-113305801D01*
X125795013Y-113305801D01*
X125770822Y-113303418D01*
X125692189Y-113287777D01*
X125647491Y-113269263D01*
X125591175Y-113231634D01*
X125556968Y-113197427D01*
X125519337Y-113141109D01*
X125500826Y-113096419D01*
X125485183Y-113017772D01*
X125482802Y-112993590D01*
X125482802Y-110662810D01*
X125484329Y-110643412D01*
X125500581Y-110540801D01*
X125500581Y-110540797D01*
X125484329Y-110438187D01*
X125482802Y-110418789D01*
X125482802Y-109807646D01*
X125494007Y-109756136D01*
X125506297Y-109729226D01*
X125524733Y-109601000D01*
X125506297Y-109472774D01*
X125506296Y-109472770D01*
X125494008Y-109445864D01*
X125482802Y-109394352D01*
X125482802Y-109336400D01*
X125502487Y-109269361D01*
X125555291Y-109223606D01*
X125606802Y-109212400D01*
X126377853Y-109212400D01*
X126377854Y-109212399D01*
X126392671Y-109209452D01*
X126436332Y-109200768D01*
X126436332Y-109200767D01*
X126436334Y-109200767D01*
X126502655Y-109156452D01*
X126546970Y-109090131D01*
X126546970Y-109090129D01*
X126546971Y-109090129D01*
X126558602Y-109031652D01*
X126558603Y-109031650D01*
X126558603Y-108587149D01*
X126558602Y-108587147D01*
X126546971Y-108528670D01*
X126546970Y-108528669D01*
X126502655Y-108462347D01*
X126436333Y-108418032D01*
X126436332Y-108418031D01*
X126377855Y-108406400D01*
X126377851Y-108406400D01*
X125494100Y-108406400D01*
X125427061Y-108386715D01*
X125381306Y-108333911D01*
X125370100Y-108282400D01*
X125370100Y-106746974D01*
X125389785Y-106679935D01*
X125390997Y-106678085D01*
X125404565Y-106657778D01*
X125438774Y-106623568D01*
X125495092Y-106585938D01*
X125539780Y-106567427D01*
X125618429Y-106551783D01*
X125642612Y-106549402D01*
X129488590Y-106549402D01*
X129512772Y-106551783D01*
G37*
%TD.AperFunction*%
%TD*%
%TA.AperFunction,Conductor*%
%TO.N,VBUS2*%
G36*
X139587707Y-99824381D02*
G01*
X139666354Y-99840024D01*
X139711046Y-99858537D01*
X139777714Y-99903083D01*
X139796504Y-99918504D01*
X140822695Y-100944695D01*
X140838116Y-100963485D01*
X140882661Y-101030151D01*
X140901176Y-101074851D01*
X140916817Y-101153483D01*
X140919200Y-101177674D01*
X140919200Y-102506989D01*
X140916817Y-102531180D01*
X140901176Y-102609812D01*
X140882662Y-102654511D01*
X140845036Y-102710823D01*
X140810823Y-102745035D01*
X140782888Y-102763701D01*
X140754511Y-102782662D01*
X140709812Y-102801176D01*
X140631180Y-102816817D01*
X140606989Y-102819200D01*
X139089846Y-102819200D01*
X139089837Y-102819201D01*
X138234210Y-102819201D01*
X138210019Y-102816818D01*
X138131386Y-102801177D01*
X138086688Y-102782663D01*
X138030372Y-102745034D01*
X137996165Y-102710827D01*
X137958534Y-102654509D01*
X137940023Y-102609819D01*
X137924380Y-102531172D01*
X137921999Y-102506990D01*
X137921999Y-102506989D01*
X137921999Y-100134199D01*
X137924380Y-100110030D01*
X137940024Y-100031382D01*
X137958534Y-99986693D01*
X137996168Y-99930370D01*
X138030370Y-99896168D01*
X138086693Y-99858534D01*
X138131379Y-99840025D01*
X138210028Y-99824381D01*
X138234211Y-99822000D01*
X139563525Y-99822000D01*
X139587707Y-99824381D01*
G37*
%TD.AperFunction*%
%TD*%
%TA.AperFunction,Conductor*%
%TO.N,/USB-C Controller/Battery Charger/SW_BAT_R*%
G36*
X123155973Y-110768183D02*
G01*
X123234620Y-110783826D01*
X123279310Y-110802337D01*
X123335628Y-110839968D01*
X123369835Y-110874175D01*
X123407464Y-110930490D01*
X123425977Y-110975186D01*
X123440745Y-111049430D01*
X123441619Y-111053822D01*
X123444001Y-111078012D01*
X123444001Y-112993590D01*
X123441618Y-113017781D01*
X123425977Y-113096413D01*
X123407463Y-113141112D01*
X123369837Y-113197424D01*
X123335624Y-113231637D01*
X123279312Y-113269263D01*
X123234613Y-113287777D01*
X123155981Y-113303418D01*
X123131790Y-113305801D01*
X121564404Y-113305801D01*
X121564402Y-113305801D01*
X119997012Y-113305802D01*
X119972822Y-113303420D01*
X119954217Y-113299719D01*
X119894186Y-113287778D01*
X119849491Y-113269265D01*
X119793175Y-113231636D01*
X119758968Y-113197429D01*
X119721337Y-113141111D01*
X119702826Y-113096418D01*
X119687183Y-113017773D01*
X119684801Y-112993602D01*
X119684801Y-112094011D01*
X119687182Y-112069831D01*
X119702826Y-111991181D01*
X119721335Y-111946495D01*
X119758969Y-111890172D01*
X119793171Y-111855970D01*
X119849494Y-111818336D01*
X119894180Y-111799827D01*
X119972829Y-111784183D01*
X119997012Y-111781802D01*
X120678139Y-111781802D01*
X120678140Y-111781801D01*
X120716750Y-111774121D01*
X120792940Y-111758967D01*
X120792941Y-111758966D01*
X120792943Y-111758966D01*
X120890270Y-111693934D01*
X121721902Y-110862301D01*
X121740680Y-110846890D01*
X121807357Y-110802338D01*
X121852045Y-110783827D01*
X121930694Y-110768183D01*
X121954877Y-110765802D01*
X123131791Y-110765802D01*
X123155973Y-110768183D01*
G37*
%TD.AperFunction*%
%TD*%
%TA.AperFunction,Conductor*%
%TO.N,VBUS2*%
G36*
X160842336Y-112929342D02*
G01*
X160942843Y-112949334D01*
X160960507Y-112956650D01*
X160974911Y-112966274D01*
X161041628Y-113010853D01*
X161055146Y-113024371D01*
X161101035Y-113093049D01*
X161108689Y-113112605D01*
X161111796Y-113132217D01*
X161112400Y-113139884D01*
X161112400Y-113666811D01*
X161111797Y-113674475D01*
X161104882Y-113718140D01*
X161104690Y-113719374D01*
X161104691Y-113719375D01*
X161104414Y-113721202D01*
X161104192Y-113781207D01*
X161114131Y-113850332D01*
X161114139Y-113850374D01*
X161118652Y-113872193D01*
X161118727Y-113891675D01*
X161116665Y-113902044D01*
X161109348Y-113919710D01*
X161055146Y-114000827D01*
X161041627Y-114014346D01*
X160960507Y-114068549D01*
X160942844Y-114075865D01*
X160865931Y-114091164D01*
X160842334Y-114095858D01*
X160832777Y-114096800D01*
X159576127Y-114096800D01*
X159548904Y-114088542D01*
X159523115Y-114071310D01*
X159507748Y-114061987D01*
X159488764Y-114051578D01*
X159488758Y-114051575D01*
X159416302Y-114027962D01*
X159416294Y-114027960D01*
X159367776Y-114021691D01*
X159347006Y-114019007D01*
X159347003Y-114019007D01*
X159288521Y-114019842D01*
X159214861Y-114031508D01*
X159199531Y-114031508D01*
X159177137Y-114027961D01*
X159152863Y-114024116D01*
X159143572Y-114021691D01*
X159117555Y-114012094D01*
X159117548Y-114012091D01*
X159117543Y-114012090D01*
X159117537Y-114012088D01*
X159117532Y-114012087D01*
X159061246Y-113998575D01*
X159047240Y-113996918D01*
X159014519Y-113978593D01*
X159004000Y-113948258D01*
X159004000Y-113233223D01*
X159004939Y-113223674D01*
X159024935Y-113123150D01*
X159032250Y-113105492D01*
X159086453Y-113024372D01*
X159099968Y-113010855D01*
X159171488Y-112963067D01*
X159208267Y-112955751D01*
X159230204Y-112966274D01*
X159257828Y-112989453D01*
X159257832Y-112989456D01*
X159357414Y-113025700D01*
X159463386Y-113025700D01*
X159562968Y-112989456D01*
X159579658Y-112975451D01*
X159622071Y-112939864D01*
X159653567Y-112928400D01*
X160832777Y-112928400D01*
X160842336Y-112929342D01*
G37*
%TD.AperFunction*%
%TD*%
%TA.AperFunction,Conductor*%
%TO.N,/USB-C Controller/Battery Charger/VBAT*%
G36*
X112840201Y-112979200D02*
G01*
X112840201Y-115586298D01*
X111792100Y-115586298D01*
X111627066Y-115586298D01*
X111602878Y-115583916D01*
X111595901Y-115582528D01*
X111553166Y-115574028D01*
X111533238Y-115571073D01*
X111533220Y-115571071D01*
X111533212Y-115571070D01*
X111509025Y-115568689D01*
X111509019Y-115568688D01*
X111509012Y-115568688D01*
X111501361Y-115568312D01*
X111488893Y-115567700D01*
X110973151Y-115567700D01*
X110906112Y-115548015D01*
X110904291Y-115546823D01*
X110852373Y-115512132D01*
X110818166Y-115477925D01*
X110780535Y-115421607D01*
X110762024Y-115376917D01*
X110746381Y-115298270D01*
X110744000Y-115274088D01*
X110744000Y-114116821D01*
X110721707Y-114003335D01*
X110658140Y-113906716D01*
X110658137Y-113906713D01*
X110658136Y-113906711D01*
X110191312Y-113430922D01*
X110176233Y-113412234D01*
X110152753Y-113376546D01*
X110132350Y-113309721D01*
X110151314Y-113242474D01*
X110153245Y-113239495D01*
X110158768Y-113231230D01*
X110158768Y-113231228D01*
X110158769Y-113231228D01*
X110170400Y-113172751D01*
X110170401Y-113172749D01*
X110170401Y-112244914D01*
X110190086Y-112177875D01*
X110225506Y-112141814D01*
X110261692Y-112117635D01*
X110306381Y-112099124D01*
X110385030Y-112083480D01*
X110409213Y-112081099D01*
X111834327Y-112081099D01*
X111958590Y-112081099D01*
X112840201Y-112979200D01*
G37*
%TD.AperFunction*%
%TD*%
%TA.AperFunction,Conductor*%
%TO.N,GND*%
G36*
X160902839Y-114446685D02*
G01*
X160948594Y-114499489D01*
X160959800Y-114551000D01*
X160959800Y-117452600D01*
X160940115Y-117519639D01*
X160887311Y-117565394D01*
X160835800Y-117576600D01*
X159763000Y-117576600D01*
X159695961Y-117556915D01*
X159650206Y-117504111D01*
X159639000Y-117452600D01*
X159639000Y-117283630D01*
X159658685Y-117216591D01*
X159664149Y-117209399D01*
X159663857Y-117209181D01*
X159667041Y-117204927D01*
X159667045Y-117204921D01*
X159704097Y-117145418D01*
X159730373Y-117080677D01*
X159738384Y-117056851D01*
X159741927Y-116965464D01*
X159729031Y-116896798D01*
X159710164Y-116841435D01*
X159682771Y-116787674D01*
X159670784Y-116750775D01*
X159667226Y-116728303D01*
X159665700Y-116708912D01*
X159665700Y-116193788D01*
X159667226Y-116174393D01*
X159670785Y-116151919D01*
X159682773Y-116115022D01*
X159720278Y-116041417D01*
X159720277Y-116041416D01*
X159734929Y-116012662D01*
X159738774Y-116002134D01*
X159738556Y-116002051D01*
X159740287Y-115997507D01*
X159740290Y-115997502D01*
X159759975Y-115930463D01*
X159768300Y-115872565D01*
X159768300Y-115506132D01*
X159768216Y-115500270D01*
X159768014Y-115493191D01*
X159756146Y-115429993D01*
X159735808Y-115372996D01*
X159735471Y-115367100D01*
X159733201Y-115362644D01*
X159726895Y-115348016D01*
X159725862Y-115345123D01*
X159723884Y-115343358D01*
X159718667Y-115334118D01*
X159682775Y-115263677D01*
X159670785Y-115226773D01*
X159667227Y-115204301D01*
X159665701Y-115184910D01*
X159665701Y-114669787D01*
X159667227Y-114650392D01*
X159670786Y-114627918D01*
X159682774Y-114591020D01*
X159700206Y-114556810D01*
X159717347Y-114509702D01*
X159717348Y-114509697D01*
X159717747Y-114508601D01*
X159759168Y-114452333D01*
X159824434Y-114427391D01*
X159834273Y-114427000D01*
X160835800Y-114427000D01*
X160902839Y-114446685D01*
G37*
%TD.AperFunction*%
%TD*%
%TA.AperFunction,Conductor*%
%TO.N,Net-(NT502-Pad1)*%
G36*
X118166673Y-116326285D02*
G01*
X118187318Y-116342922D01*
X118193848Y-116349452D01*
X118260169Y-116393767D01*
X118260170Y-116393768D01*
X118318647Y-116405399D01*
X118318650Y-116405400D01*
X118318652Y-116405400D01*
X119209500Y-116405400D01*
X119276539Y-116425085D01*
X119322294Y-116477889D01*
X119333500Y-116529400D01*
X119333500Y-118100406D01*
X119313815Y-118167445D01*
X119312602Y-118169297D01*
X119305836Y-118179423D01*
X119271625Y-118213634D01*
X119215312Y-118251261D01*
X119170612Y-118269776D01*
X119091980Y-118285417D01*
X119067789Y-118287800D01*
X116441011Y-118287800D01*
X116416820Y-118285417D01*
X116338187Y-118269776D01*
X116293489Y-118251262D01*
X116237173Y-118213633D01*
X116202966Y-118179426D01*
X116165335Y-118123108D01*
X116146824Y-118078418D01*
X116131181Y-117999771D01*
X116128800Y-117975589D01*
X116128800Y-116618810D01*
X116131181Y-116594629D01*
X116146825Y-116515979D01*
X116165334Y-116471293D01*
X116202968Y-116414970D01*
X116237170Y-116380768D01*
X116293493Y-116343134D01*
X116338179Y-116324625D01*
X116416828Y-116308981D01*
X116441011Y-116306600D01*
X118099634Y-116306600D01*
X118166673Y-116326285D01*
G37*
%TD.AperFunction*%
%TD*%
M02*
