%TF.GenerationSoftware,KiCad,Pcbnew,8.0.3*%
%TF.CreationDate,2024-09-21T22:38:29+02:00*%
%TF.ProjectId,Battery_pack,42617474-6572-4795-9f70-61636b2e6b69,1.0*%
%TF.SameCoordinates,Original*%
%TF.FileFunction,Soldermask,Bot*%
%TF.FilePolarity,Negative*%
%FSLAX46Y46*%
G04 Gerber Fmt 4.6, Leading zero omitted, Abs format (unit mm)*
G04 Created by KiCad (PCBNEW 8.0.3) date 2024-09-21 22:38:29*
%MOMM*%
%LPD*%
G01*
G04 APERTURE LIST*
G04 Aperture macros list*
%AMRoundRect*
0 Rectangle with rounded corners*
0 $1 Rounding radius*
0 $2 $3 $4 $5 $6 $7 $8 $9 X,Y pos of 4 corners*
0 Add a 4 corners polygon primitive as box body*
4,1,4,$2,$3,$4,$5,$6,$7,$8,$9,$2,$3,0*
0 Add four circle primitives for the rounded corners*
1,1,$1+$1,$2,$3*
1,1,$1+$1,$4,$5*
1,1,$1+$1,$6,$7*
1,1,$1+$1,$8,$9*
0 Add four rect primitives between the rounded corners*
20,1,$1+$1,$2,$3,$4,$5,0*
20,1,$1+$1,$4,$5,$6,$7,0*
20,1,$1+$1,$6,$7,$8,$9,0*
20,1,$1+$1,$8,$9,$2,$3,0*%
G04 Aperture macros list end*
%ADD10C,2.999999*%
%ADD11R,1.520000X1.520000*%
%ADD12C,1.520000*%
%ADD13C,0.650000*%
%ADD14O,1.804000X1.104000*%
%ADD15O,1.504000X1.104000*%
%ADD16C,5.600000*%
%ADD17C,1.168400*%
%ADD18RoundRect,0.140000X0.170000X-0.140000X0.170000X0.140000X-0.170000X0.140000X-0.170000X-0.140000X0*%
%ADD19RoundRect,0.076750X-0.810250X-0.230250X0.810250X-0.230250X0.810250X0.230250X-0.810250X0.230250X0*%
%ADD20RoundRect,0.135000X-0.135000X-0.185000X0.135000X-0.185000X0.135000X0.185000X-0.135000X0.185000X0*%
%ADD21RoundRect,0.140000X-0.140000X-0.170000X0.140000X-0.170000X0.140000X0.170000X-0.140000X0.170000X0*%
%ADD22RoundRect,0.135000X0.135000X0.185000X-0.135000X0.185000X-0.135000X-0.185000X0.135000X-0.185000X0*%
%ADD23RoundRect,0.225000X-0.225000X-0.250000X0.225000X-0.250000X0.225000X0.250000X-0.225000X0.250000X0*%
%ADD24RoundRect,0.250000X0.650000X-0.325000X0.650000X0.325000X-0.650000X0.325000X-0.650000X-0.325000X0*%
%ADD25RoundRect,0.102000X0.495000X0.202500X-0.495000X0.202500X-0.495000X-0.202500X0.495000X-0.202500X0*%
%ADD26RoundRect,0.102000X0.380000X0.202500X-0.380000X0.202500X-0.380000X-0.202500X0.380000X-0.202500X0*%
%ADD27RoundRect,0.102000X0.862500X1.117500X-0.862500X1.117500X-0.862500X-1.117500X0.862500X-1.117500X0*%
%ADD28RoundRect,0.140000X-0.170000X0.140000X-0.170000X-0.140000X0.170000X-0.140000X0.170000X0.140000X0*%
%ADD29RoundRect,0.135000X0.185000X-0.135000X0.185000X0.135000X-0.185000X0.135000X-0.185000X-0.135000X0*%
%ADD30RoundRect,0.140000X0.140000X0.170000X-0.140000X0.170000X-0.140000X-0.170000X0.140000X-0.170000X0*%
%ADD31RoundRect,0.135000X-0.185000X0.135000X-0.185000X-0.135000X0.185000X-0.135000X0.185000X0.135000X0*%
%ADD32RoundRect,0.250000X-0.650000X0.325000X-0.650000X-0.325000X0.650000X-0.325000X0.650000X0.325000X0*%
%ADD33RoundRect,0.250000X-0.262500X-0.450000X0.262500X-0.450000X0.262500X0.450000X-0.262500X0.450000X0*%
%ADD34RoundRect,0.250000X0.262500X0.450000X-0.262500X0.450000X-0.262500X-0.450000X0.262500X-0.450000X0*%
%ADD35RoundRect,0.102000X0.202500X-0.495000X0.202500X0.495000X-0.202500X0.495000X-0.202500X-0.495000X0*%
%ADD36RoundRect,0.102000X0.202500X-0.380000X0.202500X0.380000X-0.202500X0.380000X-0.202500X-0.380000X0*%
%ADD37RoundRect,0.102000X1.117500X-0.862500X1.117500X0.862500X-1.117500X0.862500X-1.117500X-0.862500X0*%
%ADD38RoundRect,0.150000X0.150000X-0.650000X0.150000X0.650000X-0.150000X0.650000X-0.150000X-0.650000X0*%
%ADD39R,3.200000X2.400000*%
%ADD40RoundRect,0.112500X-0.237500X0.112500X-0.237500X-0.112500X0.237500X-0.112500X0.237500X0.112500X0*%
%ADD41RoundRect,0.102000X-0.495000X-0.202500X0.495000X-0.202500X0.495000X0.202500X-0.495000X0.202500X0*%
%ADD42RoundRect,0.102000X-0.380000X-0.202500X0.380000X-0.202500X0.380000X0.202500X-0.380000X0.202500X0*%
%ADD43RoundRect,0.102000X-0.862500X-1.117500X0.862500X-1.117500X0.862500X1.117500X-0.862500X1.117500X0*%
%ADD44RoundRect,0.125000X0.125000X-0.125000X0.125000X0.125000X-0.125000X0.125000X-0.125000X-0.125000X0*%
%ADD45RoundRect,0.102000X0.750000X1.200000X-0.750000X1.200000X-0.750000X-1.200000X0.750000X-1.200000X0*%
%ADD46RoundRect,0.250000X-0.325000X-0.650000X0.325000X-0.650000X0.325000X0.650000X-0.325000X0.650000X0*%
%ADD47RoundRect,0.150000X0.650000X0.150000X-0.650000X0.150000X-0.650000X-0.150000X0.650000X-0.150000X0*%
%ADD48R,2.400000X3.200000*%
%ADD49RoundRect,0.102000X1.225000X-1.225000X1.225000X1.225000X-1.225000X1.225000X-1.225000X-1.225000X0*%
%ADD50RoundRect,0.059250X0.472750X-0.177750X0.472750X0.177750X-0.472750X0.177750X-0.472750X-0.177750X0*%
%ADD51RoundRect,0.059250X0.177750X-0.472750X0.177750X0.472750X-0.177750X0.472750X-0.177750X-0.472750X0*%
G04 APERTURE END LIST*
D10*
%TO.C,J401*%
X132061178Y-99580001D03*
X121361200Y-99580001D03*
D11*
X119211181Y-103900000D03*
D12*
X122211180Y-103900000D03*
X125211179Y-103900000D03*
X128211178Y-103900000D03*
X131211177Y-103900000D03*
X134211176Y-103900000D03*
%TD*%
D13*
%TO.C,J601*%
X167750000Y-122510000D03*
X167750000Y-115510000D03*
D14*
X171600000Y-124930000D03*
X171600000Y-113090000D03*
D15*
X167280000Y-123660000D03*
X167280000Y-114360000D03*
%TD*%
D16*
%TO.C,REF\u002A\u002A*%
X169900000Y-99600000D03*
%TD*%
%TO.C,REF\u002A\u002A*%
X169900000Y-130400000D03*
%TD*%
D17*
%TO.C,REF\u002A\u002A*%
X165937600Y-107470000D03*
X165937600Y-104930000D03*
%TD*%
D18*
%TO.C,C205*%
X153646101Y-115508950D03*
X153646101Y-114548950D03*
%TD*%
D19*
%TO.C,U501*%
X120929600Y-128898600D03*
X120929600Y-128248600D03*
X120929600Y-127598599D03*
X120929600Y-126948600D03*
X120929600Y-126298601D03*
X120929600Y-125648600D03*
X120929600Y-124998600D03*
X120929600Y-124348599D03*
X120929600Y-123698600D03*
X120929600Y-123048601D03*
X120929600Y-122398600D03*
X120929600Y-121748600D03*
X126669600Y-121748600D03*
X126669600Y-122398600D03*
X126669600Y-123048601D03*
X126669600Y-123698600D03*
X126669600Y-124348599D03*
X126669600Y-124998600D03*
X126669600Y-125648600D03*
X126669600Y-126298601D03*
X126669600Y-126948600D03*
X126669600Y-127598599D03*
X126669600Y-128248600D03*
X126669600Y-128898600D03*
%TD*%
D20*
%TO.C,R305*%
X106693401Y-112899399D03*
X107713399Y-112899399D03*
%TD*%
%TO.C,R505*%
X115162201Y-127970200D03*
X116182199Y-127970200D03*
%TD*%
D21*
%TO.C,C510*%
X117172800Y-125323600D03*
X118132800Y-125323600D03*
%TD*%
D22*
%TO.C,R307*%
X146108698Y-119945101D03*
X145088700Y-119945101D03*
%TD*%
D21*
%TO.C,C311*%
X136217601Y-117449600D03*
X135257601Y-117449600D03*
%TD*%
%TO.C,C201*%
X151438901Y-111726950D03*
X152398901Y-111726950D03*
%TD*%
D23*
%TO.C,C209*%
X160667400Y-113403350D03*
X162217400Y-113403350D03*
%TD*%
D21*
%TO.C,C305*%
X140761601Y-117876801D03*
X139801601Y-117876801D03*
%TD*%
D24*
%TO.C,C402*%
X158076800Y-101967000D03*
X158076800Y-99016998D03*
%TD*%
D25*
%TO.C,Q502*%
X126611700Y-116002400D03*
X126611700Y-116662400D03*
X126611700Y-117322400D03*
X126611700Y-117982400D03*
D26*
X123626700Y-117982400D03*
X123626700Y-117322400D03*
X123626700Y-116662400D03*
X123626700Y-116002400D03*
D27*
X124619200Y-116992400D03*
%TD*%
D28*
%TO.C,C303*%
X144232599Y-121141501D03*
X144232599Y-122101501D03*
%TD*%
D20*
%TO.C,R502*%
X115162201Y-130103800D03*
X116182199Y-130103800D03*
%TD*%
%TO.C,R511*%
X115159601Y-125323600D03*
X116179599Y-125323600D03*
%TD*%
D28*
%TO.C,C313*%
X133096000Y-110563600D03*
X133096000Y-109603600D03*
%TD*%
D29*
%TO.C,R313*%
X140258800Y-107643200D03*
X140258800Y-108663198D03*
%TD*%
D18*
%TO.C,C304*%
X107762200Y-111753799D03*
X107762200Y-110793799D03*
%TD*%
%TO.C,C302*%
X143052801Y-115496400D03*
X143052801Y-116456400D03*
%TD*%
D20*
%TO.C,R319*%
X131066000Y-112979199D03*
X130046002Y-112979199D03*
%TD*%
%TO.C,R310*%
X132111998Y-113995200D03*
X131092000Y-113995200D03*
%TD*%
D30*
%TO.C,C308*%
X141963201Y-111353600D03*
X142923201Y-111353600D03*
%TD*%
D21*
%TO.C,C315*%
X132102800Y-115163600D03*
X131142800Y-115163600D03*
%TD*%
D22*
%TO.C,R514*%
X120042399Y-119430800D03*
X119022401Y-119430800D03*
%TD*%
D18*
%TO.C,C509*%
X118059200Y-122247600D03*
X118059200Y-121287600D03*
%TD*%
D31*
%TO.C,R309*%
X139192000Y-108663199D03*
X139192000Y-107643201D03*
%TD*%
D29*
%TO.C,R516*%
X129515200Y-122407599D03*
X129515200Y-121387601D03*
%TD*%
D30*
%TO.C,C314*%
X130076000Y-111048800D03*
X131036000Y-111048800D03*
%TD*%
D18*
%TO.C,C312*%
X132080000Y-110670400D03*
X132080000Y-111630400D03*
%TD*%
D20*
%TO.C,R509*%
X120952801Y-119430800D03*
X121972799Y-119430800D03*
%TD*%
%TO.C,R508*%
X115162201Y-126903400D03*
X116182199Y-126903400D03*
%TD*%
D28*
%TO.C,C508*%
X118059200Y-123206800D03*
X118059200Y-124166800D03*
%TD*%
D32*
%TO.C,C310*%
X116230402Y-109646400D03*
X116230402Y-112596402D03*
%TD*%
D21*
%TO.C,C503*%
X121923200Y-131196000D03*
X122883200Y-131196000D03*
%TD*%
D22*
%TO.C,R510*%
X125526800Y-119430800D03*
X124506802Y-119430800D03*
%TD*%
D25*
%TO.C,Q306*%
X130821302Y-106829401D03*
X130821302Y-107489401D03*
X130821302Y-108149401D03*
X130821302Y-108809401D03*
D26*
X127836302Y-108809401D03*
X127836302Y-108149401D03*
X127836302Y-107489401D03*
X127836302Y-106829401D03*
D27*
X128828802Y-107819401D03*
%TD*%
D32*
%TO.C,C401*%
X149542399Y-99016999D03*
X149542399Y-101967001D03*
%TD*%
D22*
%TO.C,R314*%
X132179602Y-112928400D03*
X133199600Y-112928400D03*
%TD*%
D31*
%TO.C,R308*%
X141325600Y-108661199D03*
X141325600Y-107641201D03*
%TD*%
D22*
%TO.C,R301*%
X141984002Y-114452400D03*
X143004000Y-114452400D03*
%TD*%
D33*
%TO.C,R517*%
X114809900Y-117576400D03*
X116634900Y-117576400D03*
%TD*%
D20*
%TO.C,R507*%
X129462401Y-125404800D03*
X130482399Y-125404800D03*
%TD*%
D22*
%TO.C,R513*%
X115978399Y-122188199D03*
X114958401Y-122188199D03*
%TD*%
D31*
%TO.C,R404*%
X147777200Y-105112001D03*
X147777200Y-106131999D03*
%TD*%
D21*
%TO.C,C208*%
X159973301Y-112133350D03*
X160933301Y-112133350D03*
%TD*%
D32*
%TO.C,C309*%
X113893604Y-109646400D03*
X113893604Y-112596402D03*
%TD*%
D24*
%TO.C,C404*%
X145084800Y-100484201D03*
X145084800Y-97534199D03*
%TD*%
D20*
%TO.C,R320*%
X134238400Y-118516400D03*
X133218402Y-118516400D03*
%TD*%
D31*
%TO.C,R304*%
X106695401Y-110763800D03*
X106695401Y-111783798D03*
%TD*%
D30*
%TO.C,C505*%
X118133400Y-127970200D03*
X117173400Y-127970200D03*
%TD*%
D34*
%TO.C,R311*%
X120190902Y-112493001D03*
X118365902Y-112493001D03*
%TD*%
D29*
%TO.C,R303*%
X143154400Y-122118800D03*
X143154400Y-121098802D03*
%TD*%
D31*
%TO.C,R503*%
X129515200Y-127587201D03*
X129515200Y-128607199D03*
%TD*%
D30*
%TO.C,C307*%
X141963200Y-113030000D03*
X142923200Y-113030000D03*
%TD*%
D28*
%TO.C,C206*%
X153646101Y-108300550D03*
X153646101Y-109260550D03*
%TD*%
D35*
%TO.C,Q303*%
X111747401Y-112657999D03*
X111087401Y-112657999D03*
X110427401Y-112657999D03*
X109767401Y-112657999D03*
D36*
X109767401Y-109672999D03*
X110427401Y-109672999D03*
X111087401Y-109672999D03*
X111747401Y-109672999D03*
D37*
X110757401Y-110665499D03*
%TD*%
D33*
%TO.C,R302*%
X139346299Y-121275300D03*
X141171299Y-121275300D03*
%TD*%
D22*
%TO.C,R318*%
X133218402Y-119583200D03*
X134238400Y-119583200D03*
%TD*%
D24*
%TO.C,C403*%
X138938000Y-100484201D03*
X138938000Y-97534199D03*
%TD*%
D38*
%TO.C,U401*%
X155714598Y-103192800D03*
X154444599Y-103192800D03*
X153174599Y-103192800D03*
X151904600Y-103192800D03*
X151904600Y-97892800D03*
X153174599Y-97892800D03*
X154444599Y-97892800D03*
X155714598Y-97892800D03*
D39*
X153809599Y-100542800D03*
%TD*%
D20*
%TO.C,R306*%
X147120700Y-119945101D03*
X148140698Y-119945101D03*
%TD*%
D40*
%TO.C,Q304*%
X147868699Y-121378801D03*
X147868699Y-122678801D03*
X145868699Y-122028801D03*
%TD*%
D23*
%TO.C,C203*%
X158560700Y-116451350D03*
X160110700Y-116451350D03*
%TD*%
D18*
%TO.C,C318*%
X141986001Y-115496400D03*
X141986001Y-116456400D03*
%TD*%
D22*
%TO.C,R402*%
X152996800Y-105572000D03*
X151976802Y-105572000D03*
%TD*%
D41*
%TO.C,Q301*%
X144920199Y-126325401D03*
X144920199Y-125665401D03*
X144920199Y-125005401D03*
X144920199Y-124345401D03*
D42*
X147905199Y-124345401D03*
X147905199Y-125005401D03*
X147905199Y-125665401D03*
X147905199Y-126325401D03*
D43*
X146912699Y-125335401D03*
%TD*%
D44*
%TO.C,D301*%
X144627600Y-111117201D03*
X144627600Y-113317199D03*
%TD*%
D30*
%TO.C,C317*%
X140789599Y-118943601D03*
X141749599Y-118943601D03*
%TD*%
D21*
%TO.C,C306*%
X139773599Y-118943601D03*
X138813599Y-118943601D03*
%TD*%
D45*
%TO.C,L301*%
X126310003Y-112035801D03*
X122610001Y-112035801D03*
%TD*%
D22*
%TO.C,R401*%
X154986800Y-105572000D03*
X153966802Y-105572000D03*
%TD*%
D41*
%TO.C,Q501*%
X118833400Y-117982400D03*
X118833400Y-117322400D03*
X118833400Y-116662400D03*
X118833400Y-116002400D03*
D42*
X121818400Y-116002400D03*
X121818400Y-116662400D03*
X121818400Y-117322400D03*
X121818400Y-117982400D03*
D43*
X120825900Y-116992400D03*
%TD*%
D20*
%TO.C,R501*%
X123925201Y-131196000D03*
X124945199Y-131196000D03*
%TD*%
D31*
%TO.C,R403*%
X147777200Y-103122001D03*
X147777200Y-104141999D03*
%TD*%
D46*
%TO.C,C301*%
X114145799Y-107137200D03*
X117095801Y-107137200D03*
%TD*%
D47*
%TO.C,U402*%
X145347200Y-102438201D03*
X145347200Y-103708200D03*
X145347200Y-104978200D03*
X145347200Y-106248199D03*
X140047200Y-106248199D03*
X140047200Y-104978200D03*
X140047200Y-103708200D03*
X140047200Y-102438201D03*
D48*
X142697200Y-104343200D03*
%TD*%
D25*
%TO.C,Q305*%
X125863103Y-106829400D03*
X125863103Y-107489400D03*
X125863103Y-108149400D03*
X125863103Y-108809400D03*
D26*
X122878103Y-108809400D03*
X122878103Y-108149400D03*
X122878103Y-107489400D03*
X122878103Y-106829400D03*
D27*
X123870603Y-107819400D03*
%TD*%
D30*
%TO.C,C506*%
X118133400Y-126903400D03*
X117173400Y-126903400D03*
%TD*%
D20*
%TO.C,R504*%
X115162201Y-129037000D03*
X116182199Y-129037000D03*
%TD*%
%TO.C,R316*%
X131065999Y-112014000D03*
X130046001Y-112014000D03*
%TD*%
D23*
%TO.C,C204*%
X158560701Y-114927350D03*
X160110701Y-114927350D03*
%TD*%
D22*
%TO.C,R506*%
X130482399Y-124337999D03*
X129462401Y-124337999D03*
%TD*%
D29*
%TO.C,R321*%
X132153601Y-118565200D03*
X132153601Y-119585198D03*
%TD*%
%TO.C,R312*%
X142392401Y-107643201D03*
X142392401Y-108663199D03*
%TD*%
D28*
%TO.C,C319*%
X132080000Y-109598400D03*
X132080000Y-108638400D03*
%TD*%
D20*
%TO.C,R515*%
X126439201Y-119430800D03*
X127459199Y-119430800D03*
%TD*%
D21*
%TO.C,C202*%
X159973301Y-111117350D03*
X160933301Y-111117350D03*
%TD*%
D30*
%TO.C,C501*%
X120902000Y-131196000D03*
X119942000Y-131196000D03*
%TD*%
%TO.C,C502*%
X118133400Y-130103800D03*
X117173400Y-130103800D03*
%TD*%
D25*
%TO.C,Q302*%
X143020498Y-124339901D03*
X143020498Y-124999901D03*
X143020498Y-125659901D03*
X143020498Y-126319901D03*
D26*
X140035498Y-126319901D03*
X140035498Y-125659901D03*
X140035498Y-124999901D03*
X140035498Y-124339901D03*
D27*
X141027998Y-125329901D03*
%TD*%
D22*
%TO.C,R512*%
X115978399Y-123254999D03*
X114958401Y-123254999D03*
%TD*%
D18*
%TO.C,C507*%
X116992400Y-123201599D03*
X116992400Y-122241599D03*
%TD*%
D49*
%TO.C,U301*%
X137566401Y-113030000D03*
D50*
X139501401Y-114280000D03*
X139501402Y-113780000D03*
X139501401Y-113280000D03*
X139501401Y-112780000D03*
X139501402Y-112280000D03*
X139501401Y-111780000D03*
D51*
X138816401Y-111095000D03*
X138316401Y-111094999D03*
X137816401Y-111095000D03*
X137316401Y-111095000D03*
X136816401Y-111094999D03*
X136316401Y-111095000D03*
D50*
X135631401Y-111780000D03*
X135631400Y-112280000D03*
X135631401Y-112780000D03*
X135631401Y-113280000D03*
X135631400Y-113780000D03*
X135631401Y-114280000D03*
D51*
X136316401Y-114965000D03*
X136816401Y-114965001D03*
X137316401Y-114965000D03*
X137816401Y-114965000D03*
X138316401Y-114965001D03*
X138816401Y-114965000D03*
%TD*%
D30*
%TO.C,C504*%
X118130800Y-129037000D03*
X117170800Y-129037000D03*
%TD*%
D21*
%TO.C,C316*%
X134236401Y-117449600D03*
X133276401Y-117449600D03*
%TD*%
M02*
