M48
; DRILL file {KiCad 8.0.3} date 2024-09-21T22:38:26+0200
; FORMAT={-:-/ absolute / inch / decimal}
; #@! TF.CreationDate,2024-09-21T22:38:26+02:00
; #@! TF.GenerationSoftware,Kicad,Pcbnew,8.0.3
; #@! TF.FileFunction,Plated,1,4,PTH
FMAT,2
INCH
; #@! TA.AperFunction,Plated,PTH,ViaDrill
T1C0.0079
; #@! TA.AperFunction,Plated,PTH,ViaDrill
T2C0.0138
; #@! TA.AperFunction,Plated,PTH,ComponentDrill
T3C0.0256
; #@! TA.AperFunction,Plated,PTH,ComponentDrill
T4C0.0402
; #@! TA.AperFunction,Plated,PTH,ComponentDrill
T5C0.1260
%
G90
G05
T1
X4.2182Y-4.4255
X4.221Y-4.337
X4.226Y-4.21
X4.266Y-4.318
X4.267Y-4.194
X4.268Y-4.449
X4.282Y-4.332
X4.282Y-4.426
X4.298Y-5.212
X4.322Y-5.03
X4.368Y-5.114
X4.392Y-4.116
X4.392Y-4.134
X4.392Y-4.152
X4.41Y-4.116
X4.41Y-4.133
X4.429Y-4.116
X4.432Y-5.12
X4.474Y-4.37
X4.485Y-4.562
X4.526Y-4.874
X4.526Y-5.164
X4.534Y-4.912
X4.574Y-5.2293
X4.5745Y-5.2065
X4.605Y-4.071
X4.6251Y-5.1729
X4.6262Y-4.0675
X4.634Y-4.358
X4.647Y-4.126
X4.674Y-5.1509
X4.83Y-4.306
X4.83Y-5.108
X4.83Y-5.132
X4.832Y-5.066
X4.855Y-4.153
X4.888Y-4.178
X4.901Y-5.116
X4.908Y-4.176
X4.926Y-4.352
X4.927Y-5.052
X4.945Y-5.045
X4.95Y-4.172
X5.018Y-4.362
X5.0329Y-4.19
X5.038Y-4.396
X5.075Y-5.204
X5.094Y-4.398
X5.098Y-4.565
X5.109Y-4.496
X5.112Y-5.226
X5.124Y-4.598
X5.127Y-4.859
X5.128Y-4.135
X5.128Y-4.665
X5.131Y-4.521
X5.131Y-4.549
X5.132Y-4.8
X5.133Y-4.475
X5.137Y-4.958
X5.148Y-4.995
X5.152Y-5.0732
X5.153Y-4.743
X5.166Y-4.304
X5.177Y-4.709
X5.222Y-4.282
X5.23Y-4.156
X5.23Y-4.482
X5.242Y-4.284
X5.25Y-4.166
X5.252Y-4.395
X5.262Y-4.184
X5.292Y-5.212
X5.307Y-5.016
X5.307Y-5.039
X5.307Y-5.061
X5.308Y-4.49
X5.316Y-4.516
X5.339Y-4.281
X5.34Y-4.259
X5.352Y-4.596
X5.358Y-4.246
X5.358Y-5.1608
X5.359Y-4.223
X5.365Y-5.059
X5.366Y-4.29
X5.366Y-4.308
X5.366Y-5.187
X5.3761Y-4.2155
X5.382Y-4.624
X5.386Y-4.29
X5.386Y-4.308
X5.386Y-4.42
X5.386Y-4.45
X5.386Y-4.48
X5.388Y-4.56
X5.416Y-4.42
X5.416Y-4.45
X5.416Y-4.48
X5.43Y-5.16
X5.446Y-4.45
X5.446Y-4.48
X5.446Y-4.42
X5.456Y-5.212
X5.468Y-4.662
X5.472Y-4.62
X5.494Y-4.606
X5.522Y-4.216
X5.528Y-4.396
X5.528Y-4.442
X5.528Y-4.478
X5.528Y-4.516
X5.536Y-4.564
X5.54Y-4.4205
X5.5454Y-4.2564
X5.571Y-4.821
X5.5809Y-4.6608
X5.59Y-4.606
X5.594Y-5.16
X5.602Y-4.652
X5.618Y-4.254
X5.6205Y-4.4155
X5.632Y-4.6042
X5.648Y-4.642
X5.658Y-5.212
X5.66Y-4.622
X5.68Y-4.528
X5.681Y-4.549
X5.691Y-4.277
X5.704Y-5.005
X5.7055Y-4.874
X5.7082Y-4.7522
X5.777Y-4.258
X5.787Y-4.465
X5.792Y-4.178
X5.7982Y-4.8302
X5.818Y-4.592
X5.819Y-4.633
X5.82Y-4.02
X5.846Y-4.286
X5.87Y-4.896
X5.873Y-4.477
X5.878Y-4.174
X5.879Y-4.242
X5.882Y-4.67
X5.894Y-5.008
X5.924Y-4.653
X5.944Y-4.32
X5.944Y-4.398
X5.9635Y-4.1564
X5.969Y-4.541
X6.01Y-4.352
X6.01Y-4.462
X6.028Y-4.69
X6.0331Y-4.608
X6.034Y-4.432
X6.034Y-4.492
X6.036Y-4.32
X6.036Y-4.382
X6.0488Y-4.244
X6.0488Y-4.566
X6.062Y-4.352
X6.064Y-4.462
X6.066Y-4.592
X6.066Y-4.69
X6.0791Y-4.8651
X6.0871Y-4.8857
X6.09Y-4.432
X6.09Y-4.492
X6.091Y-4.83
X6.092Y-4.32
X6.092Y-4.382
X6.116Y-4.352
X6.116Y-4.462
X6.147Y-4.245
X6.1511Y-4.7511
X6.16Y-4.314
X6.16Y-4.346
X6.16Y-4.38
X6.16Y-4.43
X6.16Y-4.462
X6.16Y-4.496
X6.16Y-4.846
X6.1619Y-4.7297
X6.168Y-4.586
X6.1729Y-4.7511
X6.1748Y-4.25
X6.181Y-5.085
X6.184Y-4.57
X6.186Y-4.846
X6.198Y-4.314
X6.198Y-4.346
X6.198Y-4.38
X6.198Y-4.43
X6.198Y-4.462
X6.198Y-4.496
X6.21Y-4.846
X6.222Y-4.147
X6.222Y-4.249
X6.224Y-5.056
X6.2605Y-3.8629
X6.2638Y-4.3386
X6.268Y-4.464
X6.268Y-4.4827
X6.268Y-4.504
X6.268Y-4.524
X6.268Y-4.544
X6.268Y-4.564
X6.268Y-4.584
X6.268Y-4.604
X6.276Y-4.438
X6.286Y-4.472
X6.29Y-4.62
X6.297Y-4.169
X6.298Y-4.454
X6.302Y-4.0326
X6.309Y-4.62
X6.311Y-4.331
X6.3141Y-4.3899
X6.328Y-4.601
X6.328Y-4.62
X6.3497Y-3.9003
X6.3543Y-3.8554
X6.357Y-4.395
X6.359Y-4.453
X6.359Y-4.475
X6.359Y-4.662
X6.36Y-4.349
X6.4Y-4.4
X6.403Y-5.133
X6.404Y-4.356
X6.4291Y-3.9252
X6.4824Y-4.6853
X6.5015Y-4.6741
X6.5015Y-4.6959
X6.5064Y-4.7183
X6.5131Y-4.6527
X6.5995Y-4.6167
X6.608Y-4.266
T2
X4.242Y-4.572
X4.242Y-4.598
X4.272Y-4.572
X4.272Y-4.598
X4.302Y-4.572
X4.302Y-4.598
X4.332Y-4.572
X4.332Y-4.598
X4.3449Y-4.6449
X4.3449Y-4.7449
X4.3449Y-4.8449
X4.376Y-4.48
X4.376Y-4.508
X4.376Y-4.536
X4.402Y-4.48
X4.402Y-4.508
X4.402Y-4.536
X4.428Y-4.48
X4.428Y-4.508
X4.428Y-4.536
X4.474Y-4.276
X4.502Y-4.276
X4.53Y-4.2449
X4.53Y-4.2169
X4.53Y-4.276
X4.558Y-4.216
X4.558Y-4.246
X4.558Y-4.276
X4.582Y-4.964
X4.588Y-4.276
X4.648Y-4.75
X4.6933Y-4.87
X4.84Y-4.48
X4.868Y-4.48
X4.872Y-4.315
X4.898Y-4.315
X4.905Y-4.8941
X4.905Y-4.922
X4.905Y-4.9511
X4.924Y-4.315
X4.932Y-4.8941
X4.932Y-4.922
X4.932Y-4.9511
X4.944Y-4.48
X4.97Y-4.48
X5.031Y-4.572
X5.031Y-4.599
X5.047Y-4.865
X5.048Y-5.001
X5.048Y-5.043
X5.058Y-4.571
X5.058Y-4.599
X5.058Y-4.628
X5.074Y-4.778
X5.074Y-5.001
X5.074Y-5.043
X5.19Y-4.204
X5.19Y-4.232
X5.218Y-4.204
X5.218Y-4.232
X5.246Y-4.204
X5.246Y-4.232
X5.246Y-4.26
X5.321Y-4.978
X5.388Y-4.65
X5.388Y-4.676
X5.388Y-4.704
X5.446Y-3.998
X5.46Y-3.888
X5.472Y-4.82
X5.472Y-4.848
X5.476Y-3.998
X5.487Y-3.888
X5.502Y-4.82
X5.502Y-4.848
X5.505Y-3.998
X5.532Y-4.848
X5.536Y-3.838
X5.536Y-3.866
X5.56Y-4.848
X5.592Y-4.082
X5.592Y-4.134
X5.598Y-4.714
X5.598Y-4.738
X5.618Y-4.056
X5.618Y-4.108
X5.618Y-4.16
X5.624Y-4.714
X5.624Y-4.738
X5.636Y-3.838
X5.636Y-3.867
X5.636Y-3.895
X5.644Y-4.134
X5.644Y-4.082
X5.65Y-4.714
X5.65Y-4.738
X5.659Y-4.198
X5.659Y-4.224
X5.685Y-4.224
X5.781Y-4.225
X5.806Y-4.225
X5.832Y-4.225
X5.862Y-3.858
X5.868Y-3.978
X5.892Y-3.858
X5.895Y-3.978
X5.922Y-3.858
X5.922Y-3.978
X6.0035Y-3.9584
X6.0295Y-3.9324
X6.0295Y-3.9844
X6.0555Y-3.9584
X6.0815Y-3.9324
X6.0815Y-3.9844
X6.1075Y-3.9584
X6.154Y-4.942
X6.174Y-3.836
X6.206Y-3.836
X6.216Y-3.938
X6.216Y-4.75
X6.24Y-3.938
X6.442Y-4.516
X6.442Y-4.548
X6.442Y-4.846
X6.442Y-4.878
X6.472Y-4.516
X6.472Y-4.548
X6.472Y-4.846
X6.472Y-4.878
X6.474Y-4.584
X6.474Y-4.61
X6.474Y-4.762
X6.474Y-4.788
X6.502Y-4.516
X6.502Y-4.548
X6.502Y-4.584
X6.502Y-4.61
X6.502Y-4.762
X6.502Y-4.788
X6.502Y-4.846
X6.502Y-4.878
T4
X4.6934Y-4.0906
X4.8115Y-4.0906
X4.9296Y-4.0906
X5.0477Y-4.0906
X5.1658Y-4.0906
X5.2839Y-4.0906
T5
X6.689Y-3.9213
X6.689Y-5.1339
T3
G00X6.578Y-4.5024
M15
G01X6.5937Y-4.5024
M16
G05
G00X6.578Y-4.8685
M15
G01X6.5937Y-4.8685
M16
G05
G00X6.7421Y-4.4524
M15
G01X6.7697Y-4.4524
M16
G05
G00X6.7421Y-4.9185
M15
G01X6.7697Y-4.9185
M16
G05
M30
