%TF.GenerationSoftware,KiCad,Pcbnew,8.0.3*%
%TF.CreationDate,2024-09-21T22:38:25+02:00*%
%TF.ProjectId,Battery_pack,42617474-6572-4795-9f70-61636b2e6b69,1.0*%
%TF.SameCoordinates,Original*%
%TF.FileFunction,Drillmap*%
%TF.FilePolarity,Positive*%
%FSLAX45Y45*%
G04 Gerber Fmt 4.5, Leading zero omitted, Abs format (unit mm)*
G04 Created by KiCad (PCBNEW 8.0.3) date 2024-09-21 22:38:25*
%MOMM*%
%LPD*%
G01*
G04 APERTURE LIST*
%ADD10C,0.050000*%
%ADD11C,0.200000*%
%ADD12C,0.100000*%
%ADD13C,0.116840*%
%ADD14C,0.299999*%
G04 APERTURE END LIST*
D10*
X10300000Y-12950000D02*
X10300000Y-13350000D01*
X17300000Y-9960000D02*
X17300000Y-11381000D01*
X16990000Y-9650000D02*
G75*
G02*
X17300000Y-9960000I0J-310000D01*
G01*
X10500000Y-12850000D02*
X10400000Y-12850000D01*
X10400000Y-10150000D02*
G75*
G02*
X10300000Y-10050000I0J100000D01*
G01*
X10400000Y-10150000D02*
X10500000Y-10150000D01*
X10600000Y-12750000D02*
G75*
G02*
X10500000Y-12850000I-100000J0D01*
G01*
X10600000Y-10250000D02*
X10600000Y-12750000D01*
X10300000Y-12950000D02*
G75*
G02*
X10400000Y-12850000I100000J0D01*
G01*
X17300000Y-13040000D02*
X17300000Y-12421000D01*
X17300000Y-13040000D02*
G75*
G02*
X16990000Y-13350000I-310000J0D01*
G01*
X10300000Y-13350000D02*
X16990000Y-13350000D01*
X16990000Y-9650000D02*
X10300000Y-9650000D01*
X10300000Y-9650000D02*
X10300000Y-10050000D01*
X10500000Y-10150000D02*
G75*
G02*
X10600000Y-10250000I0J-100000D01*
G01*
X16830020Y-12331000D02*
X16830000Y-11471000D01*
X16880000Y-11421000D02*
X17261000Y-11421200D01*
X17260560Y-12380800D02*
X16880000Y-12381000D01*
X17260560Y-12380800D02*
X17300000Y-12421000D01*
X17261000Y-11421200D02*
X17300000Y-11381200D01*
X16830000Y-11471000D02*
G75*
G02*
X16880000Y-11421000I50000J0D01*
G01*
X16880000Y-12381000D02*
G75*
G02*
X16830000Y-12331000I0J50000D01*
G01*
D11*
D12*
X16742500Y-11518500D02*
X16807500Y-11583500D01*
X16807500Y-11518500D02*
X16742500Y-11583500D01*
X16742500Y-12218500D02*
X16807500Y-12283500D01*
X16807500Y-12218500D02*
X16742500Y-12283500D01*
D13*
X16652180Y-10493000D02*
G75*
G02*
X16535340Y-10493000I-58420J0D01*
G01*
X16535340Y-10493000D02*
G75*
G02*
X16652180Y-10493000I58420J0D01*
G01*
X16652180Y-10747000D02*
G75*
G02*
X16535340Y-10747000I-58420J0D01*
G01*
X16535340Y-10747000D02*
G75*
G02*
X16652180Y-10747000I58420J0D01*
G01*
D14*
X12136120Y-9808000D02*
X12136120Y-10108000D01*
X11986120Y-9958000D02*
X12286120Y-9958000D01*
X13206118Y-9808000D02*
X13206118Y-10108000D01*
X13056118Y-9958000D02*
X13356118Y-9958000D01*
D11*
X10558277Y-13663984D02*
X10558277Y-13463984D01*
X10558277Y-13463984D02*
X10605896Y-13463984D01*
X10605896Y-13463984D02*
X10634467Y-13473508D01*
X10634467Y-13473508D02*
X10653515Y-13492555D01*
X10653515Y-13492555D02*
X10663039Y-13511603D01*
X10663039Y-13511603D02*
X10672563Y-13549698D01*
X10672563Y-13549698D02*
X10672563Y-13578269D01*
X10672563Y-13578269D02*
X10663039Y-13616365D01*
X10663039Y-13616365D02*
X10653515Y-13635412D01*
X10653515Y-13635412D02*
X10634467Y-13654460D01*
X10634467Y-13654460D02*
X10605896Y-13663984D01*
X10605896Y-13663984D02*
X10558277Y-13663984D01*
X10758277Y-13663984D02*
X10758277Y-13530650D01*
X10758277Y-13568746D02*
X10767801Y-13549698D01*
X10767801Y-13549698D02*
X10777324Y-13540174D01*
X10777324Y-13540174D02*
X10796372Y-13530650D01*
X10796372Y-13530650D02*
X10815420Y-13530650D01*
X10882086Y-13663984D02*
X10882086Y-13530650D01*
X10882086Y-13463984D02*
X10872563Y-13473508D01*
X10872563Y-13473508D02*
X10882086Y-13483031D01*
X10882086Y-13483031D02*
X10891610Y-13473508D01*
X10891610Y-13473508D02*
X10882086Y-13463984D01*
X10882086Y-13463984D02*
X10882086Y-13483031D01*
X11005896Y-13663984D02*
X10986848Y-13654460D01*
X10986848Y-13654460D02*
X10977324Y-13635412D01*
X10977324Y-13635412D02*
X10977324Y-13463984D01*
X11110658Y-13663984D02*
X11091610Y-13654460D01*
X11091610Y-13654460D02*
X11082086Y-13635412D01*
X11082086Y-13635412D02*
X11082086Y-13463984D01*
X11339229Y-13663984D02*
X11339229Y-13463984D01*
X11339229Y-13463984D02*
X11405896Y-13606841D01*
X11405896Y-13606841D02*
X11472562Y-13463984D01*
X11472562Y-13463984D02*
X11472562Y-13663984D01*
X11653515Y-13663984D02*
X11653515Y-13559222D01*
X11653515Y-13559222D02*
X11643991Y-13540174D01*
X11643991Y-13540174D02*
X11624943Y-13530650D01*
X11624943Y-13530650D02*
X11586848Y-13530650D01*
X11586848Y-13530650D02*
X11567801Y-13540174D01*
X11653515Y-13654460D02*
X11634467Y-13663984D01*
X11634467Y-13663984D02*
X11586848Y-13663984D01*
X11586848Y-13663984D02*
X11567801Y-13654460D01*
X11567801Y-13654460D02*
X11558277Y-13635412D01*
X11558277Y-13635412D02*
X11558277Y-13616365D01*
X11558277Y-13616365D02*
X11567801Y-13597317D01*
X11567801Y-13597317D02*
X11586848Y-13587793D01*
X11586848Y-13587793D02*
X11634467Y-13587793D01*
X11634467Y-13587793D02*
X11653515Y-13578269D01*
X11748753Y-13530650D02*
X11748753Y-13730650D01*
X11748753Y-13540174D02*
X11767801Y-13530650D01*
X11767801Y-13530650D02*
X11805896Y-13530650D01*
X11805896Y-13530650D02*
X11824943Y-13540174D01*
X11824943Y-13540174D02*
X11834467Y-13549698D01*
X11834467Y-13549698D02*
X11843991Y-13568746D01*
X11843991Y-13568746D02*
X11843991Y-13625888D01*
X11843991Y-13625888D02*
X11834467Y-13644936D01*
X11834467Y-13644936D02*
X11824943Y-13654460D01*
X11824943Y-13654460D02*
X11805896Y-13663984D01*
X11805896Y-13663984D02*
X11767801Y-13663984D01*
X11767801Y-13663984D02*
X11748753Y-13654460D01*
X11929705Y-13644936D02*
X11939229Y-13654460D01*
X11939229Y-13654460D02*
X11929705Y-13663984D01*
X11929705Y-13663984D02*
X11920182Y-13654460D01*
X11920182Y-13654460D02*
X11929705Y-13644936D01*
X11929705Y-13644936D02*
X11929705Y-13663984D01*
X11929705Y-13540174D02*
X11939229Y-13549698D01*
X11939229Y-13549698D02*
X11929705Y-13559222D01*
X11929705Y-13559222D02*
X11920182Y-13549698D01*
X11920182Y-13549698D02*
X11929705Y-13540174D01*
X11929705Y-13540174D02*
X11929705Y-13559222D01*
D12*
X10232500Y-13960000D02*
X10297500Y-14025000D01*
X10297500Y-13960000D02*
X10232500Y-14025000D01*
D11*
X10596372Y-13883984D02*
X10615420Y-13883984D01*
X10615420Y-13883984D02*
X10634467Y-13893508D01*
X10634467Y-13893508D02*
X10643991Y-13903031D01*
X10643991Y-13903031D02*
X10653515Y-13922079D01*
X10653515Y-13922079D02*
X10663039Y-13960174D01*
X10663039Y-13960174D02*
X10663039Y-14007793D01*
X10663039Y-14007793D02*
X10653515Y-14045888D01*
X10653515Y-14045888D02*
X10643991Y-14064936D01*
X10643991Y-14064936D02*
X10634467Y-14074460D01*
X10634467Y-14074460D02*
X10615420Y-14083984D01*
X10615420Y-14083984D02*
X10596372Y-14083984D01*
X10596372Y-14083984D02*
X10577324Y-14074460D01*
X10577324Y-14074460D02*
X10567801Y-14064936D01*
X10567801Y-14064936D02*
X10558277Y-14045888D01*
X10558277Y-14045888D02*
X10548753Y-14007793D01*
X10548753Y-14007793D02*
X10548753Y-13960174D01*
X10548753Y-13960174D02*
X10558277Y-13922079D01*
X10558277Y-13922079D02*
X10567801Y-13903031D01*
X10567801Y-13903031D02*
X10577324Y-13893508D01*
X10577324Y-13893508D02*
X10596372Y-13883984D01*
X10748753Y-14064936D02*
X10758277Y-14074460D01*
X10758277Y-14074460D02*
X10748753Y-14083984D01*
X10748753Y-14083984D02*
X10739229Y-14074460D01*
X10739229Y-14074460D02*
X10748753Y-14064936D01*
X10748753Y-14064936D02*
X10748753Y-14083984D01*
X10929705Y-13883984D02*
X10891610Y-13883984D01*
X10891610Y-13883984D02*
X10872563Y-13893508D01*
X10872563Y-13893508D02*
X10863039Y-13903031D01*
X10863039Y-13903031D02*
X10843991Y-13931603D01*
X10843991Y-13931603D02*
X10834467Y-13969698D01*
X10834467Y-13969698D02*
X10834467Y-14045888D01*
X10834467Y-14045888D02*
X10843991Y-14064936D01*
X10843991Y-14064936D02*
X10853515Y-14074460D01*
X10853515Y-14074460D02*
X10872563Y-14083984D01*
X10872563Y-14083984D02*
X10910658Y-14083984D01*
X10910658Y-14083984D02*
X10929705Y-14074460D01*
X10929705Y-14074460D02*
X10939229Y-14064936D01*
X10939229Y-14064936D02*
X10948753Y-14045888D01*
X10948753Y-14045888D02*
X10948753Y-13998269D01*
X10948753Y-13998269D02*
X10939229Y-13979222D01*
X10939229Y-13979222D02*
X10929705Y-13969698D01*
X10929705Y-13969698D02*
X10910658Y-13960174D01*
X10910658Y-13960174D02*
X10872563Y-13960174D01*
X10872563Y-13960174D02*
X10853515Y-13969698D01*
X10853515Y-13969698D02*
X10843991Y-13979222D01*
X10843991Y-13979222D02*
X10834467Y-13998269D01*
X11129705Y-13883984D02*
X11034467Y-13883984D01*
X11034467Y-13883984D02*
X11024944Y-13979222D01*
X11024944Y-13979222D02*
X11034467Y-13969698D01*
X11034467Y-13969698D02*
X11053515Y-13960174D01*
X11053515Y-13960174D02*
X11101134Y-13960174D01*
X11101134Y-13960174D02*
X11120182Y-13969698D01*
X11120182Y-13969698D02*
X11129705Y-13979222D01*
X11129705Y-13979222D02*
X11139229Y-13998269D01*
X11139229Y-13998269D02*
X11139229Y-14045888D01*
X11139229Y-14045888D02*
X11129705Y-14064936D01*
X11129705Y-14064936D02*
X11120182Y-14074460D01*
X11120182Y-14074460D02*
X11101134Y-14083984D01*
X11101134Y-14083984D02*
X11053515Y-14083984D01*
X11053515Y-14083984D02*
X11034467Y-14074460D01*
X11034467Y-14074460D02*
X11024944Y-14064936D01*
X11263039Y-13883984D02*
X11282086Y-13883984D01*
X11282086Y-13883984D02*
X11301134Y-13893508D01*
X11301134Y-13893508D02*
X11310658Y-13903031D01*
X11310658Y-13903031D02*
X11320182Y-13922079D01*
X11320182Y-13922079D02*
X11329705Y-13960174D01*
X11329705Y-13960174D02*
X11329705Y-14007793D01*
X11329705Y-14007793D02*
X11320182Y-14045888D01*
X11320182Y-14045888D02*
X11310658Y-14064936D01*
X11310658Y-14064936D02*
X11301134Y-14074460D01*
X11301134Y-14074460D02*
X11282086Y-14083984D01*
X11282086Y-14083984D02*
X11263039Y-14083984D01*
X11263039Y-14083984D02*
X11243991Y-14074460D01*
X11243991Y-14074460D02*
X11234467Y-14064936D01*
X11234467Y-14064936D02*
X11224943Y-14045888D01*
X11224943Y-14045888D02*
X11215420Y-14007793D01*
X11215420Y-14007793D02*
X11215420Y-13960174D01*
X11215420Y-13960174D02*
X11224943Y-13922079D01*
X11224943Y-13922079D02*
X11234467Y-13903031D01*
X11234467Y-13903031D02*
X11243991Y-13893508D01*
X11243991Y-13893508D02*
X11263039Y-13883984D01*
X11415420Y-14083984D02*
X11415420Y-13950650D01*
X11415420Y-13969698D02*
X11424943Y-13960174D01*
X11424943Y-13960174D02*
X11443991Y-13950650D01*
X11443991Y-13950650D02*
X11472563Y-13950650D01*
X11472563Y-13950650D02*
X11491610Y-13960174D01*
X11491610Y-13960174D02*
X11501134Y-13979222D01*
X11501134Y-13979222D02*
X11501134Y-14083984D01*
X11501134Y-13979222D02*
X11510658Y-13960174D01*
X11510658Y-13960174D02*
X11529705Y-13950650D01*
X11529705Y-13950650D02*
X11558277Y-13950650D01*
X11558277Y-13950650D02*
X11577324Y-13960174D01*
X11577324Y-13960174D02*
X11586848Y-13979222D01*
X11586848Y-13979222D02*
X11586848Y-14083984D01*
X11682086Y-14083984D02*
X11682086Y-13950650D01*
X11682086Y-13969698D02*
X11691610Y-13960174D01*
X11691610Y-13960174D02*
X11710658Y-13950650D01*
X11710658Y-13950650D02*
X11739229Y-13950650D01*
X11739229Y-13950650D02*
X11758277Y-13960174D01*
X11758277Y-13960174D02*
X11767801Y-13979222D01*
X11767801Y-13979222D02*
X11767801Y-14083984D01*
X11767801Y-13979222D02*
X11777324Y-13960174D01*
X11777324Y-13960174D02*
X11796372Y-13950650D01*
X11796372Y-13950650D02*
X11824943Y-13950650D01*
X11824943Y-13950650D02*
X11843991Y-13960174D01*
X11843991Y-13960174D02*
X11853515Y-13979222D01*
X11853515Y-13979222D02*
X11853515Y-14083984D01*
X12243991Y-13874460D02*
X12072563Y-14131603D01*
X12501134Y-13883984D02*
X12520182Y-13883984D01*
X12520182Y-13883984D02*
X12539229Y-13893508D01*
X12539229Y-13893508D02*
X12548753Y-13903031D01*
X12548753Y-13903031D02*
X12558277Y-13922079D01*
X12558277Y-13922079D02*
X12567801Y-13960174D01*
X12567801Y-13960174D02*
X12567801Y-14007793D01*
X12567801Y-14007793D02*
X12558277Y-14045888D01*
X12558277Y-14045888D02*
X12548753Y-14064936D01*
X12548753Y-14064936D02*
X12539229Y-14074460D01*
X12539229Y-14074460D02*
X12520182Y-14083984D01*
X12520182Y-14083984D02*
X12501134Y-14083984D01*
X12501134Y-14083984D02*
X12482086Y-14074460D01*
X12482086Y-14074460D02*
X12472563Y-14064936D01*
X12472563Y-14064936D02*
X12463039Y-14045888D01*
X12463039Y-14045888D02*
X12453515Y-14007793D01*
X12453515Y-14007793D02*
X12453515Y-13960174D01*
X12453515Y-13960174D02*
X12463039Y-13922079D01*
X12463039Y-13922079D02*
X12472563Y-13903031D01*
X12472563Y-13903031D02*
X12482086Y-13893508D01*
X12482086Y-13893508D02*
X12501134Y-13883984D01*
X12653515Y-14064936D02*
X12663039Y-14074460D01*
X12663039Y-14074460D02*
X12653515Y-14083984D01*
X12653515Y-14083984D02*
X12643991Y-14074460D01*
X12643991Y-14074460D02*
X12653515Y-14064936D01*
X12653515Y-14064936D02*
X12653515Y-14083984D01*
X12786848Y-13883984D02*
X12805896Y-13883984D01*
X12805896Y-13883984D02*
X12824944Y-13893508D01*
X12824944Y-13893508D02*
X12834467Y-13903031D01*
X12834467Y-13903031D02*
X12843991Y-13922079D01*
X12843991Y-13922079D02*
X12853515Y-13960174D01*
X12853515Y-13960174D02*
X12853515Y-14007793D01*
X12853515Y-14007793D02*
X12843991Y-14045888D01*
X12843991Y-14045888D02*
X12834467Y-14064936D01*
X12834467Y-14064936D02*
X12824944Y-14074460D01*
X12824944Y-14074460D02*
X12805896Y-14083984D01*
X12805896Y-14083984D02*
X12786848Y-14083984D01*
X12786848Y-14083984D02*
X12767801Y-14074460D01*
X12767801Y-14074460D02*
X12758277Y-14064936D01*
X12758277Y-14064936D02*
X12748753Y-14045888D01*
X12748753Y-14045888D02*
X12739229Y-14007793D01*
X12739229Y-14007793D02*
X12739229Y-13960174D01*
X12739229Y-13960174D02*
X12748753Y-13922079D01*
X12748753Y-13922079D02*
X12758277Y-13903031D01*
X12758277Y-13903031D02*
X12767801Y-13893508D01*
X12767801Y-13893508D02*
X12786848Y-13883984D01*
X12929706Y-13903031D02*
X12939229Y-13893508D01*
X12939229Y-13893508D02*
X12958277Y-13883984D01*
X12958277Y-13883984D02*
X13005896Y-13883984D01*
X13005896Y-13883984D02*
X13024944Y-13893508D01*
X13024944Y-13893508D02*
X13034467Y-13903031D01*
X13034467Y-13903031D02*
X13043991Y-13922079D01*
X13043991Y-13922079D02*
X13043991Y-13941127D01*
X13043991Y-13941127D02*
X13034467Y-13969698D01*
X13034467Y-13969698D02*
X12920182Y-14083984D01*
X12920182Y-14083984D02*
X13043991Y-14083984D01*
X13224944Y-13883984D02*
X13129706Y-13883984D01*
X13129706Y-13883984D02*
X13120182Y-13979222D01*
X13120182Y-13979222D02*
X13129706Y-13969698D01*
X13129706Y-13969698D02*
X13148753Y-13960174D01*
X13148753Y-13960174D02*
X13196372Y-13960174D01*
X13196372Y-13960174D02*
X13215420Y-13969698D01*
X13215420Y-13969698D02*
X13224944Y-13979222D01*
X13224944Y-13979222D02*
X13234467Y-13998269D01*
X13234467Y-13998269D02*
X13234467Y-14045888D01*
X13234467Y-14045888D02*
X13224944Y-14064936D01*
X13224944Y-14064936D02*
X13215420Y-14074460D01*
X13215420Y-14074460D02*
X13196372Y-14083984D01*
X13196372Y-14083984D02*
X13148753Y-14083984D01*
X13148753Y-14083984D02*
X13129706Y-14074460D01*
X13129706Y-14074460D02*
X13120182Y-14064936D01*
X13405896Y-13883984D02*
X13367801Y-13883984D01*
X13367801Y-13883984D02*
X13348753Y-13893508D01*
X13348753Y-13893508D02*
X13339229Y-13903031D01*
X13339229Y-13903031D02*
X13320182Y-13931603D01*
X13320182Y-13931603D02*
X13310658Y-13969698D01*
X13310658Y-13969698D02*
X13310658Y-14045888D01*
X13310658Y-14045888D02*
X13320182Y-14064936D01*
X13320182Y-14064936D02*
X13329706Y-14074460D01*
X13329706Y-14074460D02*
X13348753Y-14083984D01*
X13348753Y-14083984D02*
X13386848Y-14083984D01*
X13386848Y-14083984D02*
X13405896Y-14074460D01*
X13405896Y-14074460D02*
X13415420Y-14064936D01*
X13415420Y-14064936D02*
X13424944Y-14045888D01*
X13424944Y-14045888D02*
X13424944Y-13998269D01*
X13424944Y-13998269D02*
X13415420Y-13979222D01*
X13415420Y-13979222D02*
X13405896Y-13969698D01*
X13405896Y-13969698D02*
X13386848Y-13960174D01*
X13386848Y-13960174D02*
X13348753Y-13960174D01*
X13348753Y-13960174D02*
X13329706Y-13969698D01*
X13329706Y-13969698D02*
X13320182Y-13979222D01*
X13320182Y-13979222D02*
X13310658Y-13998269D01*
X13501134Y-13883984D02*
X13501134Y-13922079D01*
X13577325Y-13883984D02*
X13577325Y-13922079D01*
X13872563Y-14160174D02*
X13863039Y-14150650D01*
X13863039Y-14150650D02*
X13843991Y-14122079D01*
X13843991Y-14122079D02*
X13834468Y-14103031D01*
X13834468Y-14103031D02*
X13824944Y-14074460D01*
X13824944Y-14074460D02*
X13815420Y-14026841D01*
X13815420Y-14026841D02*
X13815420Y-13988746D01*
X13815420Y-13988746D02*
X13824944Y-13941127D01*
X13824944Y-13941127D02*
X13834468Y-13912555D01*
X13834468Y-13912555D02*
X13843991Y-13893508D01*
X13843991Y-13893508D02*
X13863039Y-13864936D01*
X13863039Y-13864936D02*
X13872563Y-13855412D01*
X13939229Y-13903031D02*
X13948753Y-13893508D01*
X13948753Y-13893508D02*
X13967801Y-13883984D01*
X13967801Y-13883984D02*
X14015420Y-13883984D01*
X14015420Y-13883984D02*
X14034468Y-13893508D01*
X14034468Y-13893508D02*
X14043991Y-13903031D01*
X14043991Y-13903031D02*
X14053515Y-13922079D01*
X14053515Y-13922079D02*
X14053515Y-13941127D01*
X14053515Y-13941127D02*
X14043991Y-13969698D01*
X14043991Y-13969698D02*
X13929706Y-14083984D01*
X13929706Y-14083984D02*
X14053515Y-14083984D01*
X14291610Y-14083984D02*
X14291610Y-13883984D01*
X14377325Y-14083984D02*
X14377325Y-13979222D01*
X14377325Y-13979222D02*
X14367801Y-13960174D01*
X14367801Y-13960174D02*
X14348753Y-13950650D01*
X14348753Y-13950650D02*
X14320182Y-13950650D01*
X14320182Y-13950650D02*
X14301134Y-13960174D01*
X14301134Y-13960174D02*
X14291610Y-13969698D01*
X14501134Y-14083984D02*
X14482087Y-14074460D01*
X14482087Y-14074460D02*
X14472563Y-14064936D01*
X14472563Y-14064936D02*
X14463039Y-14045888D01*
X14463039Y-14045888D02*
X14463039Y-13988746D01*
X14463039Y-13988746D02*
X14472563Y-13969698D01*
X14472563Y-13969698D02*
X14482087Y-13960174D01*
X14482087Y-13960174D02*
X14501134Y-13950650D01*
X14501134Y-13950650D02*
X14529706Y-13950650D01*
X14529706Y-13950650D02*
X14548753Y-13960174D01*
X14548753Y-13960174D02*
X14558277Y-13969698D01*
X14558277Y-13969698D02*
X14567801Y-13988746D01*
X14567801Y-13988746D02*
X14567801Y-14045888D01*
X14567801Y-14045888D02*
X14558277Y-14064936D01*
X14558277Y-14064936D02*
X14548753Y-14074460D01*
X14548753Y-14074460D02*
X14529706Y-14083984D01*
X14529706Y-14083984D02*
X14501134Y-14083984D01*
X14682087Y-14083984D02*
X14663039Y-14074460D01*
X14663039Y-14074460D02*
X14653515Y-14055412D01*
X14653515Y-14055412D02*
X14653515Y-13883984D01*
X14834468Y-14074460D02*
X14815420Y-14083984D01*
X14815420Y-14083984D02*
X14777325Y-14083984D01*
X14777325Y-14083984D02*
X14758277Y-14074460D01*
X14758277Y-14074460D02*
X14748753Y-14055412D01*
X14748753Y-14055412D02*
X14748753Y-13979222D01*
X14748753Y-13979222D02*
X14758277Y-13960174D01*
X14758277Y-13960174D02*
X14777325Y-13950650D01*
X14777325Y-13950650D02*
X14815420Y-13950650D01*
X14815420Y-13950650D02*
X14834468Y-13960174D01*
X14834468Y-13960174D02*
X14843991Y-13979222D01*
X14843991Y-13979222D02*
X14843991Y-13998269D01*
X14843991Y-13998269D02*
X14748753Y-14017317D01*
X14920182Y-14074460D02*
X14939230Y-14083984D01*
X14939230Y-14083984D02*
X14977325Y-14083984D01*
X14977325Y-14083984D02*
X14996372Y-14074460D01*
X14996372Y-14074460D02*
X15005896Y-14055412D01*
X15005896Y-14055412D02*
X15005896Y-14045888D01*
X15005896Y-14045888D02*
X14996372Y-14026841D01*
X14996372Y-14026841D02*
X14977325Y-14017317D01*
X14977325Y-14017317D02*
X14948753Y-14017317D01*
X14948753Y-14017317D02*
X14929706Y-14007793D01*
X14929706Y-14007793D02*
X14920182Y-13988746D01*
X14920182Y-13988746D02*
X14920182Y-13979222D01*
X14920182Y-13979222D02*
X14929706Y-13960174D01*
X14929706Y-13960174D02*
X14948753Y-13950650D01*
X14948753Y-13950650D02*
X14977325Y-13950650D01*
X14977325Y-13950650D02*
X14996372Y-13960174D01*
X15072563Y-14160174D02*
X15082087Y-14150650D01*
X15082087Y-14150650D02*
X15101134Y-14122079D01*
X15101134Y-14122079D02*
X15110658Y-14103031D01*
X15110658Y-14103031D02*
X15120182Y-14074460D01*
X15120182Y-14074460D02*
X15129706Y-14026841D01*
X15129706Y-14026841D02*
X15129706Y-13988746D01*
X15129706Y-13988746D02*
X15120182Y-13941127D01*
X15120182Y-13941127D02*
X15110658Y-13912555D01*
X15110658Y-13912555D02*
X15101134Y-13893508D01*
X15101134Y-13893508D02*
X15082087Y-13864936D01*
X15082087Y-13864936D02*
X15072563Y-13855412D01*
X15434468Y-14160174D02*
X15424944Y-14150650D01*
X15424944Y-14150650D02*
X15405896Y-14122079D01*
X15405896Y-14122079D02*
X15396372Y-14103031D01*
X15396372Y-14103031D02*
X15386849Y-14074460D01*
X15386849Y-14074460D02*
X15377325Y-14026841D01*
X15377325Y-14026841D02*
X15377325Y-13988746D01*
X15377325Y-13988746D02*
X15386849Y-13941127D01*
X15386849Y-13941127D02*
X15396372Y-13912555D01*
X15396372Y-13912555D02*
X15405896Y-13893508D01*
X15405896Y-13893508D02*
X15424944Y-13864936D01*
X15424944Y-13864936D02*
X15434468Y-13855412D01*
X15510658Y-13950650D02*
X15510658Y-14083984D01*
X15510658Y-13969698D02*
X15520182Y-13960174D01*
X15520182Y-13960174D02*
X15539230Y-13950650D01*
X15539230Y-13950650D02*
X15567801Y-13950650D01*
X15567801Y-13950650D02*
X15586849Y-13960174D01*
X15586849Y-13960174D02*
X15596372Y-13979222D01*
X15596372Y-13979222D02*
X15596372Y-14083984D01*
X15720182Y-14083984D02*
X15701134Y-14074460D01*
X15701134Y-14074460D02*
X15691611Y-14064936D01*
X15691611Y-14064936D02*
X15682087Y-14045888D01*
X15682087Y-14045888D02*
X15682087Y-13988746D01*
X15682087Y-13988746D02*
X15691611Y-13969698D01*
X15691611Y-13969698D02*
X15701134Y-13960174D01*
X15701134Y-13960174D02*
X15720182Y-13950650D01*
X15720182Y-13950650D02*
X15748753Y-13950650D01*
X15748753Y-13950650D02*
X15767801Y-13960174D01*
X15767801Y-13960174D02*
X15777325Y-13969698D01*
X15777325Y-13969698D02*
X15786849Y-13988746D01*
X15786849Y-13988746D02*
X15786849Y-14045888D01*
X15786849Y-14045888D02*
X15777325Y-14064936D01*
X15777325Y-14064936D02*
X15767801Y-14074460D01*
X15767801Y-14074460D02*
X15748753Y-14083984D01*
X15748753Y-14083984D02*
X15720182Y-14083984D01*
X15843992Y-13950650D02*
X15920182Y-13950650D01*
X15872563Y-13883984D02*
X15872563Y-14055412D01*
X15872563Y-14055412D02*
X15882087Y-14074460D01*
X15882087Y-14074460D02*
X15901134Y-14083984D01*
X15901134Y-14083984D02*
X15920182Y-14083984D01*
X16139230Y-13950650D02*
X16139230Y-14150650D01*
X16139230Y-13960174D02*
X16158277Y-13950650D01*
X16158277Y-13950650D02*
X16196373Y-13950650D01*
X16196373Y-13950650D02*
X16215420Y-13960174D01*
X16215420Y-13960174D02*
X16224944Y-13969698D01*
X16224944Y-13969698D02*
X16234468Y-13988746D01*
X16234468Y-13988746D02*
X16234468Y-14045888D01*
X16234468Y-14045888D02*
X16224944Y-14064936D01*
X16224944Y-14064936D02*
X16215420Y-14074460D01*
X16215420Y-14074460D02*
X16196373Y-14083984D01*
X16196373Y-14083984D02*
X16158277Y-14083984D01*
X16158277Y-14083984D02*
X16139230Y-14074460D01*
X16348753Y-14083984D02*
X16329706Y-14074460D01*
X16329706Y-14074460D02*
X16320182Y-14055412D01*
X16320182Y-14055412D02*
X16320182Y-13883984D01*
X16510658Y-14083984D02*
X16510658Y-13979222D01*
X16510658Y-13979222D02*
X16501134Y-13960174D01*
X16501134Y-13960174D02*
X16482087Y-13950650D01*
X16482087Y-13950650D02*
X16443992Y-13950650D01*
X16443992Y-13950650D02*
X16424944Y-13960174D01*
X16510658Y-14074460D02*
X16491611Y-14083984D01*
X16491611Y-14083984D02*
X16443992Y-14083984D01*
X16443992Y-14083984D02*
X16424944Y-14074460D01*
X16424944Y-14074460D02*
X16415420Y-14055412D01*
X16415420Y-14055412D02*
X16415420Y-14036365D01*
X16415420Y-14036365D02*
X16424944Y-14017317D01*
X16424944Y-14017317D02*
X16443992Y-14007793D01*
X16443992Y-14007793D02*
X16491611Y-14007793D01*
X16491611Y-14007793D02*
X16510658Y-13998269D01*
X16577325Y-13950650D02*
X16653515Y-13950650D01*
X16605896Y-13883984D02*
X16605896Y-14055412D01*
X16605896Y-14055412D02*
X16615420Y-14074460D01*
X16615420Y-14074460D02*
X16634468Y-14083984D01*
X16634468Y-14083984D02*
X16653515Y-14083984D01*
X16796373Y-14074460D02*
X16777325Y-14083984D01*
X16777325Y-14083984D02*
X16739230Y-14083984D01*
X16739230Y-14083984D02*
X16720182Y-14074460D01*
X16720182Y-14074460D02*
X16710658Y-14055412D01*
X16710658Y-14055412D02*
X16710658Y-13979222D01*
X16710658Y-13979222D02*
X16720182Y-13960174D01*
X16720182Y-13960174D02*
X16739230Y-13950650D01*
X16739230Y-13950650D02*
X16777325Y-13950650D01*
X16777325Y-13950650D02*
X16796373Y-13960174D01*
X16796373Y-13960174D02*
X16805896Y-13979222D01*
X16805896Y-13979222D02*
X16805896Y-13998269D01*
X16805896Y-13998269D02*
X16710658Y-14017317D01*
X16977325Y-14083984D02*
X16977325Y-13883984D01*
X16977325Y-14074460D02*
X16958277Y-14083984D01*
X16958277Y-14083984D02*
X16920182Y-14083984D01*
X16920182Y-14083984D02*
X16901135Y-14074460D01*
X16901135Y-14074460D02*
X16891611Y-14064936D01*
X16891611Y-14064936D02*
X16882087Y-14045888D01*
X16882087Y-14045888D02*
X16882087Y-13988746D01*
X16882087Y-13988746D02*
X16891611Y-13969698D01*
X16891611Y-13969698D02*
X16901135Y-13960174D01*
X16901135Y-13960174D02*
X16920182Y-13950650D01*
X16920182Y-13950650D02*
X16958277Y-13950650D01*
X16958277Y-13950650D02*
X16977325Y-13960174D01*
X17053516Y-14160174D02*
X17063039Y-14150650D01*
X17063039Y-14150650D02*
X17082087Y-14122079D01*
X17082087Y-14122079D02*
X17091611Y-14103031D01*
X17091611Y-14103031D02*
X17101135Y-14074460D01*
X17101135Y-14074460D02*
X17110658Y-14026841D01*
X17110658Y-14026841D02*
X17110658Y-13988746D01*
X17110658Y-13988746D02*
X17101135Y-13941127D01*
X17101135Y-13941127D02*
X17091611Y-13912555D01*
X17091611Y-13912555D02*
X17082087Y-13893508D01*
X17082087Y-13893508D02*
X17063039Y-13864936D01*
X17063039Y-13864936D02*
X17053516Y-13855412D01*
D13*
X10297500Y-14256500D02*
G75*
G02*
X10180660Y-14256500I-58420J0D01*
G01*
X10180660Y-14256500D02*
G75*
G02*
X10297500Y-14256500I58420J0D01*
G01*
D11*
X10663039Y-14347984D02*
X10548753Y-14347984D01*
X10605896Y-14347984D02*
X10605896Y-14147984D01*
X10605896Y-14147984D02*
X10586848Y-14176555D01*
X10586848Y-14176555D02*
X10567801Y-14195603D01*
X10567801Y-14195603D02*
X10548753Y-14205127D01*
X10748753Y-14328936D02*
X10758277Y-14338460D01*
X10758277Y-14338460D02*
X10748753Y-14347984D01*
X10748753Y-14347984D02*
X10739229Y-14338460D01*
X10739229Y-14338460D02*
X10748753Y-14328936D01*
X10748753Y-14328936D02*
X10748753Y-14347984D01*
X10948753Y-14347984D02*
X10834467Y-14347984D01*
X10891610Y-14347984D02*
X10891610Y-14147984D01*
X10891610Y-14147984D02*
X10872563Y-14176555D01*
X10872563Y-14176555D02*
X10853515Y-14195603D01*
X10853515Y-14195603D02*
X10834467Y-14205127D01*
X11120182Y-14147984D02*
X11082086Y-14147984D01*
X11082086Y-14147984D02*
X11063039Y-14157508D01*
X11063039Y-14157508D02*
X11053515Y-14167031D01*
X11053515Y-14167031D02*
X11034467Y-14195603D01*
X11034467Y-14195603D02*
X11024944Y-14233698D01*
X11024944Y-14233698D02*
X11024944Y-14309888D01*
X11024944Y-14309888D02*
X11034467Y-14328936D01*
X11034467Y-14328936D02*
X11043991Y-14338460D01*
X11043991Y-14338460D02*
X11063039Y-14347984D01*
X11063039Y-14347984D02*
X11101134Y-14347984D01*
X11101134Y-14347984D02*
X11120182Y-14338460D01*
X11120182Y-14338460D02*
X11129705Y-14328936D01*
X11129705Y-14328936D02*
X11139229Y-14309888D01*
X11139229Y-14309888D02*
X11139229Y-14262269D01*
X11139229Y-14262269D02*
X11129705Y-14243222D01*
X11129705Y-14243222D02*
X11120182Y-14233698D01*
X11120182Y-14233698D02*
X11101134Y-14224174D01*
X11101134Y-14224174D02*
X11063039Y-14224174D01*
X11063039Y-14224174D02*
X11043991Y-14233698D01*
X11043991Y-14233698D02*
X11034467Y-14243222D01*
X11034467Y-14243222D02*
X11024944Y-14262269D01*
X11253515Y-14233698D02*
X11234467Y-14224174D01*
X11234467Y-14224174D02*
X11224943Y-14214650D01*
X11224943Y-14214650D02*
X11215420Y-14195603D01*
X11215420Y-14195603D02*
X11215420Y-14186079D01*
X11215420Y-14186079D02*
X11224943Y-14167031D01*
X11224943Y-14167031D02*
X11234467Y-14157508D01*
X11234467Y-14157508D02*
X11253515Y-14147984D01*
X11253515Y-14147984D02*
X11291610Y-14147984D01*
X11291610Y-14147984D02*
X11310658Y-14157508D01*
X11310658Y-14157508D02*
X11320182Y-14167031D01*
X11320182Y-14167031D02*
X11329705Y-14186079D01*
X11329705Y-14186079D02*
X11329705Y-14195603D01*
X11329705Y-14195603D02*
X11320182Y-14214650D01*
X11320182Y-14214650D02*
X11310658Y-14224174D01*
X11310658Y-14224174D02*
X11291610Y-14233698D01*
X11291610Y-14233698D02*
X11253515Y-14233698D01*
X11253515Y-14233698D02*
X11234467Y-14243222D01*
X11234467Y-14243222D02*
X11224943Y-14252746D01*
X11224943Y-14252746D02*
X11215420Y-14271793D01*
X11215420Y-14271793D02*
X11215420Y-14309888D01*
X11215420Y-14309888D02*
X11224943Y-14328936D01*
X11224943Y-14328936D02*
X11234467Y-14338460D01*
X11234467Y-14338460D02*
X11253515Y-14347984D01*
X11253515Y-14347984D02*
X11291610Y-14347984D01*
X11291610Y-14347984D02*
X11310658Y-14338460D01*
X11310658Y-14338460D02*
X11320182Y-14328936D01*
X11320182Y-14328936D02*
X11329705Y-14309888D01*
X11329705Y-14309888D02*
X11329705Y-14271793D01*
X11329705Y-14271793D02*
X11320182Y-14252746D01*
X11320182Y-14252746D02*
X11310658Y-14243222D01*
X11310658Y-14243222D02*
X11291610Y-14233698D01*
X11415420Y-14347984D02*
X11415420Y-14214650D01*
X11415420Y-14233698D02*
X11424943Y-14224174D01*
X11424943Y-14224174D02*
X11443991Y-14214650D01*
X11443991Y-14214650D02*
X11472563Y-14214650D01*
X11472563Y-14214650D02*
X11491610Y-14224174D01*
X11491610Y-14224174D02*
X11501134Y-14243222D01*
X11501134Y-14243222D02*
X11501134Y-14347984D01*
X11501134Y-14243222D02*
X11510658Y-14224174D01*
X11510658Y-14224174D02*
X11529705Y-14214650D01*
X11529705Y-14214650D02*
X11558277Y-14214650D01*
X11558277Y-14214650D02*
X11577324Y-14224174D01*
X11577324Y-14224174D02*
X11586848Y-14243222D01*
X11586848Y-14243222D02*
X11586848Y-14347984D01*
X11682086Y-14347984D02*
X11682086Y-14214650D01*
X11682086Y-14233698D02*
X11691610Y-14224174D01*
X11691610Y-14224174D02*
X11710658Y-14214650D01*
X11710658Y-14214650D02*
X11739229Y-14214650D01*
X11739229Y-14214650D02*
X11758277Y-14224174D01*
X11758277Y-14224174D02*
X11767801Y-14243222D01*
X11767801Y-14243222D02*
X11767801Y-14347984D01*
X11767801Y-14243222D02*
X11777324Y-14224174D01*
X11777324Y-14224174D02*
X11796372Y-14214650D01*
X11796372Y-14214650D02*
X11824943Y-14214650D01*
X11824943Y-14214650D02*
X11843991Y-14224174D01*
X11843991Y-14224174D02*
X11853515Y-14243222D01*
X11853515Y-14243222D02*
X11853515Y-14347984D01*
X12243991Y-14138460D02*
X12072563Y-14395603D01*
X12501134Y-14147984D02*
X12520182Y-14147984D01*
X12520182Y-14147984D02*
X12539229Y-14157508D01*
X12539229Y-14157508D02*
X12548753Y-14167031D01*
X12548753Y-14167031D02*
X12558277Y-14186079D01*
X12558277Y-14186079D02*
X12567801Y-14224174D01*
X12567801Y-14224174D02*
X12567801Y-14271793D01*
X12567801Y-14271793D02*
X12558277Y-14309888D01*
X12558277Y-14309888D02*
X12548753Y-14328936D01*
X12548753Y-14328936D02*
X12539229Y-14338460D01*
X12539229Y-14338460D02*
X12520182Y-14347984D01*
X12520182Y-14347984D02*
X12501134Y-14347984D01*
X12501134Y-14347984D02*
X12482086Y-14338460D01*
X12482086Y-14338460D02*
X12472563Y-14328936D01*
X12472563Y-14328936D02*
X12463039Y-14309888D01*
X12463039Y-14309888D02*
X12453515Y-14271793D01*
X12453515Y-14271793D02*
X12453515Y-14224174D01*
X12453515Y-14224174D02*
X12463039Y-14186079D01*
X12463039Y-14186079D02*
X12472563Y-14167031D01*
X12472563Y-14167031D02*
X12482086Y-14157508D01*
X12482086Y-14157508D02*
X12501134Y-14147984D01*
X12653515Y-14328936D02*
X12663039Y-14338460D01*
X12663039Y-14338460D02*
X12653515Y-14347984D01*
X12653515Y-14347984D02*
X12643991Y-14338460D01*
X12643991Y-14338460D02*
X12653515Y-14328936D01*
X12653515Y-14328936D02*
X12653515Y-14347984D01*
X12786848Y-14147984D02*
X12805896Y-14147984D01*
X12805896Y-14147984D02*
X12824944Y-14157508D01*
X12824944Y-14157508D02*
X12834467Y-14167031D01*
X12834467Y-14167031D02*
X12843991Y-14186079D01*
X12843991Y-14186079D02*
X12853515Y-14224174D01*
X12853515Y-14224174D02*
X12853515Y-14271793D01*
X12853515Y-14271793D02*
X12843991Y-14309888D01*
X12843991Y-14309888D02*
X12834467Y-14328936D01*
X12834467Y-14328936D02*
X12824944Y-14338460D01*
X12824944Y-14338460D02*
X12805896Y-14347984D01*
X12805896Y-14347984D02*
X12786848Y-14347984D01*
X12786848Y-14347984D02*
X12767801Y-14338460D01*
X12767801Y-14338460D02*
X12758277Y-14328936D01*
X12758277Y-14328936D02*
X12748753Y-14309888D01*
X12748753Y-14309888D02*
X12739229Y-14271793D01*
X12739229Y-14271793D02*
X12739229Y-14224174D01*
X12739229Y-14224174D02*
X12748753Y-14186079D01*
X12748753Y-14186079D02*
X12758277Y-14167031D01*
X12758277Y-14167031D02*
X12767801Y-14157508D01*
X12767801Y-14157508D02*
X12786848Y-14147984D01*
X13024944Y-14214650D02*
X13024944Y-14347984D01*
X12977325Y-14138460D02*
X12929706Y-14281317D01*
X12929706Y-14281317D02*
X13053515Y-14281317D01*
X13215420Y-14147984D02*
X13177325Y-14147984D01*
X13177325Y-14147984D02*
X13158277Y-14157508D01*
X13158277Y-14157508D02*
X13148753Y-14167031D01*
X13148753Y-14167031D02*
X13129706Y-14195603D01*
X13129706Y-14195603D02*
X13120182Y-14233698D01*
X13120182Y-14233698D02*
X13120182Y-14309888D01*
X13120182Y-14309888D02*
X13129706Y-14328936D01*
X13129706Y-14328936D02*
X13139229Y-14338460D01*
X13139229Y-14338460D02*
X13158277Y-14347984D01*
X13158277Y-14347984D02*
X13196372Y-14347984D01*
X13196372Y-14347984D02*
X13215420Y-14338460D01*
X13215420Y-14338460D02*
X13224944Y-14328936D01*
X13224944Y-14328936D02*
X13234467Y-14309888D01*
X13234467Y-14309888D02*
X13234467Y-14262269D01*
X13234467Y-14262269D02*
X13224944Y-14243222D01*
X13224944Y-14243222D02*
X13215420Y-14233698D01*
X13215420Y-14233698D02*
X13196372Y-14224174D01*
X13196372Y-14224174D02*
X13158277Y-14224174D01*
X13158277Y-14224174D02*
X13139229Y-14233698D01*
X13139229Y-14233698D02*
X13129706Y-14243222D01*
X13129706Y-14243222D02*
X13120182Y-14262269D01*
X13358277Y-14147984D02*
X13377325Y-14147984D01*
X13377325Y-14147984D02*
X13396372Y-14157508D01*
X13396372Y-14157508D02*
X13405896Y-14167031D01*
X13405896Y-14167031D02*
X13415420Y-14186079D01*
X13415420Y-14186079D02*
X13424944Y-14224174D01*
X13424944Y-14224174D02*
X13424944Y-14271793D01*
X13424944Y-14271793D02*
X13415420Y-14309888D01*
X13415420Y-14309888D02*
X13405896Y-14328936D01*
X13405896Y-14328936D02*
X13396372Y-14338460D01*
X13396372Y-14338460D02*
X13377325Y-14347984D01*
X13377325Y-14347984D02*
X13358277Y-14347984D01*
X13358277Y-14347984D02*
X13339229Y-14338460D01*
X13339229Y-14338460D02*
X13329706Y-14328936D01*
X13329706Y-14328936D02*
X13320182Y-14309888D01*
X13320182Y-14309888D02*
X13310658Y-14271793D01*
X13310658Y-14271793D02*
X13310658Y-14224174D01*
X13310658Y-14224174D02*
X13320182Y-14186079D01*
X13320182Y-14186079D02*
X13329706Y-14167031D01*
X13329706Y-14167031D02*
X13339229Y-14157508D01*
X13339229Y-14157508D02*
X13358277Y-14147984D01*
X13501134Y-14147984D02*
X13501134Y-14186079D01*
X13577325Y-14147984D02*
X13577325Y-14186079D01*
X13872563Y-14424174D02*
X13863039Y-14414650D01*
X13863039Y-14414650D02*
X13843991Y-14386079D01*
X13843991Y-14386079D02*
X13834468Y-14367031D01*
X13834468Y-14367031D02*
X13824944Y-14338460D01*
X13824944Y-14338460D02*
X13815420Y-14290841D01*
X13815420Y-14290841D02*
X13815420Y-14252746D01*
X13815420Y-14252746D02*
X13824944Y-14205127D01*
X13824944Y-14205127D02*
X13834468Y-14176555D01*
X13834468Y-14176555D02*
X13843991Y-14157508D01*
X13843991Y-14157508D02*
X13863039Y-14128936D01*
X13863039Y-14128936D02*
X13872563Y-14119412D01*
X13939229Y-14167031D02*
X13948753Y-14157508D01*
X13948753Y-14157508D02*
X13967801Y-14147984D01*
X13967801Y-14147984D02*
X14015420Y-14147984D01*
X14015420Y-14147984D02*
X14034468Y-14157508D01*
X14034468Y-14157508D02*
X14043991Y-14167031D01*
X14043991Y-14167031D02*
X14053515Y-14186079D01*
X14053515Y-14186079D02*
X14053515Y-14205127D01*
X14053515Y-14205127D02*
X14043991Y-14233698D01*
X14043991Y-14233698D02*
X13929706Y-14347984D01*
X13929706Y-14347984D02*
X14053515Y-14347984D01*
X14291610Y-14347984D02*
X14291610Y-14147984D01*
X14377325Y-14347984D02*
X14377325Y-14243222D01*
X14377325Y-14243222D02*
X14367801Y-14224174D01*
X14367801Y-14224174D02*
X14348753Y-14214650D01*
X14348753Y-14214650D02*
X14320182Y-14214650D01*
X14320182Y-14214650D02*
X14301134Y-14224174D01*
X14301134Y-14224174D02*
X14291610Y-14233698D01*
X14501134Y-14347984D02*
X14482087Y-14338460D01*
X14482087Y-14338460D02*
X14472563Y-14328936D01*
X14472563Y-14328936D02*
X14463039Y-14309888D01*
X14463039Y-14309888D02*
X14463039Y-14252746D01*
X14463039Y-14252746D02*
X14472563Y-14233698D01*
X14472563Y-14233698D02*
X14482087Y-14224174D01*
X14482087Y-14224174D02*
X14501134Y-14214650D01*
X14501134Y-14214650D02*
X14529706Y-14214650D01*
X14529706Y-14214650D02*
X14548753Y-14224174D01*
X14548753Y-14224174D02*
X14558277Y-14233698D01*
X14558277Y-14233698D02*
X14567801Y-14252746D01*
X14567801Y-14252746D02*
X14567801Y-14309888D01*
X14567801Y-14309888D02*
X14558277Y-14328936D01*
X14558277Y-14328936D02*
X14548753Y-14338460D01*
X14548753Y-14338460D02*
X14529706Y-14347984D01*
X14529706Y-14347984D02*
X14501134Y-14347984D01*
X14682087Y-14347984D02*
X14663039Y-14338460D01*
X14663039Y-14338460D02*
X14653515Y-14319412D01*
X14653515Y-14319412D02*
X14653515Y-14147984D01*
X14834468Y-14338460D02*
X14815420Y-14347984D01*
X14815420Y-14347984D02*
X14777325Y-14347984D01*
X14777325Y-14347984D02*
X14758277Y-14338460D01*
X14758277Y-14338460D02*
X14748753Y-14319412D01*
X14748753Y-14319412D02*
X14748753Y-14243222D01*
X14748753Y-14243222D02*
X14758277Y-14224174D01*
X14758277Y-14224174D02*
X14777325Y-14214650D01*
X14777325Y-14214650D02*
X14815420Y-14214650D01*
X14815420Y-14214650D02*
X14834468Y-14224174D01*
X14834468Y-14224174D02*
X14843991Y-14243222D01*
X14843991Y-14243222D02*
X14843991Y-14262269D01*
X14843991Y-14262269D02*
X14748753Y-14281317D01*
X14920182Y-14338460D02*
X14939230Y-14347984D01*
X14939230Y-14347984D02*
X14977325Y-14347984D01*
X14977325Y-14347984D02*
X14996372Y-14338460D01*
X14996372Y-14338460D02*
X15005896Y-14319412D01*
X15005896Y-14319412D02*
X15005896Y-14309888D01*
X15005896Y-14309888D02*
X14996372Y-14290841D01*
X14996372Y-14290841D02*
X14977325Y-14281317D01*
X14977325Y-14281317D02*
X14948753Y-14281317D01*
X14948753Y-14281317D02*
X14929706Y-14271793D01*
X14929706Y-14271793D02*
X14920182Y-14252746D01*
X14920182Y-14252746D02*
X14920182Y-14243222D01*
X14920182Y-14243222D02*
X14929706Y-14224174D01*
X14929706Y-14224174D02*
X14948753Y-14214650D01*
X14948753Y-14214650D02*
X14977325Y-14214650D01*
X14977325Y-14214650D02*
X14996372Y-14224174D01*
X15072563Y-14424174D02*
X15082087Y-14414650D01*
X15082087Y-14414650D02*
X15101134Y-14386079D01*
X15101134Y-14386079D02*
X15110658Y-14367031D01*
X15110658Y-14367031D02*
X15120182Y-14338460D01*
X15120182Y-14338460D02*
X15129706Y-14290841D01*
X15129706Y-14290841D02*
X15129706Y-14252746D01*
X15129706Y-14252746D02*
X15120182Y-14205127D01*
X15120182Y-14205127D02*
X15110658Y-14176555D01*
X15110658Y-14176555D02*
X15101134Y-14157508D01*
X15101134Y-14157508D02*
X15082087Y-14128936D01*
X15082087Y-14128936D02*
X15072563Y-14119412D01*
X15434468Y-14424174D02*
X15424944Y-14414650D01*
X15424944Y-14414650D02*
X15405896Y-14386079D01*
X15405896Y-14386079D02*
X15396372Y-14367031D01*
X15396372Y-14367031D02*
X15386849Y-14338460D01*
X15386849Y-14338460D02*
X15377325Y-14290841D01*
X15377325Y-14290841D02*
X15377325Y-14252746D01*
X15377325Y-14252746D02*
X15386849Y-14205127D01*
X15386849Y-14205127D02*
X15396372Y-14176555D01*
X15396372Y-14176555D02*
X15405896Y-14157508D01*
X15405896Y-14157508D02*
X15424944Y-14128936D01*
X15424944Y-14128936D02*
X15434468Y-14119412D01*
X15510658Y-14214650D02*
X15510658Y-14347984D01*
X15510658Y-14233698D02*
X15520182Y-14224174D01*
X15520182Y-14224174D02*
X15539230Y-14214650D01*
X15539230Y-14214650D02*
X15567801Y-14214650D01*
X15567801Y-14214650D02*
X15586849Y-14224174D01*
X15586849Y-14224174D02*
X15596372Y-14243222D01*
X15596372Y-14243222D02*
X15596372Y-14347984D01*
X15720182Y-14347984D02*
X15701134Y-14338460D01*
X15701134Y-14338460D02*
X15691611Y-14328936D01*
X15691611Y-14328936D02*
X15682087Y-14309888D01*
X15682087Y-14309888D02*
X15682087Y-14252746D01*
X15682087Y-14252746D02*
X15691611Y-14233698D01*
X15691611Y-14233698D02*
X15701134Y-14224174D01*
X15701134Y-14224174D02*
X15720182Y-14214650D01*
X15720182Y-14214650D02*
X15748753Y-14214650D01*
X15748753Y-14214650D02*
X15767801Y-14224174D01*
X15767801Y-14224174D02*
X15777325Y-14233698D01*
X15777325Y-14233698D02*
X15786849Y-14252746D01*
X15786849Y-14252746D02*
X15786849Y-14309888D01*
X15786849Y-14309888D02*
X15777325Y-14328936D01*
X15777325Y-14328936D02*
X15767801Y-14338460D01*
X15767801Y-14338460D02*
X15748753Y-14347984D01*
X15748753Y-14347984D02*
X15720182Y-14347984D01*
X15843992Y-14214650D02*
X15920182Y-14214650D01*
X15872563Y-14147984D02*
X15872563Y-14319412D01*
X15872563Y-14319412D02*
X15882087Y-14338460D01*
X15882087Y-14338460D02*
X15901134Y-14347984D01*
X15901134Y-14347984D02*
X15920182Y-14347984D01*
X16139230Y-14214650D02*
X16139230Y-14414650D01*
X16139230Y-14224174D02*
X16158277Y-14214650D01*
X16158277Y-14214650D02*
X16196373Y-14214650D01*
X16196373Y-14214650D02*
X16215420Y-14224174D01*
X16215420Y-14224174D02*
X16224944Y-14233698D01*
X16224944Y-14233698D02*
X16234468Y-14252746D01*
X16234468Y-14252746D02*
X16234468Y-14309888D01*
X16234468Y-14309888D02*
X16224944Y-14328936D01*
X16224944Y-14328936D02*
X16215420Y-14338460D01*
X16215420Y-14338460D02*
X16196373Y-14347984D01*
X16196373Y-14347984D02*
X16158277Y-14347984D01*
X16158277Y-14347984D02*
X16139230Y-14338460D01*
X16348753Y-14347984D02*
X16329706Y-14338460D01*
X16329706Y-14338460D02*
X16320182Y-14319412D01*
X16320182Y-14319412D02*
X16320182Y-14147984D01*
X16510658Y-14347984D02*
X16510658Y-14243222D01*
X16510658Y-14243222D02*
X16501134Y-14224174D01*
X16501134Y-14224174D02*
X16482087Y-14214650D01*
X16482087Y-14214650D02*
X16443992Y-14214650D01*
X16443992Y-14214650D02*
X16424944Y-14224174D01*
X16510658Y-14338460D02*
X16491611Y-14347984D01*
X16491611Y-14347984D02*
X16443992Y-14347984D01*
X16443992Y-14347984D02*
X16424944Y-14338460D01*
X16424944Y-14338460D02*
X16415420Y-14319412D01*
X16415420Y-14319412D02*
X16415420Y-14300365D01*
X16415420Y-14300365D02*
X16424944Y-14281317D01*
X16424944Y-14281317D02*
X16443992Y-14271793D01*
X16443992Y-14271793D02*
X16491611Y-14271793D01*
X16491611Y-14271793D02*
X16510658Y-14262269D01*
X16577325Y-14214650D02*
X16653515Y-14214650D01*
X16605896Y-14147984D02*
X16605896Y-14319412D01*
X16605896Y-14319412D02*
X16615420Y-14338460D01*
X16615420Y-14338460D02*
X16634468Y-14347984D01*
X16634468Y-14347984D02*
X16653515Y-14347984D01*
X16796373Y-14338460D02*
X16777325Y-14347984D01*
X16777325Y-14347984D02*
X16739230Y-14347984D01*
X16739230Y-14347984D02*
X16720182Y-14338460D01*
X16720182Y-14338460D02*
X16710658Y-14319412D01*
X16710658Y-14319412D02*
X16710658Y-14243222D01*
X16710658Y-14243222D02*
X16720182Y-14224174D01*
X16720182Y-14224174D02*
X16739230Y-14214650D01*
X16739230Y-14214650D02*
X16777325Y-14214650D01*
X16777325Y-14214650D02*
X16796373Y-14224174D01*
X16796373Y-14224174D02*
X16805896Y-14243222D01*
X16805896Y-14243222D02*
X16805896Y-14262269D01*
X16805896Y-14262269D02*
X16710658Y-14281317D01*
X16977325Y-14347984D02*
X16977325Y-14147984D01*
X16977325Y-14338460D02*
X16958277Y-14347984D01*
X16958277Y-14347984D02*
X16920182Y-14347984D01*
X16920182Y-14347984D02*
X16901135Y-14338460D01*
X16901135Y-14338460D02*
X16891611Y-14328936D01*
X16891611Y-14328936D02*
X16882087Y-14309888D01*
X16882087Y-14309888D02*
X16882087Y-14252746D01*
X16882087Y-14252746D02*
X16891611Y-14233698D01*
X16891611Y-14233698D02*
X16901135Y-14224174D01*
X16901135Y-14224174D02*
X16920182Y-14214650D01*
X16920182Y-14214650D02*
X16958277Y-14214650D01*
X16958277Y-14214650D02*
X16977325Y-14224174D01*
X17053516Y-14424174D02*
X17063039Y-14414650D01*
X17063039Y-14414650D02*
X17082087Y-14386079D01*
X17082087Y-14386079D02*
X17091611Y-14367031D01*
X17091611Y-14367031D02*
X17101135Y-14338460D01*
X17101135Y-14338460D02*
X17110658Y-14290841D01*
X17110658Y-14290841D02*
X17110658Y-14252746D01*
X17110658Y-14252746D02*
X17101135Y-14205127D01*
X17101135Y-14205127D02*
X17091611Y-14176555D01*
X17091611Y-14176555D02*
X17082087Y-14157508D01*
X17082087Y-14157508D02*
X17063039Y-14128936D01*
X17063039Y-14128936D02*
X17053516Y-14119412D01*
X10197500Y-14420500D02*
X10197500Y-14620500D01*
X10097500Y-14520500D02*
X10297500Y-14520500D01*
X10539229Y-14411984D02*
X10663039Y-14411984D01*
X10663039Y-14411984D02*
X10596372Y-14488174D01*
X10596372Y-14488174D02*
X10624944Y-14488174D01*
X10624944Y-14488174D02*
X10643991Y-14497698D01*
X10643991Y-14497698D02*
X10653515Y-14507222D01*
X10653515Y-14507222D02*
X10663039Y-14526269D01*
X10663039Y-14526269D02*
X10663039Y-14573888D01*
X10663039Y-14573888D02*
X10653515Y-14592936D01*
X10653515Y-14592936D02*
X10643991Y-14602460D01*
X10643991Y-14602460D02*
X10624944Y-14611984D01*
X10624944Y-14611984D02*
X10567801Y-14611984D01*
X10567801Y-14611984D02*
X10548753Y-14602460D01*
X10548753Y-14602460D02*
X10539229Y-14592936D01*
X10748753Y-14592936D02*
X10758277Y-14602460D01*
X10758277Y-14602460D02*
X10748753Y-14611984D01*
X10748753Y-14611984D02*
X10739229Y-14602460D01*
X10739229Y-14602460D02*
X10748753Y-14592936D01*
X10748753Y-14592936D02*
X10748753Y-14611984D01*
X10882086Y-14411984D02*
X10901134Y-14411984D01*
X10901134Y-14411984D02*
X10920182Y-14421508D01*
X10920182Y-14421508D02*
X10929705Y-14431031D01*
X10929705Y-14431031D02*
X10939229Y-14450079D01*
X10939229Y-14450079D02*
X10948753Y-14488174D01*
X10948753Y-14488174D02*
X10948753Y-14535793D01*
X10948753Y-14535793D02*
X10939229Y-14573888D01*
X10939229Y-14573888D02*
X10929705Y-14592936D01*
X10929705Y-14592936D02*
X10920182Y-14602460D01*
X10920182Y-14602460D02*
X10901134Y-14611984D01*
X10901134Y-14611984D02*
X10882086Y-14611984D01*
X10882086Y-14611984D02*
X10863039Y-14602460D01*
X10863039Y-14602460D02*
X10853515Y-14592936D01*
X10853515Y-14592936D02*
X10843991Y-14573888D01*
X10843991Y-14573888D02*
X10834467Y-14535793D01*
X10834467Y-14535793D02*
X10834467Y-14488174D01*
X10834467Y-14488174D02*
X10843991Y-14450079D01*
X10843991Y-14450079D02*
X10853515Y-14431031D01*
X10853515Y-14431031D02*
X10863039Y-14421508D01*
X10863039Y-14421508D02*
X10882086Y-14411984D01*
X11072563Y-14411984D02*
X11091610Y-14411984D01*
X11091610Y-14411984D02*
X11110658Y-14421508D01*
X11110658Y-14421508D02*
X11120182Y-14431031D01*
X11120182Y-14431031D02*
X11129705Y-14450079D01*
X11129705Y-14450079D02*
X11139229Y-14488174D01*
X11139229Y-14488174D02*
X11139229Y-14535793D01*
X11139229Y-14535793D02*
X11129705Y-14573888D01*
X11129705Y-14573888D02*
X11120182Y-14592936D01*
X11120182Y-14592936D02*
X11110658Y-14602460D01*
X11110658Y-14602460D02*
X11091610Y-14611984D01*
X11091610Y-14611984D02*
X11072563Y-14611984D01*
X11072563Y-14611984D02*
X11053515Y-14602460D01*
X11053515Y-14602460D02*
X11043991Y-14592936D01*
X11043991Y-14592936D02*
X11034467Y-14573888D01*
X11034467Y-14573888D02*
X11024944Y-14535793D01*
X11024944Y-14535793D02*
X11024944Y-14488174D01*
X11024944Y-14488174D02*
X11034467Y-14450079D01*
X11034467Y-14450079D02*
X11043991Y-14431031D01*
X11043991Y-14431031D02*
X11053515Y-14421508D01*
X11053515Y-14421508D02*
X11072563Y-14411984D01*
X11263039Y-14411984D02*
X11282086Y-14411984D01*
X11282086Y-14411984D02*
X11301134Y-14421508D01*
X11301134Y-14421508D02*
X11310658Y-14431031D01*
X11310658Y-14431031D02*
X11320182Y-14450079D01*
X11320182Y-14450079D02*
X11329705Y-14488174D01*
X11329705Y-14488174D02*
X11329705Y-14535793D01*
X11329705Y-14535793D02*
X11320182Y-14573888D01*
X11320182Y-14573888D02*
X11310658Y-14592936D01*
X11310658Y-14592936D02*
X11301134Y-14602460D01*
X11301134Y-14602460D02*
X11282086Y-14611984D01*
X11282086Y-14611984D02*
X11263039Y-14611984D01*
X11263039Y-14611984D02*
X11243991Y-14602460D01*
X11243991Y-14602460D02*
X11234467Y-14592936D01*
X11234467Y-14592936D02*
X11224943Y-14573888D01*
X11224943Y-14573888D02*
X11215420Y-14535793D01*
X11215420Y-14535793D02*
X11215420Y-14488174D01*
X11215420Y-14488174D02*
X11224943Y-14450079D01*
X11224943Y-14450079D02*
X11234467Y-14431031D01*
X11234467Y-14431031D02*
X11243991Y-14421508D01*
X11243991Y-14421508D02*
X11263039Y-14411984D01*
X11415420Y-14611984D02*
X11415420Y-14478650D01*
X11415420Y-14497698D02*
X11424943Y-14488174D01*
X11424943Y-14488174D02*
X11443991Y-14478650D01*
X11443991Y-14478650D02*
X11472563Y-14478650D01*
X11472563Y-14478650D02*
X11491610Y-14488174D01*
X11491610Y-14488174D02*
X11501134Y-14507222D01*
X11501134Y-14507222D02*
X11501134Y-14611984D01*
X11501134Y-14507222D02*
X11510658Y-14488174D01*
X11510658Y-14488174D02*
X11529705Y-14478650D01*
X11529705Y-14478650D02*
X11558277Y-14478650D01*
X11558277Y-14478650D02*
X11577324Y-14488174D01*
X11577324Y-14488174D02*
X11586848Y-14507222D01*
X11586848Y-14507222D02*
X11586848Y-14611984D01*
X11682086Y-14611984D02*
X11682086Y-14478650D01*
X11682086Y-14497698D02*
X11691610Y-14488174D01*
X11691610Y-14488174D02*
X11710658Y-14478650D01*
X11710658Y-14478650D02*
X11739229Y-14478650D01*
X11739229Y-14478650D02*
X11758277Y-14488174D01*
X11758277Y-14488174D02*
X11767801Y-14507222D01*
X11767801Y-14507222D02*
X11767801Y-14611984D01*
X11767801Y-14507222D02*
X11777324Y-14488174D01*
X11777324Y-14488174D02*
X11796372Y-14478650D01*
X11796372Y-14478650D02*
X11824943Y-14478650D01*
X11824943Y-14478650D02*
X11843991Y-14488174D01*
X11843991Y-14488174D02*
X11853515Y-14507222D01*
X11853515Y-14507222D02*
X11853515Y-14611984D01*
X12243991Y-14402460D02*
X12072563Y-14659603D01*
X12501134Y-14411984D02*
X12520182Y-14411984D01*
X12520182Y-14411984D02*
X12539229Y-14421508D01*
X12539229Y-14421508D02*
X12548753Y-14431031D01*
X12548753Y-14431031D02*
X12558277Y-14450079D01*
X12558277Y-14450079D02*
X12567801Y-14488174D01*
X12567801Y-14488174D02*
X12567801Y-14535793D01*
X12567801Y-14535793D02*
X12558277Y-14573888D01*
X12558277Y-14573888D02*
X12548753Y-14592936D01*
X12548753Y-14592936D02*
X12539229Y-14602460D01*
X12539229Y-14602460D02*
X12520182Y-14611984D01*
X12520182Y-14611984D02*
X12501134Y-14611984D01*
X12501134Y-14611984D02*
X12482086Y-14602460D01*
X12482086Y-14602460D02*
X12472563Y-14592936D01*
X12472563Y-14592936D02*
X12463039Y-14573888D01*
X12463039Y-14573888D02*
X12453515Y-14535793D01*
X12453515Y-14535793D02*
X12453515Y-14488174D01*
X12453515Y-14488174D02*
X12463039Y-14450079D01*
X12463039Y-14450079D02*
X12472563Y-14431031D01*
X12472563Y-14431031D02*
X12482086Y-14421508D01*
X12482086Y-14421508D02*
X12501134Y-14411984D01*
X12653515Y-14592936D02*
X12663039Y-14602460D01*
X12663039Y-14602460D02*
X12653515Y-14611984D01*
X12653515Y-14611984D02*
X12643991Y-14602460D01*
X12643991Y-14602460D02*
X12653515Y-14592936D01*
X12653515Y-14592936D02*
X12653515Y-14611984D01*
X12853515Y-14611984D02*
X12739229Y-14611984D01*
X12796372Y-14611984D02*
X12796372Y-14411984D01*
X12796372Y-14411984D02*
X12777325Y-14440555D01*
X12777325Y-14440555D02*
X12758277Y-14459603D01*
X12758277Y-14459603D02*
X12739229Y-14469127D01*
X13043991Y-14611984D02*
X12929706Y-14611984D01*
X12986848Y-14611984D02*
X12986848Y-14411984D01*
X12986848Y-14411984D02*
X12967801Y-14440555D01*
X12967801Y-14440555D02*
X12948753Y-14459603D01*
X12948753Y-14459603D02*
X12929706Y-14469127D01*
X13158277Y-14497698D02*
X13139229Y-14488174D01*
X13139229Y-14488174D02*
X13129706Y-14478650D01*
X13129706Y-14478650D02*
X13120182Y-14459603D01*
X13120182Y-14459603D02*
X13120182Y-14450079D01*
X13120182Y-14450079D02*
X13129706Y-14431031D01*
X13129706Y-14431031D02*
X13139229Y-14421508D01*
X13139229Y-14421508D02*
X13158277Y-14411984D01*
X13158277Y-14411984D02*
X13196372Y-14411984D01*
X13196372Y-14411984D02*
X13215420Y-14421508D01*
X13215420Y-14421508D02*
X13224944Y-14431031D01*
X13224944Y-14431031D02*
X13234467Y-14450079D01*
X13234467Y-14450079D02*
X13234467Y-14459603D01*
X13234467Y-14459603D02*
X13224944Y-14478650D01*
X13224944Y-14478650D02*
X13215420Y-14488174D01*
X13215420Y-14488174D02*
X13196372Y-14497698D01*
X13196372Y-14497698D02*
X13158277Y-14497698D01*
X13158277Y-14497698D02*
X13139229Y-14507222D01*
X13139229Y-14507222D02*
X13129706Y-14516746D01*
X13129706Y-14516746D02*
X13120182Y-14535793D01*
X13120182Y-14535793D02*
X13120182Y-14573888D01*
X13120182Y-14573888D02*
X13129706Y-14592936D01*
X13129706Y-14592936D02*
X13139229Y-14602460D01*
X13139229Y-14602460D02*
X13158277Y-14611984D01*
X13158277Y-14611984D02*
X13196372Y-14611984D01*
X13196372Y-14611984D02*
X13215420Y-14602460D01*
X13215420Y-14602460D02*
X13224944Y-14592936D01*
X13224944Y-14592936D02*
X13234467Y-14573888D01*
X13234467Y-14573888D02*
X13234467Y-14535793D01*
X13234467Y-14535793D02*
X13224944Y-14516746D01*
X13224944Y-14516746D02*
X13215420Y-14507222D01*
X13215420Y-14507222D02*
X13196372Y-14497698D01*
X13424944Y-14611984D02*
X13310658Y-14611984D01*
X13367801Y-14611984D02*
X13367801Y-14411984D01*
X13367801Y-14411984D02*
X13348753Y-14440555D01*
X13348753Y-14440555D02*
X13329706Y-14459603D01*
X13329706Y-14459603D02*
X13310658Y-14469127D01*
X13501134Y-14411984D02*
X13501134Y-14450079D01*
X13577325Y-14411984D02*
X13577325Y-14450079D01*
X13872563Y-14688174D02*
X13863039Y-14678650D01*
X13863039Y-14678650D02*
X13843991Y-14650079D01*
X13843991Y-14650079D02*
X13834468Y-14631031D01*
X13834468Y-14631031D02*
X13824944Y-14602460D01*
X13824944Y-14602460D02*
X13815420Y-14554841D01*
X13815420Y-14554841D02*
X13815420Y-14516746D01*
X13815420Y-14516746D02*
X13824944Y-14469127D01*
X13824944Y-14469127D02*
X13834468Y-14440555D01*
X13834468Y-14440555D02*
X13843991Y-14421508D01*
X13843991Y-14421508D02*
X13863039Y-14392936D01*
X13863039Y-14392936D02*
X13872563Y-14383412D01*
X13939229Y-14431031D02*
X13948753Y-14421508D01*
X13948753Y-14421508D02*
X13967801Y-14411984D01*
X13967801Y-14411984D02*
X14015420Y-14411984D01*
X14015420Y-14411984D02*
X14034468Y-14421508D01*
X14034468Y-14421508D02*
X14043991Y-14431031D01*
X14043991Y-14431031D02*
X14053515Y-14450079D01*
X14053515Y-14450079D02*
X14053515Y-14469127D01*
X14053515Y-14469127D02*
X14043991Y-14497698D01*
X14043991Y-14497698D02*
X13929706Y-14611984D01*
X13929706Y-14611984D02*
X14053515Y-14611984D01*
X14291610Y-14611984D02*
X14291610Y-14411984D01*
X14377325Y-14611984D02*
X14377325Y-14507222D01*
X14377325Y-14507222D02*
X14367801Y-14488174D01*
X14367801Y-14488174D02*
X14348753Y-14478650D01*
X14348753Y-14478650D02*
X14320182Y-14478650D01*
X14320182Y-14478650D02*
X14301134Y-14488174D01*
X14301134Y-14488174D02*
X14291610Y-14497698D01*
X14501134Y-14611984D02*
X14482087Y-14602460D01*
X14482087Y-14602460D02*
X14472563Y-14592936D01*
X14472563Y-14592936D02*
X14463039Y-14573888D01*
X14463039Y-14573888D02*
X14463039Y-14516746D01*
X14463039Y-14516746D02*
X14472563Y-14497698D01*
X14472563Y-14497698D02*
X14482087Y-14488174D01*
X14482087Y-14488174D02*
X14501134Y-14478650D01*
X14501134Y-14478650D02*
X14529706Y-14478650D01*
X14529706Y-14478650D02*
X14548753Y-14488174D01*
X14548753Y-14488174D02*
X14558277Y-14497698D01*
X14558277Y-14497698D02*
X14567801Y-14516746D01*
X14567801Y-14516746D02*
X14567801Y-14573888D01*
X14567801Y-14573888D02*
X14558277Y-14592936D01*
X14558277Y-14592936D02*
X14548753Y-14602460D01*
X14548753Y-14602460D02*
X14529706Y-14611984D01*
X14529706Y-14611984D02*
X14501134Y-14611984D01*
X14682087Y-14611984D02*
X14663039Y-14602460D01*
X14663039Y-14602460D02*
X14653515Y-14583412D01*
X14653515Y-14583412D02*
X14653515Y-14411984D01*
X14834468Y-14602460D02*
X14815420Y-14611984D01*
X14815420Y-14611984D02*
X14777325Y-14611984D01*
X14777325Y-14611984D02*
X14758277Y-14602460D01*
X14758277Y-14602460D02*
X14748753Y-14583412D01*
X14748753Y-14583412D02*
X14748753Y-14507222D01*
X14748753Y-14507222D02*
X14758277Y-14488174D01*
X14758277Y-14488174D02*
X14777325Y-14478650D01*
X14777325Y-14478650D02*
X14815420Y-14478650D01*
X14815420Y-14478650D02*
X14834468Y-14488174D01*
X14834468Y-14488174D02*
X14843991Y-14507222D01*
X14843991Y-14507222D02*
X14843991Y-14526269D01*
X14843991Y-14526269D02*
X14748753Y-14545317D01*
X14920182Y-14602460D02*
X14939230Y-14611984D01*
X14939230Y-14611984D02*
X14977325Y-14611984D01*
X14977325Y-14611984D02*
X14996372Y-14602460D01*
X14996372Y-14602460D02*
X15005896Y-14583412D01*
X15005896Y-14583412D02*
X15005896Y-14573888D01*
X15005896Y-14573888D02*
X14996372Y-14554841D01*
X14996372Y-14554841D02*
X14977325Y-14545317D01*
X14977325Y-14545317D02*
X14948753Y-14545317D01*
X14948753Y-14545317D02*
X14929706Y-14535793D01*
X14929706Y-14535793D02*
X14920182Y-14516746D01*
X14920182Y-14516746D02*
X14920182Y-14507222D01*
X14920182Y-14507222D02*
X14929706Y-14488174D01*
X14929706Y-14488174D02*
X14948753Y-14478650D01*
X14948753Y-14478650D02*
X14977325Y-14478650D01*
X14977325Y-14478650D02*
X14996372Y-14488174D01*
X15072563Y-14688174D02*
X15082087Y-14678650D01*
X15082087Y-14678650D02*
X15101134Y-14650079D01*
X15101134Y-14650079D02*
X15110658Y-14631031D01*
X15110658Y-14631031D02*
X15120182Y-14602460D01*
X15120182Y-14602460D02*
X15129706Y-14554841D01*
X15129706Y-14554841D02*
X15129706Y-14516746D01*
X15129706Y-14516746D02*
X15120182Y-14469127D01*
X15120182Y-14469127D02*
X15110658Y-14440555D01*
X15110658Y-14440555D02*
X15101134Y-14421508D01*
X15101134Y-14421508D02*
X15082087Y-14392936D01*
X15082087Y-14392936D02*
X15072563Y-14383412D01*
X15434468Y-14688174D02*
X15424944Y-14678650D01*
X15424944Y-14678650D02*
X15405896Y-14650079D01*
X15405896Y-14650079D02*
X15396372Y-14631031D01*
X15396372Y-14631031D02*
X15386849Y-14602460D01*
X15386849Y-14602460D02*
X15377325Y-14554841D01*
X15377325Y-14554841D02*
X15377325Y-14516746D01*
X15377325Y-14516746D02*
X15386849Y-14469127D01*
X15386849Y-14469127D02*
X15396372Y-14440555D01*
X15396372Y-14440555D02*
X15405896Y-14421508D01*
X15405896Y-14421508D02*
X15424944Y-14392936D01*
X15424944Y-14392936D02*
X15434468Y-14383412D01*
X15510658Y-14478650D02*
X15510658Y-14611984D01*
X15510658Y-14497698D02*
X15520182Y-14488174D01*
X15520182Y-14488174D02*
X15539230Y-14478650D01*
X15539230Y-14478650D02*
X15567801Y-14478650D01*
X15567801Y-14478650D02*
X15586849Y-14488174D01*
X15586849Y-14488174D02*
X15596372Y-14507222D01*
X15596372Y-14507222D02*
X15596372Y-14611984D01*
X15720182Y-14611984D02*
X15701134Y-14602460D01*
X15701134Y-14602460D02*
X15691611Y-14592936D01*
X15691611Y-14592936D02*
X15682087Y-14573888D01*
X15682087Y-14573888D02*
X15682087Y-14516746D01*
X15682087Y-14516746D02*
X15691611Y-14497698D01*
X15691611Y-14497698D02*
X15701134Y-14488174D01*
X15701134Y-14488174D02*
X15720182Y-14478650D01*
X15720182Y-14478650D02*
X15748753Y-14478650D01*
X15748753Y-14478650D02*
X15767801Y-14488174D01*
X15767801Y-14488174D02*
X15777325Y-14497698D01*
X15777325Y-14497698D02*
X15786849Y-14516746D01*
X15786849Y-14516746D02*
X15786849Y-14573888D01*
X15786849Y-14573888D02*
X15777325Y-14592936D01*
X15777325Y-14592936D02*
X15767801Y-14602460D01*
X15767801Y-14602460D02*
X15748753Y-14611984D01*
X15748753Y-14611984D02*
X15720182Y-14611984D01*
X15843992Y-14478650D02*
X15920182Y-14478650D01*
X15872563Y-14411984D02*
X15872563Y-14583412D01*
X15872563Y-14583412D02*
X15882087Y-14602460D01*
X15882087Y-14602460D02*
X15901134Y-14611984D01*
X15901134Y-14611984D02*
X15920182Y-14611984D01*
X16139230Y-14478650D02*
X16139230Y-14678650D01*
X16139230Y-14488174D02*
X16158277Y-14478650D01*
X16158277Y-14478650D02*
X16196373Y-14478650D01*
X16196373Y-14478650D02*
X16215420Y-14488174D01*
X16215420Y-14488174D02*
X16224944Y-14497698D01*
X16224944Y-14497698D02*
X16234468Y-14516746D01*
X16234468Y-14516746D02*
X16234468Y-14573888D01*
X16234468Y-14573888D02*
X16224944Y-14592936D01*
X16224944Y-14592936D02*
X16215420Y-14602460D01*
X16215420Y-14602460D02*
X16196373Y-14611984D01*
X16196373Y-14611984D02*
X16158277Y-14611984D01*
X16158277Y-14611984D02*
X16139230Y-14602460D01*
X16348753Y-14611984D02*
X16329706Y-14602460D01*
X16329706Y-14602460D02*
X16320182Y-14583412D01*
X16320182Y-14583412D02*
X16320182Y-14411984D01*
X16510658Y-14611984D02*
X16510658Y-14507222D01*
X16510658Y-14507222D02*
X16501134Y-14488174D01*
X16501134Y-14488174D02*
X16482087Y-14478650D01*
X16482087Y-14478650D02*
X16443992Y-14478650D01*
X16443992Y-14478650D02*
X16424944Y-14488174D01*
X16510658Y-14602460D02*
X16491611Y-14611984D01*
X16491611Y-14611984D02*
X16443992Y-14611984D01*
X16443992Y-14611984D02*
X16424944Y-14602460D01*
X16424944Y-14602460D02*
X16415420Y-14583412D01*
X16415420Y-14583412D02*
X16415420Y-14564365D01*
X16415420Y-14564365D02*
X16424944Y-14545317D01*
X16424944Y-14545317D02*
X16443992Y-14535793D01*
X16443992Y-14535793D02*
X16491611Y-14535793D01*
X16491611Y-14535793D02*
X16510658Y-14526269D01*
X16577325Y-14478650D02*
X16653515Y-14478650D01*
X16605896Y-14411984D02*
X16605896Y-14583412D01*
X16605896Y-14583412D02*
X16615420Y-14602460D01*
X16615420Y-14602460D02*
X16634468Y-14611984D01*
X16634468Y-14611984D02*
X16653515Y-14611984D01*
X16796373Y-14602460D02*
X16777325Y-14611984D01*
X16777325Y-14611984D02*
X16739230Y-14611984D01*
X16739230Y-14611984D02*
X16720182Y-14602460D01*
X16720182Y-14602460D02*
X16710658Y-14583412D01*
X16710658Y-14583412D02*
X16710658Y-14507222D01*
X16710658Y-14507222D02*
X16720182Y-14488174D01*
X16720182Y-14488174D02*
X16739230Y-14478650D01*
X16739230Y-14478650D02*
X16777325Y-14478650D01*
X16777325Y-14478650D02*
X16796373Y-14488174D01*
X16796373Y-14488174D02*
X16805896Y-14507222D01*
X16805896Y-14507222D02*
X16805896Y-14526269D01*
X16805896Y-14526269D02*
X16710658Y-14545317D01*
X16977325Y-14611984D02*
X16977325Y-14411984D01*
X16977325Y-14602460D02*
X16958277Y-14611984D01*
X16958277Y-14611984D02*
X16920182Y-14611984D01*
X16920182Y-14611984D02*
X16901135Y-14602460D01*
X16901135Y-14602460D02*
X16891611Y-14592936D01*
X16891611Y-14592936D02*
X16882087Y-14573888D01*
X16882087Y-14573888D02*
X16882087Y-14516746D01*
X16882087Y-14516746D02*
X16891611Y-14497698D01*
X16891611Y-14497698D02*
X16901135Y-14488174D01*
X16901135Y-14488174D02*
X16920182Y-14478650D01*
X16920182Y-14478650D02*
X16958277Y-14478650D01*
X16958277Y-14478650D02*
X16977325Y-14488174D01*
X17053516Y-14688174D02*
X17063039Y-14678650D01*
X17063039Y-14678650D02*
X17082087Y-14650079D01*
X17082087Y-14650079D02*
X17091611Y-14631031D01*
X17091611Y-14631031D02*
X17101135Y-14602460D01*
X17101135Y-14602460D02*
X17110658Y-14554841D01*
X17110658Y-14554841D02*
X17110658Y-14516746D01*
X17110658Y-14516746D02*
X17101135Y-14469127D01*
X17101135Y-14469127D02*
X17091611Y-14440555D01*
X17091611Y-14440555D02*
X17082087Y-14421508D01*
X17082087Y-14421508D02*
X17063039Y-14392936D01*
X17063039Y-14392936D02*
X17053516Y-14383412D01*
M02*
