%TF.GenerationSoftware,KiCad,Pcbnew,8.0.3*%
%TF.CreationDate,2024-09-21T22:38:29+02:00*%
%TF.ProjectId,Battery_pack,42617474-6572-4795-9f70-61636b2e6b69,1.0*%
%TF.SameCoordinates,Original*%
%TF.FileFunction,Paste,Top*%
%TF.FilePolarity,Positive*%
%FSLAX46Y46*%
G04 Gerber Fmt 4.6, Leading zero omitted, Abs format (unit mm)*
G04 Created by KiCad (PCBNEW 8.0.3) date 2024-09-21 22:38:29*
%MOMM*%
%LPD*%
G01*
G04 APERTURE LIST*
G04 Aperture macros list*
%AMRoundRect*
0 Rectangle with rounded corners*
0 $1 Rounding radius*
0 $2 $3 $4 $5 $6 $7 $8 $9 X,Y pos of 4 corners*
0 Add a 4 corners polygon primitive as box body*
4,1,4,$2,$3,$4,$5,$6,$7,$8,$9,$2,$3,0*
0 Add four circle primitives for the rounded corners*
1,1,$1+$1,$2,$3*
1,1,$1+$1,$4,$5*
1,1,$1+$1,$6,$7*
1,1,$1+$1,$8,$9*
0 Add four rect primitives between the rounded corners*
20,1,$1+$1,$2,$3,$4,$5,0*
20,1,$1+$1,$4,$5,$6,$7,0*
20,1,$1+$1,$6,$7,$8,$9,0*
20,1,$1+$1,$8,$9,$2,$3,0*%
G04 Aperture macros list end*
%ADD10C,0.010000*%
%ADD11RoundRect,0.140000X0.140000X0.170000X-0.140000X0.170000X-0.140000X-0.170000X0.140000X-0.170000X0*%
%ADD12R,1.400000X0.800000*%
%ADD13R,1.400000X0.300000*%
%ADD14RoundRect,0.050000X0.660000X0.150000X-0.660000X0.150000X-0.660000X-0.150000X0.660000X-0.150000X0*%
%ADD15RoundRect,0.135000X-0.135000X-0.185000X0.135000X-0.185000X0.135000X0.185000X-0.135000X0.185000X0*%
%ADD16RoundRect,0.135000X0.135000X0.185000X-0.135000X0.185000X-0.135000X-0.185000X0.135000X-0.185000X0*%
%ADD17RoundRect,0.048750X0.436250X0.146250X-0.436250X0.146250X-0.436250X-0.146250X0.436250X-0.146250X0*%
%ADD18RoundRect,0.250000X0.650000X-0.325000X0.650000X0.325000X-0.650000X0.325000X-0.650000X-0.325000X0*%
%ADD19R,0.812800X0.203200*%
%ADD20R,0.203200X0.812800*%
%ADD21R,1.803400X1.803400*%
%ADD22RoundRect,0.140000X0.170000X-0.140000X0.170000X0.140000X-0.170000X0.140000X-0.170000X-0.140000X0*%
%ADD23RoundRect,0.135000X0.185000X-0.135000X0.185000X0.135000X-0.185000X0.135000X-0.185000X-0.135000X0*%
%ADD24RoundRect,0.250000X-0.325000X-0.650000X0.325000X-0.650000X0.325000X0.650000X-0.325000X0.650000X0*%
%ADD25RoundRect,0.125000X-0.125000X0.175000X-0.125000X-0.175000X0.125000X-0.175000X0.125000X0.175000X0*%
%ADD26RoundRect,0.140000X-0.170000X0.140000X-0.170000X-0.140000X0.170000X-0.140000X0.170000X0.140000X0*%
%ADD27RoundRect,0.025000X0.375000X0.075000X-0.375000X0.075000X-0.375000X-0.075000X0.375000X-0.075000X0*%
%ADD28RoundRect,0.025000X0.325000X0.075000X-0.325000X0.075000X-0.325000X-0.075000X0.325000X-0.075000X0*%
%ADD29RoundRect,0.025000X0.075000X0.325000X-0.075000X0.325000X-0.075000X-0.325000X0.075000X-0.325000X0*%
%ADD30R,2.400000X1.500000*%
%ADD31RoundRect,0.140000X-0.140000X-0.170000X0.140000X-0.170000X0.140000X0.170000X-0.140000X0.170000X0*%
%ADD32R,0.711200X0.228600*%
%ADD33RoundRect,0.048750X-0.436250X-0.146250X0.436250X-0.146250X0.436250X0.146250X-0.436250X0.146250X0*%
%ADD34RoundRect,0.112500X-0.112500X-0.237500X0.112500X-0.237500X0.112500X0.237500X-0.112500X0.237500X0*%
%ADD35RoundRect,0.048750X0.146250X-0.436250X0.146250X0.436250X-0.146250X0.436250X-0.146250X-0.436250X0*%
%ADD36RoundRect,0.112500X-0.237500X0.112500X-0.237500X-0.112500X0.237500X-0.112500X0.237500X0.112500X0*%
%ADD37RoundRect,0.135000X-0.185000X0.135000X-0.185000X-0.135000X0.185000X-0.135000X0.185000X0.135000X0*%
%ADD38RoundRect,0.218750X-0.218750X-0.256250X0.218750X-0.256250X0.218750X0.256250X-0.218750X0.256250X0*%
%ADD39RoundRect,0.048750X-0.146250X0.436250X-0.146250X-0.436250X0.146250X-0.436250X0.146250X0.436250X0*%
%ADD40RoundRect,0.547500X1.057500X-0.547500X1.057500X0.547500X-1.057500X0.547500X-1.057500X-0.547500X0*%
G04 APERTURE END LIST*
D10*
%TO.C,Q203*%
X131047501Y-114515798D02*
X130717501Y-114515797D01*
X130717501Y-114265798D01*
X131047501Y-114265798D01*
X131047501Y-114515798D01*
G36*
X131047501Y-114515798D02*
G01*
X130717501Y-114515797D01*
X130717501Y-114265798D01*
X131047501Y-114265798D01*
X131047501Y-114515798D01*
G37*
X131047501Y-115165798D02*
X130717501Y-115165798D01*
X130717501Y-114915798D01*
X131047501Y-114915798D01*
X131047501Y-115165798D01*
G36*
X131047501Y-115165798D02*
G01*
X130717501Y-115165798D01*
X130717501Y-114915798D01*
X131047501Y-114915798D01*
X131047501Y-115165798D01*
G37*
X131047501Y-115815798D02*
X130717501Y-115815798D01*
X130717501Y-115565799D01*
X131047501Y-115565798D01*
X131047501Y-115815798D01*
G36*
X131047501Y-115815798D02*
G01*
X130717501Y-115815798D01*
X130717501Y-115565799D01*
X131047501Y-115565798D01*
X131047501Y-115815798D01*
G37*
X132097500Y-114390798D02*
X131537502Y-114390798D01*
X131537501Y-114140798D01*
X132097501Y-114140798D01*
X132097500Y-114390798D01*
G36*
X132097500Y-114390798D02*
G01*
X131537502Y-114390798D01*
X131537501Y-114140798D01*
X132097501Y-114140798D01*
X132097500Y-114390798D01*
G37*
X132267502Y-115850798D02*
X131367500Y-115850798D01*
X131367501Y-114800797D01*
X132267501Y-114800797D01*
X132267502Y-115850798D01*
G36*
X132267502Y-115850798D02*
G01*
X131367500Y-115850798D01*
X131367501Y-114800797D01*
X132267501Y-114800797D01*
X132267502Y-115850798D01*
G37*
X132917501Y-114515797D02*
X132587501Y-114515798D01*
X132587501Y-114265798D01*
X132917501Y-114265798D01*
X132917501Y-114515797D01*
G36*
X132917501Y-114515797D02*
G01*
X132587501Y-114515798D01*
X132587501Y-114265798D01*
X132917501Y-114265798D01*
X132917501Y-114515797D01*
G37*
X132917501Y-115165798D02*
X132587501Y-115165798D01*
X132587501Y-114915798D01*
X132917501Y-114915798D01*
X132917501Y-115165798D01*
G36*
X132917501Y-115165798D02*
G01*
X132587501Y-115165798D01*
X132587501Y-114915798D01*
X132917501Y-114915798D01*
X132917501Y-115165798D01*
G37*
X132917501Y-115565799D02*
X132917501Y-115815798D01*
X132587501Y-115815798D01*
X132587501Y-115565798D01*
X132917501Y-115565799D01*
G36*
X132917501Y-115565799D02*
G01*
X132917501Y-115815798D01*
X132587501Y-115815798D01*
X132587501Y-115565798D01*
X132917501Y-115565799D01*
G37*
%TO.C,Q204*%
X131047501Y-111696396D02*
X130717501Y-111696395D01*
X130717501Y-111446396D01*
X131047501Y-111446396D01*
X131047501Y-111696396D01*
G36*
X131047501Y-111696396D02*
G01*
X130717501Y-111696395D01*
X130717501Y-111446396D01*
X131047501Y-111446396D01*
X131047501Y-111696396D01*
G37*
X131047501Y-112346396D02*
X130717501Y-112346396D01*
X130717501Y-112096396D01*
X131047501Y-112096396D01*
X131047501Y-112346396D01*
G36*
X131047501Y-112346396D02*
G01*
X130717501Y-112346396D01*
X130717501Y-112096396D01*
X131047501Y-112096396D01*
X131047501Y-112346396D01*
G37*
X131047501Y-112996396D02*
X130717501Y-112996396D01*
X130717501Y-112746397D01*
X131047501Y-112746396D01*
X131047501Y-112996396D01*
G36*
X131047501Y-112996396D02*
G01*
X130717501Y-112996396D01*
X130717501Y-112746397D01*
X131047501Y-112746396D01*
X131047501Y-112996396D01*
G37*
X132267501Y-112461397D02*
X131367501Y-112461397D01*
X131367500Y-111411396D01*
X132267502Y-111411396D01*
X132267501Y-112461397D01*
G36*
X132267501Y-112461397D02*
G01*
X131367501Y-112461397D01*
X131367500Y-111411396D01*
X132267502Y-111411396D01*
X132267501Y-112461397D01*
G37*
X132097501Y-113121396D02*
X131537501Y-113121396D01*
X131537502Y-112871396D01*
X132097500Y-112871396D01*
X132097501Y-113121396D01*
G36*
X132097501Y-113121396D02*
G01*
X131537501Y-113121396D01*
X131537502Y-112871396D01*
X132097500Y-112871396D01*
X132097501Y-113121396D01*
G37*
X132917501Y-111696395D02*
X132587501Y-111696396D01*
X132587501Y-111446396D01*
X132917501Y-111446396D01*
X132917501Y-111696395D01*
G36*
X132917501Y-111696395D02*
G01*
X132587501Y-111696396D01*
X132587501Y-111446396D01*
X132917501Y-111446396D01*
X132917501Y-111696395D01*
G37*
X132917501Y-112346396D02*
X132587501Y-112346396D01*
X132587501Y-112096396D01*
X132917501Y-112096396D01*
X132917501Y-112346396D01*
G36*
X132917501Y-112346396D02*
G01*
X132587501Y-112346396D01*
X132587501Y-112096396D01*
X132917501Y-112096396D01*
X132917501Y-112346396D01*
G37*
X132917501Y-112746397D02*
X132917501Y-112996396D01*
X132587501Y-112996396D01*
X132587501Y-112746396D01*
X132917501Y-112746397D01*
G36*
X132917501Y-112746397D02*
G01*
X132917501Y-112996396D01*
X132587501Y-112996396D01*
X132587501Y-112746396D01*
X132917501Y-112746397D01*
G37*
%TO.C,U201*%
X153890101Y-110493950D02*
X152420101Y-110493950D01*
X152420101Y-109373950D01*
X153890101Y-109373950D01*
X153890101Y-110493950D01*
G36*
X153890101Y-110493950D02*
G01*
X152420101Y-110493950D01*
X152420101Y-109373950D01*
X153890101Y-109373950D01*
X153890101Y-110493950D01*
G37*
X153890101Y-111813950D02*
X152420101Y-111813950D01*
X152420101Y-110693950D01*
X153890101Y-110693950D01*
X153890101Y-111813950D01*
G36*
X153890101Y-111813950D02*
G01*
X152420101Y-111813950D01*
X152420101Y-110693950D01*
X153890101Y-110693950D01*
X153890101Y-111813950D01*
G37*
X153890101Y-113133950D02*
X152420101Y-113133950D01*
X152420101Y-112013950D01*
X153890101Y-112013950D01*
X153890101Y-113133950D01*
G36*
X153890101Y-113133950D02*
G01*
X152420101Y-113133950D01*
X152420101Y-112013950D01*
X153890101Y-112013950D01*
X153890101Y-113133950D01*
G37*
X153890101Y-114453950D02*
X152420101Y-114453950D01*
X152420101Y-113333950D01*
X153890101Y-113333950D01*
X153890101Y-114453950D01*
G36*
X153890101Y-114453950D02*
G01*
X152420101Y-114453950D01*
X152420101Y-113333950D01*
X153890101Y-113333950D01*
X153890101Y-114453950D01*
G37*
X155560101Y-110493950D02*
X154090101Y-110493950D01*
X154090101Y-109373950D01*
X155560101Y-109373950D01*
X155560101Y-110493950D01*
G36*
X155560101Y-110493950D02*
G01*
X154090101Y-110493950D01*
X154090101Y-109373950D01*
X155560101Y-109373950D01*
X155560101Y-110493950D01*
G37*
X155560101Y-111813950D02*
X154090101Y-111813950D01*
X154090101Y-110693950D01*
X155560101Y-110693950D01*
X155560101Y-111813950D01*
G36*
X155560101Y-111813950D02*
G01*
X154090101Y-111813950D01*
X154090101Y-110693950D01*
X155560101Y-110693950D01*
X155560101Y-111813950D01*
G37*
X155560101Y-113133950D02*
X154090101Y-113133950D01*
X154090101Y-112013950D01*
X155560101Y-112013950D01*
X155560101Y-113133950D01*
G36*
X155560101Y-113133950D02*
G01*
X154090101Y-113133950D01*
X154090101Y-112013950D01*
X155560101Y-112013950D01*
X155560101Y-113133950D01*
G37*
X155560101Y-114453950D02*
X154090101Y-114453950D01*
X154090101Y-113333950D01*
X155560101Y-113333950D01*
X155560101Y-114453950D01*
G36*
X155560101Y-114453950D02*
G01*
X154090101Y-114453950D01*
X154090101Y-113333950D01*
X155560101Y-113333950D01*
X155560101Y-114453950D01*
G37*
X157650101Y-110338950D02*
X156180101Y-110338950D01*
X156180101Y-109188950D01*
X157650101Y-109188950D01*
X157650101Y-110338950D01*
G36*
X157650101Y-110338950D02*
G01*
X156180101Y-110338950D01*
X156180101Y-109188950D01*
X157650101Y-109188950D01*
X157650101Y-110338950D01*
G37*
X157650101Y-111688950D02*
X156180101Y-111688950D01*
X156180101Y-110538950D01*
X157650101Y-110538950D01*
X157650101Y-111688950D01*
G36*
X157650101Y-111688950D02*
G01*
X156180101Y-111688950D01*
X156180101Y-110538950D01*
X157650101Y-110538950D01*
X157650101Y-111688950D01*
G37*
X157650101Y-113263950D02*
X156180101Y-113263950D01*
X156180101Y-112113950D01*
X157650101Y-112113950D01*
X157650101Y-113263950D01*
G36*
X157650101Y-113263950D02*
G01*
X156180101Y-113263950D01*
X156180101Y-112113950D01*
X157650101Y-112113950D01*
X157650101Y-113263950D01*
G37*
X157650101Y-114613950D02*
X156180101Y-114613950D01*
X156180101Y-113463950D01*
X157650101Y-113463950D01*
X157650101Y-114613950D01*
G36*
X157650101Y-114613950D02*
G01*
X156180101Y-114613950D01*
X156180101Y-113463950D01*
X157650101Y-113463950D01*
X157650101Y-114613950D01*
G37*
X158698101Y-109214950D02*
X158700101Y-109214950D01*
X158703101Y-109215950D01*
X158705101Y-109215950D01*
X158708101Y-109216950D01*
X158710101Y-109217950D01*
X158713101Y-109218950D01*
X158715101Y-109220950D01*
X158717101Y-109221950D01*
X158719101Y-109223950D01*
X158721101Y-109224950D01*
X158723101Y-109226950D01*
X158725101Y-109228950D01*
X158727101Y-109230950D01*
X158729101Y-109232950D01*
X158730101Y-109234950D01*
X158732101Y-109236950D01*
X158733101Y-109238950D01*
X158735101Y-109240950D01*
X158736101Y-109243950D01*
X158737101Y-109245950D01*
X158738101Y-109248950D01*
X158738101Y-109250950D01*
X158739101Y-109253950D01*
X158739101Y-109255950D01*
X158740101Y-109258950D01*
X158740101Y-109260950D01*
X158740101Y-109263950D01*
X158740101Y-109363950D01*
X158740101Y-109366950D01*
X158740101Y-109368950D01*
X158739101Y-109371950D01*
X158739101Y-109373950D01*
X158738101Y-109376950D01*
X158738101Y-109378950D01*
X158737101Y-109381950D01*
X158736101Y-109383950D01*
X158735101Y-109386950D01*
X158733101Y-109388950D01*
X158732101Y-109390950D01*
X158730101Y-109392950D01*
X158729101Y-109394950D01*
X158727101Y-109396950D01*
X158725101Y-109398950D01*
X158723101Y-109400950D01*
X158721101Y-109402950D01*
X158719101Y-109403950D01*
X158717101Y-109405950D01*
X158715101Y-109406950D01*
X158713101Y-109408950D01*
X158710101Y-109409950D01*
X158708101Y-109410950D01*
X158705101Y-109411950D01*
X158703101Y-109411950D01*
X158700101Y-109412950D01*
X158698101Y-109412950D01*
X158695101Y-109413950D01*
X158693101Y-109413950D01*
X158690101Y-109413950D01*
X158290101Y-109413950D01*
X158287101Y-109413950D01*
X158285101Y-109413950D01*
X158282101Y-109414950D01*
X158280101Y-109414950D01*
X158277101Y-109415950D01*
X158275101Y-109415950D01*
X158272101Y-109416950D01*
X158270101Y-109417950D01*
X158267101Y-109418950D01*
X158265101Y-109420950D01*
X158263101Y-109421950D01*
X158261101Y-109423950D01*
X158259101Y-109424950D01*
X158257101Y-109426950D01*
X158255101Y-109428950D01*
X158253101Y-109430950D01*
X158251101Y-109432950D01*
X158250101Y-109434950D01*
X158248101Y-109436950D01*
X158247101Y-109438950D01*
X158245101Y-109440950D01*
X158244101Y-109443950D01*
X158243101Y-109445950D01*
X158242101Y-109448950D01*
X158242101Y-109450950D01*
X158241101Y-109453950D01*
X158241101Y-109455950D01*
X158240101Y-109458950D01*
X158240101Y-109460950D01*
X158240101Y-109463950D01*
X158240101Y-109563950D01*
X158240101Y-109566950D01*
X158240101Y-109568950D01*
X158241101Y-109571950D01*
X158241101Y-109573950D01*
X158242101Y-109576950D01*
X158242101Y-109578950D01*
X158243101Y-109581950D01*
X158244101Y-109583950D01*
X158245101Y-109586950D01*
X158247101Y-109588950D01*
X158248101Y-109590950D01*
X158250101Y-109592950D01*
X158251101Y-109594950D01*
X158253101Y-109596950D01*
X158255101Y-109598950D01*
X158257101Y-109600950D01*
X158259101Y-109602950D01*
X158261101Y-109603950D01*
X158263101Y-109605950D01*
X158265101Y-109606950D01*
X158267101Y-109608950D01*
X158270101Y-109609950D01*
X158272101Y-109610950D01*
X158275101Y-109611950D01*
X158277101Y-109611950D01*
X158280101Y-109612950D01*
X158282101Y-109612950D01*
X158285101Y-109613950D01*
X158287101Y-109613950D01*
X158290101Y-109613950D01*
X158690101Y-109613950D01*
X158693101Y-109613950D01*
X158695101Y-109613950D01*
X158698101Y-109614950D01*
X158700101Y-109614950D01*
X158703101Y-109615950D01*
X158705101Y-109615950D01*
X158708101Y-109616950D01*
X158710101Y-109617950D01*
X158713101Y-109618950D01*
X158715101Y-109620950D01*
X158717101Y-109621950D01*
X158719101Y-109623950D01*
X158721101Y-109624950D01*
X158723101Y-109626950D01*
X158725101Y-109628950D01*
X158727101Y-109630950D01*
X158729101Y-109632950D01*
X158730101Y-109634950D01*
X158732101Y-109636950D01*
X158733101Y-109638950D01*
X158735101Y-109640950D01*
X158736101Y-109643950D01*
X158737101Y-109645950D01*
X158738101Y-109648950D01*
X158738101Y-109650950D01*
X158739101Y-109653950D01*
X158739101Y-109655950D01*
X158740101Y-109658950D01*
X158740101Y-109660950D01*
X158740101Y-109663950D01*
X158740101Y-109763950D01*
X158740101Y-109766950D01*
X158740101Y-109768950D01*
X158739101Y-109771950D01*
X158739101Y-109773950D01*
X158738101Y-109776950D01*
X158738101Y-109778950D01*
X158737101Y-109781950D01*
X158736101Y-109783950D01*
X158735101Y-109786950D01*
X158733101Y-109788950D01*
X158732101Y-109790950D01*
X158730101Y-109792950D01*
X158729101Y-109794950D01*
X158727101Y-109796950D01*
X158725101Y-109798950D01*
X158723101Y-109800950D01*
X158721101Y-109802950D01*
X158719101Y-109803950D01*
X158717101Y-109805950D01*
X158715101Y-109806950D01*
X158713101Y-109808950D01*
X158710101Y-109809950D01*
X158708101Y-109810950D01*
X158705101Y-109811950D01*
X158703101Y-109811950D01*
X158700101Y-109812950D01*
X158698101Y-109812950D01*
X158695101Y-109813950D01*
X158693101Y-109813950D01*
X158690101Y-109813950D01*
X158090101Y-109813950D01*
X158087101Y-109813950D01*
X158085101Y-109813950D01*
X158082101Y-109812950D01*
X158080101Y-109812950D01*
X158077101Y-109811950D01*
X158075101Y-109811950D01*
X158072101Y-109810950D01*
X158070101Y-109809950D01*
X158067101Y-109808950D01*
X158065101Y-109806950D01*
X158063101Y-109805950D01*
X158061101Y-109803950D01*
X158059101Y-109802950D01*
X158057101Y-109800950D01*
X158055101Y-109798950D01*
X158053101Y-109796950D01*
X158051101Y-109794950D01*
X158050101Y-109792950D01*
X158048101Y-109790950D01*
X158047101Y-109788950D01*
X158045101Y-109786950D01*
X158044101Y-109783950D01*
X158043101Y-109781950D01*
X158042101Y-109778950D01*
X158042101Y-109776950D01*
X158041101Y-109773950D01*
X158041101Y-109771950D01*
X158040101Y-109768950D01*
X158040101Y-109766950D01*
X158040101Y-109763950D01*
X158040101Y-109263950D01*
X158040101Y-109260950D01*
X158040101Y-109258950D01*
X158041101Y-109255950D01*
X158041101Y-109253950D01*
X158042101Y-109250950D01*
X158042101Y-109248950D01*
X158043101Y-109245950D01*
X158044101Y-109243950D01*
X158045101Y-109240950D01*
X158047101Y-109238950D01*
X158048101Y-109236950D01*
X158050101Y-109234950D01*
X158051101Y-109232950D01*
X158053101Y-109230950D01*
X158055101Y-109228950D01*
X158057101Y-109226950D01*
X158059101Y-109224950D01*
X158061101Y-109223950D01*
X158063101Y-109221950D01*
X158065101Y-109220950D01*
X158067101Y-109218950D01*
X158070101Y-109217950D01*
X158072101Y-109216950D01*
X158075101Y-109215950D01*
X158077101Y-109215950D01*
X158080101Y-109214950D01*
X158082101Y-109214950D01*
X158085101Y-109213950D01*
X158087101Y-109213950D01*
X158090101Y-109213950D01*
X158690101Y-109213950D01*
X158693101Y-109213950D01*
X158695101Y-109213950D01*
X158698101Y-109214950D01*
G36*
X158698101Y-109214950D02*
G01*
X158700101Y-109214950D01*
X158703101Y-109215950D01*
X158705101Y-109215950D01*
X158708101Y-109216950D01*
X158710101Y-109217950D01*
X158713101Y-109218950D01*
X158715101Y-109220950D01*
X158717101Y-109221950D01*
X158719101Y-109223950D01*
X158721101Y-109224950D01*
X158723101Y-109226950D01*
X158725101Y-109228950D01*
X158727101Y-109230950D01*
X158729101Y-109232950D01*
X158730101Y-109234950D01*
X158732101Y-109236950D01*
X158733101Y-109238950D01*
X158735101Y-109240950D01*
X158736101Y-109243950D01*
X158737101Y-109245950D01*
X158738101Y-109248950D01*
X158738101Y-109250950D01*
X158739101Y-109253950D01*
X158739101Y-109255950D01*
X158740101Y-109258950D01*
X158740101Y-109260950D01*
X158740101Y-109263950D01*
X158740101Y-109363950D01*
X158740101Y-109366950D01*
X158740101Y-109368950D01*
X158739101Y-109371950D01*
X158739101Y-109373950D01*
X158738101Y-109376950D01*
X158738101Y-109378950D01*
X158737101Y-109381950D01*
X158736101Y-109383950D01*
X158735101Y-109386950D01*
X158733101Y-109388950D01*
X158732101Y-109390950D01*
X158730101Y-109392950D01*
X158729101Y-109394950D01*
X158727101Y-109396950D01*
X158725101Y-109398950D01*
X158723101Y-109400950D01*
X158721101Y-109402950D01*
X158719101Y-109403950D01*
X158717101Y-109405950D01*
X158715101Y-109406950D01*
X158713101Y-109408950D01*
X158710101Y-109409950D01*
X158708101Y-109410950D01*
X158705101Y-109411950D01*
X158703101Y-109411950D01*
X158700101Y-109412950D01*
X158698101Y-109412950D01*
X158695101Y-109413950D01*
X158693101Y-109413950D01*
X158690101Y-109413950D01*
X158290101Y-109413950D01*
X158287101Y-109413950D01*
X158285101Y-109413950D01*
X158282101Y-109414950D01*
X158280101Y-109414950D01*
X158277101Y-109415950D01*
X158275101Y-109415950D01*
X158272101Y-109416950D01*
X158270101Y-109417950D01*
X158267101Y-109418950D01*
X158265101Y-109420950D01*
X158263101Y-109421950D01*
X158261101Y-109423950D01*
X158259101Y-109424950D01*
X158257101Y-109426950D01*
X158255101Y-109428950D01*
X158253101Y-109430950D01*
X158251101Y-109432950D01*
X158250101Y-109434950D01*
X158248101Y-109436950D01*
X158247101Y-109438950D01*
X158245101Y-109440950D01*
X158244101Y-109443950D01*
X158243101Y-109445950D01*
X158242101Y-109448950D01*
X158242101Y-109450950D01*
X158241101Y-109453950D01*
X158241101Y-109455950D01*
X158240101Y-109458950D01*
X158240101Y-109460950D01*
X158240101Y-109463950D01*
X158240101Y-109563950D01*
X158240101Y-109566950D01*
X158240101Y-109568950D01*
X158241101Y-109571950D01*
X158241101Y-109573950D01*
X158242101Y-109576950D01*
X158242101Y-109578950D01*
X158243101Y-109581950D01*
X158244101Y-109583950D01*
X158245101Y-109586950D01*
X158247101Y-109588950D01*
X158248101Y-109590950D01*
X158250101Y-109592950D01*
X158251101Y-109594950D01*
X158253101Y-109596950D01*
X158255101Y-109598950D01*
X158257101Y-109600950D01*
X158259101Y-109602950D01*
X158261101Y-109603950D01*
X158263101Y-109605950D01*
X158265101Y-109606950D01*
X158267101Y-109608950D01*
X158270101Y-109609950D01*
X158272101Y-109610950D01*
X158275101Y-109611950D01*
X158277101Y-109611950D01*
X158280101Y-109612950D01*
X158282101Y-109612950D01*
X158285101Y-109613950D01*
X158287101Y-109613950D01*
X158290101Y-109613950D01*
X158690101Y-109613950D01*
X158693101Y-109613950D01*
X158695101Y-109613950D01*
X158698101Y-109614950D01*
X158700101Y-109614950D01*
X158703101Y-109615950D01*
X158705101Y-109615950D01*
X158708101Y-109616950D01*
X158710101Y-109617950D01*
X158713101Y-109618950D01*
X158715101Y-109620950D01*
X158717101Y-109621950D01*
X158719101Y-109623950D01*
X158721101Y-109624950D01*
X158723101Y-109626950D01*
X158725101Y-109628950D01*
X158727101Y-109630950D01*
X158729101Y-109632950D01*
X158730101Y-109634950D01*
X158732101Y-109636950D01*
X158733101Y-109638950D01*
X158735101Y-109640950D01*
X158736101Y-109643950D01*
X158737101Y-109645950D01*
X158738101Y-109648950D01*
X158738101Y-109650950D01*
X158739101Y-109653950D01*
X158739101Y-109655950D01*
X158740101Y-109658950D01*
X158740101Y-109660950D01*
X158740101Y-109663950D01*
X158740101Y-109763950D01*
X158740101Y-109766950D01*
X158740101Y-109768950D01*
X158739101Y-109771950D01*
X158739101Y-109773950D01*
X158738101Y-109776950D01*
X158738101Y-109778950D01*
X158737101Y-109781950D01*
X158736101Y-109783950D01*
X158735101Y-109786950D01*
X158733101Y-109788950D01*
X158732101Y-109790950D01*
X158730101Y-109792950D01*
X158729101Y-109794950D01*
X158727101Y-109796950D01*
X158725101Y-109798950D01*
X158723101Y-109800950D01*
X158721101Y-109802950D01*
X158719101Y-109803950D01*
X158717101Y-109805950D01*
X158715101Y-109806950D01*
X158713101Y-109808950D01*
X158710101Y-109809950D01*
X158708101Y-109810950D01*
X158705101Y-109811950D01*
X158703101Y-109811950D01*
X158700101Y-109812950D01*
X158698101Y-109812950D01*
X158695101Y-109813950D01*
X158693101Y-109813950D01*
X158690101Y-109813950D01*
X158090101Y-109813950D01*
X158087101Y-109813950D01*
X158085101Y-109813950D01*
X158082101Y-109812950D01*
X158080101Y-109812950D01*
X158077101Y-109811950D01*
X158075101Y-109811950D01*
X158072101Y-109810950D01*
X158070101Y-109809950D01*
X158067101Y-109808950D01*
X158065101Y-109806950D01*
X158063101Y-109805950D01*
X158061101Y-109803950D01*
X158059101Y-109802950D01*
X158057101Y-109800950D01*
X158055101Y-109798950D01*
X158053101Y-109796950D01*
X158051101Y-109794950D01*
X158050101Y-109792950D01*
X158048101Y-109790950D01*
X158047101Y-109788950D01*
X158045101Y-109786950D01*
X158044101Y-109783950D01*
X158043101Y-109781950D01*
X158042101Y-109778950D01*
X158042101Y-109776950D01*
X158041101Y-109773950D01*
X158041101Y-109771950D01*
X158040101Y-109768950D01*
X158040101Y-109766950D01*
X158040101Y-109763950D01*
X158040101Y-109263950D01*
X158040101Y-109260950D01*
X158040101Y-109258950D01*
X158041101Y-109255950D01*
X158041101Y-109253950D01*
X158042101Y-109250950D01*
X158042101Y-109248950D01*
X158043101Y-109245950D01*
X158044101Y-109243950D01*
X158045101Y-109240950D01*
X158047101Y-109238950D01*
X158048101Y-109236950D01*
X158050101Y-109234950D01*
X158051101Y-109232950D01*
X158053101Y-109230950D01*
X158055101Y-109228950D01*
X158057101Y-109226950D01*
X158059101Y-109224950D01*
X158061101Y-109223950D01*
X158063101Y-109221950D01*
X158065101Y-109220950D01*
X158067101Y-109218950D01*
X158070101Y-109217950D01*
X158072101Y-109216950D01*
X158075101Y-109215950D01*
X158077101Y-109215950D01*
X158080101Y-109214950D01*
X158082101Y-109214950D01*
X158085101Y-109213950D01*
X158087101Y-109213950D01*
X158090101Y-109213950D01*
X158690101Y-109213950D01*
X158693101Y-109213950D01*
X158695101Y-109213950D01*
X158698101Y-109214950D01*
G37*
X158698101Y-110014950D02*
X158700101Y-110014950D01*
X158703101Y-110015950D01*
X158705101Y-110015950D01*
X158708101Y-110016950D01*
X158710101Y-110017950D01*
X158713101Y-110018950D01*
X158715101Y-110020950D01*
X158717101Y-110021950D01*
X158719101Y-110023950D01*
X158721101Y-110024950D01*
X158723101Y-110026950D01*
X158725101Y-110028950D01*
X158727101Y-110030950D01*
X158729101Y-110032950D01*
X158730101Y-110034950D01*
X158732101Y-110036950D01*
X158733101Y-110038950D01*
X158735101Y-110040950D01*
X158736101Y-110043950D01*
X158737101Y-110045950D01*
X158738101Y-110048950D01*
X158738101Y-110050950D01*
X158739101Y-110053950D01*
X158739101Y-110055950D01*
X158740101Y-110058950D01*
X158740101Y-110060950D01*
X158740101Y-110063950D01*
X158740101Y-110163950D01*
X158740101Y-110166950D01*
X158740101Y-110168950D01*
X158739101Y-110171950D01*
X158739101Y-110173950D01*
X158738101Y-110176950D01*
X158738101Y-110178950D01*
X158737101Y-110181950D01*
X158736101Y-110183950D01*
X158735101Y-110186950D01*
X158733101Y-110188950D01*
X158732101Y-110190950D01*
X158730101Y-110192950D01*
X158729101Y-110194950D01*
X158727101Y-110196950D01*
X158725101Y-110198950D01*
X158723101Y-110200950D01*
X158721101Y-110202950D01*
X158719101Y-110203950D01*
X158717101Y-110205950D01*
X158715101Y-110206950D01*
X158713101Y-110208950D01*
X158710101Y-110209950D01*
X158708101Y-110210950D01*
X158705101Y-110211950D01*
X158703101Y-110211950D01*
X158700101Y-110212950D01*
X158698101Y-110212950D01*
X158695101Y-110213950D01*
X158693101Y-110213950D01*
X158690101Y-110213950D01*
X158290101Y-110213950D01*
X158287101Y-110213950D01*
X158285101Y-110213950D01*
X158282101Y-110214950D01*
X158280101Y-110214950D01*
X158277101Y-110215950D01*
X158275101Y-110215950D01*
X158272101Y-110216950D01*
X158270101Y-110217950D01*
X158267101Y-110218950D01*
X158265101Y-110220950D01*
X158263101Y-110221950D01*
X158261101Y-110223950D01*
X158259101Y-110224950D01*
X158257101Y-110226950D01*
X158255101Y-110228950D01*
X158253101Y-110230950D01*
X158251101Y-110232950D01*
X158250101Y-110234950D01*
X158248101Y-110236950D01*
X158247101Y-110238950D01*
X158245101Y-110240950D01*
X158244101Y-110243950D01*
X158243101Y-110245950D01*
X158242101Y-110248950D01*
X158242101Y-110250950D01*
X158241101Y-110253950D01*
X158241101Y-110255950D01*
X158240101Y-110258950D01*
X158240101Y-110260950D01*
X158240101Y-110263950D01*
X158240101Y-110363950D01*
X158240101Y-110366950D01*
X158240101Y-110368950D01*
X158241101Y-110371950D01*
X158241101Y-110373950D01*
X158242101Y-110376950D01*
X158242101Y-110378950D01*
X158243101Y-110381950D01*
X158244101Y-110383950D01*
X158245101Y-110386950D01*
X158247101Y-110388950D01*
X158248101Y-110390950D01*
X158250101Y-110392950D01*
X158251101Y-110394950D01*
X158253101Y-110396950D01*
X158255101Y-110398950D01*
X158257101Y-110400950D01*
X158259101Y-110402950D01*
X158261101Y-110403950D01*
X158263101Y-110405950D01*
X158265101Y-110406950D01*
X158267101Y-110408950D01*
X158270101Y-110409950D01*
X158272101Y-110410950D01*
X158275101Y-110411950D01*
X158277101Y-110411950D01*
X158280101Y-110412950D01*
X158282101Y-110412950D01*
X158285101Y-110413950D01*
X158287101Y-110413950D01*
X158290101Y-110413950D01*
X158690101Y-110413950D01*
X158693101Y-110413950D01*
X158695101Y-110413950D01*
X158698101Y-110414950D01*
X158700101Y-110414950D01*
X158703101Y-110415950D01*
X158705101Y-110415950D01*
X158708101Y-110416950D01*
X158710101Y-110417950D01*
X158713101Y-110418950D01*
X158715101Y-110420950D01*
X158717101Y-110421950D01*
X158719101Y-110423950D01*
X158721101Y-110424950D01*
X158723101Y-110426950D01*
X158725101Y-110428950D01*
X158727101Y-110430950D01*
X158729101Y-110432950D01*
X158730101Y-110434950D01*
X158732101Y-110436950D01*
X158733101Y-110438950D01*
X158735101Y-110440950D01*
X158736101Y-110443950D01*
X158737101Y-110445950D01*
X158738101Y-110448950D01*
X158738101Y-110450950D01*
X158739101Y-110453950D01*
X158739101Y-110455950D01*
X158740101Y-110458950D01*
X158740101Y-110460950D01*
X158740101Y-110463950D01*
X158740101Y-110563950D01*
X158740101Y-110566950D01*
X158740101Y-110568950D01*
X158739101Y-110571950D01*
X158739101Y-110573950D01*
X158738101Y-110576950D01*
X158738101Y-110578950D01*
X158737101Y-110581950D01*
X158736101Y-110583950D01*
X158735101Y-110586950D01*
X158733101Y-110588950D01*
X158732101Y-110590950D01*
X158730101Y-110592950D01*
X158729101Y-110594950D01*
X158727101Y-110596950D01*
X158725101Y-110598950D01*
X158723101Y-110600950D01*
X158721101Y-110602950D01*
X158719101Y-110603950D01*
X158717101Y-110605950D01*
X158715101Y-110606950D01*
X158713101Y-110608950D01*
X158710101Y-110609950D01*
X158708101Y-110610950D01*
X158705101Y-110611950D01*
X158703101Y-110611950D01*
X158700101Y-110612950D01*
X158698101Y-110612950D01*
X158695101Y-110613950D01*
X158693101Y-110613950D01*
X158690101Y-110613950D01*
X158090101Y-110613950D01*
X158087101Y-110613950D01*
X158085101Y-110613950D01*
X158082101Y-110612950D01*
X158080101Y-110612950D01*
X158077101Y-110611950D01*
X158075101Y-110611950D01*
X158072101Y-110610950D01*
X158070101Y-110609950D01*
X158067101Y-110608950D01*
X158065101Y-110606950D01*
X158063101Y-110605950D01*
X158061101Y-110603950D01*
X158059101Y-110602950D01*
X158057101Y-110600950D01*
X158055101Y-110598950D01*
X158053101Y-110596950D01*
X158051101Y-110594950D01*
X158050101Y-110592950D01*
X158048101Y-110590950D01*
X158047101Y-110588950D01*
X158045101Y-110586950D01*
X158044101Y-110583950D01*
X158043101Y-110581950D01*
X158042101Y-110578950D01*
X158042101Y-110576950D01*
X158041101Y-110573950D01*
X158041101Y-110571950D01*
X158040101Y-110568950D01*
X158040101Y-110566950D01*
X158040101Y-110563950D01*
X158040101Y-110063950D01*
X158040101Y-110060950D01*
X158040101Y-110058950D01*
X158041101Y-110055950D01*
X158041101Y-110053950D01*
X158042101Y-110050950D01*
X158042101Y-110048950D01*
X158043101Y-110045950D01*
X158044101Y-110043950D01*
X158045101Y-110040950D01*
X158047101Y-110038950D01*
X158048101Y-110036950D01*
X158050101Y-110034950D01*
X158051101Y-110032950D01*
X158053101Y-110030950D01*
X158055101Y-110028950D01*
X158057101Y-110026950D01*
X158059101Y-110024950D01*
X158061101Y-110023950D01*
X158063101Y-110021950D01*
X158065101Y-110020950D01*
X158067101Y-110018950D01*
X158070101Y-110017950D01*
X158072101Y-110016950D01*
X158075101Y-110015950D01*
X158077101Y-110015950D01*
X158080101Y-110014950D01*
X158082101Y-110014950D01*
X158085101Y-110013950D01*
X158087101Y-110013950D01*
X158090101Y-110013950D01*
X158690101Y-110013950D01*
X158693101Y-110013950D01*
X158695101Y-110013950D01*
X158698101Y-110014950D01*
G36*
X158698101Y-110014950D02*
G01*
X158700101Y-110014950D01*
X158703101Y-110015950D01*
X158705101Y-110015950D01*
X158708101Y-110016950D01*
X158710101Y-110017950D01*
X158713101Y-110018950D01*
X158715101Y-110020950D01*
X158717101Y-110021950D01*
X158719101Y-110023950D01*
X158721101Y-110024950D01*
X158723101Y-110026950D01*
X158725101Y-110028950D01*
X158727101Y-110030950D01*
X158729101Y-110032950D01*
X158730101Y-110034950D01*
X158732101Y-110036950D01*
X158733101Y-110038950D01*
X158735101Y-110040950D01*
X158736101Y-110043950D01*
X158737101Y-110045950D01*
X158738101Y-110048950D01*
X158738101Y-110050950D01*
X158739101Y-110053950D01*
X158739101Y-110055950D01*
X158740101Y-110058950D01*
X158740101Y-110060950D01*
X158740101Y-110063950D01*
X158740101Y-110163950D01*
X158740101Y-110166950D01*
X158740101Y-110168950D01*
X158739101Y-110171950D01*
X158739101Y-110173950D01*
X158738101Y-110176950D01*
X158738101Y-110178950D01*
X158737101Y-110181950D01*
X158736101Y-110183950D01*
X158735101Y-110186950D01*
X158733101Y-110188950D01*
X158732101Y-110190950D01*
X158730101Y-110192950D01*
X158729101Y-110194950D01*
X158727101Y-110196950D01*
X158725101Y-110198950D01*
X158723101Y-110200950D01*
X158721101Y-110202950D01*
X158719101Y-110203950D01*
X158717101Y-110205950D01*
X158715101Y-110206950D01*
X158713101Y-110208950D01*
X158710101Y-110209950D01*
X158708101Y-110210950D01*
X158705101Y-110211950D01*
X158703101Y-110211950D01*
X158700101Y-110212950D01*
X158698101Y-110212950D01*
X158695101Y-110213950D01*
X158693101Y-110213950D01*
X158690101Y-110213950D01*
X158290101Y-110213950D01*
X158287101Y-110213950D01*
X158285101Y-110213950D01*
X158282101Y-110214950D01*
X158280101Y-110214950D01*
X158277101Y-110215950D01*
X158275101Y-110215950D01*
X158272101Y-110216950D01*
X158270101Y-110217950D01*
X158267101Y-110218950D01*
X158265101Y-110220950D01*
X158263101Y-110221950D01*
X158261101Y-110223950D01*
X158259101Y-110224950D01*
X158257101Y-110226950D01*
X158255101Y-110228950D01*
X158253101Y-110230950D01*
X158251101Y-110232950D01*
X158250101Y-110234950D01*
X158248101Y-110236950D01*
X158247101Y-110238950D01*
X158245101Y-110240950D01*
X158244101Y-110243950D01*
X158243101Y-110245950D01*
X158242101Y-110248950D01*
X158242101Y-110250950D01*
X158241101Y-110253950D01*
X158241101Y-110255950D01*
X158240101Y-110258950D01*
X158240101Y-110260950D01*
X158240101Y-110263950D01*
X158240101Y-110363950D01*
X158240101Y-110366950D01*
X158240101Y-110368950D01*
X158241101Y-110371950D01*
X158241101Y-110373950D01*
X158242101Y-110376950D01*
X158242101Y-110378950D01*
X158243101Y-110381950D01*
X158244101Y-110383950D01*
X158245101Y-110386950D01*
X158247101Y-110388950D01*
X158248101Y-110390950D01*
X158250101Y-110392950D01*
X158251101Y-110394950D01*
X158253101Y-110396950D01*
X158255101Y-110398950D01*
X158257101Y-110400950D01*
X158259101Y-110402950D01*
X158261101Y-110403950D01*
X158263101Y-110405950D01*
X158265101Y-110406950D01*
X158267101Y-110408950D01*
X158270101Y-110409950D01*
X158272101Y-110410950D01*
X158275101Y-110411950D01*
X158277101Y-110411950D01*
X158280101Y-110412950D01*
X158282101Y-110412950D01*
X158285101Y-110413950D01*
X158287101Y-110413950D01*
X158290101Y-110413950D01*
X158690101Y-110413950D01*
X158693101Y-110413950D01*
X158695101Y-110413950D01*
X158698101Y-110414950D01*
X158700101Y-110414950D01*
X158703101Y-110415950D01*
X158705101Y-110415950D01*
X158708101Y-110416950D01*
X158710101Y-110417950D01*
X158713101Y-110418950D01*
X158715101Y-110420950D01*
X158717101Y-110421950D01*
X158719101Y-110423950D01*
X158721101Y-110424950D01*
X158723101Y-110426950D01*
X158725101Y-110428950D01*
X158727101Y-110430950D01*
X158729101Y-110432950D01*
X158730101Y-110434950D01*
X158732101Y-110436950D01*
X158733101Y-110438950D01*
X158735101Y-110440950D01*
X158736101Y-110443950D01*
X158737101Y-110445950D01*
X158738101Y-110448950D01*
X158738101Y-110450950D01*
X158739101Y-110453950D01*
X158739101Y-110455950D01*
X158740101Y-110458950D01*
X158740101Y-110460950D01*
X158740101Y-110463950D01*
X158740101Y-110563950D01*
X158740101Y-110566950D01*
X158740101Y-110568950D01*
X158739101Y-110571950D01*
X158739101Y-110573950D01*
X158738101Y-110576950D01*
X158738101Y-110578950D01*
X158737101Y-110581950D01*
X158736101Y-110583950D01*
X158735101Y-110586950D01*
X158733101Y-110588950D01*
X158732101Y-110590950D01*
X158730101Y-110592950D01*
X158729101Y-110594950D01*
X158727101Y-110596950D01*
X158725101Y-110598950D01*
X158723101Y-110600950D01*
X158721101Y-110602950D01*
X158719101Y-110603950D01*
X158717101Y-110605950D01*
X158715101Y-110606950D01*
X158713101Y-110608950D01*
X158710101Y-110609950D01*
X158708101Y-110610950D01*
X158705101Y-110611950D01*
X158703101Y-110611950D01*
X158700101Y-110612950D01*
X158698101Y-110612950D01*
X158695101Y-110613950D01*
X158693101Y-110613950D01*
X158690101Y-110613950D01*
X158090101Y-110613950D01*
X158087101Y-110613950D01*
X158085101Y-110613950D01*
X158082101Y-110612950D01*
X158080101Y-110612950D01*
X158077101Y-110611950D01*
X158075101Y-110611950D01*
X158072101Y-110610950D01*
X158070101Y-110609950D01*
X158067101Y-110608950D01*
X158065101Y-110606950D01*
X158063101Y-110605950D01*
X158061101Y-110603950D01*
X158059101Y-110602950D01*
X158057101Y-110600950D01*
X158055101Y-110598950D01*
X158053101Y-110596950D01*
X158051101Y-110594950D01*
X158050101Y-110592950D01*
X158048101Y-110590950D01*
X158047101Y-110588950D01*
X158045101Y-110586950D01*
X158044101Y-110583950D01*
X158043101Y-110581950D01*
X158042101Y-110578950D01*
X158042101Y-110576950D01*
X158041101Y-110573950D01*
X158041101Y-110571950D01*
X158040101Y-110568950D01*
X158040101Y-110566950D01*
X158040101Y-110563950D01*
X158040101Y-110063950D01*
X158040101Y-110060950D01*
X158040101Y-110058950D01*
X158041101Y-110055950D01*
X158041101Y-110053950D01*
X158042101Y-110050950D01*
X158042101Y-110048950D01*
X158043101Y-110045950D01*
X158044101Y-110043950D01*
X158045101Y-110040950D01*
X158047101Y-110038950D01*
X158048101Y-110036950D01*
X158050101Y-110034950D01*
X158051101Y-110032950D01*
X158053101Y-110030950D01*
X158055101Y-110028950D01*
X158057101Y-110026950D01*
X158059101Y-110024950D01*
X158061101Y-110023950D01*
X158063101Y-110021950D01*
X158065101Y-110020950D01*
X158067101Y-110018950D01*
X158070101Y-110017950D01*
X158072101Y-110016950D01*
X158075101Y-110015950D01*
X158077101Y-110015950D01*
X158080101Y-110014950D01*
X158082101Y-110014950D01*
X158085101Y-110013950D01*
X158087101Y-110013950D01*
X158090101Y-110013950D01*
X158690101Y-110013950D01*
X158693101Y-110013950D01*
X158695101Y-110013950D01*
X158698101Y-110014950D01*
G37*
X158698101Y-113214950D02*
X158700101Y-113214950D01*
X158703101Y-113215950D01*
X158705101Y-113215950D01*
X158708101Y-113216950D01*
X158710101Y-113217950D01*
X158713101Y-113218950D01*
X158715101Y-113220950D01*
X158717101Y-113221950D01*
X158719101Y-113223950D01*
X158721101Y-113224950D01*
X158723101Y-113226950D01*
X158725101Y-113228950D01*
X158727101Y-113230950D01*
X158729101Y-113232950D01*
X158730101Y-113234950D01*
X158732101Y-113236950D01*
X158733101Y-113238950D01*
X158735101Y-113240950D01*
X158736101Y-113243950D01*
X158737101Y-113245950D01*
X158738101Y-113248950D01*
X158738101Y-113250950D01*
X158739101Y-113253950D01*
X158739101Y-113255950D01*
X158740101Y-113258950D01*
X158740101Y-113260950D01*
X158740101Y-113263950D01*
X158740101Y-113363950D01*
X158740101Y-113366950D01*
X158740101Y-113368950D01*
X158739101Y-113371950D01*
X158739101Y-113373950D01*
X158738101Y-113376950D01*
X158738101Y-113378950D01*
X158737101Y-113381950D01*
X158736101Y-113383950D01*
X158735101Y-113386950D01*
X158733101Y-113388950D01*
X158732101Y-113390950D01*
X158730101Y-113392950D01*
X158729101Y-113394950D01*
X158727101Y-113396950D01*
X158725101Y-113398950D01*
X158723101Y-113400950D01*
X158721101Y-113402950D01*
X158719101Y-113403950D01*
X158717101Y-113405950D01*
X158715101Y-113406950D01*
X158713101Y-113408950D01*
X158710101Y-113409950D01*
X158708101Y-113410950D01*
X158705101Y-113411950D01*
X158703101Y-113411950D01*
X158700101Y-113412950D01*
X158698101Y-113412950D01*
X158695101Y-113413950D01*
X158693101Y-113413950D01*
X158690101Y-113413950D01*
X158290101Y-113413950D01*
X158287101Y-113413950D01*
X158285101Y-113413950D01*
X158282101Y-113414950D01*
X158280101Y-113414950D01*
X158277101Y-113415950D01*
X158275101Y-113415950D01*
X158272101Y-113416950D01*
X158270101Y-113417950D01*
X158267101Y-113418950D01*
X158265101Y-113420950D01*
X158263101Y-113421950D01*
X158261101Y-113423950D01*
X158259101Y-113424950D01*
X158257101Y-113426950D01*
X158255101Y-113428950D01*
X158253101Y-113430950D01*
X158251101Y-113432950D01*
X158250101Y-113434950D01*
X158248101Y-113436950D01*
X158247101Y-113438950D01*
X158245101Y-113440950D01*
X158244101Y-113443950D01*
X158243101Y-113445950D01*
X158242101Y-113448950D01*
X158242101Y-113450950D01*
X158241101Y-113453950D01*
X158241101Y-113455950D01*
X158240101Y-113458950D01*
X158240101Y-113460950D01*
X158240101Y-113463950D01*
X158240101Y-113563950D01*
X158240101Y-113566950D01*
X158240101Y-113568950D01*
X158241101Y-113571950D01*
X158241101Y-113573950D01*
X158242101Y-113576950D01*
X158242101Y-113578950D01*
X158243101Y-113581950D01*
X158244101Y-113583950D01*
X158245101Y-113586950D01*
X158247101Y-113588950D01*
X158248101Y-113590950D01*
X158250101Y-113592950D01*
X158251101Y-113594950D01*
X158253101Y-113596950D01*
X158255101Y-113598950D01*
X158257101Y-113600950D01*
X158259101Y-113602950D01*
X158261101Y-113603950D01*
X158263101Y-113605950D01*
X158265101Y-113606950D01*
X158267101Y-113608950D01*
X158270101Y-113609950D01*
X158272101Y-113610950D01*
X158275101Y-113611950D01*
X158277101Y-113611950D01*
X158280101Y-113612950D01*
X158282101Y-113612950D01*
X158285101Y-113613950D01*
X158287101Y-113613950D01*
X158290101Y-113613950D01*
X158690101Y-113613950D01*
X158693101Y-113613950D01*
X158695101Y-113613950D01*
X158698101Y-113614950D01*
X158700101Y-113614950D01*
X158703101Y-113615950D01*
X158705101Y-113615950D01*
X158708101Y-113616950D01*
X158710101Y-113617950D01*
X158713101Y-113618950D01*
X158715101Y-113620950D01*
X158717101Y-113621950D01*
X158719101Y-113623950D01*
X158721101Y-113624950D01*
X158723101Y-113626950D01*
X158725101Y-113628950D01*
X158727101Y-113630950D01*
X158729101Y-113632950D01*
X158730101Y-113634950D01*
X158732101Y-113636950D01*
X158733101Y-113638950D01*
X158735101Y-113640950D01*
X158736101Y-113643950D01*
X158737101Y-113645950D01*
X158738101Y-113648950D01*
X158738101Y-113650950D01*
X158739101Y-113653950D01*
X158739101Y-113655950D01*
X158740101Y-113658950D01*
X158740101Y-113660950D01*
X158740101Y-113663950D01*
X158740101Y-113763950D01*
X158740101Y-113766950D01*
X158740101Y-113768950D01*
X158739101Y-113771950D01*
X158739101Y-113773950D01*
X158738101Y-113776950D01*
X158738101Y-113778950D01*
X158737101Y-113781950D01*
X158736101Y-113783950D01*
X158735101Y-113786950D01*
X158733101Y-113788950D01*
X158732101Y-113790950D01*
X158730101Y-113792950D01*
X158729101Y-113794950D01*
X158727101Y-113796950D01*
X158725101Y-113798950D01*
X158723101Y-113800950D01*
X158721101Y-113802950D01*
X158719101Y-113803950D01*
X158717101Y-113805950D01*
X158715101Y-113806950D01*
X158713101Y-113808950D01*
X158710101Y-113809950D01*
X158708101Y-113810950D01*
X158705101Y-113811950D01*
X158703101Y-113811950D01*
X158700101Y-113812950D01*
X158698101Y-113812950D01*
X158695101Y-113813950D01*
X158693101Y-113813950D01*
X158690101Y-113813950D01*
X158090101Y-113813950D01*
X158087101Y-113813950D01*
X158085101Y-113813950D01*
X158082101Y-113812950D01*
X158080101Y-113812950D01*
X158077101Y-113811950D01*
X158075101Y-113811950D01*
X158072101Y-113810950D01*
X158070101Y-113809950D01*
X158067101Y-113808950D01*
X158065101Y-113806950D01*
X158063101Y-113805950D01*
X158061101Y-113803950D01*
X158059101Y-113802950D01*
X158057101Y-113800950D01*
X158055101Y-113798950D01*
X158053101Y-113796950D01*
X158051101Y-113794950D01*
X158050101Y-113792950D01*
X158048101Y-113790950D01*
X158047101Y-113788950D01*
X158045101Y-113786950D01*
X158044101Y-113783950D01*
X158043101Y-113781950D01*
X158042101Y-113778950D01*
X158042101Y-113776950D01*
X158041101Y-113773950D01*
X158041101Y-113771950D01*
X158040101Y-113768950D01*
X158040101Y-113766950D01*
X158040101Y-113763950D01*
X158040101Y-113263950D01*
X158040101Y-113260950D01*
X158040101Y-113258950D01*
X158041101Y-113255950D01*
X158041101Y-113253950D01*
X158042101Y-113250950D01*
X158042101Y-113248950D01*
X158043101Y-113245950D01*
X158044101Y-113243950D01*
X158045101Y-113240950D01*
X158047101Y-113238950D01*
X158048101Y-113236950D01*
X158050101Y-113234950D01*
X158051101Y-113232950D01*
X158053101Y-113230950D01*
X158055101Y-113228950D01*
X158057101Y-113226950D01*
X158059101Y-113224950D01*
X158061101Y-113223950D01*
X158063101Y-113221950D01*
X158065101Y-113220950D01*
X158067101Y-113218950D01*
X158070101Y-113217950D01*
X158072101Y-113216950D01*
X158075101Y-113215950D01*
X158077101Y-113215950D01*
X158080101Y-113214950D01*
X158082101Y-113214950D01*
X158085101Y-113213950D01*
X158087101Y-113213950D01*
X158090101Y-113213950D01*
X158690101Y-113213950D01*
X158693101Y-113213950D01*
X158695101Y-113213950D01*
X158698101Y-113214950D01*
G36*
X158698101Y-113214950D02*
G01*
X158700101Y-113214950D01*
X158703101Y-113215950D01*
X158705101Y-113215950D01*
X158708101Y-113216950D01*
X158710101Y-113217950D01*
X158713101Y-113218950D01*
X158715101Y-113220950D01*
X158717101Y-113221950D01*
X158719101Y-113223950D01*
X158721101Y-113224950D01*
X158723101Y-113226950D01*
X158725101Y-113228950D01*
X158727101Y-113230950D01*
X158729101Y-113232950D01*
X158730101Y-113234950D01*
X158732101Y-113236950D01*
X158733101Y-113238950D01*
X158735101Y-113240950D01*
X158736101Y-113243950D01*
X158737101Y-113245950D01*
X158738101Y-113248950D01*
X158738101Y-113250950D01*
X158739101Y-113253950D01*
X158739101Y-113255950D01*
X158740101Y-113258950D01*
X158740101Y-113260950D01*
X158740101Y-113263950D01*
X158740101Y-113363950D01*
X158740101Y-113366950D01*
X158740101Y-113368950D01*
X158739101Y-113371950D01*
X158739101Y-113373950D01*
X158738101Y-113376950D01*
X158738101Y-113378950D01*
X158737101Y-113381950D01*
X158736101Y-113383950D01*
X158735101Y-113386950D01*
X158733101Y-113388950D01*
X158732101Y-113390950D01*
X158730101Y-113392950D01*
X158729101Y-113394950D01*
X158727101Y-113396950D01*
X158725101Y-113398950D01*
X158723101Y-113400950D01*
X158721101Y-113402950D01*
X158719101Y-113403950D01*
X158717101Y-113405950D01*
X158715101Y-113406950D01*
X158713101Y-113408950D01*
X158710101Y-113409950D01*
X158708101Y-113410950D01*
X158705101Y-113411950D01*
X158703101Y-113411950D01*
X158700101Y-113412950D01*
X158698101Y-113412950D01*
X158695101Y-113413950D01*
X158693101Y-113413950D01*
X158690101Y-113413950D01*
X158290101Y-113413950D01*
X158287101Y-113413950D01*
X158285101Y-113413950D01*
X158282101Y-113414950D01*
X158280101Y-113414950D01*
X158277101Y-113415950D01*
X158275101Y-113415950D01*
X158272101Y-113416950D01*
X158270101Y-113417950D01*
X158267101Y-113418950D01*
X158265101Y-113420950D01*
X158263101Y-113421950D01*
X158261101Y-113423950D01*
X158259101Y-113424950D01*
X158257101Y-113426950D01*
X158255101Y-113428950D01*
X158253101Y-113430950D01*
X158251101Y-113432950D01*
X158250101Y-113434950D01*
X158248101Y-113436950D01*
X158247101Y-113438950D01*
X158245101Y-113440950D01*
X158244101Y-113443950D01*
X158243101Y-113445950D01*
X158242101Y-113448950D01*
X158242101Y-113450950D01*
X158241101Y-113453950D01*
X158241101Y-113455950D01*
X158240101Y-113458950D01*
X158240101Y-113460950D01*
X158240101Y-113463950D01*
X158240101Y-113563950D01*
X158240101Y-113566950D01*
X158240101Y-113568950D01*
X158241101Y-113571950D01*
X158241101Y-113573950D01*
X158242101Y-113576950D01*
X158242101Y-113578950D01*
X158243101Y-113581950D01*
X158244101Y-113583950D01*
X158245101Y-113586950D01*
X158247101Y-113588950D01*
X158248101Y-113590950D01*
X158250101Y-113592950D01*
X158251101Y-113594950D01*
X158253101Y-113596950D01*
X158255101Y-113598950D01*
X158257101Y-113600950D01*
X158259101Y-113602950D01*
X158261101Y-113603950D01*
X158263101Y-113605950D01*
X158265101Y-113606950D01*
X158267101Y-113608950D01*
X158270101Y-113609950D01*
X158272101Y-113610950D01*
X158275101Y-113611950D01*
X158277101Y-113611950D01*
X158280101Y-113612950D01*
X158282101Y-113612950D01*
X158285101Y-113613950D01*
X158287101Y-113613950D01*
X158290101Y-113613950D01*
X158690101Y-113613950D01*
X158693101Y-113613950D01*
X158695101Y-113613950D01*
X158698101Y-113614950D01*
X158700101Y-113614950D01*
X158703101Y-113615950D01*
X158705101Y-113615950D01*
X158708101Y-113616950D01*
X158710101Y-113617950D01*
X158713101Y-113618950D01*
X158715101Y-113620950D01*
X158717101Y-113621950D01*
X158719101Y-113623950D01*
X158721101Y-113624950D01*
X158723101Y-113626950D01*
X158725101Y-113628950D01*
X158727101Y-113630950D01*
X158729101Y-113632950D01*
X158730101Y-113634950D01*
X158732101Y-113636950D01*
X158733101Y-113638950D01*
X158735101Y-113640950D01*
X158736101Y-113643950D01*
X158737101Y-113645950D01*
X158738101Y-113648950D01*
X158738101Y-113650950D01*
X158739101Y-113653950D01*
X158739101Y-113655950D01*
X158740101Y-113658950D01*
X158740101Y-113660950D01*
X158740101Y-113663950D01*
X158740101Y-113763950D01*
X158740101Y-113766950D01*
X158740101Y-113768950D01*
X158739101Y-113771950D01*
X158739101Y-113773950D01*
X158738101Y-113776950D01*
X158738101Y-113778950D01*
X158737101Y-113781950D01*
X158736101Y-113783950D01*
X158735101Y-113786950D01*
X158733101Y-113788950D01*
X158732101Y-113790950D01*
X158730101Y-113792950D01*
X158729101Y-113794950D01*
X158727101Y-113796950D01*
X158725101Y-113798950D01*
X158723101Y-113800950D01*
X158721101Y-113802950D01*
X158719101Y-113803950D01*
X158717101Y-113805950D01*
X158715101Y-113806950D01*
X158713101Y-113808950D01*
X158710101Y-113809950D01*
X158708101Y-113810950D01*
X158705101Y-113811950D01*
X158703101Y-113811950D01*
X158700101Y-113812950D01*
X158698101Y-113812950D01*
X158695101Y-113813950D01*
X158693101Y-113813950D01*
X158690101Y-113813950D01*
X158090101Y-113813950D01*
X158087101Y-113813950D01*
X158085101Y-113813950D01*
X158082101Y-113812950D01*
X158080101Y-113812950D01*
X158077101Y-113811950D01*
X158075101Y-113811950D01*
X158072101Y-113810950D01*
X158070101Y-113809950D01*
X158067101Y-113808950D01*
X158065101Y-113806950D01*
X158063101Y-113805950D01*
X158061101Y-113803950D01*
X158059101Y-113802950D01*
X158057101Y-113800950D01*
X158055101Y-113798950D01*
X158053101Y-113796950D01*
X158051101Y-113794950D01*
X158050101Y-113792950D01*
X158048101Y-113790950D01*
X158047101Y-113788950D01*
X158045101Y-113786950D01*
X158044101Y-113783950D01*
X158043101Y-113781950D01*
X158042101Y-113778950D01*
X158042101Y-113776950D01*
X158041101Y-113773950D01*
X158041101Y-113771950D01*
X158040101Y-113768950D01*
X158040101Y-113766950D01*
X158040101Y-113763950D01*
X158040101Y-113263950D01*
X158040101Y-113260950D01*
X158040101Y-113258950D01*
X158041101Y-113255950D01*
X158041101Y-113253950D01*
X158042101Y-113250950D01*
X158042101Y-113248950D01*
X158043101Y-113245950D01*
X158044101Y-113243950D01*
X158045101Y-113240950D01*
X158047101Y-113238950D01*
X158048101Y-113236950D01*
X158050101Y-113234950D01*
X158051101Y-113232950D01*
X158053101Y-113230950D01*
X158055101Y-113228950D01*
X158057101Y-113226950D01*
X158059101Y-113224950D01*
X158061101Y-113223950D01*
X158063101Y-113221950D01*
X158065101Y-113220950D01*
X158067101Y-113218950D01*
X158070101Y-113217950D01*
X158072101Y-113216950D01*
X158075101Y-113215950D01*
X158077101Y-113215950D01*
X158080101Y-113214950D01*
X158082101Y-113214950D01*
X158085101Y-113213950D01*
X158087101Y-113213950D01*
X158090101Y-113213950D01*
X158690101Y-113213950D01*
X158693101Y-113213950D01*
X158695101Y-113213950D01*
X158698101Y-113214950D01*
G37*
X158698101Y-114014950D02*
X158700101Y-114014950D01*
X158703101Y-114015950D01*
X158705101Y-114015950D01*
X158708101Y-114016950D01*
X158710101Y-114017950D01*
X158713101Y-114018950D01*
X158715101Y-114020950D01*
X158717101Y-114021950D01*
X158719101Y-114023950D01*
X158721101Y-114024950D01*
X158723101Y-114026950D01*
X158725101Y-114028950D01*
X158727101Y-114030950D01*
X158729101Y-114032950D01*
X158730101Y-114034950D01*
X158732101Y-114036950D01*
X158733101Y-114038950D01*
X158735101Y-114040950D01*
X158736101Y-114043950D01*
X158737101Y-114045950D01*
X158738101Y-114048950D01*
X158738101Y-114050950D01*
X158739101Y-114053950D01*
X158739101Y-114055950D01*
X158740101Y-114058950D01*
X158740101Y-114060950D01*
X158740101Y-114063950D01*
X158740101Y-114163950D01*
X158740101Y-114166950D01*
X158740101Y-114168950D01*
X158739101Y-114171950D01*
X158739101Y-114173950D01*
X158738101Y-114176950D01*
X158738101Y-114178950D01*
X158737101Y-114181950D01*
X158736101Y-114183950D01*
X158735101Y-114186950D01*
X158733101Y-114188950D01*
X158732101Y-114190950D01*
X158730101Y-114192950D01*
X158729101Y-114194950D01*
X158727101Y-114196950D01*
X158725101Y-114198950D01*
X158723101Y-114200950D01*
X158721101Y-114202950D01*
X158719101Y-114203950D01*
X158717101Y-114205950D01*
X158715101Y-114206950D01*
X158713101Y-114208950D01*
X158710101Y-114209950D01*
X158708101Y-114210950D01*
X158705101Y-114211950D01*
X158703101Y-114211950D01*
X158700101Y-114212950D01*
X158698101Y-114212950D01*
X158695101Y-114213950D01*
X158693101Y-114213950D01*
X158690101Y-114213950D01*
X158290101Y-114213950D01*
X158287101Y-114213950D01*
X158285101Y-114213950D01*
X158282101Y-114214950D01*
X158280101Y-114214950D01*
X158277101Y-114215950D01*
X158275101Y-114215950D01*
X158272101Y-114216950D01*
X158270101Y-114217950D01*
X158267101Y-114218950D01*
X158265101Y-114220950D01*
X158263101Y-114221950D01*
X158261101Y-114223950D01*
X158259101Y-114224950D01*
X158257101Y-114226950D01*
X158255101Y-114228950D01*
X158253101Y-114230950D01*
X158251101Y-114232950D01*
X158250101Y-114234950D01*
X158248101Y-114236950D01*
X158247101Y-114238950D01*
X158245101Y-114240950D01*
X158244101Y-114243950D01*
X158243101Y-114245950D01*
X158242101Y-114248950D01*
X158242101Y-114250950D01*
X158241101Y-114253950D01*
X158241101Y-114255950D01*
X158240101Y-114258950D01*
X158240101Y-114260950D01*
X158240101Y-114263950D01*
X158240101Y-114363950D01*
X158240101Y-114366950D01*
X158240101Y-114368950D01*
X158241101Y-114371950D01*
X158241101Y-114373950D01*
X158242101Y-114376950D01*
X158242101Y-114378950D01*
X158243101Y-114381950D01*
X158244101Y-114383950D01*
X158245101Y-114386950D01*
X158247101Y-114388950D01*
X158248101Y-114390950D01*
X158250101Y-114392950D01*
X158251101Y-114394950D01*
X158253101Y-114396950D01*
X158255101Y-114398950D01*
X158257101Y-114400950D01*
X158259101Y-114402950D01*
X158261101Y-114403950D01*
X158263101Y-114405950D01*
X158265101Y-114406950D01*
X158267101Y-114408950D01*
X158270101Y-114409950D01*
X158272101Y-114410950D01*
X158275101Y-114411950D01*
X158277101Y-114411950D01*
X158280101Y-114412950D01*
X158282101Y-114412950D01*
X158285101Y-114413950D01*
X158287101Y-114413950D01*
X158290101Y-114413950D01*
X158690101Y-114413950D01*
X158693101Y-114413950D01*
X158695101Y-114413950D01*
X158698101Y-114414950D01*
X158700101Y-114414950D01*
X158703101Y-114415950D01*
X158705101Y-114415950D01*
X158708101Y-114416950D01*
X158710101Y-114417950D01*
X158713101Y-114418950D01*
X158715101Y-114420950D01*
X158717101Y-114421950D01*
X158719101Y-114423950D01*
X158721101Y-114424950D01*
X158723101Y-114426950D01*
X158725101Y-114428950D01*
X158727101Y-114430950D01*
X158729101Y-114432950D01*
X158730101Y-114434950D01*
X158732101Y-114436950D01*
X158733101Y-114438950D01*
X158735101Y-114440950D01*
X158736101Y-114443950D01*
X158737101Y-114445950D01*
X158738101Y-114448950D01*
X158738101Y-114450950D01*
X158739101Y-114453950D01*
X158739101Y-114455950D01*
X158740101Y-114458950D01*
X158740101Y-114460950D01*
X158740101Y-114463950D01*
X158740101Y-114563950D01*
X158740101Y-114566950D01*
X158740101Y-114568950D01*
X158739101Y-114571950D01*
X158739101Y-114573950D01*
X158738101Y-114576950D01*
X158738101Y-114578950D01*
X158737101Y-114581950D01*
X158736101Y-114583950D01*
X158735101Y-114586950D01*
X158733101Y-114588950D01*
X158732101Y-114590950D01*
X158730101Y-114592950D01*
X158729101Y-114594950D01*
X158727101Y-114596950D01*
X158725101Y-114598950D01*
X158723101Y-114600950D01*
X158721101Y-114602950D01*
X158719101Y-114603950D01*
X158717101Y-114605950D01*
X158715101Y-114606950D01*
X158713101Y-114608950D01*
X158710101Y-114609950D01*
X158708101Y-114610950D01*
X158705101Y-114611950D01*
X158703101Y-114611950D01*
X158700101Y-114612950D01*
X158698101Y-114612950D01*
X158695101Y-114613950D01*
X158693101Y-114613950D01*
X158690101Y-114613950D01*
X158090101Y-114613950D01*
X158087101Y-114613950D01*
X158085101Y-114613950D01*
X158082101Y-114612950D01*
X158080101Y-114612950D01*
X158077101Y-114611950D01*
X158075101Y-114611950D01*
X158072101Y-114610950D01*
X158070101Y-114609950D01*
X158067101Y-114608950D01*
X158065101Y-114606950D01*
X158063101Y-114605950D01*
X158061101Y-114603950D01*
X158059101Y-114602950D01*
X158057101Y-114600950D01*
X158055101Y-114598950D01*
X158053101Y-114596950D01*
X158051101Y-114594950D01*
X158050101Y-114592950D01*
X158048101Y-114590950D01*
X158047101Y-114588950D01*
X158045101Y-114586950D01*
X158044101Y-114583950D01*
X158043101Y-114581950D01*
X158042101Y-114578950D01*
X158042101Y-114576950D01*
X158041101Y-114573950D01*
X158041101Y-114571950D01*
X158040101Y-114568950D01*
X158040101Y-114566950D01*
X158040101Y-114563950D01*
X158040101Y-114063950D01*
X158040101Y-114060950D01*
X158040101Y-114058950D01*
X158041101Y-114055950D01*
X158041101Y-114053950D01*
X158042101Y-114050950D01*
X158042101Y-114048950D01*
X158043101Y-114045950D01*
X158044101Y-114043950D01*
X158045101Y-114040950D01*
X158047101Y-114038950D01*
X158048101Y-114036950D01*
X158050101Y-114034950D01*
X158051101Y-114032950D01*
X158053101Y-114030950D01*
X158055101Y-114028950D01*
X158057101Y-114026950D01*
X158059101Y-114024950D01*
X158061101Y-114023950D01*
X158063101Y-114021950D01*
X158065101Y-114020950D01*
X158067101Y-114018950D01*
X158070101Y-114017950D01*
X158072101Y-114016950D01*
X158075101Y-114015950D01*
X158077101Y-114015950D01*
X158080101Y-114014950D01*
X158082101Y-114014950D01*
X158085101Y-114013950D01*
X158087101Y-114013950D01*
X158090101Y-114013950D01*
X158690101Y-114013950D01*
X158693101Y-114013950D01*
X158695101Y-114013950D01*
X158698101Y-114014950D01*
G36*
X158698101Y-114014950D02*
G01*
X158700101Y-114014950D01*
X158703101Y-114015950D01*
X158705101Y-114015950D01*
X158708101Y-114016950D01*
X158710101Y-114017950D01*
X158713101Y-114018950D01*
X158715101Y-114020950D01*
X158717101Y-114021950D01*
X158719101Y-114023950D01*
X158721101Y-114024950D01*
X158723101Y-114026950D01*
X158725101Y-114028950D01*
X158727101Y-114030950D01*
X158729101Y-114032950D01*
X158730101Y-114034950D01*
X158732101Y-114036950D01*
X158733101Y-114038950D01*
X158735101Y-114040950D01*
X158736101Y-114043950D01*
X158737101Y-114045950D01*
X158738101Y-114048950D01*
X158738101Y-114050950D01*
X158739101Y-114053950D01*
X158739101Y-114055950D01*
X158740101Y-114058950D01*
X158740101Y-114060950D01*
X158740101Y-114063950D01*
X158740101Y-114163950D01*
X158740101Y-114166950D01*
X158740101Y-114168950D01*
X158739101Y-114171950D01*
X158739101Y-114173950D01*
X158738101Y-114176950D01*
X158738101Y-114178950D01*
X158737101Y-114181950D01*
X158736101Y-114183950D01*
X158735101Y-114186950D01*
X158733101Y-114188950D01*
X158732101Y-114190950D01*
X158730101Y-114192950D01*
X158729101Y-114194950D01*
X158727101Y-114196950D01*
X158725101Y-114198950D01*
X158723101Y-114200950D01*
X158721101Y-114202950D01*
X158719101Y-114203950D01*
X158717101Y-114205950D01*
X158715101Y-114206950D01*
X158713101Y-114208950D01*
X158710101Y-114209950D01*
X158708101Y-114210950D01*
X158705101Y-114211950D01*
X158703101Y-114211950D01*
X158700101Y-114212950D01*
X158698101Y-114212950D01*
X158695101Y-114213950D01*
X158693101Y-114213950D01*
X158690101Y-114213950D01*
X158290101Y-114213950D01*
X158287101Y-114213950D01*
X158285101Y-114213950D01*
X158282101Y-114214950D01*
X158280101Y-114214950D01*
X158277101Y-114215950D01*
X158275101Y-114215950D01*
X158272101Y-114216950D01*
X158270101Y-114217950D01*
X158267101Y-114218950D01*
X158265101Y-114220950D01*
X158263101Y-114221950D01*
X158261101Y-114223950D01*
X158259101Y-114224950D01*
X158257101Y-114226950D01*
X158255101Y-114228950D01*
X158253101Y-114230950D01*
X158251101Y-114232950D01*
X158250101Y-114234950D01*
X158248101Y-114236950D01*
X158247101Y-114238950D01*
X158245101Y-114240950D01*
X158244101Y-114243950D01*
X158243101Y-114245950D01*
X158242101Y-114248950D01*
X158242101Y-114250950D01*
X158241101Y-114253950D01*
X158241101Y-114255950D01*
X158240101Y-114258950D01*
X158240101Y-114260950D01*
X158240101Y-114263950D01*
X158240101Y-114363950D01*
X158240101Y-114366950D01*
X158240101Y-114368950D01*
X158241101Y-114371950D01*
X158241101Y-114373950D01*
X158242101Y-114376950D01*
X158242101Y-114378950D01*
X158243101Y-114381950D01*
X158244101Y-114383950D01*
X158245101Y-114386950D01*
X158247101Y-114388950D01*
X158248101Y-114390950D01*
X158250101Y-114392950D01*
X158251101Y-114394950D01*
X158253101Y-114396950D01*
X158255101Y-114398950D01*
X158257101Y-114400950D01*
X158259101Y-114402950D01*
X158261101Y-114403950D01*
X158263101Y-114405950D01*
X158265101Y-114406950D01*
X158267101Y-114408950D01*
X158270101Y-114409950D01*
X158272101Y-114410950D01*
X158275101Y-114411950D01*
X158277101Y-114411950D01*
X158280101Y-114412950D01*
X158282101Y-114412950D01*
X158285101Y-114413950D01*
X158287101Y-114413950D01*
X158290101Y-114413950D01*
X158690101Y-114413950D01*
X158693101Y-114413950D01*
X158695101Y-114413950D01*
X158698101Y-114414950D01*
X158700101Y-114414950D01*
X158703101Y-114415950D01*
X158705101Y-114415950D01*
X158708101Y-114416950D01*
X158710101Y-114417950D01*
X158713101Y-114418950D01*
X158715101Y-114420950D01*
X158717101Y-114421950D01*
X158719101Y-114423950D01*
X158721101Y-114424950D01*
X158723101Y-114426950D01*
X158725101Y-114428950D01*
X158727101Y-114430950D01*
X158729101Y-114432950D01*
X158730101Y-114434950D01*
X158732101Y-114436950D01*
X158733101Y-114438950D01*
X158735101Y-114440950D01*
X158736101Y-114443950D01*
X158737101Y-114445950D01*
X158738101Y-114448950D01*
X158738101Y-114450950D01*
X158739101Y-114453950D01*
X158739101Y-114455950D01*
X158740101Y-114458950D01*
X158740101Y-114460950D01*
X158740101Y-114463950D01*
X158740101Y-114563950D01*
X158740101Y-114566950D01*
X158740101Y-114568950D01*
X158739101Y-114571950D01*
X158739101Y-114573950D01*
X158738101Y-114576950D01*
X158738101Y-114578950D01*
X158737101Y-114581950D01*
X158736101Y-114583950D01*
X158735101Y-114586950D01*
X158733101Y-114588950D01*
X158732101Y-114590950D01*
X158730101Y-114592950D01*
X158729101Y-114594950D01*
X158727101Y-114596950D01*
X158725101Y-114598950D01*
X158723101Y-114600950D01*
X158721101Y-114602950D01*
X158719101Y-114603950D01*
X158717101Y-114605950D01*
X158715101Y-114606950D01*
X158713101Y-114608950D01*
X158710101Y-114609950D01*
X158708101Y-114610950D01*
X158705101Y-114611950D01*
X158703101Y-114611950D01*
X158700101Y-114612950D01*
X158698101Y-114612950D01*
X158695101Y-114613950D01*
X158693101Y-114613950D01*
X158690101Y-114613950D01*
X158090101Y-114613950D01*
X158087101Y-114613950D01*
X158085101Y-114613950D01*
X158082101Y-114612950D01*
X158080101Y-114612950D01*
X158077101Y-114611950D01*
X158075101Y-114611950D01*
X158072101Y-114610950D01*
X158070101Y-114609950D01*
X158067101Y-114608950D01*
X158065101Y-114606950D01*
X158063101Y-114605950D01*
X158061101Y-114603950D01*
X158059101Y-114602950D01*
X158057101Y-114600950D01*
X158055101Y-114598950D01*
X158053101Y-114596950D01*
X158051101Y-114594950D01*
X158050101Y-114592950D01*
X158048101Y-114590950D01*
X158047101Y-114588950D01*
X158045101Y-114586950D01*
X158044101Y-114583950D01*
X158043101Y-114581950D01*
X158042101Y-114578950D01*
X158042101Y-114576950D01*
X158041101Y-114573950D01*
X158041101Y-114571950D01*
X158040101Y-114568950D01*
X158040101Y-114566950D01*
X158040101Y-114563950D01*
X158040101Y-114063950D01*
X158040101Y-114060950D01*
X158040101Y-114058950D01*
X158041101Y-114055950D01*
X158041101Y-114053950D01*
X158042101Y-114050950D01*
X158042101Y-114048950D01*
X158043101Y-114045950D01*
X158044101Y-114043950D01*
X158045101Y-114040950D01*
X158047101Y-114038950D01*
X158048101Y-114036950D01*
X158050101Y-114034950D01*
X158051101Y-114032950D01*
X158053101Y-114030950D01*
X158055101Y-114028950D01*
X158057101Y-114026950D01*
X158059101Y-114024950D01*
X158061101Y-114023950D01*
X158063101Y-114021950D01*
X158065101Y-114020950D01*
X158067101Y-114018950D01*
X158070101Y-114017950D01*
X158072101Y-114016950D01*
X158075101Y-114015950D01*
X158077101Y-114015950D01*
X158080101Y-114014950D01*
X158082101Y-114014950D01*
X158085101Y-114013950D01*
X158087101Y-114013950D01*
X158090101Y-114013950D01*
X158690101Y-114013950D01*
X158693101Y-114013950D01*
X158695101Y-114013950D01*
X158698101Y-114014950D01*
G37*
%TO.C,Q202*%
X124171198Y-107568400D02*
X124171198Y-108128398D01*
X123921198Y-108128399D01*
X123921198Y-107568399D01*
X124171198Y-107568400D01*
G36*
X124171198Y-107568400D02*
G01*
X124171198Y-108128398D01*
X123921198Y-108128399D01*
X123921198Y-107568399D01*
X124171198Y-107568400D01*
G37*
X124296198Y-107078399D02*
X124046198Y-107078399D01*
X124046198Y-106748399D01*
X124296197Y-106748399D01*
X124296198Y-107078399D01*
G36*
X124296198Y-107078399D02*
G01*
X124046198Y-107078399D01*
X124046198Y-106748399D01*
X124296197Y-106748399D01*
X124296198Y-107078399D01*
G37*
X124296197Y-108948399D02*
X124046198Y-108948399D01*
X124046198Y-108618399D01*
X124296198Y-108618399D01*
X124296197Y-108948399D01*
G36*
X124296197Y-108948399D02*
G01*
X124046198Y-108948399D01*
X124046198Y-108618399D01*
X124296198Y-108618399D01*
X124296197Y-108948399D01*
G37*
X124946198Y-107078399D02*
X124696198Y-107078399D01*
X124696198Y-106748399D01*
X124946198Y-106748399D01*
X124946198Y-107078399D01*
G36*
X124946198Y-107078399D02*
G01*
X124696198Y-107078399D01*
X124696198Y-106748399D01*
X124946198Y-106748399D01*
X124946198Y-107078399D01*
G37*
X124946198Y-108948399D02*
X124696198Y-108948399D01*
X124696198Y-108618399D01*
X124946198Y-108618399D01*
X124946198Y-108948399D01*
G36*
X124946198Y-108948399D02*
G01*
X124696198Y-108948399D01*
X124696198Y-108618399D01*
X124946198Y-108618399D01*
X124946198Y-108948399D01*
G37*
X125596198Y-107078399D02*
X125346198Y-107078399D01*
X125346199Y-106748399D01*
X125596198Y-106748399D01*
X125596198Y-107078399D01*
G36*
X125596198Y-107078399D02*
G01*
X125346198Y-107078399D01*
X125346199Y-106748399D01*
X125596198Y-106748399D01*
X125596198Y-107078399D01*
G37*
X125596198Y-108948399D02*
X125346199Y-108948399D01*
X125346198Y-108618399D01*
X125596198Y-108618399D01*
X125596198Y-108948399D01*
G36*
X125596198Y-108948399D02*
G01*
X125346199Y-108948399D01*
X125346198Y-108618399D01*
X125596198Y-108618399D01*
X125596198Y-108948399D01*
G37*
X125631198Y-108298400D02*
X124581197Y-108298399D01*
X124581197Y-107398399D01*
X125631198Y-107398398D01*
X125631198Y-108298400D01*
G36*
X125631198Y-108298400D02*
G01*
X124581197Y-108298399D01*
X124581197Y-107398399D01*
X125631198Y-107398398D01*
X125631198Y-108298400D01*
G37*
%TO.C,Q201*%
X122241800Y-107398400D02*
X122241800Y-108298400D01*
X121191799Y-108298401D01*
X121191799Y-107398399D01*
X122241800Y-107398400D01*
G36*
X122241800Y-107398400D02*
G01*
X122241800Y-108298400D01*
X121191799Y-108298401D01*
X121191799Y-107398399D01*
X122241800Y-107398400D01*
G37*
X121476799Y-107078400D02*
X121226799Y-107078400D01*
X121226799Y-106748400D01*
X121476798Y-106748400D01*
X121476799Y-107078400D01*
G36*
X121476799Y-107078400D02*
G01*
X121226799Y-107078400D01*
X121226799Y-106748400D01*
X121476798Y-106748400D01*
X121476799Y-107078400D01*
G37*
X121476798Y-108948400D02*
X121226799Y-108948400D01*
X121226799Y-108618400D01*
X121476799Y-108618400D01*
X121476798Y-108948400D01*
G36*
X121476798Y-108948400D02*
G01*
X121226799Y-108948400D01*
X121226799Y-108618400D01*
X121476799Y-108618400D01*
X121476798Y-108948400D01*
G37*
X122126799Y-107078400D02*
X121876799Y-107078400D01*
X121876799Y-106748400D01*
X122126799Y-106748400D01*
X122126799Y-107078400D01*
G36*
X122126799Y-107078400D02*
G01*
X121876799Y-107078400D01*
X121876799Y-106748400D01*
X122126799Y-106748400D01*
X122126799Y-107078400D01*
G37*
X122126799Y-108948400D02*
X121876799Y-108948400D01*
X121876799Y-108618400D01*
X122126799Y-108618400D01*
X122126799Y-108948400D01*
G36*
X122126799Y-108948400D02*
G01*
X121876799Y-108948400D01*
X121876799Y-108618400D01*
X122126799Y-108618400D01*
X122126799Y-108948400D01*
G37*
X122776799Y-107078400D02*
X122526799Y-107078400D01*
X122526800Y-106748400D01*
X122776799Y-106748400D01*
X122776799Y-107078400D01*
G36*
X122776799Y-107078400D02*
G01*
X122526799Y-107078400D01*
X122526800Y-106748400D01*
X122776799Y-106748400D01*
X122776799Y-107078400D01*
G37*
X122776799Y-108948400D02*
X122526800Y-108948400D01*
X122526799Y-108618400D01*
X122776799Y-108618400D01*
X122776799Y-108948400D01*
G36*
X122776799Y-108948400D02*
G01*
X122526800Y-108948400D01*
X122526799Y-108618400D01*
X122776799Y-108618400D01*
X122776799Y-108948400D01*
G37*
X122901799Y-108128400D02*
X122651799Y-108128399D01*
X122651799Y-107568401D01*
X122901799Y-107568400D01*
X122901799Y-108128400D01*
G36*
X122901799Y-108128400D02*
G01*
X122651799Y-108128399D01*
X122651799Y-107568401D01*
X122901799Y-107568400D01*
X122901799Y-108128400D01*
G37*
%TD*%
D11*
%TO.C,C212*%
X117576601Y-112496600D03*
X116616601Y-112496600D03*
%TD*%
D12*
%TO.C,J601*%
X166500000Y-122510000D03*
X166500000Y-121510000D03*
D13*
X166500000Y-120260000D03*
X166500000Y-119260000D03*
X166500000Y-118760000D03*
X166500000Y-117760000D03*
D12*
X166500000Y-116510000D03*
X166500000Y-115510000D03*
D13*
X166500000Y-117260000D03*
X166500000Y-118260000D03*
X166500000Y-119760000D03*
X166500000Y-120760000D03*
%TD*%
D14*
%TO.C,U305*%
X160020000Y-100045899D03*
X160020000Y-99395899D03*
X160020000Y-98745899D03*
X160020000Y-98095899D03*
X156480000Y-98095899D03*
X156480000Y-98745899D03*
X156480000Y-99395899D03*
X156480000Y-100045899D03*
%TD*%
D15*
%TO.C,R203*%
X148358903Y-111650751D03*
X149378901Y-111650751D03*
%TD*%
D16*
%TO.C,R207*%
X160988700Y-112158750D03*
X159968702Y-112158750D03*
%TD*%
D15*
%TO.C,R407*%
X119225601Y-131899781D03*
X120245599Y-131899781D03*
%TD*%
D17*
%TO.C,U406*%
X137200200Y-132374400D03*
X137200201Y-131724400D03*
X137200200Y-131074400D03*
X135240200Y-131074400D03*
X135240200Y-132374400D03*
%TD*%
D18*
%TO.C,C411*%
X126644400Y-129082800D03*
X126644400Y-126132798D03*
%TD*%
D19*
%TO.C,U601*%
X155652701Y-122306149D03*
X155652701Y-122706151D03*
X155652701Y-123106150D03*
X155652701Y-123506149D03*
X155652701Y-123906151D03*
D20*
X156300500Y-124553950D03*
X156700502Y-124553950D03*
X157100501Y-124553950D03*
X157500500Y-124553950D03*
X157900502Y-124553950D03*
D19*
X158548301Y-123906151D03*
X158548301Y-123506149D03*
X158548301Y-123106150D03*
X158548301Y-122706151D03*
X158548301Y-122306149D03*
D20*
X157900502Y-121658350D03*
X157500500Y-121658350D03*
X157100501Y-121658350D03*
X156700502Y-121658350D03*
X156300500Y-121658350D03*
D21*
X157100501Y-123106150D03*
%TD*%
D22*
%TO.C,C217*%
X127897311Y-115237199D03*
X127897311Y-114277199D03*
%TD*%
D23*
%TO.C,R405*%
X111556800Y-130913599D03*
X111556800Y-129893601D03*
%TD*%
D15*
%TO.C,R315*%
X158494001Y-104343200D03*
X159513999Y-104343200D03*
%TD*%
D24*
%TO.C,C422*%
X134872199Y-118647598D03*
X137822201Y-118647598D03*
%TD*%
D23*
%TO.C,R406*%
X143052800Y-132234399D03*
X143052800Y-131214401D03*
%TD*%
D25*
%TO.C,Q308*%
X159504000Y-101813600D03*
X158504000Y-101813600D03*
X159004000Y-103113599D03*
%TD*%
D15*
%TO.C,R204*%
X148384801Y-110591601D03*
X149404799Y-110591601D03*
%TD*%
%TO.C,R211*%
X116612002Y-111429800D03*
X117632000Y-111429800D03*
%TD*%
D26*
%TO.C,C602*%
X153226902Y-122168950D03*
X153226902Y-123128950D03*
%TD*%
D18*
%TO.C,C417*%
X138277600Y-127132999D03*
X138277600Y-124182997D03*
%TD*%
D27*
%TO.C,U201*%
X158390101Y-114163950D03*
X158390101Y-113363950D03*
D28*
X158390101Y-112913950D03*
X158390101Y-112513950D03*
X158390101Y-112113950D03*
X158390101Y-111713950D03*
X158390101Y-111313950D03*
X158390101Y-110913950D03*
D27*
X158390101Y-110163950D03*
X158390101Y-109363950D03*
D29*
X157640101Y-108563950D03*
X157240101Y-108563950D03*
X156840101Y-108563950D03*
X156440101Y-108563950D03*
X156040101Y-108563950D03*
X155640101Y-108563950D03*
X155240101Y-108563950D03*
X154840101Y-108563950D03*
X154440101Y-108563950D03*
X154040101Y-108563950D03*
X153640101Y-108563950D03*
X153240101Y-108563950D03*
X152840101Y-108563950D03*
X152440101Y-108563950D03*
D28*
X151690101Y-109313950D03*
X151690101Y-109713950D03*
X151690101Y-110113950D03*
X151690101Y-110513950D03*
X151690101Y-110913950D03*
X151690101Y-111313950D03*
X151690101Y-111713950D03*
X151690101Y-112113950D03*
X151690101Y-112513950D03*
X151690101Y-112913950D03*
X151690101Y-113313950D03*
X151690101Y-113713950D03*
X151690101Y-114113950D03*
X151690101Y-114513950D03*
D29*
X152440101Y-115263950D03*
X152840101Y-115263950D03*
X153240101Y-115263950D03*
X153640101Y-115263950D03*
X154040101Y-115263950D03*
X154440101Y-115263950D03*
X154840101Y-115263950D03*
X155240101Y-115263950D03*
X155640101Y-115263950D03*
X156040101Y-115263950D03*
X156440101Y-115263950D03*
X156840101Y-115263950D03*
X157240101Y-115263950D03*
X157640101Y-115263950D03*
%TD*%
D11*
%TO.C,C413*%
X120215600Y-129741399D03*
X119255600Y-129741399D03*
%TD*%
D30*
%TO.C,L404*%
X133451600Y-124968000D03*
X133451600Y-121267998D03*
%TD*%
D16*
%TO.C,R410*%
X132335999Y-128858397D03*
X131316001Y-128858397D03*
%TD*%
D31*
%TO.C,C213*%
X114660801Y-111429800D03*
X115620801Y-111429800D03*
%TD*%
D11*
%TO.C,C420*%
X131061400Y-117652800D03*
X130101400Y-117652800D03*
%TD*%
D23*
%TO.C,R601*%
X157011502Y-127959550D03*
X157011502Y-126939552D03*
%TD*%
D32*
%TO.C,U403*%
X123498737Y-130544189D03*
X123498737Y-130044063D03*
X123498737Y-129543937D03*
X123498737Y-129043811D03*
X121898537Y-129043811D03*
X121898537Y-129543937D03*
X121898537Y-130044063D03*
X121898537Y-130544189D03*
%TD*%
D18*
%TO.C,C418*%
X140613599Y-127132998D03*
X140613599Y-124182996D03*
%TD*%
D26*
%TO.C,C211*%
X154076400Y-117630000D03*
X154076400Y-118590000D03*
%TD*%
D11*
%TO.C,C419*%
X132306000Y-127791598D03*
X131346000Y-127791598D03*
%TD*%
D33*
%TO.C,U302*%
X162494400Y-98420899D03*
X162494399Y-99070899D03*
X162494400Y-99720899D03*
X164454400Y-99720899D03*
X164454400Y-98420899D03*
%TD*%
D16*
%TO.C,R201*%
X149330100Y-116654550D03*
X148310102Y-116654550D03*
%TD*%
D32*
%TO.C,U405*%
X135586674Y-128581487D03*
X135586674Y-128081361D03*
X135586674Y-127581235D03*
X135586674Y-127081109D03*
X133986474Y-127081109D03*
X133986474Y-127581235D03*
X133986474Y-128081361D03*
X133986474Y-128581487D03*
%TD*%
D26*
%TO.C,C210*%
X153111200Y-117630000D03*
X153111200Y-118590000D03*
%TD*%
D15*
%TO.C,R322*%
X156512801Y-104343200D03*
X157532799Y-104343200D03*
%TD*%
D26*
%TO.C,C216*%
X128964111Y-114274030D03*
X128964111Y-115234030D03*
%TD*%
D23*
%TO.C,R212*%
X127914400Y-113285999D03*
X127914400Y-112266001D03*
%TD*%
D15*
%TO.C,R210*%
X161949902Y-111091950D03*
X162969900Y-111091950D03*
%TD*%
D34*
%TO.C,Q206*%
X129042400Y-122513600D03*
X130342400Y-122513600D03*
X129692400Y-120513600D03*
%TD*%
D22*
%TO.C,C215*%
X128981200Y-113281400D03*
X128981200Y-112321400D03*
%TD*%
D26*
%TO.C,C601*%
X158078302Y-126944151D03*
X158078302Y-127904151D03*
%TD*%
D35*
%TO.C,U404*%
X115631200Y-131355781D03*
X116281200Y-131355782D03*
X116931200Y-131355781D03*
X116931200Y-129395781D03*
X115631200Y-129395781D03*
%TD*%
D15*
%TO.C,R202*%
X148358903Y-112717551D03*
X149378901Y-112717551D03*
%TD*%
%TO.C,R205*%
X148384801Y-109524800D03*
X149404799Y-109524800D03*
%TD*%
D24*
%TO.C,C416*%
X121765799Y-111912399D03*
X124715801Y-111912399D03*
%TD*%
%TO.C,C421*%
X134872199Y-116310795D03*
X137822201Y-116310795D03*
%TD*%
D15*
%TO.C,R209*%
X159968702Y-111091950D03*
X160988700Y-111091950D03*
%TD*%
D36*
%TO.C,Q205*%
X113858800Y-113751600D03*
X113858800Y-115051600D03*
X115858800Y-114401600D03*
%TD*%
D37*
%TO.C,R213*%
X113639600Y-111504001D03*
X113639600Y-112523999D03*
%TD*%
D15*
%TO.C,R409*%
X131316001Y-129925198D03*
X132335999Y-129925198D03*
%TD*%
D38*
%TO.C,D304*%
X167843100Y-104698800D03*
X169418100Y-104698800D03*
%TD*%
D16*
%TO.C,R214*%
X130202399Y-123901200D03*
X129182401Y-123901200D03*
%TD*%
D39*
%TO.C,U407*%
X114188000Y-129399601D03*
X113538000Y-129399600D03*
X112888000Y-129399601D03*
X112888000Y-131359601D03*
X114188000Y-131359601D03*
%TD*%
D18*
%TO.C,C412*%
X128978399Y-129082800D03*
X128978399Y-126132798D03*
%TD*%
D31*
%TO.C,C414*%
X122049600Y-110083600D03*
X123009600Y-110083600D03*
%TD*%
D17*
%TO.C,U408*%
X141289600Y-132374400D03*
X141289601Y-131724400D03*
X141289600Y-131074400D03*
X139329600Y-131074400D03*
X139329600Y-132374400D03*
%TD*%
D25*
%TO.C,Q309*%
X161840800Y-101813600D03*
X160840800Y-101813600D03*
X161340800Y-103113599D03*
%TD*%
D38*
%TO.C,D303*%
X167843100Y-107696000D03*
X169418100Y-107696000D03*
%TD*%
%TO.C,D302*%
X167842500Y-106200000D03*
X169417500Y-106200000D03*
%TD*%
D24*
%TO.C,C415*%
X121765799Y-114221382D03*
X124715801Y-114221382D03*
%TD*%
D31*
%TO.C,C214*%
X114660800Y-112496600D03*
X115620800Y-112496600D03*
%TD*%
D16*
%TO.C,R408*%
X120245599Y-130832980D03*
X119225601Y-130832980D03*
%TD*%
D15*
%TO.C,R317*%
X160475201Y-104343200D03*
X161495199Y-104343200D03*
%TD*%
D40*
%TO.C,L403*%
X118567200Y-126681601D03*
X118567200Y-117361599D03*
%TD*%
D25*
%TO.C,Q307*%
X157167200Y-101813600D03*
X156167200Y-101813600D03*
X156667200Y-103113599D03*
%TD*%
D15*
%TO.C,R208*%
X161949902Y-112158750D03*
X162969900Y-112158750D03*
%TD*%
M02*
